<svg width="176" height="48" viewBox="0 0 176 48" fill="none" xmlns="http://www.w3.org/2000/svg">
<path d="M39.3556 33.1343H39.116C37.4387 33.1343 36.1213 33.8532 34.8275 34.8477C34.6362 33.6856 34.5756 32.5718 34.5756 31.5897C34.5756 30.4636 34.6599 29.5298 34.7195 28.9179C35.2111 29.2295 35.3541 29.8527 35.3541 30.4152C35.3541 30.8585 35.2697 31.2781 35.1988 31.4693C35.7017 30.8708 35.858 30.2352 35.858 29.6964C35.858 29.0731 35.6544 28.5703 35.534 28.3666C36.3362 29.0135 36.4565 29.828 36.4565 30.4389C36.4565 30.5828 36.4442 30.7021 36.4442 30.8225C36.5995 30.5109 36.7198 30.1036 36.7198 29.6604C36.7198 29.0012 36.4678 28.271 35.7377 27.6241C36.8278 27.8874 37.271 28.9179 37.2834 29.6964C37.2834 29.7087 37.2834 29.72 37.307 29.7324C37.379 29.4691 37.4027 29.2295 37.4027 29.0135C37.4027 28.7502 37.3543 28.5106 37.2834 28.307C36.9594 27.4565 36.1089 27.0852 35.6904 27.0256C35.7983 27.0132 35.894 27.0132 35.9896 27.0132C36.6242 27.0132 37.0437 27.2292 37.2834 27.4441C37.4633 27.5994 37.5466 27.7434 37.6073 27.8154C37.5713 27.5038 37.452 27.2529 37.2834 27.0369C36.9358 26.6296 36.3969 26.4384 35.894 26.4384C35.678 26.4384 35.4744 26.4744 35.3068 26.5463C35.5587 26.1751 35.9896 26.0311 36.3732 26.0311C36.5532 26.0311 36.7208 26.0671 36.8525 26.1154C36.5645 25.7802 36.1819 25.6125 35.7983 25.6125C35.3911 25.6125 34.9962 25.8038 34.7206 26.2234C34.6609 26.1278 34.6126 26.0075 34.5529 25.8882C34.4573 25.6845 34.3977 25.4449 34.3493 25.2176C34.3493 25.194 34.3257 25.1816 34.301 25.1816C34.2763 25.1816 34.265 25.194 34.2526 25.2176C34.2043 25.4449 34.1447 25.6845 34.049 25.8882C34.0007 26.0075 33.941 26.1154 33.869 26.2234C33.6058 25.8162 33.2098 25.6125 32.8149 25.6125C32.42 25.6125 32.0601 25.7925 31.7608 26.1278C31.8924 26.0681 32.0601 26.0321 32.24 26.0321C32.6113 26.0321 33.0309 26.1874 33.2818 26.5597C33.1019 26.4877 32.8982 26.4517 32.6833 26.4517C32.1917 26.4517 31.6528 26.6554 31.3176 27.0503C31.1376 27.2539 31.0183 27.5172 31.006 27.8411C31.0543 27.7568 31.1499 27.6138 31.3176 27.4575C31.5572 27.2415 31.9521 27.0379 32.563 27.0379C32.6709 27.0379 32.7789 27.0503 32.9106 27.0616C32.491 27.1099 31.6405 27.4812 31.3176 28.3317C31.2456 28.5353 31.1983 28.7626 31.1983 29.0145C31.1983 29.2418 31.2343 29.4814 31.3176 29.757V29.721C31.3299 28.9549 31.7731 27.9121 32.8746 27.6611C32.1434 28.308 31.8801 29.0269 31.8801 29.6861C31.8801 30.1293 31.9994 30.5366 32.1681 30.8482C32.1557 30.7165 32.1444 30.5726 32.1444 30.4173C32.1444 29.8187 32.2884 29.0392 33.0669 28.417C32.9476 28.6083 32.7316 29.1122 32.7316 29.7344C32.7316 30.2733 32.8869 30.9089 33.4021 31.5074C33.3178 31.3161 33.2222 30.8965 33.2222 30.4533C33.2222 29.8907 33.3662 29.2788 33.869 28.9682C33.9174 29.5668 33.9883 30.4893 33.9883 31.6041C33.9883 32.5985 33.9287 33.7246 33.7251 34.8981C32.4313 33.9036 31.1139 33.1847 29.4489 33.1847H29.2093C28.3228 33.2207 27.4847 33.4727 26.8615 33.8316C26.8491 33.8316 26.8491 33.8439 26.8491 33.8439C26.8491 33.8563 26.8615 33.8676 26.8728 33.8676H26.8851C27.4723 33.6876 28.0832 33.5796 28.6941 33.5796C28.8617 33.5796 29.0417 33.592 29.2093 33.6033C29.9405 33.6753 30.6347 33.8789 31.2816 34.1658C32.1804 34.5731 33.0062 35.1603 33.7374 35.7825C33.2818 36.1774 31.7012 37.6634 31.1859 37.9267C31.0779 37.7827 30.9103 37.6871 30.719 37.6871C30.683 37.6871 30.6347 37.6871 30.5874 37.6994C30.3714 37.7478 30.2038 37.9154 30.1565 38.1303C30.1441 38.1787 30.1441 38.226 30.1441 38.2743C30.1441 38.4183 30.1925 38.5499 30.2758 38.6332C30.4434 38.8009 30.6347 38.8852 30.8383 38.8852C30.97 38.8852 31.1263 38.8492 31.2692 38.7896C31.9881 38.4903 32.8982 37.5318 34.0007 36.525C34.0963 36.4407 34.192 36.3574 34.2886 36.273C34.3966 36.3687 34.4799 36.453 34.5766 36.525C35.6904 37.5308 36.5892 38.4893 37.308 38.7896C37.4633 38.8492 37.6073 38.8852 37.739 38.8852C37.9426 38.8852 38.1226 38.8132 38.3015 38.6332C38.3858 38.5489 38.4331 38.4173 38.4331 38.2743C38.4331 38.226 38.4331 38.1787 38.4208 38.1303C38.3725 37.9144 38.1935 37.7467 37.9899 37.6994C37.9415 37.6871 37.9056 37.6871 37.8582 37.6871C37.667 37.6871 37.4993 37.7827 37.3913 37.9267C36.8885 37.6748 35.2955 36.1661 34.8399 35.7825C35.5824 35.1593 36.3969 34.5844 37.2957 34.1658C37.9426 33.8666 38.6254 33.6629 39.368 33.6033C39.5356 33.5909 39.7156 33.5796 39.8832 33.5796C40.4941 33.5796 41.1049 33.6753 41.6922 33.8676C41.7045 33.8676 41.7158 33.8552 41.7158 33.8439C41.7158 33.8326 41.7158 33.8316 41.7035 33.8316C41.0689 33.4243 40.2298 33.1724 39.3556 33.1364" fill="#263169"/>
<mask id="mask0_1803_24579" style="mask-type:luminance" maskUnits="userSpaceOnUse" x="0" y="0" width="17" height="16">
<path d="M0.388184 15.141L0.676138 15.3693L16.8952 1.8807L14.5597 0.837891L0.388184 15.141Z" fill="white"/>
</mask>
<g mask="url(#mask0_1803_24579)">
<path d="M10.3073 -7.24707L24.0108 9.5592L6.97626 23.4551L-6.72729 6.63646L10.3073 -7.24707Z" fill="url(#paint0_linear_1803_24579)"/>
</g>
<mask id="mask1_1803_24579" style="mask-type:luminance" maskUnits="userSpaceOnUse" x="16" y="0" width="22" height="9">
<path d="M16.8953 1.88049L32.3728 8.80375L37.8111 8.14556L18.0214 0.958008L16.8953 1.88049Z" fill="white"/>
</mask>
<g mask="url(#mask1_1803_24579)">
<path d="M29.4614 -9.2959L41.6563 5.66643L25.2573 19.046L13.05 4.08474L29.4614 -9.2959Z" fill="url(#paint1_linear_1803_24579)"/>
</g>
<mask id="mask2_1803_24579" style="mask-type:luminance" maskUnits="userSpaceOnUse" x="14" y="0" width="5" height="2">
<path d="M14.5596 0.838154L16.8951 1.88096L18.0212 0.958478L15.3854 0L14.5596 0.838154Z" fill="white"/>
</mask>
<g mask="url(#mask2_1803_24579)">
<path d="M16.6319 -1.68848L18.9438 1.12628L15.9367 3.56978L13.6372 0.755025L16.6319 -1.68848Z" fill="url(#paint2_linear_1803_24579)"/>
</g>
<mask id="mask3_1803_24579" style="mask-type:luminance" maskUnits="userSpaceOnUse" x="19" y="10" width="5" height="2">
<path d="M19.6741 10.3374L20.0577 11.9067L23.9636 11.7514L22.1783 10.0381L19.6741 10.3374Z" fill="white"/>
</mask>
<g mask="url(#mask3_1803_24579)">
<path d="M18.9438 10.3853L23.1603 8.36035L24.6937 11.5587L20.4772 13.5836L18.9438 10.3853Z" fill="url(#paint3_linear_1803_24579)"/>
</g>
<mask id="mask4_1803_24579" style="mask-type:luminance" maskUnits="userSpaceOnUse" x="24" y="8" width="14" height="4">
<path d="M24.562 9.75185L26.6106 11.6441L37.7267 11.2009L32.3728 8.80469L24.562 9.75185Z" fill="white"/>
</mask>
<g mask="url(#mask4_1803_24579)">
<path d="M23.4482 9.33255L35.2595 3.66602L38.8415 11.1168L27.0292 16.7834L23.4482 9.33255Z" fill="url(#paint4_linear_1803_24579)"/>
</g>
<mask id="mask5_1803_24579" style="mask-type:luminance" maskUnits="userSpaceOnUse" x="8" y="10" width="11" height="3">
<path d="M8.21021 11.7271L8.58146 12.374L18.1889 11.9791L17.8896 10.5537L8.21021 11.7271Z" fill="white"/>
</mask>
<g mask="url(#mask5_1803_24579)">
<path d="M7.50366 10.9013L16.3202 6.66016L18.8954 12.0274L10.0788 16.2676L7.50366 10.9013Z" fill="url(#paint5_linear_1803_24579)"/>
</g>
<mask id="mask6_1803_24579" style="mask-type:luminance" maskUnits="userSpaceOnUse" x="32" y="8" width="6" height="4">
<path d="M32.3728 8.80467L37.7267 11.2009L37.811 8.14648L32.3728 8.80467Z" fill="white"/>
</mask>
<g mask="url(#mask6_1803_24579)">
<path d="M31.1746 8.70913L36.7928 6.01367L39.009 10.6261L33.3908 13.3216L31.1746 8.70913Z" fill="url(#paint6_linear_1803_24579)"/>
</g>
<mask id="mask7_1803_24579" style="mask-type:luminance" maskUnits="userSpaceOnUse" x="7" y="12" width="19" height="36">
<path d="M7.38452 12.4224L25.6645 48.0002L23.6272 38.2138L8.58159 12.374L7.38452 12.4224Z" fill="white"/>
</mask>
<g mask="url(#mask7_1803_24579)">
<path d="M-6.52368 19.0469L22.2379 5.23535L39.5717 41.3161L10.8102 55.1286L-6.52368 19.0469Z" fill="url(#paint7_linear_1803_24579)"/>
</g>
<mask id="mask8_1803_24579" style="mask-type:luminance" maskUnits="userSpaceOnUse" x="7" y="11" width="2" height="2">
<path d="M7.38452 12.4218L8.58159 12.3734L8.21033 11.7266L7.38452 12.4218Z" fill="white"/>
</mask>
<g mask="url(#mask8_1803_24579)">
<path d="M7.12012 11.8593L8.35421 11.2598L8.84579 12.2902L7.6117 12.8888L7.12012 11.8593Z" fill="url(#paint8_linear_1803_24579)"/>
</g>
<mask id="mask9_1803_24579" style="mask-type:luminance" maskUnits="userSpaceOnUse" x="16" y="4" width="4" height="7">
<path d="M17.8896 10.5533L19.6739 10.3373L18.7761 6.75638L16.6792 4.73145L17.8896 10.5533Z" fill="white"/>
</mask>
<g mask="url(#mask9_1803_24579)">
<path d="M18.9674 3.46094L22.1421 9.17478L17.3867 11.8342L14.1997 6.10909L18.9674 3.46094Z" fill="url(#paint9_linear_1803_24579)"/>
</g>
<mask id="mask10_1803_24579" style="mask-type:luminance" maskUnits="userSpaceOnUse" x="18" y="11" width="11" height="37">
<path d="M18.189 11.9792L23.6272 38.2139L28.8145 47.1138L20.0576 11.9072L18.189 11.9792Z" fill="white"/>
</mask>
<g mask="url(#mask10_1803_24579)">
<path d="M26.2989 7.3916L43.7767 38.7643L20.7043 51.6297L3.22754 20.2447L26.2989 7.3916Z" fill="url(#paint10_linear_1803_24579)"/>
</g>
<mask id="mask11_1803_24579" style="mask-type:luminance" maskUnits="userSpaceOnUse" x="17" y="10" width="4" height="2">
<path d="M17.8896 10.5539L18.1889 11.9792L20.0575 11.9072L19.6739 10.3379L17.8896 10.5539Z" fill="white"/>
</mask>
<g mask="url(#mask11_1803_24579)">
<path d="M19.5424 9.41504L20.7642 11.5953L18.405 12.9137L17.1946 10.7335L19.5424 9.41504Z" fill="url(#paint11_linear_1803_24579)"/>
</g>
<mask id="mask12_1803_24579" style="mask-type:luminance" maskUnits="userSpaceOnUse" x="23" y="38" width="6" height="10">
<path d="M25.6645 48.0002L28.8145 47.1137L23.6272 38.2139L25.6645 48.0002Z" fill="white"/>
</mask>
<g mask="url(#mask12_1803_24579)">
<path d="M27.5803 36.0088L32.9712 45.6758L24.8611 50.2039L19.4702 40.5256L27.5803 36.0088Z" fill="url(#paint12_linear_1803_24579)"/>
</g>
<mask id="mask13_1803_24579" style="mask-type:luminance" maskUnits="userSpaceOnUse" x="23" y="11" width="28" height="25">
<path d="M23.9634 11.7515L48.2328 35.1581L50.6763 33.9127L26.6105 11.6436L23.9634 11.7515Z" fill="white"/>
</mask>
<g mask="url(#mask13_1803_24579)">
<path d="M41.0452 47.9873L12.6663 26.6889L33.5821 -1.1748L61.96 20.1246L41.0452 47.9873Z" fill="url(#paint13_linear_1803_24579)"/>
</g>
<mask id="mask14_1803_24579" style="mask-type:luminance" maskUnits="userSpaceOnUse" x="18" y="3" width="7" height="8">
<path d="M18.7761 6.75715L22.1781 10.0388L24.5619 9.75188L18.0212 3.69043L18.7761 6.75715Z" fill="white"/>
</mask>
<g mask="url(#mask14_1803_24579)">
<path d="M22.2018 13.1775L14.9783 7.75063L20.3815 0.551758L27.6051 5.97765L22.2018 13.1775Z" fill="url(#paint14_linear_1803_24579)"/>
</g>
<mask id="mask15_1803_24579" style="mask-type:luminance" maskUnits="userSpaceOnUse" x="49" y="34" width="5" height="4">
<path d="M49.3704 36.261L50.9274 37.7584L53.8265 36.8359L51.7542 34.9189L49.3704 36.261Z" fill="white"/>
</mask>
<g mask="url(#mask15_1803_24579)">
<path d="M52.2211 39.9023L48.0046 36.74L50.9757 32.7744L55.1922 35.9491L52.2211 39.9023Z" fill="url(#paint15_linear_1803_24579)"/>
</g>
<mask id="mask16_1803_24579" style="mask-type:luminance" maskUnits="userSpaceOnUse" x="22" y="9" width="5" height="3">
<path d="M22.1782 10.0379L23.9635 11.7512L26.6107 11.6432L24.5621 9.75098L22.1782 10.0379Z" fill="white"/>
</mask>
<g mask="url(#mask16_1803_24579)">
<path d="M25.0176 13.8832L21.2197 11.0325L23.7712 7.61816L27.5691 10.4689L25.0176 13.8832Z" fill="url(#paint16_linear_1803_24579)"/>
</g>
<mask id="mask17_1803_24579" style="mask-type:luminance" maskUnits="userSpaceOnUse" x="16" y="3" width="3" height="4">
<path d="M16.6792 4.73221L18.7761 6.75715L18.0213 3.69043L16.6792 4.73221Z" fill="white"/>
</mask>
<g mask="url(#mask17_1803_24579)">
<path d="M18.0213 7.76291L15.2065 5.65467L17.4341 2.68359L20.2499 4.80417L18.0213 7.76291Z" fill="url(#paint17_linear_1803_24579)"/>
</g>
<mask id="mask18_1803_24579" style="mask-type:luminance" maskUnits="userSpaceOnUse" x="31" y="37" width="23" height="10">
<path d="M41.1646 40.8482L31.4255 46.2988L53.4078 40.154L50.9273 37.7578L41.1646 40.8482Z" fill="white"/>
</mask>
<g mask="url(#mask18_1803_24579)">
<path d="M56.4499 45.0174L34.7319 54.1456L28.3835 39.0393L50.1128 29.9111L56.4499 45.0174Z" fill="url(#paint18_linear_1803_24579)"/>
</g>
<mask id="mask19_1803_24579" style="mask-type:luminance" maskUnits="userSpaceOnUse" x="50" y="36" width="4" height="5">
<path d="M50.9272 37.7584L53.4078 40.1546L53.8263 36.8359L50.9272 37.7584Z" fill="white"/>
</mask>
<g mask="url(#mask19_1803_24579)">
<path d="M55.0123 39.6509L51.3594 41.1842L49.7417 37.339L53.3956 35.8057L55.0123 39.6509Z" fill="url(#paint19_linear_1803_24579)"/>
</g>
<mask id="mask20_1803_24579" style="mask-type:luminance" maskUnits="userSpaceOnUse" x="30" y="35" width="20" height="10">
<path d="M30.2759 44.2987L41.1647 40.8484L49.3704 36.2607L48.2329 35.1582L30.2759 44.2987Z" fill="white"/>
</mask>
<g mask="url(#mask20_1803_24579)">
<path d="M52.6292 42.9329L33.1388 51.1149L27.0054 36.5362L46.5071 28.3418L52.6292 42.9329Z" fill="url(#paint20_linear_1803_24579)"/>
</g>
<mask id="mask21_1803_24579" style="mask-type:luminance" maskUnits="userSpaceOnUse" x="50" y="32" width="4" height="3">
<path d="M50.6763 33.9125L51.754 34.9183L53.4437 33.9722L52.7609 32.8584L50.6763 33.9125Z" fill="white"/>
</mask>
<g mask="url(#mask21_1803_24579)">
<path d="M54.174 34.607L51.0836 35.9131L49.9338 33.1703L53.0242 31.8643L54.174 34.607Z" fill="url(#paint21_linear_1803_24579)"/>
</g>
<mask id="mask22_1803_24579" style="mask-type:luminance" maskUnits="userSpaceOnUse" x="54" y="28" width="8" height="5">
<path d="M54.6655 31.8882L55.3844 32.8826L60.727 29.9003L61.4212 28.4502L54.6655 31.8882Z" fill="white"/>
</mask>
<g mask="url(#mask22_1803_24579)">
<path d="M63.003 32.2237L55.6838 35.3028L53.084 29.1097L60.4032 26.043L63.003 32.2237Z" fill="url(#paint22_linear_1803_24579)"/>
</g>
<mask id="mask23_1803_24579" style="mask-type:luminance" maskUnits="userSpaceOnUse" x="48" y="33" width="4" height="4">
<path d="M48.2329 35.1585L49.3703 36.2609L51.7542 34.9189L50.6764 33.9131L48.2329 35.1585Z" fill="white"/>
</mask>
<g mask="url(#mask23_1803_24579)">
<path d="M52.5934 35.9009L48.7595 37.5186L47.3938 34.2719L51.2277 32.6553L52.5934 35.9009Z" fill="url(#paint23_linear_1803_24579)"/>
</g>
<mask id="mask24_1803_24579" style="mask-type:luminance" maskUnits="userSpaceOnUse" x="30" y="40" width="12" height="7">
<path d="M30.2759 44.2989L31.4256 46.2992L41.1647 40.8486L30.2759 44.2989Z" fill="white"/>
</mask>
<g mask="url(#mask24_1803_24579)">
<path d="M43.1054 45.4847L31.9049 50.1928L28.323 41.6631L39.5357 36.9551L43.1054 45.4847Z" fill="url(#paint24_linear_1803_24579)"/>
</g>
<mask id="mask25_1803_24579" style="mask-type:luminance" maskUnits="userSpaceOnUse" x="57" y="29" width="6" height="11">
<path d="M60.727 29.9004L57.72 36.1768L59.9485 39.3032L62.1761 29.0859L60.727 29.9004Z" fill="white"/>
</mask>
<g mask="url(#mask25_1803_24579)">
<path d="M65.83 37.7711L58.3905 40.8975L54.0784 30.6196L61.5055 27.4922L65.83 37.7711Z" fill="url(#paint25_linear_1803_24579)"/>
</g>
<mask id="mask26_1803_24579" style="mask-type:luminance" maskUnits="userSpaceOnUse" x="60" y="28" width="3" height="2">
<path d="M60.7271 29.9003L62.1761 29.0858L61.4212 28.4502L60.7271 29.9003Z" fill="white"/>
</mask>
<g mask="url(#mask26_1803_24579)">
<path d="M62.6914 29.6839L60.9421 30.4151L60.2119 28.6658L61.9602 27.9346L62.6914 29.6839Z" fill="url(#paint26_linear_1803_24579)"/>
</g>
<mask id="mask27_1803_24579" style="mask-type:luminance" maskUnits="userSpaceOnUse" x="53" y="32" width="5" height="7">
<path d="M53.4438 33.9729L56.4262 38.8723L57.72 36.1768L55.3845 32.8828L53.4438 33.9729Z" fill="white"/>
</mask>
<g mask="url(#mask27_1803_24579)">
<path d="M59.8642 37.975L54.0783 40.4061L51.2996 33.7822L57.0854 31.3623L59.8642 37.975Z" fill="url(#paint27_linear_1803_24579)"/>
</g>
<mask id="mask28_1803_24579" style="mask-type:luminance" maskUnits="userSpaceOnUse" x="40" y="12" width="15" height="21">
<path d="M40.5425 12.8531L52.761 32.8588L54.6656 31.8879L40.9497 12.5898L40.5425 12.8531Z" fill="white"/>
</mask>
<g mask="url(#mask28_1803_24579)">
<path d="M61.9129 29.8161L42.6621 37.9024L33.3066 15.6333L52.5574 7.54688L61.9129 29.8161Z" fill="url(#paint28_linear_1803_24579)"/>
</g>
<mask id="mask29_1803_24579" style="mask-type:luminance" maskUnits="userSpaceOnUse" x="52" y="31" width="4" height="3">
<path d="M52.761 32.8585L53.4439 33.9723L55.3845 32.8822L54.6656 31.8877L52.761 32.8585Z" fill="white"/>
</mask>
<g mask="url(#mask29_1803_24579)">
<path d="M56.1383 33.6605L53.1559 34.9183L52.0061 32.1991L54.9885 30.9414L56.1383 33.6605Z" fill="url(#paint29_linear_1803_24579)"/>
</g>
<mask id="mask30_1803_24579" style="mask-type:luminance" maskUnits="userSpaceOnUse" x="56" y="36" width="4" height="4">
<path d="M56.4263 38.8722L59.9486 39.3031L57.72 36.1768L56.4263 38.8722Z" fill="white"/>
</mask>
<g mask="url(#mask30_1803_24579)">
<path d="M61.0623 38.8362L56.9528 40.5618L55.3125 36.6446L59.421 34.9189L61.0623 38.8362Z" fill="url(#paint30_linear_1803_24579)"/>
</g>
<path d="M73.3168 30.7507H73.8681V35.4948H73.3168V30.7507ZM80.4921 35.5061H81.0433V30.762H80.4921V35.5061ZM144.939 35.5061H145.491V30.762H144.939V35.5061ZM160.105 30.7507H159.554V35.4948H160.105V30.7507ZM83.6544 33.2898V32.679C83.1515 32.535 82.7679 32.3674 82.7679 31.9601C82.7679 31.5529 83.1268 31.2413 83.6544 31.2053V30.69C82.7916 30.7384 82.1807 31.2649 82.1807 31.9838C82.1807 32.8579 82.9469 33.0975 83.6544 33.2898ZM83.966 31.2176C84.3856 31.2659 84.7445 31.4449 84.9965 31.7452L85.0561 31.8172L85.4274 31.4099L85.3791 31.3503C85.0315 30.9554 84.5409 30.7394 83.966 30.6911V31.2186V31.2176ZM83.6544 35.0505C83.0435 34.9908 82.6363 34.6432 82.445 34.4273L82.3854 34.3553L82.0264 34.7749L82.0748 34.8232C82.446 35.2788 83.0096 35.5297 83.6678 35.5657V35.0505H83.6554H83.6544ZM83.966 32.7746V33.3855C84.5173 33.5531 84.9358 33.7331 84.9358 34.236C84.9358 34.6072 84.6725 35.0145 83.966 35.0628V35.5781C85.0921 35.5184 85.5117 34.8355 85.5117 34.2C85.5117 33.2302 84.6736 32.9659 83.966 32.7746ZM91.2132 30.7507H90.662V35.4948H91.2132V30.7507ZM91.5372 31.2772H92.4237C92.9862 31.2772 93.3585 31.6362 93.3585 32.1761C93.3585 32.716 92.9872 33.0749 92.4237 33.0749H91.5372V33.5778H92.7229C93.4541 33.4698 93.9447 32.9433 93.9447 32.1761C93.9447 31.3256 93.3462 30.7507 92.471 30.7507H91.5485V31.2783H91.5361L91.5372 31.2772ZM92.9626 33.9007H92.292L93.3585 35.5061H94.065L92.9626 33.9007ZM94.9505 30.7507H94.2799L96.1722 33.4822V35.4948H96.7348V33.3629L94.9494 30.7517L94.9505 30.7507ZM96.9754 33.1459L98.6281 30.7497H97.9575L96.6515 32.6666L96.9744 33.1459H96.9754ZM70.1658 34.7152L71.7825 30.762H71.2076L69.8778 34.0324L70.1658 34.7152ZM68.1892 30.7507H67.6267L69.5796 35.4948H70.1421L68.1892 30.7507ZM71.5675 32.1277V35.5061H72.1301V30.762L71.5675 32.1277ZM67.2791 30.7507V35.4948H67.8303V32.0928L67.2791 30.7507ZM125.773 34.7152L126.971 31.7925L127.391 30.762H126.828L125.498 34.0324L125.774 34.7152H125.773ZM127.187 32.1277V35.5061H127.75V30.762L127.187 32.1277ZM123.796 30.7507H123.234L125.162 35.4464L125.186 35.4948H125.748L123.795 30.7507H123.796ZM122.886 30.7507V35.4948H123.437V32.0928L122.886 30.7507ZM129.654 30.7507H129.092L129.128 30.8227L131.032 35.4464L131.056 35.4948H131.618L129.654 30.7507ZM131.631 34.7152L132.829 31.7925L133.248 30.762H132.686L131.356 34.0324L131.632 34.7152H131.631ZM133.032 32.1277V35.5061H133.595V30.762L133.032 32.1277ZM128.744 30.7507V35.4948H129.295V32.0928L128.744 30.7507ZM87.3803 30.7507H86.1822V31.2659H87.3803V30.7507ZM88.5784 31.2772H89.7529V30.762H88.5784V31.2772ZM87.7033 35.5061H88.2422V30.762H87.7033V35.5061ZM103.336 35.0505C102.414 34.9548 101.803 34.2 101.803 33.1335C101.803 32.0671 102.414 31.3122 103.336 31.2166V30.7013C102.091 30.797 101.228 31.7791 101.228 33.1335C101.228 34.4879 102.091 35.469 103.336 35.5657V35.0505ZM103.66 30.69V31.2053C104.63 31.2649 105.277 32.0321 105.277 33.1335C105.277 34.235 104.63 35.0021 103.66 35.0618V35.577C104.954 35.5174 105.853 34.5229 105.853 33.1335C105.84 31.7441 104.942 30.7497 103.66 30.69ZM107.661 31.2772H109.853V30.762H107.661V31.2772ZM107.338 30.7507H106.786V35.4948H107.338V30.7507ZM107.661 33.3258H109.805V32.8106H107.661V33.3258ZM116.394 34.3676L116.346 34.4273C116.082 34.7985 115.627 35.0258 115.147 35.0505V35.5657C115.818 35.5421 116.357 35.2664 116.812 34.7276L116.872 34.6556L116.393 34.3676H116.394ZM115.16 31.2053C115.639 31.2289 116.095 31.4685 116.358 31.8285L116.406 31.8881L116.873 31.5889L116.813 31.5169C116.394 30.9893 115.831 30.7147 115.161 30.6787V31.2063L115.16 31.2053ZM114.836 35.0505C113.901 34.9312 113.243 34.164 113.243 33.1335C113.243 32.1031 113.89 31.3369 114.836 31.2166V30.689C113.554 30.8083 112.668 31.8028 112.668 33.1212C112.668 34.4396 113.554 35.4454 114.836 35.5534V35.0505ZM119.688 35.0628C118.765 34.9672 118.154 34.2123 118.154 33.1459C118.154 32.0794 118.765 31.3245 119.688 31.2289V30.7137C118.442 30.8093 117.58 31.7914 117.58 33.1459C117.58 34.5003 118.442 35.4814 119.688 35.5781V35.0628ZM120.011 30.7024V31.2176C120.981 31.2772 121.627 32.0444 121.627 33.1459C121.627 34.2473 120.981 35.0145 120.011 35.0741V35.5894C121.304 35.5297 122.203 34.5352 122.203 33.1459C122.191 31.7565 121.293 30.7497 120.011 30.7024ZM163.291 35.0628C162.369 34.9672 161.758 34.2123 161.758 33.1459C161.758 32.0794 162.369 31.3245 163.291 31.2289V30.7137C162.046 30.8093 161.183 31.7914 161.183 33.1459C161.183 34.5003 162.046 35.4814 163.291 35.5781V35.0628ZM163.615 30.7024V31.2176C164.585 31.2772 165.232 32.0444 165.232 33.1459C165.232 34.2473 164.585 35.0145 163.615 35.0741V35.5894C164.897 35.5297 165.808 34.5352 165.808 33.1459C165.808 31.7565 164.909 30.7497 163.615 30.7024ZM136.578 35.0268C135.836 34.9672 135.429 34.4879 135.429 33.6611V30.762H134.866V33.6724C134.866 34.8345 135.489 35.5287 136.579 35.5894V35.0268H136.578ZM138.04 30.7507V33.6498C138.04 34.4766 137.633 34.9559 136.901 35.0155V35.5667C137.979 35.5071 138.602 34.8119 138.602 33.6498V30.7394H138.04V30.7517V30.7507ZM148.737 35.0505C147.802 34.9312 147.144 34.164 147.144 33.1335C147.144 32.1031 147.791 31.3369 148.737 31.2166V30.689C147.456 30.8083 146.569 31.8028 146.569 33.1212C146.569 34.4396 147.456 35.4454 148.737 35.5534V35.0505ZM149.06 31.2053C149.539 31.2289 149.995 31.4685 150.258 31.8285L150.307 31.8881L150.774 31.5889L150.714 31.5169C150.294 30.9893 149.732 30.7147 149.061 30.6787V31.2063L149.06 31.2053ZM150.294 34.3676L150.246 34.4273C149.983 34.7985 149.527 35.0258 149.048 35.0505V35.5657C149.718 35.5421 150.257 35.2664 150.701 34.7276L150.76 34.6556L150.293 34.3676H150.294ZM75.82 30.7507H75.1371L78.4908 35.4948H79.222L75.82 30.7507ZM79.115 34.8109V30.762H78.5638V34.0447L79.115 34.8109ZM75.2338 31.4572V35.5061H75.785V32.2481L75.2338 31.4572ZM156.248 30.762H155.062V31.2772H156.248V30.762ZM157.122 30.762H156.571V35.5061H157.122V30.762ZM157.446 31.2772H158.62V30.762H157.446V31.2772ZM143.694 34.8232V30.7507H143.143V34.057L143.694 34.8232ZM140.375 30.7507H139.716L143.07 35.4948H143.789L140.374 30.7507H140.375ZM139.813 31.4449V35.4937H140.364V32.2234L139.813 31.4449ZM167.425 30.7507H166.754L170.108 35.4948H170.827L167.425 30.7507ZM170.731 34.8109V30.7497H170.18V34.0437L170.731 34.8098V34.8109ZM166.85 31.4449V35.4937H167.401V32.2234L166.85 31.4449ZM153.912 33.7331H152.774L152.558 34.272H154.127L153.911 33.7331H153.912ZM153.816 31.122L153.516 31.8645L154.965 35.4937H155.589L153.816 31.1209V31.122ZM153.624 30.7507H153.049L151.157 35.3868L151.109 35.4948H151.732L153.624 30.7507Z" fill="#263169"/>
<path d="M173.234 33.2893V32.6784C172.731 32.5344 172.347 32.3668 172.347 31.9595C172.347 31.5523 172.706 31.2407 173.234 31.2047V30.6895C172.371 30.7378 171.76 31.2643 171.76 31.9832C171.76 32.8573 172.526 33.097 173.234 33.2893Z" fill="#263169"/>
<path d="M173.557 31.217C173.976 31.2653 174.335 31.4443 174.587 31.7445L174.647 31.8165L175.018 31.4093L174.97 31.3496C174.622 30.9547 174.132 30.7388 173.557 30.6904V31.218V31.217Z" fill="#263169"/>
<path d="M173.234 35.0507C172.623 34.991 172.216 34.6434 172.025 34.4275L171.965 34.3555L171.606 34.7751L171.654 34.8234C172.026 35.279 172.589 35.5299 173.247 35.5659V35.0507H173.235H173.234Z" fill="#263169"/>
<path d="M173.557 32.7744V33.3853C174.108 33.5529 174.527 33.7329 174.527 34.2358C174.527 34.607 174.263 35.0143 173.557 35.0626V35.5779C174.683 35.5182 175.103 34.8353 175.103 34.1998C175.09 33.23 174.252 32.9657 173.557 32.7744Z" fill="#263169"/>
<path d="M84.0502 38.5127H83.499V43.2567H84.0502V38.5127Z" fill="#263169"/>
<path d="M117.436 38.5127H116.884V43.2567H117.436V38.5127Z" fill="#263169"/>
<path d="M171.724 38.5127H171.054L172.935 41.2431V43.2557H173.497V41.1238L171.724 38.5127Z" fill="#263169"/>
<path d="M173.726 40.9079L175.402 38.5127H174.731L173.402 40.4286L173.726 40.9079Z" fill="#263169"/>
<path d="M104.235 38.5127H103.671L103.707 38.5847L105.601 43.2084L105.624 43.2557H106.187L104.235 38.5127Z" fill="#263169"/>
<path d="M106.212 42.4659L107.409 39.5421L107.816 38.5127H107.253L105.924 41.783L106.212 42.4659Z" fill="#263169"/>
<path d="M103.324 38.5127V43.2557H103.875V39.8537L103.324 38.5127Z" fill="#263169"/>
<path d="M107.612 39.8784V43.2557H108.164V38.5127L107.612 39.8784Z" fill="#263169"/>
<path d="M114.632 38.5127H114.081V43.2567H114.632V38.5127Z" fill="#263169"/>
<path d="M116.131 38.5127H114.956V39.0279H116.131V38.5127Z" fill="#263169"/>
<path d="M113.758 38.5127H112.572V39.0279H113.758V38.5127Z" fill="#263169"/>
<path d="M95.8853 42.8013C94.9629 42.7056 94.352 41.9508 94.352 40.8843C94.352 39.8179 94.9629 39.063 95.8853 38.9674V38.4521C94.6399 38.5478 93.7771 39.5299 93.7771 40.8843C93.7771 42.2388 94.6399 43.2199 95.8853 43.3165V42.8013Z" fill="#263169"/>
<path d="M96.2083 38.4414V38.9566C97.178 39.0163 97.8249 39.7835 97.8249 40.8849C97.8249 41.9863 97.178 42.7535 96.2083 42.8132V43.3284C97.502 43.2688 98.4008 42.2743 98.4008 40.8849C98.4008 39.5068 97.502 38.5011 96.2083 38.4414Z" fill="#263169"/>
<path d="M120.454 42.8013C119.531 42.7056 118.921 41.9508 118.921 40.8843C118.921 39.8179 119.531 39.063 120.454 38.9674V38.4521C119.209 38.5478 118.346 39.5299 118.346 40.8843C118.346 42.2388 119.209 43.2199 120.454 43.3165V42.8013Z" fill="#263169"/>
<path d="M120.778 38.4414V38.9566C121.748 39.0163 122.395 39.7835 122.395 40.8849C122.395 41.9863 121.748 42.7535 120.778 42.8132V43.3284C122.072 43.2688 122.97 42.2743 122.97 40.8849C122.958 39.5068 122.06 38.5011 120.778 38.4414Z" fill="#263169"/>
<path d="M137.513 40.5732H135.357V41.0885H137.513V40.5732Z" fill="#263169"/>
<path d="M137.561 42.7422H135.357V43.2574H137.561V42.7422Z" fill="#263169"/>
<path d="M69.6628 38.8721L69.3635 39.6269L70.8012 43.2562H71.4234L69.6628 38.8721Z" fill="#263169"/>
<path d="M69.7472 41.4834H68.6088L68.3928 42.0346H69.9622L69.7472 41.4834Z" fill="#263169"/>
<path d="M69.4593 38.5127H68.8845L66.9922 43.1488L66.9438 43.2557H67.5547L69.4593 38.5127Z" fill="#263169"/>
<path d="M75.8447 42.5729V38.5127H75.2935V41.8067L75.8447 42.5729Z" fill="#263169"/>
<path d="M72.5383 38.5127H71.8667L75.2214 43.2557H75.9402L72.5383 38.5127Z" fill="#263169"/>
<path d="M71.9634 39.207V43.2559H72.5136V39.9855L71.9634 39.207Z" fill="#263169"/>
<path d="M123.832 39.2197V43.2562H124.384V40.0106L123.832 39.2197Z" fill="#263169"/>
<path d="M127.714 42.5852V38.5127H127.162V41.8067L127.714 42.5852Z" fill="#263169"/>
<path d="M127.079 43.2557H127.809L124.407 38.5127H123.724L127.054 43.2197L127.079 43.2557Z" fill="#263169"/>
<path d="M151.983 42.5729V38.5127H151.42V41.8067L151.983 42.5729Z" fill="#263169"/>
<path d="M148.677 38.5127H148.006L151.336 43.2557H152.067L148.677 38.5127Z" fill="#263169"/>
<path d="M148.09 39.2197V43.2562H148.641V39.9982L148.09 39.2197Z" fill="#263169"/>
<path d="M88.9857 42.5615V38.5127H88.4221V41.7944L88.9857 42.5615Z" fill="#263169"/>
<path d="M85.092 39.2314V43.2556H85.6546V40.01L85.092 39.2314Z" fill="#263169"/>
<path d="M88.3388 43.2557H89.0813L85.6793 38.5127H84.9841L88.3141 43.2197L88.3388 43.2557Z" fill="#263169"/>
<path d="M77.4736 38.5127H76.9224V43.2567H77.4736V38.5127Z" fill="#263169"/>
<path d="M78.4681 38.5127H77.7976V39.0279H78.4681C79.5582 39.0279 80.2894 39.7591 80.2894 40.8369C80.2894 41.9867 79.5706 42.7415 78.4681 42.7415H77.7976V43.2567H78.4681C79.9058 43.2567 80.8643 42.287 80.8643 40.8369C80.8643 39.3868 79.8945 38.5127 78.4681 38.5127Z" fill="#263169"/>
<path d="M90.6023 38.5127H90.051V43.2567H90.6023V38.5127Z" fill="#263169"/>
<path d="M93.1179 38.5127H90.9141V39.0279H93.1179V38.5127Z" fill="#263169"/>
<path d="M93.0706 40.5732H90.9141V41.0885H93.0706V40.5732Z" fill="#263169"/>
<path d="M100.03 39.0285H100.916C101.479 39.0285 101.851 39.3874 101.851 39.9273C101.851 40.4672 101.48 40.8262 100.916 40.8262H100.03V41.3291H101.216C101.947 41.2211 102.425 40.6945 102.425 39.9273C102.425 39.0768 101.838 38.502 100.951 38.502H100.029V39.0295L100.03 39.0285Z" fill="#263169"/>
<path d="M101.455 41.6514H100.785L101.851 43.2557H102.558L101.455 41.6514Z" fill="#263169"/>
<path d="M99.7067 38.5127H99.1555V43.2567H99.7067V38.5127Z" fill="#263169"/>
<path d="M111.614 41.4834H110.464L110.248 42.0346H111.83L111.614 41.4834Z" fill="#263169"/>
<path d="M111.506 38.8721L111.219 39.6146L112.668 43.2562H113.279L111.506 38.8721Z" fill="#263169"/>
<path d="M111.302 38.5127H110.74L108.835 43.1488L108.738 43.2557H109.41L111.302 38.5127Z" fill="#263169"/>
<path d="M146.15 41.0878V40.5726H143.73V38.5127H143.179V41.0878H146.15Z" fill="#263169"/>
<path d="M143.73 41.4121H143.179V43.2684H143.73V41.4121Z" fill="#263169"/>
<path d="M168.994 38.9562C169.473 38.9799 169.94 39.2082 170.203 39.5794L170.252 39.6391L170.718 39.3398L170.659 39.2678C170.239 38.7403 169.664 38.4533 168.981 38.4297V38.9573H168.994V38.9562Z" fill="#263169"/>
<path d="M168.682 41.2562H170.755V40.7656H168.682V41.2562Z" fill="#263169"/>
<path d="M170.203 41.5801V42.2989C169.951 42.5982 169.472 42.8018 168.994 42.8142V43.3294C169.7 43.3057 170.288 43.0538 170.719 42.5632L170.742 42.5396V41.5811H170.203V41.5801Z" fill="#263169"/>
<path d="M168.682 42.8016C167.747 42.67 167.113 41.9028 167.113 40.897C167.113 39.8912 167.76 39.1117 168.682 38.9924V38.4648C167.412 38.5965 166.538 39.5786 166.538 40.897C166.538 42.2155 167.412 43.2089 168.682 43.3292V42.8016Z" fill="#263169"/>
<path d="M161.087 42.7422H159.183V43.2574H161.087V42.7422Z" fill="#263169"/>
<path d="M132.254 38.5127H131.703V43.2567H132.254V38.5127Z" fill="#263169"/>
<path d="M133.74 38.5127H132.566V39.0279H133.74V38.5127Z" fill="#263169"/>
<path d="M131.379 38.5127H130.193V39.0279H131.379V38.5127Z" fill="#263169"/>
<path d="M135.045 38.5127H134.494V43.2567H135.045V38.5127Z" fill="#263169"/>
<path d="M137.513 40.5732H135.357V41.0885H137.513V40.5732Z" fill="#263169"/>
<path d="M137.513 38.5127H135.357V39.0279H137.513V38.5127Z" fill="#263169"/>
<path d="M147.024 38.5127H146.473V43.2567H147.024V38.5127Z" fill="#263169"/>
<path d="M158.859 38.5127H158.308V43.2567H158.859V38.5127Z" fill="#263169"/>
<path d="M163.291 42.8013C162.369 42.7056 161.758 41.9508 161.758 40.8843C161.758 39.8179 162.369 39.063 163.291 38.9674V38.4521C162.046 38.5478 161.183 39.5299 161.183 40.8843C161.183 42.2388 162.046 43.2199 163.291 43.3165V42.8013Z" fill="#263169"/>
<path d="M163.615 38.4414V38.9566C164.585 39.0163 165.232 39.7835 165.232 40.8849C165.232 41.9863 164.585 42.7535 163.615 42.8132V43.3284C164.909 43.2688 165.808 42.2743 165.808 40.8849C165.795 39.4955 164.898 38.5011 163.615 38.4414Z" fill="#263169"/>
<path d="M154.978 42.8013C154.055 42.7056 153.444 41.9508 153.444 40.8843C153.444 39.8179 154.055 39.063 154.978 38.9674V38.4521C153.732 38.5478 152.869 39.5299 152.869 40.8843C152.869 42.2388 153.732 43.2199 154.978 43.3165V42.8013Z" fill="#263169"/>
<path d="M155.302 38.4414V38.9566C156.272 39.0163 156.918 39.7835 156.918 40.8849C156.918 41.9863 156.272 42.7535 155.302 42.8132V43.3284C156.595 43.2688 157.494 42.2743 157.494 40.8849C157.482 39.4955 156.584 38.5011 155.302 38.4414Z" fill="#263169"/>
<path d="M140.46 42.8009C139.525 42.6816 138.867 41.9144 138.867 40.884C138.867 39.8535 139.513 39.0873 140.46 38.967V38.4395C139.178 38.5587 138.292 39.5532 138.292 40.8716C138.292 42.1901 139.178 43.1958 140.46 43.3038V42.8009Z" fill="#263169"/>
<path d="M140.782 38.9562C141.262 38.9799 141.717 39.2195 141.981 39.5794L142.029 39.6391L142.496 39.3398L142.436 39.2678C142.017 38.7403 141.454 38.4657 140.784 38.4297V38.9573L140.782 38.9562Z" fill="#263169"/>
<path d="M142.017 42.1299L141.968 42.1895C141.693 42.5608 141.25 42.7881 140.77 42.8127V43.328C141.441 43.3043 141.98 43.0287 142.423 42.4898L142.483 42.4178L142.016 42.1299H142.017Z" fill="#263169"/>
<path d="M143.346 12.5777H142.784V13.3799H143.346V12.5777ZM145.91 17.9326C146.605 17.9326 147.192 17.765 147.599 17.4534C148.018 17.1295 148.174 16.5546 148.174 16.1597V12.5664H147.623V16.0887C147.623 16.5443 147.503 16.8436 147.215 17.0585C146.94 17.2621 146.556 17.3701 146.125 17.3701H143.981L144.041 17.9213H145.909V17.9337L145.91 17.9326ZM142.7 13.7285H142.148V17.0472H142.7V13.7285ZM141.981 12.5777H141.418V13.3799H141.981V12.5777ZM124.216 15.1179C124.371 15.3092 124.443 15.5488 124.443 15.92V17.0462H124.994V15.8244C124.994 15.4048 124.863 15.0099 124.636 14.7579C124.313 14.399 123.965 14.2427 123.461 14.2427H121.018V14.7939H123.497C123.773 14.7939 124.06 14.9256 124.216 15.1169M150.606 12.5664H150.055V17.9326H150.606V12.5664ZM145.934 13.3213H145.383V17.0472H145.934V13.3213ZM120.706 13.7285H120.167V17.0472H120.706V13.7285ZM115.255 22.4731L115.459 21.9702C114.931 21.6709 114.393 21.5033 113.926 21.5033C113.434 21.5033 112.895 21.6709 112.38 21.9702L112.596 22.4854C113.016 22.2098 113.482 22.0658 113.926 22.0658C114.417 22.0535 114.908 22.2571 115.255 22.4731ZM112.045 22.1851C111.925 22.2694 111.817 22.3528 111.733 22.4247L111.673 22.4731L112.596 24.7973H113.219L112.117 22.1255L112.045 22.1851ZM116.154 22.5451L116.19 22.4731L116.131 22.4247C116.035 22.3528 115.939 22.2694 115.819 22.1851L115.747 22.1368L114.657 24.7963H115.244L116.154 22.544V22.5451ZM108.871 20.3648H108.32V24.8086H108.871V20.3648ZM142.7 17.3701H80.2524V17.9213H142.7V17.3701ZM76.072 13.3213H75.5207V17.0472H76.072V13.3213ZM154.75 21.5023H154.199V24.7963H154.75V21.5023ZM137.847 20.3402H137.285V21.1423H137.847V20.3402ZM80.816 12.5664H80.2648V17.0462H80.816V12.5664ZM166.61 12.5664H166.059V17.9326H166.61V12.5664ZM165.616 20.3402H165.053V21.1423H165.616V20.3402ZM169.376 20.3402H168.814V21.1423H169.376V20.3402ZM165.077 24.7973H165.628V21.5033H165.077V24.7973ZM159.063 21.5023H158.511V24.7963H159.063V21.5023ZM162.776 19.2624C163.735 19.2624 163.854 18.5075 163.854 17.8607V13.7275H163.303V17.8607C163.303 18.3636 163.218 18.7112 162.8 18.7112C162.715 18.7112 162.645 18.6875 162.56 18.6628L162.452 18.6145L162.261 19.1297L162.357 19.1657C162.488 19.2254 162.656 19.2614 162.776 19.2614M169.82 12.5777H169.257V13.3799H169.82V12.5777ZM168.73 19.2624C169.688 19.2624 169.807 18.5075 169.807 17.8607V13.7275H169.256V17.8607C169.256 18.3636 169.172 18.7112 168.753 18.7112C168.681 18.7112 168.598 18.6875 168.514 18.6628L168.406 18.6145L168.214 19.1297L168.31 19.1657C168.442 19.2254 168.598 19.2614 168.73 19.2614M174.108 17.9326H174.121V17.3814H173.893C172.551 17.3814 172.072 16.5546 172.072 15.8357C172.072 14.8772 173.018 14.29 173.893 14.29H174.121V13.7388H174.108C172.539 13.7388 171.533 14.5656 171.533 15.8347C171.533 17.1037 172.492 17.9306 174.108 17.9306M159.805 17.9326H159.817V17.3814H159.59C158.536 17.3814 157.805 16.7469 157.805 15.8357C157.805 14.8772 158.727 14.29 159.59 14.29H159.817V13.7388H159.805C158.308 13.7388 157.266 14.6016 157.266 15.8347C157.266 16.8405 157.936 17.9306 159.805 17.9306M159.351 12.5777H158.788V13.3799H159.351V12.5777ZM159.063 20.3402H158.5V21.1423H159.063V20.3402ZM163.196 24.7973C162.896 24.534 162.621 24.1381 162.621 23.5879C162.621 22.5934 163.52 22.0545 164.37 22.0545H164.741V21.5033H164.574C163.028 21.5033 162.058 22.3054 162.058 23.5879C162.058 24.0548 162.19 24.4507 162.453 24.7973H163.196ZM160.704 13.7285H160.153V17.9326H160.704V13.7285ZM163.699 21.1433H164.261V20.3412H163.699V21.1433ZM160.704 12.5777H160.141V13.3799H160.704V12.5777ZM98.2095 25.6951H98.2332V25.1325H98.0059C96.6638 25.1325 96.1846 24.3057 96.1846 23.5868C96.1846 22.6407 97.1307 22.0411 98.0059 22.0411H98.2332V21.4899H98.2095C96.6401 21.4899 95.622 22.3168 95.622 23.5858C95.6344 24.9032 96.5918 25.6941 98.2095 25.6941M153.433 27.0248H153.996V26.2103H153.433V27.0248ZM135.775 23.5992C135.775 24.6173 136.446 25.6951 138.314 25.6951H138.327V25.1325H138.099C137.045 25.1325 136.314 24.498 136.314 23.5868C136.314 22.6757 137.237 22.0411 138.099 22.0411H138.327V21.4899H138.314C136.817 21.5023 135.775 22.3641 135.775 23.5982M128.301 25.6951H128.852V20.3648H128.301V25.6951ZM138.651 21.1433H139.213V20.3412H138.651V21.1433ZM138.662 25.6951H139.201V21.5023H138.662V25.6951ZM125.881 24.7973H126.432V20.3535H125.881V24.7973ZM122.982 25.1799C122.91 25.3238 122.838 25.4555 122.755 25.5748L122.67 25.6941H126.443V25.1315H123.018L122.982 25.1799ZM71.149 12.5777H70.5864V13.3799H71.149V12.5777ZM174.456 25.6231C174.456 25.6354 174.443 25.6467 174.443 25.6591C174.443 25.6827 174.431 25.7074 174.431 25.7311C174.383 26.198 174.036 26.4736 173.425 26.4736C173.042 26.4736 172.742 26.3296 172.407 26.1496L172.312 26.1013L172.06 26.5929L172.155 26.6412C172.55 26.8572 172.898 27.0248 173.401 27.0248C174.383 27.0248 175.006 26.4736 175.006 25.6231V21.4899H174.455V25.6231H174.456ZM154.798 27.0248H155.36V26.2103H154.798V27.0248ZM174.108 25.6951H174.121V25.1325H173.893C172.551 25.1325 172.072 24.3057 172.072 23.5868C172.072 22.6407 173.018 22.0411 173.893 22.0411H174.121V21.4899H174.108C172.539 21.4899 171.521 22.3168 171.521 23.5858C171.521 24.8549 172.491 25.6941 174.108 25.6941M174.456 13.7285V17.8493C174.456 17.8617 174.456 17.873 174.443 17.8853V17.945H174.431C174.383 18.4242 174.036 18.6998 173.425 18.6998C173.054 18.6998 172.742 18.5559 172.407 18.3759L172.312 18.3276L172.06 18.8191L172.155 18.8675C172.55 19.0834 172.898 19.2511 173.401 19.2511C174.37 19.2511 175.006 18.6998 175.006 17.8493V13.7285H174.455H174.456ZM139.512 25.6951H170.083V25.1325H139.512V25.6951ZM170.18 21.1433H170.742V20.3412H170.18V21.1433ZM169.533 24.7973H170.084V21.5033H169.533V24.7973ZM122.683 25.1325C122.706 25.0842 122.731 25.0369 122.755 24.9886C122.767 24.9649 122.767 24.9526 122.778 24.9289L122.791 24.8929C122.803 24.8446 122.827 24.8086 122.839 24.7613C122.899 24.5453 122.935 24.318 122.935 24.0908C122.935 23.6599 122.827 23.2526 122.612 22.8927C122.396 22.5338 122.084 22.2458 121.701 22.0658C121.45 21.9465 121.174 21.8859 120.887 21.8622V22.4134C121.773 22.4978 122.397 23.1796 122.397 24.0908C122.397 25.0019 121.786 25.6601 120.887 25.7434V26.2946C121.199 26.271 121.498 26.199 121.773 26.0674L121.797 26.055C121.809 26.0427 121.821 26.0427 121.833 26.0314L121.869 26.0077C121.905 25.9841 121.953 25.9594 121.988 25.9357L122.024 25.9121C122.073 25.8761 122.12 25.8524 122.168 25.8164C122.204 25.7928 122.228 25.7681 122.264 25.7321L122.288 25.7198C122.3 25.7074 122.311 25.6961 122.324 25.6838C122.455 25.5521 122.563 25.4082 122.659 25.2405L122.683 25.1325ZM72.706 17.0462H73.2572V13.7275H72.706V17.0462ZM68.2375 17.0585C67.9496 16.8425 67.8303 16.5433 67.8303 16.0887V14.472H67.2791V16.1607C67.2791 16.5556 67.4343 17.1305 67.8539 17.4544C68.3208 17.8134 68.7641 17.9337 69.5426 17.9337H73.2685V17.3824H69.339C68.8957 17.3701 68.5121 17.2632 68.2365 17.0595M70.5854 21.1433H71.1479V20.3412H70.5854V21.1433ZM72.6823 24.7973H73.2335V21.4909H72.6823V24.7973ZM69.7832 12.5777H69.2207V13.3799H69.7832V12.5777ZM69.7832 20.3402H69.2207V21.1423H69.7832V20.3402ZM68.2375 24.8209C67.9496 24.605 67.8303 24.3057 67.8303 23.8511V22.2458H67.2791V23.9231C67.2791 24.318 67.4343 24.8929 67.8539 25.2045C68.3208 25.5634 68.7641 25.6838 69.5426 25.6838H73.2325V25.1325H69.3276C68.8967 25.1325 68.5131 25.0246 68.2375 24.8209ZM98.5561 25.6231V25.6951C98.5201 26.1743 98.1488 26.4612 97.5379 26.4612C97.1544 26.4612 96.8551 26.3173 96.5198 26.1373L96.4242 26.089L96.1722 26.5805L96.2679 26.6289C96.6628 26.8448 97.0104 27.0125 97.5133 27.0125C98.3041 27.0125 99.1186 26.8808 99.1186 25.9347V21.4909H98.5674V25.6241H98.555L98.5561 25.6231ZM93.5971 22.0771C93.3451 21.9578 93.0695 21.8972 92.7826 21.8735V22.4247C93.6691 22.5091 94.2923 23.1909 94.2923 24.1021C94.2923 25.0132 93.6814 25.6714 92.7826 25.7547V26.306C93.0942 26.2823 93.3935 26.2103 93.6567 26.0787L93.6804 26.0663C93.6927 26.054 93.704 26.054 93.7164 26.0427L93.74 26.0303C93.7884 26.0067 93.8244 25.982 93.8717 25.946C93.884 25.946 93.884 25.9337 93.9077 25.9224C93.956 25.8864 94.0033 25.8627 94.0516 25.8267C94.0876 25.8031 94.1113 25.7671 94.1596 25.7311L94.1956 25.6951C94.3273 25.5634 94.4352 25.4195 94.5309 25.2518L94.5905 25.1325C94.6142 25.0842 94.6389 25.0369 94.6625 24.9886C94.6749 24.9649 94.6749 24.9526 94.6862 24.9289L94.6985 24.9053C94.7108 24.8569 94.7345 24.8209 94.7468 24.7736C94.8065 24.5577 94.8425 24.3304 94.8425 24.1031C94.8425 23.6722 94.7345 23.2526 94.5185 22.905C94.2913 22.5461 93.9797 22.2581 93.5961 22.0782M118.742 23.048C118.574 23.3719 118.502 23.7308 118.502 24.0897C118.502 25.2878 119.401 26.234 120.551 26.306V25.7547C119.7 25.6951 119.053 24.9762 119.053 24.0897C119.053 23.2032 119.713 22.4844 120.551 22.4124V21.8612C120.395 21.8735 120.228 21.8848 120.071 21.9332C119.509 22.1131 119.017 22.5204 118.742 23.0469M118.441 25.1799L118.418 25.1315H99.4313V25.6827H118.765L118.681 25.5634C118.585 25.4555 118.513 25.3238 118.441 25.1799ZM90.3514 25.1799L90.3278 25.1315H74.7433V25.6827H90.663L90.5787 25.5634C90.4944 25.4555 90.4111 25.3238 90.3514 25.1799ZM90.6507 23.048C90.4831 23.3719 90.4111 23.7185 90.4111 24.0897C90.4111 25.2878 91.3099 26.234 92.4597 26.306V25.7547C91.6092 25.6951 90.9623 24.9762 90.9623 24.0897C90.9623 23.2032 91.6215 22.4844 92.4597 22.4124V21.8612C92.292 21.8735 92.1357 21.8848 91.9804 21.9332C91.4055 22.1131 90.9263 22.5204 90.6507 23.0469M75.3048 20.3648H74.7535V24.8086H75.3048V20.3648ZM77.7493 17.4534C78.1689 17.1295 78.3242 16.5546 78.3242 16.1597V12.5664H77.7729V16.0887C77.7729 16.5443 77.6537 16.8436 77.3657 17.0585C77.1261 17.2385 76.7785 17.3465 76.3836 17.3701H74.119L74.1787 17.9213H76.0473C76.7538 17.9337 77.3287 17.766 77.7483 17.4544" fill="#263169"/>
<defs>
<linearGradient id="paint0_linear_1803_24579" x1="-13.1815" y1="-22.4177" x2="44.471" y2="48.2713" gradientUnits="userSpaceOnUse">
<stop stop-color="#4BAD4B"/>
<stop offset="0.06" stop-color="#47AC51"/>
<stop offset="0.14" stop-color="#3BA962"/>
<stop offset="0.23" stop-color="#28A47F"/>
<stop offset="0.34" stop-color="#0D9DA6"/>
<stop offset="0.38" stop-color="#009ABA"/>
<stop offset="1" stop-color="#253169"/>
</linearGradient>
<linearGradient id="paint1_linear_1803_24579" x1="2.12606" y1="-29.6959" x2="55.0769" y2="35.2283" gradientUnits="userSpaceOnUse">
<stop stop-color="#4BAD4B"/>
<stop offset="0.06" stop-color="#47AC51"/>
<stop offset="0.14" stop-color="#3BA962"/>
<stop offset="0.23" stop-color="#28A47F"/>
<stop offset="0.33" stop-color="#0D9DA6"/>
<stop offset="0.38" stop-color="#009ABA"/>
<stop offset="1" stop-color="#253169"/>
</linearGradient>
<linearGradient id="paint2_linear_1803_24579" x1="-2.58614" y1="-25.8537" x2="50.3647" y2="39.0705" gradientUnits="userSpaceOnUse">
<stop stop-color="#4BAD4B"/>
<stop offset="0.06" stop-color="#47AC51"/>
<stop offset="0.14" stop-color="#3BA962"/>
<stop offset="0.23" stop-color="#28A47F"/>
<stop offset="0.33" stop-color="#0D9DA6"/>
<stop offset="0.38" stop-color="#009ABA"/>
<stop offset="1" stop-color="#253169"/>
</linearGradient>
<linearGradient id="paint3_linear_1803_24579" x1="-13.3121" y1="27.7391" x2="49.8144" y2="-2.58733" gradientUnits="userSpaceOnUse">
<stop stop-color="#4BAD4B"/>
<stop offset="0.4" stop-color="#009ABA"/>
<stop offset="0.54" stop-color="#0884A9"/>
<stop offset="0.83" stop-color="#1C4C7E"/>
<stop offset="0.95" stop-color="#253169"/>
<stop offset="1" stop-color="#253169"/>
</linearGradient>
<linearGradient id="paint4_linear_1803_24579" x1="-11.8361" y1="30.8138" x2="51.2903" y2="0.487343" gradientUnits="userSpaceOnUse">
<stop stop-color="#4BAD4B"/>
<stop offset="0.4" stop-color="#009ABA"/>
<stop offset="0.54" stop-color="#0884A9"/>
<stop offset="0.83" stop-color="#1C4C7E"/>
<stop offset="0.95" stop-color="#253169"/>
<stop offset="1" stop-color="#253169"/>
</linearGradient>
<linearGradient id="paint5_linear_1803_24579" x1="-14.7317" y1="24.7863" x2="48.3947" y2="-5.54013" gradientUnits="userSpaceOnUse">
<stop stop-color="#4BAD4B"/>
<stop offset="0.4" stop-color="#009ABA"/>
<stop offset="0.54" stop-color="#0884A9"/>
<stop offset="0.83" stop-color="#1C4C7E"/>
<stop offset="0.95" stop-color="#253169"/>
<stop offset="1" stop-color="#253169"/>
</linearGradient>
<linearGradient id="paint6_linear_1803_24579" x1="-11.3197" y1="31.8924" x2="51.8068" y2="1.56596" gradientUnits="userSpaceOnUse">
<stop stop-color="#4BAD4B"/>
<stop offset="0.4" stop-color="#009ABA"/>
<stop offset="0.54" stop-color="#0884A9"/>
<stop offset="0.83" stop-color="#1C4C7E"/>
<stop offset="0.95" stop-color="#253169"/>
<stop offset="1" stop-color="#253169"/>
</linearGradient>
<linearGradient id="paint7_linear_1803_24579" x1="-8.44204" y1="42.2423" x2="56.3136" y2="11.1332" gradientUnits="userSpaceOnUse">
<stop stop-color="#4BAD4B"/>
<stop offset="0.4" stop-color="#009ABA"/>
<stop offset="0.44" stop-color="#0490B2"/>
<stop offset="0.7" stop-color="#165D8B"/>
<stop offset="0.89" stop-color="#213D72"/>
<stop offset="1" stop-color="#253169"/>
</linearGradient>
<linearGradient id="paint8_linear_1803_24579" x1="-17.1102" y1="24.2013" x2="47.6455" y2="-6.90784" gradientUnits="userSpaceOnUse">
<stop stop-color="#4BAD4B"/>
<stop offset="0.4" stop-color="#009ABA"/>
<stop offset="0.44" stop-color="#0490B2"/>
<stop offset="0.7" stop-color="#165D8B"/>
<stop offset="0.89" stop-color="#213D72"/>
<stop offset="1" stop-color="#253169"/>
</linearGradient>
<linearGradient id="paint9_linear_1803_24579" x1="2.77537" y1="-28.0845" x2="51.1687" y2="58.7898" gradientUnits="userSpaceOnUse">
<stop stop-color="#009ABA"/>
<stop offset="0.17" stop-color="#009ABA"/>
<stop offset="0.31" stop-color="#0294B5"/>
<stop offset="0.49" stop-color="#0882A7"/>
<stop offset="0.7" stop-color="#136591"/>
<stop offset="0.94" stop-color="#213D72"/>
<stop offset="1" stop-color="#253169"/>
</linearGradient>
<linearGradient id="paint10_linear_1803_24579" x1="-2.48352" y1="-25.1521" x2="45.9098" y2="61.7221" gradientUnits="userSpaceOnUse">
<stop stop-color="#009ABA"/>
<stop offset="0.17" stop-color="#009ABA"/>
<stop offset="0.31" stop-color="#0294B5"/>
<stop offset="0.49" stop-color="#0882A7"/>
<stop offset="0.7" stop-color="#136591"/>
<stop offset="0.94" stop-color="#213D72"/>
<stop offset="1" stop-color="#253169"/>
</linearGradient>
<linearGradient id="paint11_linear_1803_24579" x1="1.86351" y1="-27.5744" x2="50.2568" y2="59.2998" gradientUnits="userSpaceOnUse">
<stop stop-color="#009ABA"/>
<stop offset="0.17" stop-color="#009ABA"/>
<stop offset="0.31" stop-color="#0294B5"/>
<stop offset="0.49" stop-color="#0882A7"/>
<stop offset="0.7" stop-color="#136591"/>
<stop offset="0.94" stop-color="#213D72"/>
<stop offset="1" stop-color="#253169"/>
</linearGradient>
<linearGradient id="paint12_linear_1803_24579" x1="-6.17548" y1="-23.0961" x2="42.2178" y2="63.7782" gradientUnits="userSpaceOnUse">
<stop stop-color="#009ABA"/>
<stop offset="0.17" stop-color="#009ABA"/>
<stop offset="0.31" stop-color="#0294B5"/>
<stop offset="0.49" stop-color="#0882A7"/>
<stop offset="0.7" stop-color="#136591"/>
<stop offset="0.94" stop-color="#213D72"/>
<stop offset="1" stop-color="#253169"/>
</linearGradient>
<linearGradient id="paint13_linear_1803_24579" x1="66.9185" y1="40.8158" x2="-23.9162" y2="-27.36" gradientUnits="userSpaceOnUse">
<stop stop-color="#4BAD4B"/>
<stop offset="0.34" stop-color="#009ABA"/>
<stop offset="1" stop-color="#253169"/>
</linearGradient>
<linearGradient id="paint14_linear_1803_24579" x1="69.0917" y1="37.9216" x2="-21.743" y2="-30.2542" gradientUnits="userSpaceOnUse">
<stop stop-color="#4BAD4B"/>
<stop offset="0.34" stop-color="#009ABA"/>
<stop offset="1" stop-color="#253169"/>
</linearGradient>
<linearGradient id="paint15_linear_1803_24579" x1="65.9056" y1="42.1684" x2="-24.929" y2="-26.0074" gradientUnits="userSpaceOnUse">
<stop stop-color="#4BAD4B"/>
<stop offset="0.34" stop-color="#009ABA"/>
<stop offset="1" stop-color="#253169"/>
</linearGradient>
<linearGradient id="paint16_linear_1803_24579" x1="68.3903" y1="38.8591" x2="-22.4443" y2="-29.3167" gradientUnits="userSpaceOnUse">
<stop stop-color="#4BAD4B"/>
<stop offset="0.34" stop-color="#009ABA"/>
<stop offset="1" stop-color="#253169"/>
</linearGradient>
<linearGradient id="paint17_linear_1803_24579" x1="68.5952" y1="38.5863" x2="-22.2394" y2="-29.5895" gradientUnits="userSpaceOnUse">
<stop stop-color="#4BAD4B"/>
<stop offset="0.34" stop-color="#009ABA"/>
<stop offset="1" stop-color="#253169"/>
</linearGradient>
<linearGradient id="paint18_linear_1803_24579" x1="62.0985" y1="31.9476" x2="-7.91349" y2="61.3636" gradientUnits="userSpaceOnUse">
<stop stop-color="#4BAD4B"/>
<stop offset="0.22" stop-color="#009ABA"/>
<stop offset="1" stop-color="#253169"/>
</linearGradient>
<linearGradient id="paint19_linear_1803_24579" x1="62.3397" y1="32.5244" x2="-7.67224" y2="61.9404" gradientUnits="userSpaceOnUse">
<stop stop-color="#4BAD4B"/>
<stop offset="0.22" stop-color="#009ABA"/>
<stop offset="1" stop-color="#253169"/>
</linearGradient>
<linearGradient id="paint20_linear_1803_24579" x1="66.7926" y1="26.2047" x2="-14.91" y2="60.5325" gradientUnits="userSpaceOnUse">
<stop stop-color="#4BAD4B"/>
<stop offset="0.26" stop-color="#009ABA"/>
<stop offset="0.46" stop-color="#0D749D"/>
<stop offset="0.69" stop-color="#1A5081"/>
<stop offset="0.88" stop-color="#22396F"/>
<stop offset="1" stop-color="#253169"/>
</linearGradient>
<linearGradient id="paint21_linear_1803_24579" x1="66.568" y1="25.6768" x2="-15.1345" y2="60.0046" gradientUnits="userSpaceOnUse">
<stop stop-color="#4BAD4B"/>
<stop offset="0.26" stop-color="#009ABA"/>
<stop offset="0.46" stop-color="#0D749D"/>
<stop offset="0.69" stop-color="#1A5081"/>
<stop offset="0.88" stop-color="#22396F"/>
<stop offset="1" stop-color="#253169"/>
</linearGradient>
<linearGradient id="paint22_linear_1803_24579" x1="66.2857" y1="25.0004" x2="-15.4168" y2="59.3282" gradientUnits="userSpaceOnUse">
<stop stop-color="#4BAD4B"/>
<stop offset="0.26" stop-color="#009ABA"/>
<stop offset="0.46" stop-color="#0D749D"/>
<stop offset="0.69" stop-color="#1A5081"/>
<stop offset="0.88" stop-color="#22396F"/>
<stop offset="1" stop-color="#253169"/>
</linearGradient>
<linearGradient id="paint23_linear_1803_24579" x1="66.6526" y1="25.8773" x2="-15.0499" y2="60.2051" gradientUnits="userSpaceOnUse">
<stop stop-color="#4BAD4B"/>
<stop offset="0.26" stop-color="#009ABA"/>
<stop offset="0.46" stop-color="#0D749D"/>
<stop offset="0.69" stop-color="#1A5081"/>
<stop offset="0.88" stop-color="#22396F"/>
<stop offset="1" stop-color="#253169"/>
</linearGradient>
<linearGradient id="paint24_linear_1803_24579" x1="67.5524" y1="28.019" x2="-14.1501" y2="62.3468" gradientUnits="userSpaceOnUse">
<stop stop-color="#4BAD4B"/>
<stop offset="0.26" stop-color="#009ABA"/>
<stop offset="0.46" stop-color="#0D749D"/>
<stop offset="0.69" stop-color="#1A5081"/>
<stop offset="0.88" stop-color="#22396F"/>
<stop offset="1" stop-color="#253169"/>
</linearGradient>
<linearGradient id="paint25_linear_1803_24579" x1="65.839" y1="29.7014" x2="-24.432" y2="67.6293" gradientUnits="userSpaceOnUse">
<stop stop-color="#4BAD4B"/>
<stop offset="0.34" stop-color="#009ABA"/>
<stop offset="1" stop-color="#253169"/>
</linearGradient>
<linearGradient id="paint26_linear_1803_24579" x1="64.2895" y1="26.0183" x2="-25.9814" y2="63.9461" gradientUnits="userSpaceOnUse">
<stop stop-color="#4BAD4B"/>
<stop offset="0.34" stop-color="#009ABA"/>
<stop offset="1" stop-color="#253169"/>
</linearGradient>
<linearGradient id="paint27_linear_1803_24579" x1="67.8813" y1="28.3411" x2="-21.4162" y2="65.86" gradientUnits="userSpaceOnUse">
<stop stop-color="#4BAD4B"/>
<stop offset="0.31" stop-color="#009ABA"/>
<stop offset="1" stop-color="#253169"/>
</linearGradient>
<linearGradient id="paint28_linear_1803_24579" x1="61.9929" y1="14.3281" x2="-27.3045" y2="51.847" gradientUnits="userSpaceOnUse">
<stop stop-color="#4BAD4B"/>
<stop offset="0.31" stop-color="#009ABA"/>
<stop offset="1" stop-color="#253169"/>
</linearGradient>
<linearGradient id="paint29_linear_1803_24579" x1="66.6006" y1="25.2943" x2="-22.6969" y2="62.8132" gradientUnits="userSpaceOnUse">
<stop stop-color="#4BAD4B"/>
<stop offset="0.31" stop-color="#009ABA"/>
<stop offset="1" stop-color="#253169"/>
</linearGradient>
<linearGradient id="paint30_linear_1803_24579" x1="68.9325" y1="30.8447" x2="-20.3649" y2="68.3635" gradientUnits="userSpaceOnUse">
<stop stop-color="#4BAD4B"/>
<stop offset="0.31" stop-color="#009ABA"/>
<stop offset="1" stop-color="#253169"/>
</linearGradient>
</defs>
</svg>
