<svg width="169" height="49" viewBox="0 0 169 49" fill="none" xmlns="http://www.w3.org/2000/svg">
<path d="M3.17822 8.78072L3.9057 7.9805L4.70593 8.78072H4.85142L5.72439 7.835L4.77867 6.88928H4.63318L3.9057 7.68951L3.10547 6.88928H3.03273L2.08701 7.835L3.03273 8.78072H3.17822Z" fill="#6B6A6A"/>
<path d="M2.59624 15.6916C3.10547 15.6916 3.54196 15.5461 3.97845 15.3279C4.0512 15.0369 4.12394 14.7459 4.19669 14.4549C4.41493 16.0554 4.99692 16.7101 6.30638 16.7101H31.5499C33.2231 16.7101 34.8235 16.4191 36.424 15.9826L37.5879 15.6189L37.9517 14.1639L37.8789 14.0912L36.7149 14.3822C34.8963 14.8186 33.0048 14.2367 33.0048 13.1454C33.0048 12.2725 33.9505 11.836 34.8235 11.836C35.6237 11.836 36.424 12.0542 37.0787 12.5635L37.3697 12.1997C36.7877 10.963 36.0602 10.3083 35.1145 10.3083C33.7323 10.3083 32.4956 11.836 32.4956 13.4364C32.4956 14.0912 32.7866 14.7459 33.2958 15.1824C32.7866 15.2551 32.2773 15.2551 31.6226 15.2551H6.59737C5.4334 15.2551 5.14241 14.8186 4.99692 13.5092L4.56043 9.65355H4.19669L3.68746 10.8903L2.52349 11.6905C1.14128 12.5635 0.63205 13.2182 0.63205 14.0912C0.63205 14.9641 1.43228 15.6916 2.59624 15.6916ZM2.15975 12.709L3.7602 11.9087L4.0512 13.9457C3.54196 14.1639 3.03273 14.2367 2.52349 14.2367C1.72327 14.2367 1.14128 14.0184 1.14128 13.6547C1.14128 13.2909 1.50502 13 2.15975 12.709Z" fill="#6B6A6A"/>
<path d="M42.3165 16.7101H53.1559C53.6652 16.7101 54.1744 16.4919 54.6109 16.2009C54.6836 15.9099 54.7564 15.6917 54.8291 15.4007C55.0474 16.2009 55.7749 16.7101 56.9388 16.7101H60.067C60.7217 16.7101 61.3037 16.4191 61.6674 15.9826C62.6859 16.6374 63.9226 17.0011 65.1593 17.0011C66.5415 17.0011 67.9237 16.7829 69.2332 16.2736C69.8879 16.6374 70.6882 16.7829 71.4156 16.7829C72.2886 16.7829 73.1616 16.4919 73.8891 16.0554C74.1801 15.4007 74.2528 14.7459 74.2528 14.0185V8.48963L74.9803 7.90764V7.8349L74.2528 6.96192V5.87071H74.1073C73.1616 6.52544 72.9433 7.25291 73.4526 7.98039L73.6708 14.8914C73.0888 15.1097 72.5069 15.1824 71.9249 15.1824C71.4884 15.1824 71.0519 15.1097 70.6154 15.1097C70.8337 14.6004 70.9064 14.0912 70.9064 13.582C70.9064 12.2725 69.9607 11.254 68.6512 11.1813H68.5785C67.0508 11.1813 65.5958 12.3453 63.6316 15.1824C63.2679 15.1097 62.9042 14.9642 62.6132 14.8187L63.3406 13.8002L62.9769 13.5092L62.4677 14.2367C61.9584 14.9642 61.0855 15.4007 60.2125 15.2552H57.3753C56.1386 15.2552 55.7021 14.9642 55.7021 14.0912V12.7817H55.1929L54.8291 14.8914C54.3199 15.1824 53.7379 15.2552 53.1559 15.2552H42.6075C41.3708 15.2552 40.9343 14.8914 40.9343 13.9457V5.87071H40.4978L39.7704 7.25291L39.9886 13.9457C39.9886 15.9826 40.6433 16.7101 42.3165 16.7101ZM67.9237 12.709C69.015 12.7817 69.9607 13.5092 70.2517 14.5277C68.724 15.1824 67.0508 15.4734 65.3048 15.4734C64.9411 15.4734 64.5046 15.4007 64.1409 15.3279C65.6686 13.5092 66.687 12.709 67.9237 12.709Z" fill="#6B6A6A"/>
<path d="M55.4839 11.6179L56.4296 10.6722L55.4839 9.79919H55.3384L54.3927 10.6722L55.3384 11.6179H55.4839Z" fill="#6B6A6A"/>
<path d="M77.7447 16.7101L78.1812 15.0369V5.87071H77.6719L77.0172 7.25291L77.2355 16.7101H77.7447Z" fill="#6B6A6A"/>
<path d="M84.1465 10.09L84.9467 9.28982L85.6742 10.09H85.8197L86.7654 9.14432L85.8197 8.1986H85.6742L84.9467 8.92608L84.1465 8.1986H84.001L83.1281 9.14432L84.0738 10.09H84.1465Z" fill="#6B6A6A"/>
<path d="M84.874 16.9284C86.3289 16.9284 87.2019 15.8372 87.2019 14.2367C87.2019 12.7818 86.5472 11.9088 83.9283 10.8176L83.8555 10.8903V12.3453C83.2008 13.0728 82.7643 14.0185 82.6915 14.9642C82.6188 16.0554 83.419 16.9284 84.5102 17.0012C84.6557 16.9284 84.7285 16.9284 84.874 16.9284ZM84.4375 12.7818C86.0379 13.5093 86.6199 14.0912 86.6199 14.6005C86.6199 15.1097 86.0379 15.4734 84.9467 15.4734C83.8555 15.4734 83.2735 15.1097 83.2735 14.5277C83.419 13.8003 83.8555 13.1455 84.4375 12.7818Z" fill="#6B6A6A"/>
<path d="M87.1292 18.8199V19.2564L89.8936 20.1294C91.1303 18.6017 91.8578 16.783 91.9305 14.8188C91.8578 13.6548 91.494 12.5636 90.9121 11.6179H90.4756L89.9663 12.8546C90.9848 14.1641 91.3485 14.746 91.3485 15.5463C91.3485 17.074 89.8208 18.1652 87.1292 18.8199Z" fill="#6B6A6A"/>
<path d="M94.4767 16.7101L94.9132 15.0369V5.87071H94.4767L93.7492 7.25291L94.0402 16.7101H94.4767Z" fill="#6B6A6A"/>
<path d="M99.6418 14.8914C99.569 13.7275 99.2053 12.6362 98.6233 11.6905H98.1868L97.6776 12.9272C98.6961 14.2367 99.0598 14.8187 99.0598 15.6189C99.0598 16.9284 97.5321 18.0923 94.8404 18.7471V19.1835L97.6048 20.0565C98.8416 18.6743 99.4963 16.8556 99.6418 14.8914Z" fill="#6B6A6A"/>
<path d="M98.2596 10.5994L99.1326 9.6537L98.1868 8.70798H98.1141L97.1684 9.6537L98.1141 10.5994H98.2596Z" fill="#6B6A6A"/>
<path d="M105.462 14.746C105.462 12.7818 104.516 11.1813 103.279 11.1813C102.188 11.1813 101.097 12.709 101.097 14.2367C101.024 15.1825 101.679 16.0554 102.697 16.2009C102.843 16.2009 102.915 16.2009 103.061 16.2009C103.497 16.2009 104.007 16.1282 104.443 15.9099L104.88 14.8187C104.952 15.037 104.952 15.328 104.952 15.5462C104.952 17.2194 103.206 18.3834 100.078 18.8926V19.3291L102.843 20.2021C104.37 18.8198 105.316 16.8557 105.462 14.746ZM103.206 14.6732C102.261 14.6732 101.679 14.455 101.679 13.9457C101.679 13.291 102.188 12.709 102.915 12.709C103.643 12.709 104.443 13.5093 104.734 14.455C104.225 14.6005 103.716 14.6732 103.206 14.6732Z" fill="#6B6A6A"/>
<path d="M4.63318 23.4756L3.9057 24.2759L3.10547 23.4756H3.03273L2.08701 24.4214L3.03273 25.3671H3.17822L3.9057 24.5669L4.70593 25.3671H4.85142L5.72439 24.4214L4.77867 23.4756H4.63318Z" fill="#6B6A6A"/>
<path d="M21.9471 34.5334H21.8016L21.0742 35.3337L20.2739 34.5334H20.2012L19.2555 35.4792L20.2012 36.4249H20.3467L21.0742 35.6247L21.8744 36.4249H22.0199L22.8929 35.4792L21.9471 34.5334Z" fill="#6B6A6A"/>
<path d="M28.9309 33.224H31.8409C32.7866 33.224 33.6595 33.0057 34.5325 32.5692C34.8235 31.9145 34.8963 31.187 34.8963 30.5323C34.8963 29.7321 34.6053 28.9319 34.1688 28.2771H33.7323L33.2231 29.5138C33.7323 30.0231 34.096 30.6051 34.3143 31.3325C33.514 31.6235 32.7138 31.769 31.8409 31.769H23.2566C22.0199 31.769 21.5834 31.478 21.5834 30.6051V29.2956H21.1469L20.7832 31.4053C20.274 31.6963 19.692 31.769 19.11 31.769H6.59737C5.4334 31.769 5.14241 31.3325 4.99692 30.0231L4.56043 26.1674H4.19669L3.68746 27.4042L2.52349 28.2044C1.14128 29.1501 0.63205 29.7321 0.63205 30.6778C0.63205 31.6235 1.43228 32.2783 2.59624 32.2783C3.10547 32.2783 3.54196 32.1328 3.97845 31.9145C4.0512 31.6235 4.12394 31.3325 4.19669 31.0415C4.41493 32.642 4.99692 33.2967 6.30638 33.2967H19.11C19.6192 33.2967 20.2012 33.0785 20.5649 32.7875C20.6377 32.4965 20.7104 32.2783 20.7832 31.9873C21.0014 32.7875 21.7289 33.2967 22.8929 33.2967L28.9309 33.224ZM2.59624 30.7506C1.79601 30.7506 1.21403 30.5323 1.21403 30.1686C1.21403 29.8048 1.50502 29.5138 2.15975 29.2229L3.7602 28.4226L4.0512 30.4596C3.61471 30.6778 3.10547 30.7506 2.59624 30.7506Z" fill="#6B6A6A"/>
<path d="M32.7866 26.24L33.7323 27.1858H33.8778L34.8235 26.24L33.8778 25.2943H33.7323L32.7866 26.24Z" fill="#6B6A6A"/>
<path d="M64.9411 22.3844H64.5046C63.5589 23.0391 63.3407 23.7666 63.8499 24.4941L64.0681 31.4051C63.4862 31.6234 62.9042 31.6961 62.3222 31.6961C61.6675 31.7689 61.0127 31.4051 60.7945 30.7504L60.5035 30.0957C59.9215 29.0045 59.5578 28.6407 58.903 28.6407C57.9573 28.6407 57.0116 29.8047 56.7206 31.2596C56.2841 31.4779 55.7749 31.6234 55.3384 31.6234C54.4654 31.6961 53.6652 31.4051 53.0105 30.8959C53.738 30.2412 54.1017 29.8047 54.1017 29.2955C54.1017 28.4225 53.447 27.986 52.3557 27.986C51.701 27.986 51.0463 28.2042 50.537 28.4952L50.1006 29.9502L50.2461 30.3139C50.828 30.3139 51.41 30.5322 51.701 31.0414L51.7738 31.1142C50.9735 31.5506 50.1733 31.7689 49.3003 31.7689H43.4805C42.3893 31.7689 41.8073 31.2596 41.2981 29.5864L40.2069 26.531H39.8431L39.3339 27.7678L40.3524 30.3139C40.4979 30.7504 40.7161 31.1142 40.8616 31.4051C40.2796 31.7689 39.5521 31.9871 38.8247 31.9871C37.5152 31.9871 37.1515 31.7689 37.0787 30.8232V30.6049H36.6422C36.4967 30.9687 36.424 31.4051 36.424 31.8416C36.424 32.9328 37.0787 33.4421 38.4609 33.4421C39.2611 33.4421 40.0614 33.2238 40.7161 32.7146C40.7888 32.4236 40.8616 32.1326 40.9343 31.8416H41.0071C41.5891 32.9328 42.2438 33.2966 43.1168 33.2966H49.1548C50.3188 33.1511 51.41 32.6419 52.2103 31.8416C52.865 32.7873 53.8835 33.2966 55.0474 33.2966C55.7021 33.2966 56.2841 33.0783 56.7934 32.6419C57.8118 33.1511 58.9758 33.5148 60.067 33.6603C60.2125 33.2966 60.358 32.9328 60.4307 32.5691C60.7945 33.0783 61.4492 33.2966 62.0312 33.2966C62.9042 33.2966 63.7771 33.0783 64.5046 32.5691C64.7956 31.9144 64.8684 31.2596 64.8684 30.5322V25.0033L65.5958 24.4214L64.8684 23.5484L64.9411 22.3844ZM57.3026 31.3324C57.3753 30.7504 57.8846 30.3139 58.4666 30.2412C58.903 30.2412 59.194 30.4594 59.6305 31.1869L59.9943 31.8416C60.067 31.9871 60.1398 32.0599 60.2125 32.2054C59.194 31.9871 58.2483 31.6961 57.3026 31.3324Z" fill="#6B6A6A"/>
<path d="M68.142 33.2238L68.5785 31.6234V22.3844H68.142L67.4145 23.8394L67.7055 33.2238H68.142Z" fill="#6B6A6A"/>
<path d="M75.2713 33.5149C76.7262 33.5149 77.5992 32.4237 77.5992 30.8233C77.5992 29.3683 76.9445 28.4953 74.3256 27.4041L74.2528 27.4769V28.9318C73.5981 29.6593 73.1616 30.5323 73.0888 31.5507C73.0161 32.5692 73.8163 33.5149 74.9075 33.5877C75.053 33.5149 75.1258 33.5149 75.2713 33.5149ZM74.8348 29.2956C76.4352 30.023 77.0172 30.605 77.0172 31.1143C77.0172 31.6235 76.3625 31.9872 75.344 31.9872C74.3256 31.9872 73.6708 31.6235 73.6708 31.0415C73.8163 30.3868 74.2528 29.732 74.8348 29.2956Z" fill="#6B6A6A"/>
<path d="M74.4711 24.7125L73.5253 25.6582L74.4711 26.6039H74.6165L75.344 25.8037L76.1443 26.6039H76.2897L77.1627 25.6582L76.217 24.7125H76.1443L75.344 25.5127L74.5438 24.7125H74.4711Z" fill="#6B6A6A"/>
<path d="M81.2366 27.7679C80.1454 27.7679 79.0542 29.2956 79.0542 30.8233C78.9814 31.769 79.7089 32.642 80.6546 32.7147C80.7274 32.7147 80.8729 32.7147 81.0184 32.7147C81.4549 32.7147 81.9641 32.642 82.4006 32.4237L82.8371 31.3325C82.9098 31.5507 82.9098 31.8417 82.9098 32.06C82.9098 33.7332 81.1639 34.8971 78.0357 35.4064V35.8429L80.8001 36.7158C82.4006 35.3336 83.3463 33.3694 83.4918 31.2598C83.419 29.3683 82.4733 27.7679 81.2366 27.7679ZM81.1639 31.187C80.2181 31.187 79.6362 30.9688 79.6362 30.4595C79.6362 29.8048 80.1454 29.2228 80.8729 29.2228C81.6003 29.2228 82.4006 30.023 82.6916 30.9688C82.1823 31.187 81.6731 31.2598 81.1639 31.187Z" fill="#6B6A6A"/>
<path d="M90.6938 24.8578L91.5668 23.9849L90.6211 23.1119H90.5483L89.6754 23.9849L90.5483 24.8578H90.6938Z" fill="#6B6A6A"/>
<path d="M91.4213 24.7851L90.6211 25.5126L89.8208 24.7851H89.7481L88.8024 25.7309L89.7481 26.6766H89.8936L90.6211 25.8763L91.4213 26.6766H91.5668L92.4398 25.7309L91.494 24.7851H91.4213Z" fill="#6B6A6A"/>
<path d="M92.7307 33.2238C93.6037 33.2238 94.4767 33.0056 95.2041 32.4964C95.4951 31.8416 95.5679 31.1869 95.5679 30.4594V24.9306L96.2954 24.3486L95.5679 23.4756V22.3844H95.2041C94.2584 23.0391 94.0402 23.7666 94.5494 24.4941L94.7677 31.4051C94.1857 31.6234 93.6037 31.6961 93.0217 31.6961C91.9305 31.6961 91.494 31.2596 91.2758 29.9502L90.912 27.695H90.5483L90.33 28.2042C89.8936 29.441 89.3843 29.7319 88.8023 29.7319C88.1476 29.6592 87.5656 29.2227 87.2019 28.6407H86.7654L86.2562 29.9502C87.2019 30.8232 87.6384 31.5506 87.6384 32.2054C87.6384 33.5148 86.1107 34.606 83.419 35.2608V35.6973L86.1834 36.643C87.4201 35.1153 88.1476 33.2966 88.2204 31.3324V31.1869C88.3659 31.1869 88.5113 31.2596 88.6568 31.2596C89.4571 31.2596 90.0391 30.7504 90.33 29.5864L90.4755 30.5322C90.8393 32.6419 91.3485 33.2966 92.7307 33.2238Z" fill="#6B6A6A"/>
<path d="M99.278 31.6234V22.3844H98.8416L98.1141 23.8394L98.4051 33.2238H98.8416L99.278 31.6234Z" fill="#6B6A6A"/>
<path d="M100.224 35.4063V35.8428L102.988 36.7158C104.589 35.3336 105.534 33.3694 105.68 31.2597C105.68 29.2955 104.734 27.695 103.497 27.695C102.406 27.695 101.315 29.2227 101.315 30.7504C101.242 31.6962 101.97 32.5691 102.915 32.6419C102.988 32.6419 103.134 32.6419 103.206 32.6419C103.643 32.6419 104.152 32.5691 104.589 32.3509L105.025 31.2597C105.098 31.4779 105.098 31.7689 105.098 31.9872C105.098 33.6604 103.279 34.8243 100.224 35.4063ZM103.352 31.1869C102.406 31.1869 101.824 30.9687 101.824 30.4595C101.824 29.8047 102.333 29.2227 103.061 29.2227C103.788 29.2227 104.589 30.023 104.88 30.9687C104.37 31.1869 103.861 31.2597 103.352 31.1869Z" fill="#6B6A6A"/>
<path d="M4.85142 40.3532L5.28791 40.2804V40.0622H4.0512V40.2804L3.03273 42.6811L1.86876 40.0622H0.704797V40.2804L1.14128 40.3532V43.4086L0.63205 43.5541V43.7723H2.08701V43.5541L1.43228 43.3358V40.5714L2.66899 43.2631L2.81448 43.5541H3.03273L3.10547 43.2631L4.26944 40.4987V43.4086L3.7602 43.5541V43.7723H5.36066V43.5541L4.85142 43.4086V40.3532Z" fill="#6B6A6A"/>
<path d="M6.59739 41.0079L5.72442 41.2262V41.4444L6.01541 41.5172V43.4086L5.65167 43.5541V43.7723H6.96113V43.5541L6.59739 43.4086V41.0079Z" fill="#6B6A6A"/>
<path d="M6.67017 39.9895C6.67017 39.7713 6.52467 39.6258 6.30643 39.6258C6.08818 39.6258 5.94269 39.7713 5.94269 39.9895C6.01544 40.2078 6.23368 40.2805 6.37917 40.2805C6.52467 40.2078 6.59742 40.0623 6.67017 39.9895Z" fill="#6B6A6A"/>
<path d="M9.87097 41.9536C9.87097 41.2262 9.65273 41.0079 9.07075 41.0079C8.70701 41.0807 8.41602 41.2262 8.19777 41.5172L8.05228 41.0079L7.3248 41.2989V41.4444L7.68854 41.5172V43.4086L7.3248 43.5541V43.7723H8.63426V43.5541L8.27052 43.4813V41.7354C8.41602 41.5899 8.63426 41.4444 8.92525 41.4444C9.28899 41.4444 9.43448 41.6626 9.43448 42.0264V43.4086L9.14349 43.4813V43.6996H10.3802V43.4813L10.0165 43.3358L9.87097 41.9536Z" fill="#6B6A6A"/>
<path d="M11.3987 41.0079L10.5257 41.2262V41.4444L10.8895 41.5172V43.4086L10.5257 43.5541V43.7723H11.8352V43.5541L11.3987 43.4086V41.0079Z" fill="#6B6A6A"/>
<path d="M11.4715 39.9894C11.3987 39.7712 11.1805 39.6984 11.035 39.6984C10.8895 39.6984 10.8168 39.8439 10.744 39.9894C10.8168 40.2077 11.035 40.2804 11.1805 40.2804C11.326 40.2077 11.4715 40.0622 11.4715 39.9894Z" fill="#6B6A6A"/>
<path d="M13.4356 42.2446L13.1446 42.0991C12.7809 41.9536 12.7081 41.8081 12.7081 41.5899C12.7081 41.3716 12.8536 41.2261 13.0719 41.2261C13.2174 41.2261 13.3629 41.2989 13.4356 41.3716L13.6539 41.8809H13.7994V41.1534C13.5811 41.0079 13.2901 41.0079 13.0719 41.0079C12.5626 40.9351 12.1262 41.3716 12.1262 41.8809C12.1262 42.2446 12.2716 42.4628 12.7081 42.6083L12.9264 42.7538C13.2901 42.8993 13.4356 43.1176 13.4356 43.3358C13.4356 43.5541 13.2174 43.7723 12.9991 43.7723C12.8536 43.7723 12.6354 43.6996 12.5626 43.6268L12.2716 42.9721H12.0534L12.1262 43.7723C12.3444 43.9178 12.6354 43.9905 12.9264 43.9905C13.4356 44.0633 13.9448 43.6996 14.0176 43.1176C14.0903 42.6811 13.9448 42.4628 13.4356 42.2446Z" fill="#6B6A6A"/>
<path d="M15.6908 43.4086C15.4726 43.4086 15.3271 43.4086 15.3271 42.9721V41.4444H16.0546V41.1534H15.3271V40.4259H15.1089L14.8179 41.1534L14.4541 41.2261V41.4444H14.8179V43.2631C14.8179 43.6268 14.9634 43.9178 15.3999 43.9178C15.6908 43.9178 15.9818 43.8451 16.2001 43.6268L16.1273 43.4813C15.9818 43.4086 15.8363 43.4086 15.6908 43.4086Z" fill="#6B6A6A"/>
<path d="M18.0187 41.0079C17.8005 41.0079 17.655 41.1534 17.4368 41.4444L17.2185 41.7354L17.1458 41.0807L16.3456 41.3717V41.5172L16.7093 41.5899V43.4813L16.3456 43.6268V43.8451H17.7278V43.6268L17.2185 43.5541V42.0264C17.2913 41.8809 17.4368 41.7354 17.5823 41.6626L18.0187 41.8081C18.1642 41.7354 18.237 41.5899 18.237 41.3717C18.237 41.2262 18.1642 41.0807 18.0187 41.0807C18.0915 41.0079 18.0187 41.0079 18.0187 41.0079Z" fill="#6B6A6A"/>
<path d="M20.2012 41.2989L20.5649 41.4444L19.8374 43.3358L19.1827 41.4444L19.5464 41.3716V41.1534H18.237V41.3716L18.528 41.4444L19.5464 44.0633L19.2554 44.7908C19.1827 44.6453 19.1099 44.5725 18.9644 44.5725C18.819 44.5725 18.6735 44.718 18.6735 44.8635C18.6735 45.0818 18.819 45.2273 19.0372 45.2273C19.3282 45.2273 19.4737 45.009 19.6919 44.4998L20.9286 41.4444L21.2196 41.3716V41.1534H20.2739V41.2989H20.2012Z" fill="#6B6A6A"/>
<path d="M23.7659 41.0079C23.0384 41.0079 22.3836 41.6626 22.4564 42.4629C22.3836 43.1904 22.9656 43.7723 23.6204 43.8451C23.6931 43.8451 23.6931 43.8451 23.7659 43.8451C24.4933 43.8451 25.1481 43.1904 25.0753 42.3901C25.1481 41.7354 24.6388 41.0807 23.9841 41.0079C23.9113 41.0079 23.8386 41.0079 23.7659 41.0079ZM23.8386 43.5541C23.2566 43.5541 23.0384 42.8994 23.0384 42.3174C23.0384 41.7354 23.2566 41.2989 23.6931 41.2989C24.1296 41.2989 24.4933 41.7354 24.4933 42.5356C24.4933 43.1176 24.2751 43.5541 23.8386 43.5541Z" fill="#6B6A6A"/>
<path d="M27.0395 39.553C26.312 39.6257 25.8028 40.2804 25.8028 41.0079L25.439 41.1534V41.3717H25.8028V43.4086L25.439 43.5541V43.7723H26.8212V43.5541L26.312 43.4086V41.3717H27.0395V41.0807H26.312V40.6442C26.312 40.0622 26.5302 39.844 26.894 39.844C26.9667 39.844 27.0395 39.844 27.1122 39.9167L27.2577 40.4259C27.3305 40.4259 27.3305 40.4259 27.4032 40.4259C27.5487 40.4259 27.6942 40.3532 27.6942 40.1349C27.6942 40.1349 27.6942 40.1349 27.6942 40.0622C27.767 39.844 27.476 39.553 27.0395 39.553Z" fill="#6B6A6A"/>
<path d="M29.6584 40.3532L30.0949 40.2804V40.0622H28.5672V40.2804L29.0765 40.3532V43.4086L28.5672 43.5541V43.7723H30.1677V43.5541L29.6584 43.4086V40.3532Z" fill="#6B6A6A"/>
<path d="M33.0775 41.9536C33.0775 41.2262 32.8593 41.0079 32.2773 41.0079C31.9136 41.0807 31.6226 41.2262 31.4043 41.5172L31.2588 41.0079L30.5314 41.2989V41.4444L30.8951 41.5172V43.4086L30.5314 43.5541V43.7723H31.7681V43.5541L31.4043 43.4813V41.7354C31.5498 41.5899 31.7681 41.4444 32.0591 41.4444C32.4228 41.4444 32.5683 41.6626 32.5683 42.0264V43.4086L32.2773 43.4813V43.6996H33.514V43.4813L33.1503 43.3358L33.0775 41.9536Z" fill="#6B6A6A"/>
<path d="M36.2057 39.6258L35.1145 39.7713V39.9895L35.6237 40.0623V41.1535C35.4782 41.0807 35.3327 41.0807 35.1872 41.0807C34.387 41.0807 33.7323 41.8082 33.805 42.6084C33.7323 43.2632 34.1688 43.7724 34.8235 43.8452H34.8962C35.1872 43.8452 35.4782 43.6997 35.6965 43.4814L35.842 43.8452L36.6422 43.6997V43.4814L36.2057 43.3359V39.6258ZM35.6237 43.3359C35.4782 43.4087 35.3327 43.4814 35.1872 43.4814C34.5325 43.4814 34.3143 42.8994 34.3143 42.3175C34.3143 41.7355 34.678 41.3717 35.0417 41.3717C35.26 41.3717 35.4782 41.5172 35.6237 41.7355V43.3359Z" fill="#6B6A6A"/>
<path d="M39.4794 41.0807L38.4609 41.1535V41.3717L38.8974 41.4445V43.1904C38.7519 43.3359 38.5337 43.4087 38.3154 43.4087C37.9517 43.4087 37.7334 43.1904 37.7334 42.7539V41.0807L36.7877 41.1535V41.3717L37.1515 41.4445V42.8267C37.1515 43.4814 37.4424 43.7724 37.8789 43.7724C38.2427 43.7724 38.6064 43.5542 38.8247 43.3359L38.9702 43.7724L39.8431 43.6997V43.4814L39.4066 43.4087L39.4794 41.0807Z" fill="#6B6A6A"/>
<path d="M41.5163 42.2446L41.2981 42.0991C40.9343 41.9536 40.8616 41.8081 40.8616 41.5899C40.8616 41.3716 41.0071 41.2261 41.2253 41.2261C41.3708 41.2261 41.5163 41.2989 41.589 41.3716L41.8073 41.8809H41.9528V41.1534C41.7345 41.0079 41.4435 41.0079 41.2253 41.0079C40.7161 40.9351 40.2796 41.3716 40.2068 41.8809C40.2068 42.2446 40.3523 42.4628 40.7888 42.6083L41.0071 42.7538C41.3708 42.8993 41.5163 43.1176 41.5163 43.3358C41.5163 43.5541 41.2981 43.7723 41.0798 43.7723C41.0798 43.7723 41.0798 43.7723 41.0071 43.7723C40.8616 43.7723 40.6433 43.6996 40.5706 43.6268L40.2796 42.9721H40.0613L40.1341 43.7723C40.3523 43.9178 40.6433 43.9905 40.9343 43.9905C41.4435 44.0633 41.9528 43.6996 42.0255 43.1176C42.171 42.6811 41.9528 42.4628 41.5163 42.2446Z" fill="#6B6A6A"/>
<path d="M43.6987 43.4086C43.4805 43.4086 43.335 43.4086 43.335 42.9721V41.4444H44.0625V41.1534H43.335V40.4259H43.1168L42.8258 41.0806L42.462 41.2261V41.4444H42.8258V43.2631C42.8258 43.6268 42.9713 43.9178 43.4078 43.9178C43.6987 43.9178 43.9897 43.8451 44.208 43.6268V43.4813C43.9897 43.4086 43.8442 43.4086 43.6987 43.4086Z" fill="#6B6A6A"/>
<path d="M46.0267 41.0079C45.8084 41.0079 45.6629 41.1534 45.4447 41.4444L45.2264 41.7354L45.1537 41.0807L44.3535 41.3717V41.5172L44.7172 41.5899V43.4813L44.3535 43.6268V43.8451H45.7357V43.6268L45.2264 43.5541V42.0264C45.2992 41.8809 45.4447 41.7354 45.5902 41.6626L46.0267 41.8081C46.1722 41.7354 46.2449 41.5899 46.2449 41.3717C46.2449 41.2262 46.1722 41.0807 46.0267 41.0807C46.0994 41.0079 46.0267 41.0079 46.0267 41.0079Z" fill="#6B6A6A"/>
<path d="M48.2091 41.2989L48.5728 41.4444L47.8454 43.3358L47.1906 41.4444L47.6271 41.3716V41.1534H46.3177V41.3716L46.5359 41.4444L47.5544 44.0633L47.2634 44.7908C47.1906 44.6453 47.1179 44.5725 46.9724 44.5725C46.8269 44.5725 46.6814 44.718 46.6814 44.8635C46.6814 45.0818 46.8269 45.2273 47.0451 45.2273C47.3361 45.2273 47.4816 45.009 47.6999 44.4998L48.9366 41.4444L49.1548 41.3716V41.2261H48.2091V41.2989Z" fill="#6B6A6A"/>
<path d="M52.574 43.3358V41.8809C52.574 41.2989 52.3557 41.0079 51.701 41.0079C51.0463 41.0079 50.6098 41.4444 50.6098 41.7354C50.6098 41.8809 50.6825 41.9536 50.9008 41.9536C50.9735 41.9536 51.0463 41.9536 51.119 41.9536V41.3717C51.1918 41.2989 51.3373 41.2989 51.41 41.2989C51.701 41.2989 51.9193 41.5172 51.9193 41.9536V42.2446L51.3373 42.3901C50.7553 42.5356 50.4643 42.7539 50.4643 43.1904C50.4643 43.5541 50.7553 43.8451 51.119 43.8451C51.4828 43.8451 51.6283 43.6996 51.9193 43.4086C51.9193 43.6268 52.0647 43.8451 52.3557 43.8451C52.574 43.8451 52.7195 43.7723 52.9377 43.6996V43.5541H52.6467C52.574 43.4813 52.574 43.4813 52.574 43.3358ZM51.992 43.1904C51.9192 43.3358 51.701 43.4086 51.5555 43.4813C51.3373 43.4813 51.119 43.3358 51.119 43.1176C51.119 43.1176 51.119 43.1176 51.119 43.0449C51.119 42.8266 51.2645 42.6811 51.5555 42.6084L52.0647 42.4629V43.1904H51.992Z" fill="#6B6A6A"/>
<path d="M55.8476 41.9536C55.8476 41.2262 55.6294 41.0079 55.0474 41.0079C54.6837 41.0807 54.3927 41.2262 54.1744 41.5172L54.0289 41.0079L53.3015 41.2989V41.4444L53.6652 41.5172V43.4086L53.3015 43.5541V43.7723H54.4654V43.5541L54.1017 43.4813V41.7354C54.2472 41.5899 54.4654 41.4444 54.7564 41.4444C55.1201 41.4444 55.2656 41.6626 55.2656 42.0264V43.4086L54.9746 43.4813V43.6996H56.2114V43.4813L55.8476 43.3358V41.9536Z" fill="#6B6A6A"/>
<path d="M58.9758 39.6258L57.8846 39.7713V39.9895L58.3938 40.0623V41.1535C58.2483 41.0807 58.1028 41.0807 57.9573 41.0807C57.1571 41.0807 56.5024 41.8082 56.5751 42.6084C56.5024 43.2632 56.9388 43.7724 57.5936 43.8452H57.6663C57.9573 43.8452 58.2483 43.6997 58.4665 43.4814L58.612 43.8452L59.4123 43.6997V43.4814L58.9758 43.3359V39.6258ZM58.3938 43.3359C58.2483 43.4087 58.1028 43.4814 57.9573 43.4814C57.3026 43.4814 57.0843 42.8994 57.0843 42.3175C57.0843 41.7355 57.4481 41.3717 57.8118 41.3717C58.0301 41.3717 58.2483 41.5172 58.3938 41.7355V43.3359Z" fill="#6B6A6A"/>
<path d="M65.0866 40.3532L65.5231 40.2804V40.0622H64.2864V40.2804L63.2679 42.6811L62.1039 40.0622H60.8672V40.2804L61.3765 40.3532V43.4086L60.8672 43.5541V43.7723H62.3222V43.5541L61.6674 43.3358V40.5714L62.9042 43.2631L62.9769 43.5541H63.1951L63.3406 43.2631L64.5046 40.4987V43.4086L63.9954 43.5541V43.7723H65.5231V43.5541L65.0866 43.4086V40.3532Z" fill="#6B6A6A"/>
<path d="M66.105 39.9894C66.105 40.2076 66.2505 40.3531 66.4688 40.3531C66.687 40.3531 66.8325 40.2076 66.8325 39.9894C66.8325 39.7712 66.687 39.6257 66.4688 39.6257C66.2505 39.5529 66.105 39.7712 66.105 39.9894Z" fill="#6B6A6A"/>
<path d="M66.7598 41.0079L65.9596 41.2262V41.4444L66.2505 41.5172V43.4086L65.8868 43.5541V43.7723H67.1963V43.5541L66.7598 43.4086V41.0079Z" fill="#6B6A6A"/>
<path d="M70.0334 41.9536C70.0334 41.2262 69.8152 41.0079 69.2332 41.0079C68.8695 41.0807 68.5785 41.2262 68.3602 41.5172L68.2875 41.0079L67.56 41.2989V41.4444L67.9237 41.5172V43.4086L67.56 43.5541V43.7723H68.7967V43.5541L68.433 43.4813V41.7354C68.5785 41.5899 68.7967 41.4444 69.0877 41.4444C69.4514 41.4444 69.5969 41.6626 69.5969 42.0264V43.4086L69.3059 43.4813V43.6996H70.4699V43.4813L70.1062 43.3358L70.0334 41.9536Z" fill="#6B6A6A"/>
<path d="M72.2159 43.4087C71.6339 43.4087 71.2702 42.9722 71.2702 42.3175H73.0889C73.0889 41.59 72.7251 41.0807 72.0704 41.0807C71.3429 41.0807 70.6882 41.7355 70.7609 42.5357V42.6084C70.6882 43.2632 71.1974 43.8452 71.8521 43.9179C72.3614 43.9907 72.8706 43.6269 73.0889 43.1177L72.9434 43.0449C72.7979 43.1904 72.5796 43.3359 72.2159 43.4087ZM71.9976 41.299C72.3614 41.299 72.5069 41.6627 72.5069 42.0265H71.2702C71.2702 41.6627 71.5612 41.299 71.9976 41.299Z" fill="#6B6A6A"/>
<path d="M75.1985 41.0079C74.9803 41.0079 74.8348 41.1534 74.6165 41.4444L74.3983 41.7354L74.3256 41.0807L73.5253 41.3717V41.5172L73.8891 41.5899V43.4813L73.5253 43.6268V43.8451H74.9075V43.6268L74.3983 43.5541V42.0264C74.5438 41.8809 74.6165 41.8081 74.762 41.6626L75.1985 41.8081C75.344 41.7354 75.4168 41.5899 75.4168 41.3717C75.4168 41.2262 75.344 41.0807 75.1985 41.0807C75.2713 41.0079 75.1985 41.0079 75.1985 41.0079Z" fill="#6B6A6A"/>
<path d="M77.7447 43.3358V41.8809C77.7447 41.2989 77.5265 41.0079 76.8717 41.0079C76.217 41.0079 75.7805 41.4444 75.7805 41.7354C75.7805 41.8809 75.8533 41.9536 76.0715 41.9536C76.1442 41.9536 76.217 41.9536 76.2897 41.9536V41.3717C76.3625 41.2989 76.508 41.2989 76.5807 41.2989C76.8717 41.2989 77.09 41.5172 77.09 41.9536V42.2446L76.508 42.3901C75.926 42.5356 75.635 42.7539 75.635 43.1904C75.635 43.5541 75.926 43.8451 76.2897 43.8451C76.6535 43.8451 76.799 43.6996 77.09 43.4086C77.09 43.6268 77.2355 43.8451 77.5265 43.8451C77.7447 43.8451 77.8902 43.7723 78.1084 43.6996V43.5541H77.8174C77.8174 43.4813 77.7447 43.4813 77.7447 43.3358ZM77.1627 43.1904C77.09 43.3358 76.8717 43.4086 76.7262 43.4813C76.508 43.4813 76.2897 43.3358 76.2897 43.1176C76.2897 43.1176 76.2897 43.1176 76.2897 43.0449C76.2897 42.8266 76.4352 42.6811 76.7262 42.6084L77.2355 42.4629V43.1904H77.1627Z" fill="#6B6A6A"/>
<path d="M79.3451 39.6258L78.4722 39.7713V39.9895L78.8359 40.0623V43.4087L78.4722 43.5542V43.7724H79.7089V43.5542L79.3451 43.4087V39.6258Z" fill="#6B6A6A"/>
<path d="M83.3463 41.9536C83.7827 41.8809 84.1465 41.4444 84.1465 41.0079C84.1465 40.4259 83.5645 40.0622 82.546 40.0622H81.2366V40.2804L81.7458 40.4259V43.4813L81.2366 43.6268V43.845H82.7643V43.6268L82.3278 43.4813V42.1719H82.7643L82.9825 42.5356L83.9282 43.845H84.874V43.6268L84.3647 43.4813L83.3463 41.9536ZM82.7643 41.8809H82.3278V40.2804C83.128 40.2804 83.5645 40.5714 83.5645 41.1534C83.4918 41.5171 83.128 41.8081 82.7643 41.8809Z" fill="#6B6A6A"/>
<path d="M86.4017 43.4087C85.8197 43.4087 85.456 42.9722 85.456 42.3175H87.2747C87.2747 41.59 86.9109 41.0807 86.2562 41.0807C85.456 41.0807 84.874 41.7355 84.9467 42.5357V42.6084C84.874 43.2632 85.456 43.8452 86.1107 43.9179C86.6199 43.9179 87.1292 43.6269 87.3474 43.1904L87.2019 43.1177C86.9837 43.1904 86.6927 43.3359 86.4017 43.4087ZM86.1107 41.299C86.4745 41.299 86.6199 41.6627 86.6199 42.0265H85.3832C85.456 41.6627 85.747 41.299 86.1107 41.299Z" fill="#6B6A6A"/>
<path d="M89.0206 42.2447L88.8023 42.0992C88.4386 41.9537 88.3658 41.8082 88.3658 41.5899C88.3658 41.3717 88.5113 41.2262 88.7296 41.2262C88.8751 41.2262 89.0206 41.2989 89.0933 41.3717L89.3116 41.8809H89.4571V41.1534C89.2388 41.008 88.9478 41.008 88.7296 41.008C88.2203 40.9352 87.7839 41.2989 87.7111 41.8082C87.7111 42.1719 87.8566 42.3902 88.2931 42.5357L88.5113 42.6812C88.9478 42.8266 89.0206 43.0449 89.0206 43.2631C89.0206 43.4814 88.8023 43.6996 88.5841 43.6996C88.4386 43.6996 88.2204 43.6269 88.1476 43.5541L87.8566 42.8994H87.6384L87.7111 43.6996C87.9294 43.8451 88.2204 43.9179 88.5113 43.9179C89.0206 43.9906 89.5298 43.6269 89.6026 43.0449C89.6753 42.6812 89.5298 42.4629 89.0206 42.2447Z" fill="#6B6A6A"/>
<path d="M91.4941 41.0079C90.7666 41.0079 90.1119 41.6626 90.1846 42.4629C90.1119 43.1904 90.6938 43.7723 91.3486 43.8451C91.4213 43.8451 91.4213 43.8451 91.4941 43.8451C92.2215 43.8451 92.8763 43.1904 92.8035 42.3901C92.8763 41.7354 92.367 41.0807 91.7123 41.0079C91.5668 41.0079 91.5668 41.0079 91.4941 41.0079ZM91.5668 43.5541C90.9848 43.5541 90.7666 42.8994 90.7666 42.3174C90.7666 41.7354 90.9848 41.2989 91.4213 41.2989C91.8578 41.2989 92.2215 41.7354 92.2215 42.5356C92.2215 43.1176 91.9306 43.5541 91.5668 43.5541Z" fill="#6B6A6A"/>
<path d="M95.6407 41.0807L94.6222 41.1535V41.3717L95.0587 41.4445V43.1904C94.9132 43.3359 94.695 43.4087 94.4767 43.4087C94.113 43.4087 93.8947 43.1904 93.8947 42.7539V41.0807L92.949 41.1535V41.3717L93.3127 41.4445V42.8267C93.3127 43.4814 93.6037 43.7724 94.113 43.7724C94.4767 43.7724 94.8404 43.5542 95.0587 43.3359L95.2042 43.7724L96.0044 43.6269V43.4087L95.5679 43.3359L95.6407 41.0807Z" fill="#6B6A6A"/>
<path d="M97.9686 41.0079C97.7503 41.0079 97.6048 41.1534 97.3866 41.4444L97.1684 41.7354L97.0956 41.0807L96.2954 41.3717V41.5172L96.6591 41.5899V43.4813L96.2954 43.6268V43.8451H97.6776V43.6268L97.1684 43.5541V42.0264C97.2411 41.8809 97.3866 41.7354 97.5321 41.6626L97.9686 41.8081C98.1141 41.7354 98.1868 41.5899 98.1868 41.3717C98.1868 41.2262 98.1141 41.0807 97.9686 41.0807C97.9686 41.0079 97.9686 41.0079 97.9686 41.0079Z" fill="#6B6A6A"/>
<path d="M99.9328 43.4087C99.3508 43.3359 98.9143 42.8994 98.987 42.3175C98.987 41.7355 99.278 41.299 99.7873 41.299C99.9328 41.299 100.006 41.299 100.078 41.3717L100.151 41.9537C100.224 41.9537 100.297 41.9537 100.369 41.9537C100.515 41.9537 100.66 41.8082 100.66 41.6627C100.66 41.3717 100.297 41.0807 99.86 41.0807C99.0598 41.0807 98.4051 41.8082 98.4778 42.6084C98.4051 43.2632 98.9143 43.8452 99.569 43.9179C99.6418 43.9179 99.6418 43.9179 99.7145 43.9179C100.151 43.9179 100.588 43.6269 100.733 43.2632L100.587 43.1904C100.442 43.2632 100.151 43.4087 99.9328 43.4087Z" fill="#6B6A6A"/>
<path d="M102.552 43.4087C101.97 43.4087 101.606 42.9722 101.606 42.3175H103.425C103.425 41.59 103.061 41.0807 102.406 41.0807C101.606 41.0807 101.024 41.7355 101.024 42.5357V42.6084C100.951 43.2632 101.533 43.8452 102.188 43.9179H102.261C102.77 43.9179 103.206 43.6269 103.425 43.1177L103.279 43.0449C103.061 43.1904 102.843 43.3359 102.552 43.4087ZM102.261 41.299C102.624 41.299 102.77 41.6627 102.77 42.0265H101.606C101.533 41.6627 101.824 41.299 102.261 41.299Z" fill="#6B6A6A"/>
<path d="M105.171 42.2447L104.88 42.0992C104.516 41.9537 104.443 41.8082 104.443 41.5899C104.443 41.3717 104.589 41.2262 104.807 41.2262C104.952 41.2262 105.098 41.2989 105.171 41.3717L105.389 41.8809H105.534V41.1534C105.316 41.008 105.025 41.008 104.807 41.008C104.298 40.9352 103.861 41.2989 103.788 41.8082C103.788 42.1719 103.934 42.3902 104.37 42.5357L104.589 42.6812C104.952 42.8266 105.098 43.0449 105.098 43.2631C105.098 43.4814 104.88 43.6996 104.661 43.6996C104.661 43.6996 104.661 43.6996 104.589 43.6996C104.443 43.6996 104.225 43.6269 104.152 43.5541L103.861 42.8994H103.643L103.716 43.6996C103.934 43.8451 104.225 43.9179 104.516 43.9179C105.025 43.9906 105.534 43.6269 105.607 43.0449C105.825 42.6812 105.68 42.4629 105.171 42.2447Z" fill="#6B6A6A"/>
<path d="M153.039 47.919C153.184 47.8462 153.402 47.8462 153.548 47.7735L153.039 47.919Z" fill="#9E9B9C"/>
<path d="M168.752 26.6038C168.534 29.9502 167.152 35.9883 165.333 38.8255C163.805 41.2989 158.64 45.7365 154.275 47.4824H154.203H154.13C151.947 48.3554 149.329 47.1187 147.801 46.173H147.728C147.437 46.0275 147.219 45.882 147.073 45.7365C146.782 45.5183 146.564 45.3728 146.564 45.3728C146.128 45.0818 145.764 44.718 145.327 44.427L145.036 44.136C144.891 44.0633 144.745 43.9178 144.673 43.7723L144.091 43.2631L143.509 42.7538L142.927 42.1719L142.054 41.2989C148.601 39.8439 158.859 35.8428 164.606 31.6962C167.006 29.9502 168.607 28.2043 168.825 26.6766C168.752 26.6766 168.752 26.6038 168.752 26.6038Z" fill="url(#paint0_linear_1803_24976)"/>
<path d="M154.057 47.628C153.912 47.7007 153.766 47.7735 153.548 47.7735L153.039 47.919C152.893 47.9917 152.748 47.9917 152.675 48.0645L152.529 48.1372L152.311 48.21H152.093C152.02 48.21 151.875 48.2099 151.802 48.2827C148.456 48.6464 139.144 47.2642 133.324 44.5726L133.106 44.4271L132.815 44.2816C131.287 43.4813 129.905 42.4629 128.741 41.1534C124.74 36.2066 119.938 24.2032 120.011 17.2921C120.084 16.1282 120.448 15.037 121.03 14.0912L121.102 14.0185C121.175 13.9457 121.175 13.873 121.248 13.8002C122.339 12.1998 123.721 10.8176 125.394 9.72637C127.286 18.9653 133.397 32.7874 141.835 41.3717C142.126 41.6626 142.417 41.9536 142.708 42.2446C142.999 42.5356 143.509 42.9721 143.872 43.3358L144.454 43.8451C144.6 43.9906 144.745 44.0633 144.818 44.2088L145.109 44.4998C145.546 44.8636 145.909 45.1545 146.346 45.4455C146.346 45.4455 146.491 45.591 146.855 45.8093C147.073 45.9548 147.292 46.1003 147.583 46.2458C147.583 46.2458 147.583 46.2458 147.655 46.2458C149.329 47.1915 151.947 48.4282 154.057 47.628Z" fill="url(#paint1_linear_1803_24976)"/>
<path d="M168.752 26.6038V26.6766C168.534 28.277 166.934 29.9502 164.533 31.6962C160.677 30.2412 157.04 28.3498 153.693 25.8764C144.673 19.4018 138.926 8.5624 131.36 8.05316C129.25 7.98041 127.213 8.48965 125.467 9.65361C123.794 10.7448 122.412 12.127 121.321 13.7275C121.248 13.8002 121.248 13.873 121.175 13.9457L121.102 14.0185C120.52 14.9642 120.157 16.0554 120.084 17.2194V17.1466C120.084 17.1466 120.084 17.0739 120.084 17.0011C120.084 16.7101 120.084 16.3464 120.157 15.9827C120.157 15.9099 120.157 15.9099 120.157 15.8372C121.248 8.5624 128.814 0.196403 134.997 0.341898C142.49 0.560142 148.892 9.43537 154.712 14.8187C159.731 19.4018 163.733 21.366 166.279 23.0392C167.879 24.2032 168.825 25.1489 168.752 26.6038Z" fill="url(#paint2_linear_1803_24976)"/>
<defs>
<linearGradient id="paint0_linear_1803_24976" x1="188.379" y1="37.6591" x2="122.52" y2="36.5409" gradientUnits="userSpaceOnUse">
<stop offset="0.13" stop-color="#DDD9D7"/>
<stop offset="0.16" stop-color="#CECBC9"/>
<stop offset="0.24" stop-color="#A7A7A6"/>
<stop offset="0.25" stop-color="#A2A2A1"/>
<stop offset="0.28" stop-color="#A9A9A9"/>
<stop offset="0.32" stop-color="#BBBBBB"/>
<stop offset="0.35" stop-color="#ACACAC"/>
<stop offset="0.42" stop-color="#808181"/>
<stop offset="0.48" stop-color="#8D8E8E"/>
<stop offset="0.6" stop-color="#B1B1B1"/>
<stop offset="0.7" stop-color="#D6D6D6"/>
<stop offset="0.72" stop-color="#CCCDCD"/>
<stop offset="0.77" stop-color="#B2B4B4"/>
<stop offset="0.83" stop-color="#878B8C"/>
<stop offset="0.9" stop-color="#4D5455"/>
<stop offset="0.92" stop-color="#707475"/>
<stop offset="0.96" stop-color="#9FA1A1"/>
<stop offset="0.98" stop-color="#BDBDBD"/>
<stop offset="1" stop-color="#C8C7C7"/>
</linearGradient>
<linearGradient id="paint1_linear_1803_24976" x1="124.351" y1="7.43279" x2="181.431" y2="134.733" gradientUnits="userSpaceOnUse">
<stop offset="0.03" stop-color="#4E4D4D"/>
<stop offset="0.04" stop-color="#636363"/>
<stop offset="0.06" stop-color="#737474"/>
<stop offset="0.08" stop-color="#7F7F80"/>
<stop offset="0.11" stop-color="#858687"/>
<stop offset="0.18" stop-color="#878889"/>
<stop offset="0.35" stop-color="#4E4D4D"/>
<stop offset="0.39" stop-color="#6B6A6A"/>
<stop offset="0.45" stop-color="#888787"/>
<stop offset="0.51" stop-color="#9F9E9E"/>
<stop offset="0.58" stop-color="#B2B1B1"/>
<stop offset="0.66" stop-color="#BEBDBD"/>
<stop offset="0.77" stop-color="#C6C5C5"/>
<stop offset="1" stop-color="#C8C7C7"/>
</linearGradient>
<linearGradient id="paint2_linear_1803_24976" x1="166.045" y1="33.2734" x2="106.058" y2="-6.5385" gradientUnits="userSpaceOnUse">
<stop offset="0.03" stop-color="#676767"/>
<stop offset="0.09" stop-color="#7E7E7D"/>
<stop offset="0.16" stop-color="#929291"/>
<stop offset="0.23" stop-color="#9E9E9D"/>
<stop offset="0.29" stop-color="#A2A2A1"/>
<stop offset="0.35" stop-color="#9A9A99"/>
<stop offset="0.44" stop-color="#838383"/>
<stop offset="0.52" stop-color="#676767"/>
<stop offset="0.53" stop-color="#6D6D6D"/>
<stop offset="0.59" stop-color="#979797"/>
<stop offset="0.64" stop-color="#B1B1B1"/>
<stop offset="0.67" stop-color="#BBBBBB"/>
<stop offset="0.71" stop-color="#B9B9B9"/>
<stop offset="0.73" stop-color="#B2B3B4"/>
<stop offset="0.74" stop-color="#A6A8AA"/>
<stop offset="0.75" stop-color="#95999C"/>
<stop offset="0.76" stop-color="#868B8F"/>
<stop offset="0.79" stop-color="#8B9093"/>
<stop offset="0.83" stop-color="#9A9DA0"/>
<stop offset="0.87" stop-color="#B3B4B5"/>
<stop offset="0.9" stop-color="#C8C7C7"/>
<stop offset="0.92" stop-color="#C3C2C3"/>
<stop offset="0.95" stop-color="#B4B4B6"/>
<stop offset="0.98" stop-color="#9B9EA0"/>
<stop offset="1" stop-color="#868B8F"/>
</linearGradient>
</defs>
</svg>
