<svg width="96" height="48" viewBox="0 0 96 48" fill="none" xmlns="http://www.w3.org/2000/svg">
<path d="M19.1737 31.4232C19.9636 31.4232 20.5075 31.993 20.5075 32.3815C20.5075 32.5369 20.4687 32.6146 20.4169 32.783C20.7018 33.1844 20.6759 34.6996 20.4428 35.0234C20.5593 35.2953 21.1421 35.5802 21.2587 35.3083C21.9709 33.7542 22.4501 32.2649 22.8386 30.5814C22.9292 30.18 23.9394 30.2188 23.9394 30.2188C23.9394 30.2188 23.771 30.9052 23.5897 31.7987C23.5897 31.7987 23.3696 32.8866 23.2789 33.4175C22.9033 35.645 22.0745 37.8077 22.0616 37.8595C21.8414 38.7142 21.7119 39.7243 21.6601 40.7474C21.6213 41.6021 21.6213 43.0526 21.699 43.8555C21.8803 45.5908 22.2688 47.883 22.2688 47.883C21.5436 48.2974 20.4169 47.2096 19.1866 47.2096C17.9563 47.2096 16.8167 48.2845 16.1044 47.883C16.1044 47.883 16.4929 45.5908 16.6742 43.8555C16.7649 43.0526 16.7649 41.6021 16.7131 40.7474C16.6613 39.7243 16.5318 38.7142 16.3116 37.8595C16.2987 37.8077 15.4699 35.645 15.0943 33.4175C15.0037 32.8736 14.7835 31.7987 14.7835 31.7987C14.5892 30.9052 14.4338 30.2188 14.4338 30.2188C14.4338 30.2188 15.431 30.18 15.5346 30.5814C15.9231 32.2649 16.4023 33.7542 17.1146 35.3083C17.2311 35.5673 17.8139 35.2824 17.9304 35.0234C17.6973 34.6996 17.6844 33.1715 17.9563 32.783C17.9045 32.6146 17.8657 32.5369 17.8657 32.3815C17.8527 31.993 18.3837 31.4232 19.1737 31.4232Z" fill="#153E35"/>
<path d="M15.0425 24.5986C15.0425 24.5986 15.5864 24.4432 15.7548 23.7957C15.8843 23.3165 15.5605 23.1611 15.5605 23.1611C15.3404 23.6791 14.654 23.5367 14.5893 23.0834C14.5245 22.7079 14.9001 21.9956 15.7289 22.3323C16.5836 22.682 16.5577 23.6014 16.1174 24.1065C15.6253 24.6763 15.0425 24.5986 15.0425 24.5986ZM14.3044 23.5237C14.3044 23.5237 13.8382 23.6662 13.4367 23.1741C13.1388 22.8244 13.1129 22.423 13.1647 22.0992C13.1777 21.9956 13.0482 21.9567 13.0093 22.0474C12.6467 22.8762 12.7892 23.9252 13.4237 24.508C14.3173 25.3238 15.5735 25.285 16.3117 24.4302C17.0239 23.6014 16.8297 22.5136 16.1563 22.0474C15.4699 21.5812 14.667 21.7495 14.3044 22.3971C13.9547 23.0575 14.3044 23.5237 14.3044 23.5237Z" fill="#00B2E3"/>
<path d="M25.9984 27.0595C25.9984 27.0595 26.0114 27.6293 26.5942 27.953C27.0215 28.1991 27.2546 27.9401 27.2546 27.9401C26.8143 27.5904 27.1251 26.9688 27.5784 27.0206C27.9669 27.0595 28.5497 27.6034 28.0057 28.3157C27.4489 29.0409 26.5683 28.7819 26.1927 28.225C25.7653 27.5904 25.9984 27.0595 25.9984 27.0595ZM27.2287 26.6192C27.2287 26.6192 27.2028 26.14 27.7856 25.868C28.2 25.6738 28.6015 25.7515 28.8993 25.881C28.99 25.9198 29.0677 25.8033 28.99 25.7385C28.2777 25.1687 27.2417 25.0392 26.5035 25.5054C25.4804 26.1529 25.2085 27.3832 25.8301 28.3157C26.4517 29.2222 27.5525 29.3128 28.1741 28.7819C28.7957 28.2379 28.8475 27.4221 28.3036 26.9041C27.7597 26.399 27.2287 26.6192 27.2287 26.6192Z" fill="#00B2E3"/>
<path d="M33.6911 22.2161C33.6911 22.2161 33.0436 21.9959 32.8493 21.1153C32.681 20.3383 33.1342 19.3929 34.2091 19.4835C35.2451 19.5742 35.2581 20.5066 34.9861 20.8692C34.6753 21.2966 33.8853 21.0764 33.9371 20.416C33.9371 20.416 33.5227 20.416 33.3932 20.9728C33.2119 21.7628 33.6911 22.2161 33.6911 22.2161ZM35.0379 21.5038C35.0379 21.5038 35.6595 21.2318 35.6336 20.3512C35.6207 19.4706 34.8825 18.8749 33.9242 18.9785C32.9659 19.0821 32.1759 20.0922 32.4608 21.3613C32.7587 22.6305 34.0407 23.3686 35.4005 23.006C36.4236 22.7341 37.1618 21.6592 37.1747 20.5584C37.1747 20.4548 37.0323 20.4419 37.0064 20.5325C36.9028 20.921 36.6567 21.3872 36.0998 21.6203C35.4394 21.9053 35.0379 21.5038 35.0379 21.5038Z" fill="#00B2E3"/>
<path d="M3.34851 22.6307C3.34851 22.6307 3.89243 22.4882 4.07373 21.8407C4.20323 21.3745 3.90538 21.1932 3.90538 21.1932C3.67227 21.7112 2.99886 21.5429 2.9341 21.0896C2.8823 20.7011 3.27081 20.0147 4.08668 20.3773C4.92845 20.7529 4.87665 21.6594 4.42339 22.1645C3.93128 22.7213 3.34851 22.6307 3.34851 22.6307ZM2.6492 21.5299C2.6492 21.5299 2.18299 21.6594 1.79448 21.1673C1.50957 20.8047 1.48367 20.4032 1.54842 20.0795C1.56137 19.9759 1.43187 19.937 1.39302 20.0277C1.00451 20.8435 1.13401 21.8925 1.75563 22.5012C2.6233 23.3429 3.89243 23.33 4.64354 22.4882C5.38171 21.6724 5.21336 20.5845 4.53994 20.1054C3.86653 19.6262 3.06361 19.7687 2.68805 20.4162C2.29954 21.0637 2.6492 21.5299 2.6492 21.5299Z" fill="#00B2E3"/>
<path d="M24.7555 10.3146C24.7555 10.3146 25.4159 10.3534 25.8562 9.70591C26.18 9.22674 25.908 8.92889 25.908 8.92889C25.4548 9.40805 24.7684 8.98069 24.872 8.46268C24.9497 8.02237 25.649 7.40075 26.4131 8.10006C27.216 8.82528 26.8146 9.80951 26.1282 10.211C25.3641 10.6254 24.7555 10.3146 24.7555 10.3146ZM24.3799 8.82528C24.3799 8.82528 23.8101 8.79938 23.564 8.10006C23.3698 7.5432 23.5381 7.05109 23.7583 6.70143C23.8101 6.62373 23.7065 6.52013 23.6288 6.59783C22.8259 7.3619 22.528 8.63103 23.0201 9.56345C23.6806 10.8196 25.0792 11.2599 26.2188 10.6254C27.3455 9.99081 27.5657 8.72168 26.9959 7.94466C26.426 7.16764 25.4936 7.01224 24.8332 7.60795C24.1597 8.19072 24.3799 8.82528 24.3799 8.82528Z" fill="#00B2E3"/>
<path d="M20.0414 26.1404C20.0414 26.1404 19.7047 25.6871 19.0313 25.7648C18.5392 25.8166 18.5004 26.1663 18.5004 26.1663C19.0702 26.1922 19.1738 26.8786 18.7723 27.0987C18.4356 27.293 17.6456 27.1894 17.6715 26.3088C17.6974 25.3893 18.5651 25.0914 19.1997 25.3116C19.9119 25.5706 20.0414 26.1404 20.0414 26.1404ZM19.2903 27.2153C19.2903 27.2153 19.5882 27.5908 19.2774 28.1477C19.0572 28.5492 18.6946 28.7175 18.3708 28.7823C18.2672 28.8082 18.2802 28.9506 18.3838 28.9506C19.2903 28.9895 20.2098 28.4844 20.5335 27.6815C20.9868 26.5548 20.4947 25.3893 19.4328 25.0137C18.3967 24.6382 17.4514 25.208 17.2571 26.0109C17.0758 26.8138 17.5032 27.5131 18.2413 27.6167C18.9925 27.7074 19.2903 27.2153 19.2903 27.2153Z" fill="#C2D500"/>
<path d="M15.9749 15.0546C15.9749 15.0546 15.444 14.6272 15.5605 13.7336C15.6641 12.9437 16.4282 12.2055 17.3995 12.6717C18.3319 13.112 18.034 13.9926 17.6455 14.2387C17.2052 14.5366 16.5447 14.0574 16.8167 13.4617C16.8167 13.4617 16.4282 13.3192 16.1174 13.7984C15.6771 14.4589 15.9749 15.0546 15.9749 15.0546ZM17.4901 14.8474C17.4901 14.8474 18.1635 14.7956 18.4484 13.9667C18.7333 13.1379 18.2542 12.3221 17.3088 12.089C16.3634 11.8558 15.2756 12.5422 15.1202 13.8243C14.9648 15.1193 15.9102 16.246 17.3218 16.3755C18.3707 16.4791 19.4327 15.715 19.8341 14.692C19.873 14.6013 19.7435 14.5366 19.6917 14.6143C19.4586 14.951 19.07 15.3006 18.4743 15.3265C17.7232 15.3654 17.4901 14.8474 17.4901 14.8474Z" fill="#C2D500"/>
<path d="M5.71842 17.3085C5.71842 17.3085 5.32991 17.7229 5.51122 18.3704C5.64072 18.8366 5.99038 18.8237 5.99038 18.8237C5.92563 18.2668 6.58609 18.0466 6.871 18.4092C7.11706 18.7071 7.14296 19.4971 6.26234 19.6266C5.35581 19.7561 4.9155 18.9532 5.03206 18.2797C5.18746 17.5286 5.71842 17.3085 5.71842 17.3085ZM7.46671 18.8366C7.44081 18.0855 6.90985 17.8653 6.90985 17.8653L7.46671 18.8366ZM6.90985 17.8653C6.90985 17.8653 7.23361 17.5027 7.82932 17.7229C8.25668 17.8783 8.48979 18.215 8.60634 18.5128C8.64519 18.6035 8.78765 18.5776 8.7747 18.474C8.67109 17.5675 8.02358 16.7516 7.16886 16.5573C5.97743 16.2983 4.9155 16.9718 4.72125 18.0725C4.527 19.1604 5.23926 19.9892 6.05513 20.0539C6.88395 20.1057 7.49262 19.5618 7.46671 18.8107" fill="#C2D500"/>
<path d="M30.7513 16.1554C30.7513 16.1554 31.2045 15.7927 31.9297 16.0259C32.5643 16.246 33.0564 17.0101 32.5125 17.7482C31.9815 18.4605 31.2952 18.0461 31.1527 17.6835C30.9844 17.2691 31.4894 16.7899 31.9427 17.1137C31.9427 17.1137 32.124 16.8158 31.7743 16.4662C31.2952 16.0129 30.7513 16.1554 30.7513 16.1554ZM30.6736 17.4633C30.6736 17.4633 30.6088 18.0461 31.2563 18.4217C31.9038 18.7972 32.6679 18.5253 33.0305 17.7741C33.3802 17.023 32.9917 16 31.9427 15.6503C30.8808 15.3006 29.767 15.8963 29.4303 17.0619C29.1843 17.8907 29.5987 18.862 30.3239 19.3929C30.4016 19.4447 30.5052 19.3411 30.4405 19.2634C30.2332 19.0174 30.0519 18.6548 30.1167 18.2015C30.1944 17.5669 30.6736 17.4633 30.6736 17.4633Z" fill="#C2D500"/>
<path d="M11.5071 27.7323C11.5071 27.7323 11.0279 28.069 10.3286 27.797C9.69402 27.551 9.25371 26.7481 9.83648 26.0488C10.4063 25.3624 11.0668 25.8156 11.1833 26.1783C11.3387 26.6056 10.8077 27.0589 10.3674 26.6963C10.3674 26.6963 10.1732 26.9812 10.4969 27.3438C10.9632 27.8488 11.5071 27.7323 11.5071 27.7323ZM11.6625 26.4243C11.6625 26.4243 11.7661 25.8545 11.1315 25.4401C10.5099 25.0257 9.71992 25.2588 9.33141 25.984C8.9429 26.7092 9.27961 27.7582 10.3027 28.1597C11.3517 28.5741 12.4783 28.0172 12.8927 26.8776C13.1777 26.0617 12.828 25.0775 12.1157 24.5077C12.038 24.4429 11.9344 24.5465 11.9992 24.6242C12.1934 24.8832 12.3618 25.2588 12.2582 25.6991C12.1287 26.3466 11.6625 26.4243 11.6625 26.4243Z" fill="#0033A1"/>
<path d="M23.7323 15.5332C23.7323 15.5332 23.3309 15.9606 22.5797 15.8181C21.9193 15.6886 21.3236 15.0023 21.7639 14.1864C22.1912 13.4094 22.9294 13.7202 23.1107 14.0569C23.3438 14.4454 22.9035 14.9893 22.3984 14.7303C22.3984 14.7303 22.256 15.0541 22.6574 15.3519C23.2013 15.7534 23.7323 15.5332 23.7323 15.5332ZM23.6287 14.2253C23.6287 14.2253 23.6158 13.6425 22.9294 13.3576C22.243 13.0727 21.5178 13.4482 21.2718 14.2382C21.0386 15.0282 21.5567 15.9994 22.6445 16.1937C23.7453 16.4009 24.7554 15.6498 24.9367 14.4454C25.0662 13.5907 24.5223 12.6842 23.7194 12.2698C23.6287 12.218 23.551 12.3475 23.6287 12.4122C23.8748 12.6324 24.0949 12.9561 24.0949 13.4223C24.082 14.0569 23.6287 14.2253 23.6287 14.2253Z" fill="#0033A1"/>
<path d="M8.63219 15.7404C8.63219 15.7404 9.18905 15.6757 9.47396 15.067C9.68116 14.6138 9.39625 14.4066 9.39625 14.4066C9.08545 14.8857 8.43793 14.6138 8.45088 14.1605C8.45088 13.772 8.94299 13.1504 9.69411 13.6166C10.4711 14.1087 10.2898 15.0023 9.77181 15.4296C9.18905 15.9217 8.63219 15.7404 8.63219 15.7404ZM8.08827 14.562C8.08827 14.562 7.60911 14.6267 7.2983 14.0698C7.0652 13.6684 7.10405 13.2669 7.20765 12.9561C7.23355 12.8655 7.117 12.8007 7.05225 12.8784C6.56014 13.6295 6.52129 14.6915 7.05225 15.3778C7.79042 16.3361 9.04659 16.5045 9.91427 15.7922C10.769 15.0929 10.756 13.9921 10.1603 13.4094C9.56461 12.8396 8.74874 12.8655 8.28253 13.4482C7.81632 14.0439 8.08827 14.562 8.08827 14.562Z" fill="#0033A1"/>
<path d="M22.9294 24.754C22.9294 24.754 22.3595 24.6245 22.0876 23.9251C21.8545 23.2906 22.1394 22.4229 23.0589 22.3841C23.9395 22.3452 24.056 23.1352 23.8747 23.4719C23.6546 23.8733 22.9682 23.7827 22.9423 23.2129C22.9423 23.2129 22.5926 23.2647 22.5408 23.7438C22.4761 24.4302 22.9294 24.754 22.9294 24.754ZM23.9913 23.9899C23.9913 23.9899 24.4834 23.6791 24.3668 22.9409C24.2503 22.2027 23.5639 21.7754 22.7481 21.9696C21.9451 22.1768 21.3883 23.1222 21.7768 24.1582C22.1782 25.2072 23.3438 25.6864 24.4575 25.2202C25.2604 24.8835 25.7525 23.964 25.7007 23.0575C25.7007 22.9539 25.5453 22.9539 25.5324 23.0445C25.4676 23.3683 25.2993 23.7309 24.9108 23.964C24.3798 24.2877 23.9913 23.9899 23.9913 23.9899Z" fill="#0033A1"/>
<path d="M27.4878 3.58002C27.4878 3.58002 27.9281 3.96853 27.8245 4.71965C27.7338 5.39306 27.0604 6.00172 26.2316 5.60026C25.4416 5.19881 25.7136 4.46064 26.0503 4.25343C26.4259 4.00738 26.9957 4.42178 26.7496 4.92685C26.7496 4.92685 27.0734 5.05635 27.3583 4.64194C27.7209 4.09803 27.4878 3.58002 27.4878 3.58002ZM26.1798 3.73542C26.1798 3.73542 25.597 3.77427 25.338 4.47359C25.079 5.1729 25.4805 5.88517 26.2834 6.10533C27.0863 6.31253 28.0317 5.74272 28.1871 4.65489C28.3425 3.54117 27.5525 2.56989 26.3482 2.42744C25.4805 2.33679 24.6128 2.9066 24.2243 3.72247C24.1855 3.81312 24.302 3.89083 24.3668 3.81312C24.574 3.55412 24.8977 3.32101 25.3639 3.30806C25.9855 3.29511 26.1798 3.73542 26.1798 3.73542Z" fill="#0033A1"/>
<path d="M14.8354 5.96299C14.8354 5.96299 14.2656 6.00185 13.9677 6.59756C13.7475 7.03787 14.0065 7.25802 14.0065 7.25802C14.3433 6.79181 14.9649 7.08967 14.939 7.54293C14.9131 7.93144 14.3951 8.52716 13.6698 8.02209C12.9187 7.49113 13.1389 6.61051 13.6828 6.20905C14.2915 5.75579 14.8354 5.96299 14.8354 5.96299ZM15.3275 7.18032C15.3275 7.18032 15.8066 7.14147 16.0916 7.71128C16.2988 8.12569 16.247 8.5142 16.1175 8.82501C16.0786 8.91566 16.2081 8.99337 16.2599 8.90271C16.7909 8.1775 16.8815 7.12852 16.3894 6.41625C15.6901 5.41908 14.4598 5.18598 13.5533 5.85939C12.6727 6.51986 12.6209 7.62063 13.1907 8.21635C13.7605 8.81206 14.5764 8.83796 15.0685 8.26815C15.5735 7.69834 15.3275 7.18032 15.3275 7.18032Z" fill="#0033A1"/>
<path d="M19.7306 6.9989C19.7306 6.9989 19.2126 7.28381 18.5521 6.90825C17.9564 6.58449 17.6197 5.74272 18.2802 5.10816C18.9277 4.49949 19.5364 5.03046 19.6011 5.40601C19.6918 5.84632 19.109 6.23484 18.7205 5.82043C18.7205 5.82043 18.4874 6.07943 18.7723 6.48089C19.1608 7.0507 19.7306 6.9989 19.7306 6.9989ZM20.0285 5.72977C20.0285 5.72977 20.1968 5.17291 19.627 4.6808C19.0572 4.18868 18.2543 4.31819 17.7751 5.00455C17.3089 5.67797 17.5032 6.7658 18.4744 7.29676C19.4587 7.82772 20.6501 7.43921 21.207 6.35139C21.5955 5.57437 21.3624 4.55129 20.7278 3.90378C20.663 3.83903 20.5465 3.91673 20.5983 4.00738C20.7666 4.29229 20.8702 4.6808 20.7278 5.10816C20.5206 5.70387 20.0285 5.72977 20.0285 5.72977Z" fill="#FFB600"/>
<path d="M11.1834 12.1914C11.1834 12.1914 10.523 12.036 10.2251 11.1942C9.96611 10.4431 10.3158 9.44594 11.3906 9.42004C12.4267 9.39414 12.5432 10.3136 12.3231 10.7151C12.0641 11.1813 11.2482 11.0518 11.2352 10.3913C11.2352 10.3913 10.8208 10.4431 10.7561 11.0129C10.6654 11.7899 11.1834 12.1914 11.1834 12.1914ZM12.4526 11.3237C12.4526 11.3237 13.0353 10.9741 12.9188 10.1064C12.8022 9.23873 11.9993 8.73367 11.0539 8.94088C10.1086 9.16103 9.4481 10.2489 9.87546 11.4791C10.3158 12.7094 11.6756 13.2922 12.9835 12.7742C13.9678 12.3857 14.5764 11.2331 14.4728 10.1323C14.4599 10.0287 14.3174 10.0287 14.3045 10.1323C14.2397 10.5338 14.0584 11.0259 13.5404 11.3108C12.8929 11.6734 12.4526 11.3237 12.4526 11.3237Z" fill="#FFB600"/>
<path d="M29.3398 14.4715C29.3398 14.4715 29.301 15.0542 28.6405 15.4169C28.0448 15.7406 27.1512 15.5852 26.9829 14.6787C26.8145 13.811 27.5786 13.5779 27.9412 13.7204C28.3686 13.8758 28.3815 14.5751 27.8247 14.6916C27.8247 14.6916 27.9283 15.0283 28.4074 15.0024C29.0808 14.9765 29.3398 14.4715 29.3398 14.4715ZM28.4333 13.5261C28.4333 13.5261 28.0578 13.0858 27.3325 13.306C26.6203 13.5261 26.2965 14.2772 26.6073 15.0413C26.9311 15.8054 27.9412 16.2198 28.9125 15.6759C29.8967 15.1319 30.1946 13.9017 29.573 12.8656C29.1326 12.1145 28.1355 11.7649 27.2548 11.9591C27.1512 11.985 27.1771 12.1275 27.2678 12.1275C27.5916 12.1404 27.9801 12.257 28.265 12.6196C28.6664 13.1117 28.4333 13.5261 28.4333 13.5261Z" fill="#FFB600"/>
<path d="M27.8116 21.4904C27.8116 21.4904 27.4619 22.0472 27.8245 22.7466C28.0835 23.2516 28.485 23.161 28.485 23.161C28.2778 22.5394 28.9771 22.1379 29.3915 22.4746C29.7412 22.7595 29.9613 23.666 28.9771 24.0157C27.967 24.3783 27.2806 23.5624 27.2547 22.7725C27.2418 21.8659 27.8116 21.4904 27.8116 21.4904ZM29.3009 21.853C29.3009 21.853 29.5858 21.3609 30.3239 21.4774C30.9067 21.5681 31.2693 21.9566 31.4636 22.3062C31.5154 22.3969 31.6449 22.3451 31.619 22.2415C31.3211 21.1796 30.3498 20.3119 29.2879 20.2989C27.8763 20.286 26.8144 21.3091 26.8403 22.6171C26.8662 23.9121 27.8763 24.7021 28.8347 24.5726C29.793 24.443 30.3628 23.679 30.1556 22.8243C29.9613 21.9695 29.3009 21.853 29.3009 21.853Z" fill="#FFB600"/>
<path d="M12.9448 32.692C12.9448 32.692 13.2685 32.4071 13.1649 31.8891C13.0872 31.5136 12.8282 31.5136 12.8282 31.5136C12.8412 31.9409 12.3231 32.0704 12.1289 31.7726C11.9605 31.5265 11.9864 30.9179 12.6728 30.879C13.3721 30.8402 13.657 31.4747 13.5275 31.9798C13.3721 32.5625 12.9448 32.692 12.9448 32.692ZM12.0771 32.187C12.0771 32.187 11.8051 32.433 11.3648 32.2388C11.0929 32.1093 10.9504 31.9021 10.8598 31.6949C10.8209 31.6042 10.6914 31.6431 10.6914 31.7337C10.7691 32.3812 11.1965 32.977 11.7922 33.1583C12.6858 33.4302 13.5405 32.977 13.7606 32.1481C13.9808 31.3323 13.4887 30.6459 12.8671 30.5552C12.2325 30.4516 11.7404 30.8272 11.7015 31.41C11.6756 31.9927 12.0771 32.187 12.0771 32.187Z" fill="#FFB600"/>
<path d="M10.3805 19.4698C10.3805 19.4698 10.6654 19.7936 11.1834 19.69C11.559 19.6123 11.559 19.3403 11.559 19.3403C11.1316 19.3662 11.0021 18.8482 11.287 18.641C11.5331 18.4727 12.1417 18.4856 12.1806 19.172C12.2324 19.8713 11.5978 20.1691 11.0928 20.0396C10.523 19.8972 10.3805 19.4698 10.3805 19.4698ZM10.8726 18.6022C10.8726 18.6022 10.6136 18.3302 10.8208 17.8899C10.9374 17.6179 11.1446 17.4755 11.3518 17.3848C11.4424 17.346 11.4036 17.2165 11.3 17.2294C10.6525 17.3071 10.0697 17.7474 9.88839 18.3431C9.62938 19.2367 10.0826 20.0914 10.9244 20.2986C11.7403 20.5059 12.4267 20.0008 12.5173 19.3792C12.608 18.7446 12.2324 18.2525 11.6496 18.2266C11.0798 18.2007 10.8726 18.6022 10.8726 18.6022Z" fill="#FFB600"/>
<path d="M13.6956 15.8571C13.6956 15.8571 13.8899 15.4686 13.6179 15.0283C13.4107 14.7046 13.1646 14.7952 13.1646 14.7952C13.333 15.1967 12.9056 15.4945 12.6078 15.3003C12.3617 15.1319 12.1675 14.5621 12.7891 14.2772C13.4366 13.9793 13.9287 14.4714 13.9935 14.9895C14.0582 15.5722 13.6956 15.8571 13.6956 15.8571ZM12.7114 15.7017C12.7114 15.7017 12.543 16.0384 12.0639 16.0125C11.766 15.9996 11.5588 15.8571 11.4034 15.7017C11.3386 15.637 11.2221 15.7147 11.2739 15.8053C11.5847 16.3751 12.1934 16.7766 12.815 16.7248C13.7345 16.6471 14.369 15.9219 14.2784 15.0672C14.1748 14.2254 13.4625 13.7721 12.8538 13.9146C12.2322 14.057 11.9085 14.588 12.0898 15.1319C12.2581 15.6629 12.7114 15.7017 12.7114 15.7017Z" fill="#21B592"/>
<path d="M25.2214 32.6923C25.2214 32.6923 24.794 32.5628 24.6386 31.993C24.4961 31.4879 24.781 30.8533 25.4933 30.8922C26.1797 30.931 26.2056 31.5397 26.0372 31.7858C25.843 32.0707 25.325 31.9541 25.3379 31.5267C25.3379 31.5267 25.0659 31.5397 25.0012 31.9023C24.8976 32.4074 25.2214 32.6923 25.2214 32.6923ZM26.089 32.1872C26.089 32.1872 26.4905 31.98 26.4516 31.4102C26.4257 30.8404 25.9207 30.4648 25.2861 30.5555C24.6645 30.6461 24.1724 31.3325 24.3925 32.1484C24.6256 32.9772 25.4804 33.4304 26.361 33.1585C26.9567 32.9772 27.3841 32.3815 27.4618 31.7339C27.4747 31.6303 27.3323 31.6044 27.2934 31.6951C27.2157 31.9023 27.0603 32.1095 26.7883 32.239C26.361 32.4462 26.089 32.1872 26.089 32.1872Z" fill="#21B592"/>
<path d="M19.2513 23.589C19.2513 23.589 18.811 23.7055 18.3836 23.3041C17.9951 22.9414 17.9045 22.2551 18.5261 21.9184C19.1218 21.5946 19.4715 22.0867 19.4585 22.3846C19.4456 22.7342 18.9405 22.9026 18.7203 22.527C18.7203 22.527 18.5002 22.6695 18.6297 23.0321C18.8239 23.5113 19.2513 23.589 19.2513 23.589ZM19.7305 22.6954C19.7305 22.6954 19.9636 22.3198 19.6398 21.8407C19.3161 21.3615 18.6944 21.3097 18.2023 21.7241C17.7232 22.1385 17.6584 22.9803 18.28 23.5631C18.9146 24.1458 19.8729 24.0811 20.4816 23.3818C20.896 22.9155 20.9478 22.1774 20.6629 21.5946C20.624 21.504 20.4816 21.5428 20.5075 21.6464C20.5463 21.8666 20.5204 22.1256 20.365 22.3587C20.0931 22.7731 19.7305 22.6954 19.7305 22.6954Z" fill="#21B592"/>
<path d="M36.6825 16.375C36.6825 16.375 36.8897 16.9189 36.4364 17.5276C36.035 18.0715 35.1544 18.3046 34.6234 17.5535C34.1054 16.8282 34.714 16.3102 35.1025 16.2843C35.5558 16.2455 35.8537 16.88 35.4004 17.2168C35.4004 17.2168 35.6335 17.4887 36.0609 17.2556C36.6566 16.9448 36.6825 16.375 36.6825 16.375ZM35.4781 15.9088C35.4781 15.9088 34.9471 15.6627 34.3903 16.1678C33.8334 16.6599 33.8464 17.4758 34.455 18.0456C35.0637 18.6024 36.1645 18.5506 36.812 17.67C37.4725 16.7635 37.2394 15.5332 36.2422 14.8339C35.5299 14.3418 34.4809 14.4324 33.7557 14.9763C33.678 15.0411 33.7428 15.1577 33.8464 15.1188C34.1572 14.9893 34.5457 14.9375 34.9601 15.1447C35.504 15.4167 35.4781 15.9088 35.4781 15.9088Z" fill="#21B592"/>
<path d="M20.8442 9.3826C20.8442 9.3826 21.4399 9.71931 21.4658 10.6129C21.4917 11.4029 20.8701 12.2576 19.834 11.9597C18.8369 11.6748 18.9923 10.7553 19.329 10.4575C19.7175 10.0949 20.4557 10.4445 20.2744 11.092C20.2744 11.092 20.6758 11.1697 20.9089 10.6388C21.2327 9.91356 20.8442 9.3826 20.8442 9.3826ZM19.3808 9.83586C19.3808 9.83586 18.7203 9.99127 18.5779 10.8719C18.4354 11.7396 19.0441 12.4518 20.0153 12.5295C20.9866 12.5943 21.9449 11.7525 21.8802 10.4575C21.8284 9.1495 20.7017 8.19117 19.2901 8.29477C18.2412 8.37248 17.3217 9.29195 17.0886 10.3798C17.0627 10.4704 17.2051 10.5222 17.244 10.4316C17.4253 10.069 17.749 9.65456 18.3318 9.52505C19.07 9.36965 19.3808 9.83586 19.3808 9.83586Z" fill="#21B592"/>
<path d="M11.3388 2.79055C11.3388 2.79055 10.8984 2.81645 10.6653 3.28266C10.497 3.61937 10.7042 3.78773 10.7042 3.78773C10.9632 3.43807 11.4424 3.65822 11.4165 4.00788C11.4035 4.30574 11.0021 4.77195 10.4452 4.37049C9.86242 3.96903 10.0308 3.29561 10.4452 2.97186C10.9243 2.6222 11.3388 2.79055 11.3388 2.79055ZM11.7143 3.71002C11.7143 3.71002 12.0899 3.68412 12.31 4.11148C12.4395 4.37049 12.4395 4.6295 12.3748 4.8367C12.3489 4.92735 12.4784 4.9921 12.5302 4.90145C12.8669 4.34459 12.8928 3.61937 12.5302 3.10136C11.9992 2.33729 11.0409 2.16894 10.3545 2.68695C9.68112 3.20496 9.64227 4.04673 10.0826 4.49999C10.5229 4.9662 11.1445 4.97915 11.5201 4.53884C11.9086 4.12443 11.7143 3.71002 11.7143 3.71002Z" fill="#21B592"/>
<path d="M10.1213 21.5294C10.1213 21.5294 10.7041 21.8791 10.717 22.7726C10.73 23.5626 10.0824 24.4044 9.04641 24.0936C8.04924 23.7957 8.23054 22.8762 8.56725 22.5784C8.96871 22.2287 9.69393 22.5913 9.49967 23.2259C9.49967 23.2259 9.90113 23.3166 10.1472 22.7856C10.4968 22.0733 10.1213 21.5294 10.1213 21.5294ZM8.64495 21.9568C8.64495 21.9568 7.98448 22.0992 7.81613 22.9669C7.64778 23.8346 8.25644 24.5598 9.21476 24.6504C10.186 24.7411 11.1573 23.9123 11.1314 22.6172C11.1055 21.3093 9.99178 20.325 8.5802 20.4027C7.51827 20.4545 6.58585 21.3611 6.3398 22.4359C6.31389 22.5266 6.45635 22.5784 6.4952 22.4877C6.6765 22.1251 7.01321 21.7237 7.59598 21.6071C8.33414 21.4906 8.64495 21.9568 8.64495 21.9568Z" fill="#21B592"/>
<path d="M3.29656 9.61578C3.29656 9.61578 2.80444 10.2374 3.16705 11.131C3.42606 11.7655 3.90522 11.7008 3.90522 11.7008C3.72392 10.9238 4.63044 10.5352 5.07075 10.9885C5.45926 11.377 5.61466 12.4907 4.39733 12.7886C3.1282 13.0865 2.40298 12.0245 2.48069 11.0792C2.55839 9.99133 3.29656 9.61578 3.29656 9.61578ZM5.0319 10.2374C5.0319 10.2374 5.44631 9.68053 6.30103 9.91363C7.0651 10.1079 7.44065 10.7036 7.62196 11.1828C7.66081 11.2734 7.80326 11.2346 7.79031 11.1439C7.62196 9.77118 6.53413 8.5409 5.2132 8.3855C3.51671 8.19124 2.11808 9.29202 1.97562 10.859C1.84612 12.413 2.95985 13.4879 4.12537 13.462C5.2909 13.4232 6.08087 12.5814 5.93842 11.5324C5.82187 10.4705 5.0319 10.2374 5.0319 10.2374Z" fill="#21B592"/>
<path d="M30.9198 30.5555C30.9198 30.5555 30.6737 31.0865 29.9096 31.1771C29.2362 31.2678 28.4592 30.7757 28.6405 29.8821C28.8089 29.0144 29.5988 29.0792 29.8837 29.3382C30.2204 29.6361 29.9744 30.2965 29.4175 30.1929C29.4175 30.1929 29.3787 30.5426 29.8449 30.698C30.4794 30.9181 30.9198 30.5555 30.9198 30.5555ZM30.4147 29.3382C30.4147 29.3382 30.2334 28.7813 29.4823 28.7295C28.7312 28.6648 28.1613 29.2475 28.1743 30.0764C28.1872 30.9052 28.9902 31.6563 30.078 31.5138C31.1917 31.3714 31.9169 30.3483 31.7356 29.1439C31.5932 28.2892 30.8032 27.5899 29.9096 27.4345C29.806 27.4215 29.7672 27.5511 29.8578 27.5899C30.1557 27.7194 30.4794 27.9655 30.6089 28.4058C30.7903 29.0403 30.4147 29.3382 30.4147 29.3382Z" fill="#5C0F8B"/>
<path d="M34.2091 13.2805C34.2091 13.2805 33.7818 13.6691 33.0436 13.4748C32.3961 13.3064 31.8522 12.5683 32.3573 11.7913C32.8364 11.0531 33.5487 11.4157 33.717 11.7654C33.9113 12.1668 33.4451 12.6848 32.9659 12.374C32.9659 12.374 32.7976 12.6848 33.1731 13.0086C33.6652 13.4619 34.2091 13.2805 34.2091 13.2805ZM34.1962 11.9726C34.1962 11.9726 34.235 11.3898 33.5616 11.0531C32.8882 10.7164 32.1371 11.0401 31.8392 11.8042C31.5414 12.5812 31.9946 13.5784 33.0566 13.8504C34.1444 14.1353 35.2063 13.4619 35.4783 12.2704C35.6725 11.4287 35.1934 10.4833 34.4293 10.0041C34.3387 9.95232 34.2609 10.0689 34.3257 10.1336C34.5588 10.3667 34.7531 10.7164 34.7142 11.1826C34.6624 11.8301 34.1962 11.9726 34.1962 11.9726Z" fill="#5C0F8B"/>
<path d="M15.1202 17.9166C15.1202 17.9166 14.5892 18.1238 14.4856 18.7972C14.4079 19.2764 14.7317 19.4188 14.7317 19.4188C14.9001 18.8749 15.5994 18.9656 15.703 19.4059C15.8066 19.7814 15.4958 20.5196 14.641 20.2606C13.7604 19.9886 13.6957 19.0821 14.0842 18.5253C14.5374 17.8907 15.1202 17.9166 15.1202 17.9166ZM15.962 18.9138C15.962 18.9138 16.4023 18.7195 16.8556 19.1728C17.1793 19.4965 17.257 19.885 17.2311 20.2217C17.2311 20.3253 17.3606 20.3513 17.3995 20.2606C17.6844 19.3929 17.4383 18.3828 16.739 17.8518C15.7677 17.1266 14.5245 17.295 13.877 18.2144C13.2424 19.121 13.5403 20.1699 14.2655 20.5714C14.9907 20.9599 15.7807 20.7268 16.0656 20.0404C16.3634 19.3411 15.962 18.9138 15.962 18.9138Z" fill="#5C0F8B"/>
<path d="M0.991517 15.9867C0.991517 15.9867 0.836114 16.5307 1.31528 17.0098C1.65198 17.3595 1.96279 17.1782 1.96279 17.1782C1.62608 16.712 2.11819 16.2069 2.5326 16.3882C2.89521 16.5307 3.29667 17.217 2.58441 17.748C1.84624 18.2919 1.08217 17.7998 0.862014 17.1523C0.628909 16.44 0.991517 15.9867 0.991517 15.9867ZM2.2995 15.922C2.2995 15.922 2.41605 15.4558 3.03767 15.3651C3.49093 15.3004 3.85354 15.4817 4.09959 15.6889C4.17729 15.7536 4.2809 15.663 4.22909 15.5723C3.71108 14.8342 2.73981 14.4198 1.91099 14.6529C0.745462 14.9896 0.136798 16.0903 0.486456 17.1652C0.823164 18.2142 1.85919 18.6027 2.61031 18.266C3.36142 17.9163 3.64633 17.1523 3.25782 16.5048C2.86931 15.8443 2.2995 15.922 2.2995 15.922Z" fill="#5C0F8B"/>
<path d="M21.6213 0.498263C21.6213 0.498263 21.0515 0.472363 20.6889 1.02923C20.4169 1.44364 20.663 1.68969 20.663 1.68969C21.0385 1.27528 21.6343 1.63789 21.5566 2.0782C21.4918 2.45376 20.909 2.99767 20.2356 2.41491C19.5493 1.80624 19.873 0.951523 20.4558 0.614815C21.1033 0.239256 21.6213 0.498263 21.6213 0.498263ZM21.958 1.76739C21.958 1.76739 22.4372 1.78034 22.6573 2.37606C22.8257 2.80342 22.7221 3.19193 22.5667 3.48979C22.5149 3.58044 22.6314 3.65814 22.6962 3.59339C23.3048 2.93292 23.5121 1.8969 23.0976 1.13283C22.5149 0.0709022 21.3105 -0.304658 20.3392 0.265155C19.3938 0.822018 19.2125 1.90985 19.7047 2.57031C20.2097 3.23078 21.0126 3.34733 21.5695 2.84227C22.1523 2.31131 21.958 1.76739 21.958 1.76739Z" fill="#5C0F8B"/>
<path d="M26.8274 19.4184C26.8274 19.4184 27.0217 18.7838 26.4778 18.214C26.0893 17.7866 25.7266 17.9938 25.7266 17.9938C26.1022 18.5377 25.5194 19.1205 25.0403 18.9004C24.6259 18.7191 24.1726 17.9032 25.0273 17.3075C25.908 16.6859 26.7886 17.2945 27.0217 18.0456C27.2807 18.9004 26.8274 19.4184 26.8274 19.4184ZM25.2993 19.4572C25.2993 19.4572 25.1568 20.0011 24.4187 20.0918C23.8229 20.1565 23.3826 19.8846 23.0977 19.5997C23.033 19.5349 22.9164 19.6126 22.9682 19.7033C23.538 20.6486 24.7036 21.2185 25.7266 20.9595C27.0994 20.5968 27.8505 19.3277 27.4749 18.0715C27.0994 16.8283 25.9209 16.3362 25.0273 16.7247C24.1338 17.1132 23.7841 17.9938 24.2115 18.7579C24.6259 19.522 25.2993 19.4572 25.2993 19.4572Z" fill="#5C0F8B"/>
<path d="M13.7477 28.9627C13.7477 28.9627 13.398 28.38 13.7995 27.5771C14.1621 26.8777 15.1333 26.4374 15.8845 27.2015C16.6097 27.9397 16.0269 28.6649 15.5866 28.7685C15.0686 28.898 14.6024 28.2246 15.0686 27.7584C15.0686 27.7584 14.7578 27.4994 14.2916 27.8361C13.67 28.3152 13.7477 28.9627 13.7477 28.9627ZM15.2499 29.2865C15.2499 29.2865 15.8974 29.4678 16.4543 28.7814C17.0111 28.0951 16.8169 27.1627 16.014 26.6317C15.211 26.1007 13.9549 26.3727 13.3721 27.5253C12.7764 28.6908 13.2944 30.0765 14.5765 30.6722C15.5348 31.1254 16.791 30.7628 17.5162 29.934C17.581 29.8563 17.4903 29.7527 17.3997 29.8045C17.0629 30.0376 16.5838 30.2319 16.014 30.0635C15.3017 29.8563 15.2499 29.2865 15.2499 29.2865Z" fill="#5C0F8B"/>
<path d="M4.59165 24.4429C4.59165 24.4429 4.02184 24.7796 4.03479 25.5696C4.03479 26.1394 4.43625 26.2301 4.43625 26.2301C4.5269 25.5696 5.34277 25.5308 5.54997 26.0229C5.73128 26.4373 5.52407 27.3438 4.501 27.2143C3.42612 27.0848 3.19302 26.0488 3.51678 25.3235C3.91823 24.5206 4.59165 24.4429 4.59165 24.4429ZM5.77013 25.4271C5.77013 25.4271 6.24929 25.1163 6.845 25.5437C7.33712 25.8934 7.46662 26.3984 7.49252 26.7999C7.49252 26.9035 7.63497 26.9164 7.66087 26.8128C7.88103 25.725 7.38892 24.5206 6.4565 24.0285C5.20032 23.381 3.78873 23.8213 3.23187 24.9998C2.67501 26.1653 3.21892 27.3308 4.13839 27.6417C5.05786 27.9525 5.89963 27.538 6.10684 26.6833C6.30109 25.8286 5.77013 25.4271 5.77013 25.4271Z" fill="#5C0F8B"/>
<path d="M15.8585 0.654066C15.8585 0.654066 16.4672 0.356211 17.2313 0.822422C17.9047 1.24978 18.2543 2.24695 17.4255 2.93332C16.6355 3.60674 15.9621 2.95922 15.8974 2.50596C15.8197 1.975 16.519 1.57354 16.9464 2.0786C16.9464 2.0786 17.2313 1.78074 16.9334 1.30158C16.519 0.641115 15.8585 0.654066 15.8585 0.654066ZM15.4182 2.1304C15.4182 2.1304 15.1851 2.76497 15.8197 3.37363C16.4542 3.9823 17.3996 3.87869 17.9953 3.11462C18.591 2.35056 18.4356 1.08143 17.3349 0.408011C16.2211 -0.278356 14.7966 0.110155 14.0973 1.34043C13.5663 2.25991 13.8124 3.54199 14.5894 4.33196C14.6541 4.39671 14.7707 4.319 14.7189 4.22835C14.5117 3.87869 14.3563 3.37363 14.5764 2.82972C14.8484 2.1304 15.4182 2.1304 15.4182 2.1304Z" fill="#C40D3C"/>
<path d="M7.01341 7.10325C7.01341 7.10325 6.4954 6.64999 6.63785 5.76936C6.76736 4.99235 7.55732 4.28008 8.51565 4.77219C9.43512 5.25135 9.09841 6.11902 8.7099 6.35213C8.25664 6.63704 7.60912 6.13198 7.90698 5.54921C7.90698 5.54921 7.51847 5.39381 7.19471 5.86002C6.74145 6.50753 7.01341 7.10325 7.01341 7.10325ZM8.54155 6.94784C8.54155 6.94784 9.21496 6.92194 9.53872 6.09312C9.84953 5.27725 9.39627 4.44844 8.46384 4.17648C7.53142 3.91747 6.4177 4.56499 6.22344 5.83412C6.01624 7.12915 6.93571 8.28173 8.33434 8.46303C9.38332 8.59253 10.4711 7.88027 10.8985 6.85719C10.9374 6.76654 10.8078 6.68884 10.756 6.76654C10.51 7.0903 10.1085 7.42701 9.51282 7.43996C8.7617 7.46586 8.54155 6.94784 8.54155 6.94784Z" fill="#C40D3C"/>
<path d="M34.2349 25.1823C34.2349 25.1823 34.7917 25.5708 34.7529 26.4644C34.714 27.2544 34.0147 28.0573 33.0046 27.6688C32.0333 27.3062 32.2664 26.3997 32.629 26.1277C33.0434 25.8039 33.7428 26.2183 33.5226 26.84C33.5226 26.84 33.9241 26.9565 34.196 26.4515C34.5716 25.7392 34.2349 25.1823 34.2349 25.1823ZM32.7326 25.5061C32.7326 25.5061 32.0722 25.6097 31.8391 26.4644C31.6189 27.3191 32.1758 28.0832 33.1211 28.2386C34.0795 28.394 35.1025 27.6299 35.1673 26.3349C35.2191 25.0269 34.1831 23.9779 32.7715 23.965C31.7096 23.952 30.7124 24.7938 30.4016 25.8557C30.3757 25.9464 30.5052 26.0111 30.557 25.9205C30.7642 25.5708 31.1268 25.1953 31.7096 25.1176C32.4607 25.014 32.7326 25.5061 32.7326 25.5061Z" fill="#C40D3C"/>
<path d="M19.5364 17.3987C19.5364 17.3987 19.8213 16.8937 20.5724 16.8419C21.2459 16.803 21.997 17.334 21.7639 18.2146C21.5437 19.0693 20.7537 18.9528 20.4818 18.6679C20.158 18.3441 20.4559 17.7095 20.9998 17.852C20.9998 17.852 21.0516 17.5023 20.5983 17.321C19.9897 17.0491 19.5364 17.3987 19.5364 17.3987ZM19.9508 18.629C19.9508 18.629 20.1062 19.1859 20.8444 19.3024C21.5826 19.419 22.1912 18.8751 22.243 18.0462C22.2819 17.2174 21.5308 16.4145 20.43 16.4793C19.3163 16.557 18.5133 17.5282 18.6299 18.7326C18.7076 19.6003 19.4587 20.3384 20.3393 20.5457C20.43 20.5716 20.4818 20.4291 20.3911 20.3903C20.1062 20.2348 19.7954 19.9758 19.6918 19.5226C19.5623 18.9139 19.9508 18.629 19.9508 18.629Z" fill="#C40D3C"/>
<path d="M7.46663 30.7375C7.46663 30.7375 7.89399 31.1131 8.52855 30.9059C8.99476 30.7505 8.96886 30.4008 8.96886 30.4008C8.412 30.4915 8.16594 29.844 8.5156 29.5461C8.80051 29.2871 9.60343 29.2353 9.75883 30.103C9.91423 31.0095 9.13722 31.4757 8.4638 31.3851C7.71268 31.2685 7.46663 30.7375 7.46663 30.7375ZM7.98464 29.5332C7.98464 29.5332 7.62203 29.2224 7.81628 28.6137C7.95874 28.1734 8.2825 27.9403 8.58035 27.8108C8.67101 27.7719 8.63215 27.6295 8.5415 27.6424C7.64793 27.7849 6.84501 28.4583 6.68961 29.313C6.4824 30.5044 7.19467 31.5405 8.3084 31.7088C9.39622 31.8642 10.2121 31.1261 10.238 30.2972C10.2639 29.4684 9.69408 28.8727 8.94296 28.9245C8.17889 28.9893 7.98464 29.5332 7.98464 29.5332Z" fill="#C40D3C"/>
<path d="M24.4445 28.7697C24.4445 28.7697 24.3927 28.1092 23.6804 27.7725C23.1624 27.5265 22.9034 27.8373 22.9034 27.8373C23.4473 28.2128 23.1235 28.951 22.5926 28.938C22.1393 28.9251 21.427 28.3294 21.9969 27.4617C22.5926 26.5681 23.6286 26.8142 24.1207 27.4229C24.6776 28.1222 24.4445 28.7697 24.4445 28.7697ZM23.0458 29.3654C23.0458 29.3654 23.1106 29.9352 22.4501 30.2719C21.9192 30.5568 21.4141 30.4532 21.0385 30.2849C20.9479 30.246 20.8702 30.3626 20.9479 30.4273C21.8156 31.1007 23.1235 31.2173 23.9783 30.5827C25.1179 29.741 25.351 28.2905 24.5481 27.2545C23.7451 26.2314 22.476 26.2055 21.7767 26.8919C21.0903 27.5783 21.0903 28.5236 21.7638 29.0805C22.4372 29.6762 23.0458 29.3654 23.0458 29.3654Z" fill="#C40D3C"/>
<path d="M29.8319 6.89578C29.8319 6.89578 30.4405 6.33892 31.4895 6.63677C32.4219 6.89578 33.1731 7.95771 32.4478 9.04553C31.7485 10.0945 30.7384 9.56354 30.5053 9.05848C30.2333 8.47572 30.9197 7.76345 31.5931 8.20376C31.5931 8.20376 31.8262 7.76345 31.3082 7.29724C30.583 6.64972 29.8319 6.89578 29.8319 6.89578ZM29.806 8.76062C29.806 8.76062 29.7412 9.58944 30.6995 10.0816C31.6579 10.5737 32.7198 10.1334 33.1731 9.03258C33.6134 7.9318 32.9918 6.50727 31.4636 6.07991C29.9225 5.65255 28.3944 6.59792 27.98 8.26851C27.6562 9.56354 28.4462 11.0399 29.6894 11.6744C29.7801 11.7133 29.8578 11.5967 29.7801 11.532C29.3916 11.1953 28.9642 10.6384 29.0419 9.8355C29.1326 8.95488 29.806 8.76062 29.806 8.76062Z" fill="#C40D3C"/>
<path d="M74.5625 35.063C74.0185 35.063 73.643 35.4386 73.4746 36.099C73.3969 36.4228 73.3969 36.5264 73.3063 36.7336C73.2415 36.8761 73.0991 36.9667 72.9178 36.9667H72.8012C72.4775 36.9667 72.4645 36.8243 72.4257 36.617C72.3221 35.9954 72.1019 35.594 71.7652 35.3609C71.4414 35.1407 71.0918 35.063 70.7421 35.063C70.5349 35.063 70.3277 35.0889 70.1335 35.1278L70.1853 35.6587C70.3536 35.6199 70.522 35.594 70.7162 35.594C70.9752 35.594 71.2342 35.6458 71.4544 35.7882C71.6875 35.9307 71.804 36.2026 71.8947 36.6818C71.9076 36.7854 71.9335 36.8631 71.9594 36.9408H69.978C69.5248 36.9408 69.3305 36.7595 69.3046 36.358C69.3046 36.3321 69.3046 36.2933 69.3046 36.2544C69.3046 35.5551 68.7996 35.0371 68.1521 35.0371C67.6081 35.0371 67.2326 35.4127 67.0642 36.0731C66.9865 36.3969 66.9865 36.5005 66.8959 36.7077C66.8311 36.8502 66.6887 36.9408 66.5074 36.9408H66.0671V36.4357C66.0671 35.4904 65.4195 35.0371 64.3965 35.0371H64.0857V35.581H64.3965C65.1864 35.581 65.5361 35.8012 65.5361 36.4487V36.9408H63.8396V37.4718H66.5203C66.857 37.4718 67.129 37.3423 67.2973 37.0962C67.5693 37.3552 67.8801 37.4718 68.1909 37.4718C68.5406 37.4718 68.8643 37.3164 69.0845 37.0315C69.2399 37.3164 69.5248 37.4588 69.991 37.4588H72.9437C73.2804 37.4588 73.5523 37.3293 73.7207 37.0833C73.9926 37.3423 74.3035 37.4588 74.6143 37.4588C75.21 37.4588 75.7409 37.0056 75.7409 36.2415C75.715 35.581 75.2229 35.063 74.5625 35.063ZM68.1521 36.9667C67.9319 36.9667 67.6858 36.8502 67.4786 36.617C67.5045 36.5005 67.5175 36.371 67.5822 36.1767C67.6858 35.7882 67.8542 35.6069 68.1391 35.6069C68.4888 35.6069 68.7478 35.8918 68.7478 36.2803C68.7478 36.7207 68.4758 36.9667 68.1521 36.9667ZM74.5754 36.9667C74.3553 36.9667 74.1092 36.8502 73.902 36.617C73.9279 36.5005 73.9538 36.371 74.0056 36.1767C74.1092 35.7882 74.2775 35.6069 74.5625 35.6069C74.9121 35.6069 75.1711 35.8918 75.1711 36.2803C75.1711 36.7207 74.8992 36.9667 74.5754 36.9667Z" fill="#153E35"/>
<path d="M88.5745 35.0627V36.9664H88.1731C87.8105 36.9664 87.6421 36.7592 87.6421 36.3189V35.2181H87.0982V36.3189C87.0982 36.7721 86.9298 36.9664 86.6449 36.9664H86.1399V35.2181H85.596V36.9664H84.5211V35.0627H83.9772V36.9664H83.5757C83.2131 36.9664 83.0447 36.7592 83.0447 36.3189V35.2181H82.5008V36.3189C82.5008 36.7721 82.3325 36.9664 82.0476 36.9664H81.5555V35.2181H81.0115V36.9664H80.377C79.9496 36.9664 79.7554 36.7721 79.7554 36.3189V34.8555H79.2114V35.0886C79.1078 35.0756 79.0042 35.0627 78.9006 35.0627C78.0848 35.0627 77.4373 35.49 77.4373 36.3318C77.4373 36.9016 77.8258 37.4067 78.4474 37.4067C78.8747 37.4067 79.1597 37.1995 79.3021 36.8369C79.4705 37.2513 79.846 37.4973 80.3899 37.4973H82.0605C82.3972 37.4973 82.6692 37.3549 82.8505 37.1088C83.0059 37.3678 83.2778 37.4973 83.6923 37.4973H86.6708C87.0075 37.4973 87.2795 37.3549 87.4608 37.1088C87.6162 37.3678 87.8882 37.4973 88.3026 37.4973H89.1702V35.0627H88.5745ZM79.1855 36.0339C79.1855 36.539 78.9265 36.8757 78.5121 36.8757C78.1495 36.8757 77.9423 36.6167 77.9423 36.3189C77.9423 35.8267 78.3567 35.5677 78.8877 35.5677C78.9913 35.5677 79.0819 35.5807 79.1855 35.5936V36.0339Z" fill="#153E35"/>
<path d="M90.9055 34.4156C90.7631 34.4156 90.6595 34.325 90.6595 34.1955C90.6595 34.066 90.7631 34.0012 90.8796 34.0012C90.9314 34.0012 90.9962 34.0142 91.048 34.0401L91.1904 33.7681C91.0739 33.7163 90.9573 33.6904 90.8537 33.6904C90.5688 33.6904 90.3228 33.8717 90.3228 34.1566C90.3228 34.2732 90.3616 34.3638 90.4264 34.4286H90.3228V34.7135H91.2552V34.4286H90.9055V34.4156Z" fill="#153E35"/>
<path d="M94.1822 35.0635C93.6383 35.0635 93.2627 35.439 93.0943 36.0995C93.0166 36.4233 93.0166 36.5269 92.926 36.7341C92.8612 36.8765 92.7188 36.9672 92.5375 36.9672H92.0842V35.0635H91.2942C90.1805 35.0635 89.7661 35.6851 89.7661 36.3067C89.7661 36.9024 90.1546 37.4981 91.2813 37.4981H91.5015C91.3979 37.8866 91.087 38.0679 90.6338 38.0679C90.5172 38.0679 90.3748 38.055 90.2323 38.042V38.5601C90.4266 38.5989 90.5949 38.6119 90.7503 38.6119C91.4756 38.6119 91.9418 38.2234 92.0454 37.4981H92.5116C92.8483 37.4981 93.1202 37.3686 93.2886 37.1226C93.5606 37.3816 93.8714 37.4981 94.1822 37.4981C94.7779 37.4981 95.3088 37.0449 95.3088 36.2808C95.3347 35.5815 94.8297 35.0635 94.1822 35.0635ZM91.5533 36.9542H91.3072C90.5302 36.9542 90.2971 36.6175 90.2971 36.2808C90.2971 35.9441 90.5302 35.6074 91.2942 35.6074H91.5533V36.9542ZM94.1951 36.9672C93.975 36.9672 93.7289 36.8506 93.5217 36.6175C93.5476 36.501 93.5606 36.3715 93.6253 36.1772C93.7289 35.7887 93.8973 35.6074 94.1822 35.6074C94.5318 35.6074 94.7908 35.8923 94.7908 36.2808C94.7908 36.7211 94.5189 36.9672 94.1951 36.9672Z" fill="#153E35"/>
<path d="M55.0722 35.0632V36.9669H54.6707C54.3081 36.9669 54.1398 36.7597 54.1398 36.3194V35.2186H53.5958V36.3194C53.5958 36.7727 53.4275 36.9669 53.1426 36.9669H52.6505V35.2186H52.1066V36.9669H51.472C50.9928 36.9669 50.7986 36.7727 50.7986 36.3194V34.1826H50.2547V36.3194C50.2547 36.7727 50.0604 36.9669 49.6201 36.9669C49.1668 36.9669 48.9726 36.7986 48.9467 36.3842C48.9985 35.5942 48.4546 35.0632 47.7941 35.0632C47.2502 35.0632 46.8746 35.4388 46.7063 36.0993C46.6286 36.423 46.6286 36.5266 46.5379 36.7338C46.4732 36.8763 46.3307 36.9669 46.1494 36.9669H45.5278V34.1826H44.9839V37.4979H46.1624C46.4991 37.4979 46.771 37.3684 46.9394 37.1223C47.2113 37.3813 47.5221 37.4979 47.833 37.4979C48.1826 37.4979 48.5064 37.3425 48.7265 37.0576C48.8819 37.3425 49.1668 37.4849 49.633 37.4849C50.0604 37.4849 50.3842 37.3425 50.5914 37.0705C50.7597 37.3425 51.0446 37.4849 51.4849 37.4849H53.1555C53.4922 37.4849 53.7642 37.3425 53.9455 37.0964C54.1009 37.3554 54.3729 37.4849 54.7873 37.4849H55.6549V35.0503H55.0722V35.0632ZM47.8071 36.9669C47.5869 36.9669 47.3408 36.8504 47.1336 36.6173C47.1595 36.5007 47.1854 36.3712 47.2372 36.177C47.3408 35.7885 47.5092 35.6072 47.7941 35.6072C48.1438 35.6072 48.4028 35.8921 48.4028 36.2806C48.4028 36.7209 48.1308 36.9669 47.8071 36.9669Z" fill="#153E35"/>
<path d="M44.2586 37.4982C44.142 38.0809 43.7406 38.6119 42.7952 38.6119C41.8628 38.6119 41.293 38.055 41.293 37.019V35.6074H41.8369V37.019C41.8369 37.6795 42.0959 38.0939 42.7952 38.0939C43.4945 38.0939 43.7535 37.6924 43.7535 37.019V35.6074H44.2974V36.9672C44.3104 37.2651 44.2586 37.4982 44.2586 37.4982Z" fill="#153E35"/>
<path d="M62.0393 35.374V37.4979H60.3687C60.2521 38.0806 59.8507 38.6116 58.9053 38.6116C57.9599 38.6116 57.4031 38.0547 57.4031 37.0187V35.6071H57.947V37.0187C57.947 37.6792 58.206 38.0936 58.9053 38.0936C59.6046 38.0936 59.8636 37.6921 59.8636 37.0187V35.6071H60.4075V36.9669H61.4824V35.374H62.0393Z" fill="#153E35"/>
<path d="M61.8841 38.2098C61.8841 38.3911 61.7287 38.5465 61.5474 38.5465C61.3661 38.5465 61.2107 38.3911 61.2107 38.2098C61.2107 38.0284 61.3661 37.873 61.5474 37.873C61.7287 37.873 61.8841 38.0284 61.8841 38.2098Z" fill="#153E35"/>
<path d="M78.6029 34.2088C78.6029 34.3901 78.4475 34.5455 78.2662 34.5455C78.0849 34.5455 77.9294 34.3901 77.9294 34.2088C77.9294 34.0275 78.0849 33.8721 78.2662 33.8721C78.4475 33.8721 78.6029 34.0145 78.6029 34.2088Z" fill="#153E35"/>
<path d="M79.4705 34.2088C79.4705 34.3901 79.3151 34.5455 79.1338 34.5455C78.9525 34.5455 78.7971 34.3901 78.7971 34.2088C78.7971 34.0275 78.9525 33.8721 79.1338 33.8721C79.3151 33.8721 79.4705 34.0145 79.4705 34.2088Z" fill="#153E35"/>
<path d="M59.242 35.2576C59.242 35.4389 59.0866 35.5943 58.9053 35.5943C58.724 35.5943 58.5686 35.4389 58.5686 35.2576C58.5686 35.0763 58.724 34.9209 58.9053 34.9209C59.0866 34.9209 59.242 35.0763 59.242 35.2576Z" fill="#153E35"/>
<path d="M43.1449 35.2576C43.1449 35.4389 42.9894 35.5943 42.8081 35.5943C42.6268 35.5943 42.4714 35.4389 42.4714 35.2576C42.4714 35.0763 42.6268 34.9209 42.8081 34.9209C42.9894 34.9209 43.1449 35.0763 43.1449 35.2576Z" fill="#153E35"/>
<path d="M41.3059 40.0098H41.811L42.8858 41.4731L43.9737 40.0098H44.4787V43.1437H43.9089V40.9292L42.9765 42.2113H42.8211L41.8887 40.9292V43.1437H41.3189V40.0098H41.3059Z" fill="#153E35"/>
<path d="M45.6572 43.053C45.463 42.9364 45.3205 42.794 45.2169 42.5997C45.1133 42.4055 45.0615 42.1983 45.0615 41.9652C45.0615 41.7321 45.1133 41.5249 45.2169 41.3306C45.3205 41.1364 45.4759 40.9809 45.6572 40.8773C45.8515 40.7608 46.0587 40.709 46.2918 40.709C46.5249 40.709 46.7451 40.7608 46.9393 40.8773C47.1336 40.9939 47.276 41.1364 47.3796 41.3306C47.4832 41.5249 47.535 41.7321 47.535 41.9652C47.535 42.1983 47.4832 42.4055 47.3796 42.5997C47.276 42.794 47.1206 42.9494 46.9264 43.053C46.7321 43.1695 46.5249 43.2213 46.2789 43.2213C46.0587 43.2213 45.8385 43.1566 45.6572 43.053ZM46.6544 42.5997C46.758 42.535 46.8487 42.4443 46.9005 42.3407C46.9652 42.2242 46.9911 42.1076 46.9911 41.9652C46.9911 41.8227 46.9652 41.6932 46.9005 41.5896C46.8357 41.4731 46.758 41.3824 46.6544 41.3306C46.5508 41.2788 46.4343 41.24 46.3048 41.24C46.1753 41.24 46.0587 41.2659 45.9551 41.3306C45.8515 41.3954 45.7608 41.486 45.709 41.5896C45.6572 41.6932 45.6184 41.8227 45.6184 41.9652C45.6184 42.1076 45.6443 42.2371 45.709 42.3407C45.7738 42.4573 45.8515 42.535 45.9551 42.5997C46.0587 42.6645 46.1753 42.6904 46.3048 42.6904C46.4343 42.6904 46.5379 42.6645 46.6544 42.5997Z" fill="#153E35"/>
<path d="M48.6357 39.9062V40.8646L48.6228 41.1236C48.7005 40.9941 48.8041 40.8905 48.9465 40.8128C49.089 40.7351 49.2444 40.6962 49.4257 40.6962C49.7365 40.6962 49.9826 40.7998 50.138 40.9941C50.2934 41.1883 50.3711 41.4862 50.3711 41.8617V43.1438H49.8142V41.8747C49.8142 41.6416 49.7624 41.4862 49.6717 41.3696C49.5811 41.266 49.4386 41.2142 49.2703 41.2142C49.1667 41.2142 49.0631 41.2401 48.9595 41.3049C48.8688 41.3696 48.7911 41.4473 48.7264 41.5639C48.6616 41.6675 48.6357 41.797 48.6357 41.9394V43.1438H48.0789V39.9062H48.6357Z" fill="#153E35"/>
<path d="M51.4201 43.053C51.2518 42.9364 51.1223 42.794 51.0187 42.5997C50.928 42.4055 50.8762 42.1983 50.8762 41.9652C50.8762 41.7321 50.928 41.5249 51.0187 41.3306C51.1223 41.1364 51.2518 40.9809 51.4201 40.8773C51.5885 40.7608 51.7827 40.709 51.9899 40.709C52.1842 40.709 52.3526 40.7478 52.508 40.8385C52.6634 40.9162 52.767 41.0327 52.8447 41.1881V40.7867H53.3756V43.1566H52.8447V42.7551C52.767 42.8976 52.6504 43.0141 52.508 43.1048C52.3526 43.1825 52.1842 43.2343 51.9899 43.2343C51.7827 43.2213 51.5885 43.1566 51.4201 43.053ZM52.4821 42.5997C52.5857 42.535 52.6763 42.4443 52.7281 42.3278C52.7929 42.2112 52.8188 42.0947 52.8188 41.9522C52.8188 41.8227 52.7929 41.6932 52.7281 41.5767C52.6634 41.4601 52.5857 41.3695 52.4821 41.3047C52.3785 41.24 52.2619 41.2011 52.1324 41.2011C52.0029 41.2011 51.8863 41.227 51.7827 41.2917C51.6791 41.3565 51.5885 41.4472 51.5367 41.5508C51.4719 41.6673 51.446 41.7968 51.446 41.9393C51.446 42.0817 51.4719 42.2242 51.5367 42.3278C51.6014 42.4443 51.6791 42.522 51.7957 42.5868C51.8993 42.6515 52.0158 42.6774 52.1453 42.6774C52.249 42.7033 52.3655 42.6645 52.4821 42.5997Z" fill="#153E35"/>
<path d="M57.6363 41.0068C57.7917 41.2011 57.8565 41.499 57.8565 41.8745V43.1566H57.3125V41.8875C57.3125 41.6673 57.2737 41.499 57.183 41.3824C57.0924 41.2788 56.9758 41.227 56.8075 41.227C56.7039 41.227 56.6132 41.2529 56.5226 41.3177C56.4319 41.3824 56.3672 41.4601 56.3154 41.5767C56.2636 41.6803 56.2377 41.8098 56.2377 41.9522V43.1566H55.6808V41.8875C55.6808 41.6673 55.6419 41.499 55.5513 41.3824C55.4606 41.2788 55.3441 41.227 55.1887 41.227C55.0851 41.227 54.9944 41.2529 54.9038 41.3177C54.8131 41.3824 54.7484 41.4601 54.6966 41.5767C54.6448 41.6803 54.6189 41.8098 54.6189 41.9522V43.1566H54.062V40.7867H54.58L54.593 41.1493C54.6577 41.0198 54.7613 40.9162 54.8908 40.8385C55.0203 40.7608 55.1757 40.709 55.3441 40.709C55.5384 40.709 55.7067 40.7478 55.8362 40.8385C55.9657 40.9291 56.0693 41.0586 56.1341 41.24C56.2377 41.0586 56.3542 40.9291 56.4967 40.8385C56.6391 40.7478 56.7945 40.709 56.9629 40.709C57.2737 40.709 57.4938 40.7996 57.6363 41.0068Z" fill="#153E35"/>
<path d="M62.117 41.0068C62.2724 41.2011 62.3372 41.499 62.3372 41.8745V43.1566H61.7932V41.8875C61.7932 41.6673 61.7544 41.499 61.6637 41.3824C61.5731 41.2788 61.4565 41.227 61.2882 41.227C61.1846 41.227 61.0939 41.2529 61.0033 41.3177C60.9126 41.3824 60.8479 41.4601 60.7961 41.5767C60.7443 41.6803 60.7184 41.8098 60.7184 41.9522V43.1566H60.1615V41.8875C60.1615 41.6673 60.1227 41.499 60.032 41.3824C59.9414 41.2788 59.8248 41.227 59.6694 41.227C59.5658 41.227 59.4751 41.2529 59.3845 41.3177C59.2938 41.3824 59.2291 41.4601 59.1773 41.5767C59.1255 41.6803 59.0996 41.8098 59.0996 41.9522V43.1566H58.5427V40.7867H59.0607L59.0737 41.1493C59.1384 41.0198 59.242 40.9162 59.3715 40.8385C59.501 40.7608 59.6564 40.709 59.8248 40.709C60.0191 40.709 60.1874 40.7478 60.3169 40.8385C60.4464 40.9291 60.55 41.0586 60.6148 41.24C60.7184 41.0586 60.8349 40.9291 60.9774 40.8385C61.1198 40.7478 61.2752 40.709 61.4436 40.709C61.7414 40.709 61.9616 40.7996 62.117 41.0068Z" fill="#153E35"/>
<path d="M65.264 42.1076H63.4121C63.4251 42.2371 63.4769 42.3407 63.5287 42.4314C63.5934 42.522 63.6711 42.5997 63.7618 42.6386C63.8524 42.6904 63.956 42.7163 64.0596 42.7163C64.2021 42.7163 64.3057 42.6904 64.3963 42.6386C64.487 42.5868 64.5517 42.5091 64.5906 42.4055H65.1992C65.1604 42.5479 65.0827 42.6904 64.9791 42.8069C64.8755 42.9364 64.746 43.0271 64.5906 43.1048C64.4352 43.1825 64.2539 43.2213 64.0726 43.2213C63.8395 43.2213 63.6323 43.1695 63.438 43.053C63.2567 42.9364 63.1013 42.794 62.9977 42.5997C62.8941 42.4055 62.8423 42.1983 62.8423 41.9652C62.8423 41.7321 62.8941 41.5249 62.9977 41.3306C63.1013 41.1364 63.2567 40.9809 63.438 40.8773C63.6193 40.7608 63.8395 40.709 64.0726 40.709C64.3057 40.709 64.5129 40.7608 64.6942 40.8773C64.8755 40.9939 65.0179 41.1363 65.1215 41.3177C65.2251 41.499 65.2769 41.7062 65.2769 41.9263C65.2769 41.9652 65.264 42.0299 65.264 42.1076ZM64.7071 41.6803C64.6942 41.5896 64.6683 41.5119 64.6035 41.4342C64.5388 41.3565 64.474 41.3047 64.3704 41.2529C64.2668 41.2011 64.1762 41.1881 64.0726 41.1881C63.9301 41.1881 63.7877 41.227 63.6711 41.3177C63.5546 41.3954 63.4769 41.5249 63.425 41.6803H64.7071Z" fill="#153E35"/>
<path d="M66.1577 43.0532C65.9893 42.9366 65.8469 42.7942 65.7562 42.5999C65.6526 42.4057 65.6138 42.1985 65.6138 41.9653C65.6138 41.7322 65.6656 41.525 65.7562 41.3308C65.8469 41.1365 65.9893 40.9941 66.1577 40.8775C66.339 40.761 66.5332 40.7092 66.7534 40.7092C66.8699 40.7092 66.9865 40.7351 67.0901 40.7739C67.1937 40.8128 67.2844 40.8775 67.3621 40.9423C67.4398 41.007 67.5045 41.0847 67.5434 41.1624L67.5304 40.9164V39.9062H68.0873V43.1438H67.5563V42.7424C67.4786 42.8719 67.375 42.9884 67.2326 43.0791C67.0901 43.1697 66.9218 43.2086 66.7404 43.2086C66.5332 43.2215 66.339 43.1568 66.1577 43.0532ZM67.2067 42.5999C67.3103 42.5352 67.4009 42.4445 67.4657 42.328C67.5304 42.2114 67.5563 42.0949 67.5563 41.9524C67.5563 41.8099 67.5304 41.6934 67.4657 41.5768C67.4009 41.4603 67.3232 41.3696 67.2196 41.3049C67.116 41.2401 66.9995 41.2013 66.87 41.2013C66.7404 41.2013 66.6239 41.2272 66.5203 41.2919C66.4167 41.3567 66.326 41.4473 66.2742 41.5509C66.2095 41.6675 66.1836 41.784 66.1836 41.9265C66.1836 42.0689 66.2095 42.1855 66.2742 42.3021C66.339 42.4186 66.4167 42.5093 66.5203 42.574C66.6239 42.6388 66.7404 42.6776 66.8829 42.6776C66.9736 42.7035 67.0901 42.6647 67.2067 42.5999Z" fill="#153E35"/>
<path d="M71.247 40.0098C71.4413 40.0098 71.5967 40.0486 71.7521 40.1134C71.9075 40.1781 72.0111 40.2817 72.0888 40.4112C72.1665 40.5407 72.2053 40.6832 72.2053 40.8645C72.2053 40.9551 72.1924 41.0458 72.1535 41.1235C72.1147 41.2141 72.0758 41.2789 72.0111 41.3436C71.9463 41.4084 71.8816 41.4602 71.8168 41.4861C71.9204 41.5249 72.024 41.5768 72.1017 41.6415C72.1924 41.7192 72.2571 41.7969 72.3089 41.9005C72.3607 42.0041 72.3866 42.1077 72.3866 42.2243C72.3866 42.4185 72.3348 42.5869 72.2442 42.7293C72.1535 42.8718 72.024 42.9754 71.8686 43.0401C71.7132 43.1049 71.5578 43.1437 71.3765 43.1437H69.8743V40.0098H71.247ZM71.4283 41.2659C71.4931 41.2271 71.5319 41.1753 71.5708 41.1235C71.6096 41.0587 71.6226 40.994 71.6226 40.9163C71.6226 40.8386 71.6096 40.7738 71.5708 40.7091C71.5319 40.6443 71.4931 40.5925 71.4283 40.5666C71.3636 40.5278 71.2988 40.5148 71.2211 40.5148H70.457V41.3307H71.2211C71.2988 41.3177 71.3636 41.3048 71.4283 41.2659ZM71.5708 42.5869C71.6485 42.548 71.7003 42.4962 71.7391 42.4185C71.778 42.3538 71.8039 42.2761 71.8039 42.1854C71.8039 42.1077 71.778 42.03 71.7391 41.9653C71.7003 41.9005 71.6485 41.8487 71.5708 41.8099C71.506 41.771 71.4283 41.7451 71.3377 41.7451H70.47V42.6387H71.3377C71.4154 42.6516 71.4931 42.6257 71.5708 42.5869Z" fill="#153E35"/>
<path d="M73.4616 40.7744H72.9048V43.1443H73.4616V40.7744Z" fill="#153E35"/>
<path d="M74.6918 40.774V41.1366C74.7566 41.0071 74.8732 40.9035 75.0156 40.8128C75.1581 40.7351 75.3264 40.6963 75.5077 40.6963C75.8185 40.6963 76.0646 40.7999 76.22 40.9941C76.3754 41.1884 76.4531 41.4863 76.4531 41.8618V43.1439H75.8962V41.8748C75.8962 41.6417 75.8444 41.4863 75.7538 41.3697C75.6631 41.2661 75.5207 41.2143 75.3523 41.2143C75.2358 41.2143 75.1322 41.2402 75.0415 41.292C74.9509 41.3438 74.8732 41.4345 74.8084 41.5381C74.7566 41.6417 74.7178 41.7712 74.7178 41.9266V43.1309H74.1609V40.761H74.6918V40.774Z" fill="#153E35"/>
<path d="M78.5898 43.0666C78.3956 42.9759 78.2531 42.8464 78.1625 42.691C78.0718 42.5356 78.033 42.3802 78.033 42.1989H78.6028C78.6028 42.3025 78.6287 42.3802 78.6805 42.4709C78.7323 42.5486 78.81 42.6133 78.9265 42.6651C79.0301 42.7169 79.1596 42.7299 79.3021 42.7299C79.7683 42.7299 80.0014 42.5745 80.0014 42.2637C80.0014 42.173 79.9755 42.0953 79.9108 42.0306C79.859 41.9658 79.7683 41.927 79.6647 41.8881C79.5611 41.8493 79.4316 41.8104 79.2762 41.7845C79.056 41.7327 78.8618 41.6809 78.6934 41.6162C78.5251 41.5514 78.3826 41.4608 78.279 41.3313C78.1625 41.2018 78.1107 41.0334 78.1107 40.8391C78.1107 40.6578 78.1495 40.5154 78.2402 40.3729C78.3308 40.2434 78.4603 40.1269 78.6287 40.0492C78.81 39.9715 79.0172 39.9326 79.2891 39.9326C79.5481 39.9326 79.7553 39.9715 79.9366 40.0492C80.118 40.1269 80.2475 40.2305 80.3381 40.3729C80.4288 40.5154 80.4676 40.6837 80.4676 40.865H79.8978C79.8978 40.7355 79.846 40.6319 79.7424 40.5542C79.6388 40.4765 79.4834 40.4377 79.2891 40.4377C79.069 40.4377 78.9136 40.4765 78.8359 40.5542C78.7452 40.6319 78.7064 40.7226 78.7064 40.8391C78.7064 40.9298 78.7323 40.9945 78.797 41.0593C78.8488 41.124 78.9395 41.1629 79.056 41.2018C79.1726 41.2406 79.315 41.2795 79.4963 41.3054C79.8331 41.3701 80.105 41.4737 80.2993 41.6162C80.5065 41.7586 80.5971 41.9788 80.5971 42.2637C80.5971 42.4579 80.5453 42.6392 80.4417 42.7817C80.3381 42.9241 80.1827 43.0277 80.0014 43.1054C79.8071 43.1831 79.587 43.222 79.328 43.222C79.0301 43.222 78.7841 43.1702 78.5898 43.0666Z" fill="#153E35"/>
<path d="M81.4778 43.053C81.3094 42.9364 81.1799 42.794 81.0763 42.5997C80.9856 42.4055 80.9338 42.1983 80.9338 41.9652C80.9338 41.7321 80.9856 41.5249 81.0763 41.3306C81.1799 41.1364 81.3094 40.9809 81.4778 40.8773C81.6461 40.7608 81.8404 40.709 82.0476 40.709C82.2418 40.709 82.4102 40.7478 82.5656 40.8385C82.721 40.9162 82.8246 41.0327 82.9023 41.1881V40.7867H83.4332V43.1566H82.9023V42.7551C82.8246 42.8976 82.708 43.0141 82.5656 43.1048C82.4102 43.1825 82.2418 43.2343 82.0476 43.2343C81.8404 43.2213 81.6591 43.1566 81.4778 43.053ZM82.5397 42.5997C82.6433 42.535 82.7339 42.4443 82.7857 42.3278C82.8505 42.2112 82.8764 42.0947 82.8764 41.9522C82.8764 41.8227 82.8505 41.6932 82.7857 41.5767C82.721 41.4601 82.6433 41.3695 82.5397 41.3047C82.4361 41.24 82.3195 41.2011 82.19 41.2011C82.0605 41.2011 81.944 41.227 81.8404 41.2917C81.7368 41.3565 81.6461 41.4472 81.5943 41.5508C81.5296 41.6673 81.5037 41.7968 81.5037 41.9393C81.5037 42.0817 81.5296 42.2242 81.5943 42.3278C81.6591 42.4443 81.7368 42.522 81.8533 42.5868C81.9569 42.6515 82.0735 42.6774 82.203 42.6774C82.3066 42.7033 82.4361 42.6645 82.5397 42.5997Z" fill="#153E35"/>
<path d="M84.1326 39.9062H84.6894V43.1568H84.1326V39.9062Z" fill="#153E35"/>
<path d="M88.95 41.0068C89.1054 41.2011 89.1702 41.499 89.1702 41.8745V43.1566H88.6263V41.8875C88.6263 41.6673 88.5874 41.499 88.4968 41.3824C88.4061 41.2788 88.2896 41.227 88.1212 41.227C88.0176 41.227 87.9269 41.2529 87.8363 41.3177C87.7456 41.3824 87.6809 41.4601 87.6291 41.5767C87.5773 41.6803 87.5514 41.8098 87.5514 41.9522V43.1566H86.9945V41.8875C86.9945 41.6673 86.9557 41.499 86.865 41.3824C86.7744 41.2788 86.6578 41.227 86.5024 41.227C86.3988 41.227 86.3082 41.2529 86.2175 41.3177C86.1269 41.3824 86.0621 41.4601 86.0103 41.5767C85.9585 41.6803 85.9326 41.8098 85.9326 41.9522V43.1566H85.3757V40.7867H85.8937L85.9067 41.1493C85.9715 41.0198 86.0751 40.9162 86.2046 40.8385C86.3341 40.7608 86.4895 40.709 86.6578 40.709C86.8521 40.709 87.0204 40.7478 87.1499 40.8385C87.2794 40.9291 87.383 41.0586 87.4478 41.24C87.5514 41.0586 87.6679 40.9291 87.8104 40.8385C87.9529 40.7478 88.1083 40.709 88.2766 40.709C88.5874 40.709 88.8076 40.7996 88.95 41.0068Z" fill="#153E35"/>
<path d="M90.2451 43.053C90.0767 42.9364 89.9472 42.794 89.8436 42.5997C89.753 42.4055 89.7012 42.1983 89.7012 41.9652C89.7012 41.7321 89.753 41.5249 89.8436 41.3306C89.9472 41.1364 90.0767 40.9809 90.2451 40.8773C90.4134 40.7608 90.6077 40.709 90.8149 40.709C91.0091 40.709 91.1775 40.7478 91.3329 40.8385C91.4883 40.9162 91.5919 41.0327 91.6696 41.1881V40.7867H92.2006V43.1566H91.6696V42.7551C91.5919 42.8976 91.4754 43.0141 91.3329 43.1048C91.1775 43.1825 91.0091 43.2343 90.8149 43.2343C90.5947 43.2213 90.4134 43.1566 90.2451 43.053ZM91.2941 42.5997C91.3977 42.535 91.4883 42.4443 91.5401 42.3278C91.6049 42.2112 91.6308 42.0947 91.6308 41.9522C91.6308 41.8227 91.6049 41.6932 91.5401 41.5767C91.4754 41.4601 91.3977 41.3695 91.2941 41.3047C91.1905 41.24 91.0739 41.2011 90.9444 41.2011C90.8149 41.2011 90.6983 41.227 90.5947 41.2917C90.4911 41.3565 90.4005 41.4472 90.3487 41.5508C90.2839 41.6673 90.258 41.7968 90.258 41.9393C90.258 42.0817 90.2839 42.2242 90.3487 42.3278C90.4134 42.4443 90.4911 42.522 90.6077 42.5868C90.7113 42.6515 90.8279 42.6774 90.9574 42.6774C91.0739 42.7033 91.1905 42.6645 91.2941 42.5997Z" fill="#153E35"/>
<path d="M93.4179 40.774V41.1366C93.4827 41.0071 93.5992 40.9035 93.7417 40.8128C93.8841 40.7351 94.0525 40.6963 94.2338 40.6963C94.5446 40.6963 94.7907 40.7999 94.9461 40.9941C95.1015 41.1884 95.1792 41.4863 95.1792 41.8618V43.1439H94.6223V41.8748C94.6223 41.6417 94.5705 41.4863 94.4799 41.3697C94.3892 41.2661 94.2467 41.2143 94.0784 41.2143C93.9618 41.2143 93.8582 41.2402 93.7676 41.292C93.6769 41.3438 93.5992 41.4345 93.5345 41.5381C93.4827 41.6417 93.4438 41.7712 93.4438 41.9266V43.1309H92.887V40.761H93.4179V40.774Z" fill="#153E35"/>
<path d="M41.3059 44.7754H43.4557V45.2934H41.8887V46.1999H43.2485V46.6791H41.8887V47.9094H41.3189V44.7754H41.3059Z" fill="#153E35"/>
<path d="M44.1939 47.8186C43.9996 47.7021 43.8572 47.5596 43.7535 47.3654C43.6499 47.1711 43.5981 46.9639 43.5981 46.7308C43.5981 46.4977 43.6499 46.2905 43.7535 46.0962C43.8572 45.902 44.0126 45.7466 44.1939 45.643C44.3881 45.5264 44.5953 45.4746 44.8284 45.4746C45.0615 45.4746 45.2817 45.5264 45.4759 45.643C45.6702 45.7595 45.8126 45.902 45.9162 46.0962C46.0199 46.2905 46.0717 46.4977 46.0717 46.7308C46.0717 46.9639 46.0199 47.1711 45.9162 47.3654C45.8126 47.5596 45.6572 47.715 45.463 47.8186C45.2687 47.9352 45.0615 47.987 44.8155 47.987C44.5953 47.987 44.3881 47.9222 44.1939 47.8186ZM45.191 47.3654C45.2946 47.3006 45.3853 47.2099 45.4371 47.1063C45.5018 46.9898 45.5277 46.8732 45.5277 46.7308C45.5277 46.5883 45.5018 46.4588 45.4371 46.3552C45.3723 46.2387 45.2946 46.148 45.191 46.0962C45.0874 46.0315 44.9709 46.0056 44.8414 46.0056C44.7119 46.0056 44.5953 46.0315 44.4917 46.0962C44.3881 46.161 44.2975 46.2516 44.2457 46.3552C44.1939 46.4588 44.155 46.5883 44.155 46.7308C44.155 46.8732 44.1809 47.0027 44.2457 47.1063C44.3104 47.2229 44.3881 47.3006 44.4917 47.3654C44.5953 47.4301 44.7119 47.456 44.8414 47.456C44.9709 47.469 45.0874 47.4301 45.191 47.3654Z" fill="#153E35"/>
<path d="M47.1076 47.8574C46.9393 47.7797 46.8098 47.6502 46.7191 47.4689C46.6285 47.2876 46.5767 47.0675 46.5767 46.7955V45.5264H47.1335V46.7696C47.1335 46.9898 47.1853 47.1581 47.276 47.2747C47.3666 47.3912 47.5091 47.443 47.6904 47.443C47.8717 47.443 48.0141 47.3912 48.1048 47.2747C48.1954 47.1581 48.2472 46.9898 48.2472 46.7696V45.5264H48.8041V46.7955C48.8041 47.0675 48.7523 47.2876 48.6617 47.4689C48.571 47.6373 48.4415 47.7668 48.2732 47.8574C48.1048 47.9351 47.9105 47.974 47.7033 47.974C47.4573 47.9869 47.276 47.9481 47.1076 47.8574Z" fill="#153E35"/>
<path d="M49.9697 45.5396V45.9022C50.0344 45.7727 50.151 45.6691 50.2934 45.5785C50.4359 45.5008 50.6043 45.4619 50.7856 45.4619C51.0964 45.4619 51.3424 45.5655 51.4978 45.7598C51.6532 45.954 51.7309 46.2519 51.7309 46.6274V47.9095H51.1741V46.6533C51.1741 46.4202 51.1223 46.2648 51.0316 46.1483C50.941 46.0447 50.7985 45.9929 50.6302 45.9929C50.5136 45.9929 50.41 46.0188 50.3193 46.0706C50.2287 46.1224 50.151 46.213 50.0862 46.3166C50.0344 46.4202 49.9956 46.5497 49.9956 46.7051V47.9095H49.4387V45.5396H49.9697Z" fill="#153E35"/>
<path d="M52.8059 47.8188C52.6375 47.7022 52.4951 47.5598 52.4044 47.3655C52.3008 47.1713 52.262 46.9641 52.262 46.731C52.262 46.4979 52.3138 46.2907 52.4044 46.0964C52.4951 45.9022 52.6375 45.7597 52.8059 45.6431C52.9872 45.5266 53.1814 45.4748 53.4016 45.4748C53.5181 45.4748 53.6347 45.5007 53.7383 45.5395C53.8419 45.5784 53.9326 45.6431 54.0103 45.7079C54.088 45.7727 54.1527 45.8504 54.1916 45.9281L54.1786 45.682V44.6719H54.7355V47.9095H54.2045V47.508C54.1268 47.6375 54.0232 47.754 53.8808 47.8447C53.7383 47.9354 53.5699 47.9742 53.3886 47.9742C53.1685 47.9872 52.9742 47.9224 52.8059 47.8188ZM53.8419 47.3785C53.9455 47.3137 54.0361 47.2231 54.1009 47.1065C54.1657 46.99 54.1916 46.8734 54.1916 46.731C54.1916 46.5885 54.1657 46.472 54.1009 46.3554C54.0361 46.2389 53.9585 46.1482 53.8548 46.0835C53.7512 46.0187 53.6347 45.9799 53.5052 45.9799C53.3757 45.9799 53.2591 46.0058 53.1555 46.0705C53.0519 46.1353 52.9613 46.2259 52.9095 46.3295C52.8447 46.4461 52.8188 46.5626 52.8188 46.7051C52.8188 46.8475 52.8447 46.9641 52.9095 47.0806C52.9742 47.1972 53.0519 47.2878 53.1555 47.3526C53.2591 47.4173 53.3757 47.4562 53.5181 47.4562C53.6217 47.4691 53.7383 47.4432 53.8419 47.3785Z" fill="#153E35"/>
<path d="M55.8103 47.8186C55.6419 47.7021 55.5124 47.5596 55.4088 47.3654C55.3182 47.1711 55.2664 46.9639 55.2664 46.7308C55.2664 46.4977 55.3182 46.2905 55.4088 46.0962C55.5124 45.902 55.6419 45.7466 55.8103 45.643C55.9786 45.5264 56.1729 45.4746 56.3801 45.4746C56.5743 45.4746 56.7427 45.5135 56.8981 45.6041C57.0535 45.6818 57.1571 45.7984 57.2348 45.9538V45.5523H57.7658V47.9222H57.2348V47.5208C57.1571 47.6632 57.0406 47.7798 56.8981 47.8704C56.7427 47.9481 56.5743 47.9999 56.3801 47.9999C56.1729 47.987 55.9916 47.9222 55.8103 47.8186ZM56.8722 47.3654C56.9758 47.3006 57.0665 47.21 57.1183 47.0934C57.183 46.9768 57.2089 46.8603 57.2089 46.7178C57.2089 46.5883 57.183 46.4588 57.1183 46.3423C57.0535 46.2257 56.9758 46.1351 56.8722 46.0703C56.7686 46.0056 56.652 45.9667 56.5225 45.9667C56.393 45.9667 56.2765 45.9926 56.1729 46.0574C56.0693 46.1221 55.9786 46.2128 55.9268 46.3164C55.8621 46.4329 55.8362 46.5624 55.8362 46.7049C55.8362 46.8473 55.8621 46.9898 55.9268 47.0934C55.9916 47.21 56.0693 47.2877 56.1858 47.3524C56.2894 47.4172 56.406 47.443 56.5355 47.443C56.652 47.469 56.7686 47.4301 56.8722 47.3654Z" fill="#153E35"/>
<path d="M58.8795 47.7285C58.7241 47.599 58.6593 47.3659 58.6593 47.0162V46.032H58.1672V45.5528H58.6593V44.8535H59.2162V45.5528H59.9285V46.032H59.2162V47.0421C59.2162 47.3141 59.3328 47.4565 59.5529 47.4565H59.9155V47.9227H59.4364C59.2162 47.9098 59.0349 47.845 58.8795 47.7285Z" fill="#153E35"/>
<path d="M60.9775 45.54H60.4207V47.9099H60.9775V45.54Z" fill="#153E35"/>
<path d="M62.1172 47.8186C61.9229 47.7021 61.7805 47.5596 61.6769 47.3654C61.5733 47.1711 61.5215 46.9639 61.5215 46.7308C61.5215 46.4977 61.5733 46.2905 61.6769 46.0962C61.7805 45.902 61.9359 45.7466 62.1172 45.643C62.3115 45.5264 62.5187 45.4746 62.7518 45.4746C62.9849 45.4746 63.205 45.5264 63.3993 45.643C63.5935 45.7595 63.736 45.902 63.8396 46.0962C63.9432 46.2905 63.995 46.4977 63.995 46.7308C63.995 46.9639 63.9432 47.1711 63.8396 47.3654C63.736 47.5596 63.5806 47.715 63.3863 47.8186C63.1921 47.9352 62.9849 47.987 62.7388 47.987C62.5187 47.987 62.3115 47.9222 62.1172 47.8186ZM63.1144 47.3654C63.218 47.3006 63.3086 47.2099 63.3604 47.1063C63.4252 46.9898 63.4511 46.8732 63.4511 46.7308C63.4511 46.5883 63.4252 46.4588 63.3604 46.3552C63.2957 46.2387 63.218 46.148 63.1144 46.0962C63.0108 46.0444 62.8942 46.0056 62.7647 46.0056C62.6352 46.0056 62.5187 46.0315 62.4151 46.0962C62.3114 46.161 62.2208 46.2516 62.169 46.3552C62.1172 46.4588 62.0783 46.5883 62.0783 46.7308C62.0783 46.8732 62.1042 47.0027 62.169 47.1063C62.2338 47.2229 62.3114 47.3006 62.4151 47.3654C62.5187 47.4301 62.6352 47.456 62.7647 47.456C62.8942 47.456 63.0108 47.4301 63.1144 47.3654Z" fill="#153E35"/>
<path d="M65.0698 45.5396V45.9022C65.1345 45.7727 65.2511 45.6691 65.3935 45.5785C65.536 45.5008 65.7043 45.4619 65.8856 45.4619C66.1965 45.4619 66.4425 45.5655 66.5979 45.7598C66.7533 45.954 66.831 46.2519 66.831 46.6274V47.9095H66.2742V46.6533C66.2742 46.4202 66.2224 46.2648 66.1317 46.1483C66.0411 46.0447 65.8986 45.9929 65.7302 45.9929C65.6137 45.9929 65.5101 46.0188 65.4194 46.0706C65.3288 46.1224 65.2511 46.213 65.1863 46.3166C65.1345 46.4202 65.0957 46.5497 65.0957 46.7051V47.9095H64.5388V45.5396H65.0698Z" fill="#153E35"/>
<path d="M73.5264 40.0877C73.5264 40.269 73.371 40.4244 73.1897 40.4244C73.0084 40.4244 72.853 40.269 72.853 40.0877C72.853 39.9064 73.0084 39.751 73.1897 39.751C73.371 39.751 73.5264 39.9064 73.5264 40.0877Z" fill="#153E35"/>
<path d="M61.0423 44.8533C61.0423 45.0346 60.8869 45.19 60.7056 45.19C60.5243 45.19 60.3689 45.0346 60.3689 44.8533C60.3689 44.672 60.5243 44.5166 60.7056 44.5166C60.8869 44.5166 61.0423 44.672 61.0423 44.8533Z" fill="#153E35"/>
<path d="M41.3059 24.5859H42.6657L45.1133 27.9271L47.5868 24.5859H48.9336V32.0453H47.3926V27.0594L45.3205 29.9215H44.919L42.8599 27.0465V32.0453H41.3189V24.5859H41.3059Z" fill="#153E35"/>
<path d="M50.6948 26.3867H52.1971V32.046H50.6948V26.3867Z" fill="#153E35"/>
<path d="M55.9657 32.227C54.3081 32.227 53.4922 31.2557 53.4922 30.2197H54.9426C54.9944 30.9837 55.7585 31.0226 55.9786 31.0226C56.1858 31.0226 56.8463 31.0096 56.8463 30.4139C56.8463 30.0254 56.5226 29.883 55.7585 29.7794C55.357 29.7276 53.7123 29.5463 53.7123 27.9922C53.7123 26.9303 54.4376 26.2051 55.9009 26.2051C57.183 26.2051 58.232 26.8914 58.232 28.0699L56.7557 28.057C56.7298 27.8109 56.5873 27.4224 55.9009 27.4224C55.2146 27.4224 55.1887 27.8498 55.1887 27.9534C55.1887 28.303 55.4218 28.3678 55.5901 28.4196C55.7585 28.4714 55.9527 28.5102 56.419 28.5879C57.3643 28.7433 58.4004 29.0153 58.4004 30.3233C58.4004 31.6572 57.2866 32.227 55.9657 32.227Z" fill="#153E35"/>
<path d="M65.0958 32.0453H63.4123L62.1431 29.7143L61.2625 30.8539V32.0453H59.7473V24.5859H61.2625V28.6394L63.0496 26.386H64.7202L63.1014 28.484L65.0958 32.0453Z" fill="#153E35"/>
<path d="M51.459 25.6093C51.9239 25.6093 52.3007 25.2324 52.3007 24.7676C52.3007 24.3027 51.9239 23.9258 51.459 23.9258C50.9941 23.9258 50.6172 24.3027 50.6172 24.7676C50.6172 25.2324 50.9941 25.6093 51.459 25.6093Z" fill="#153E35"/>
<path d="M73.7594 27.9657H70.9492V27.1109H71.26C71.0528 26.9296 70.9492 26.6706 70.9492 26.321C70.9492 25.4792 71.6744 24.9482 72.5292 24.9482C72.8529 24.9482 73.2026 25.0259 73.5393 25.1943L73.1249 26.0102C72.9436 25.9454 72.7752 25.8936 72.6069 25.8936C72.2442 25.8936 71.9334 26.062 71.9334 26.4634C71.9334 26.8649 72.2442 27.1239 72.6716 27.1239H73.7465V27.9657H73.7594Z" fill="#153E35"/>
<path d="M92.6798 26.4896C91.4365 26.4896 90.4264 27.2796 90.025 28.9113C89.766 29.9603 89.6753 30.5431 89.0148 30.5431H88.5098C87.7975 30.5431 87.4608 30.1416 87.4608 29.248V26.4767H85.9327V29.3258C85.9327 30.4783 85.324 30.5431 85.065 30.5431H84.1196V26.8134H82.5915V30.5431H80.7784V26.8134H79.2503V30.5431H78.4215C77.8776 30.5431 77.4502 30.4265 77.1912 30.1675C76.984 29.9603 76.8674 29.6495 76.8674 29.248V24.5859H75.3393V29.248C75.3393 30.1546 74.9637 30.5431 74.0702 30.5431H71.3506C70.0297 30.5431 69.3563 29.8697 69.3563 28.7948C69.3563 28.4581 69.421 28.0955 69.5505 27.694H68.126C67.9188 28.2509 67.8281 28.743 67.8281 29.1962C67.8281 31.1129 69.5376 32.0583 71.3636 32.0583H74.0831C75.0285 32.0583 75.7796 31.7345 76.2588 31.1647C76.6214 31.7345 77.2948 32.0453 78.3438 32.0583C78.3567 32.0583 85.2851 32.0583 85.2851 32.0583C86.3471 32.0583 86.8521 31.3071 86.9039 31.2294C87.2406 31.7734 87.8105 32.0583 88.7299 32.0583H88.976C89.7271 32.0583 90.3487 31.7863 90.7631 31.2942C91.3847 31.8122 92.1229 32.0583 92.8352 32.0583C94.4151 32.0583 95.4252 30.8021 95.4252 29.3905C95.4123 27.9919 94.4151 26.4896 92.6798 26.4896ZM92.5891 30.6467C92.1618 30.6467 91.6696 30.4913 91.2682 30.1805C91.3588 29.8438 91.4106 29.5848 91.5272 29.1833C91.7473 28.3933 92.11 28.0048 92.6927 28.0048C93.5992 28.0048 93.923 28.8854 93.923 29.3775C93.91 30.2323 93.2884 30.6467 92.5891 30.6467Z" fill="#153E35"/>
</svg>
