<svg width="77" height="49" viewBox="0 0 77 49" fill="none" xmlns="http://www.w3.org/2000/svg">
<path d="M3.60072 28.8976L2.91351 28.2008L2.23584 28.8976L2.91351 29.5848L3.60072 28.8976Z" fill="#0F2837"/>
<path d="M1.98772 28.8976L1.31005 28.2008L0.632385 28.8976L1.31005 29.5848L1.98772 28.8976Z" fill="#0F2837"/>
<path d="M15.0447 28.8403L14.3671 28.1435L13.6894 28.8403L14.3671 29.5371L15.0447 28.8403Z" fill="#0F2837"/>
<path d="M15.6843 31.2933C15.3884 30.7111 14.9589 30.4152 14.3862 30.4152C14.1476 30.4152 13.9281 30.4725 13.7276 30.5775C13.5176 30.6824 13.3458 30.8256 13.1931 31.0165C13.0404 31.2074 12.9259 31.4269 12.84 31.6751C12.7541 31.9328 12.7063 32.2 12.7063 32.4864C12.7063 32.9922 12.84 33.3836 13.1168 33.6699C13.3936 33.9563 13.7658 34.0899 14.2526 34.0899C14.4721 34.0899 14.6821 34.0612 14.873 33.9944C15.0639 33.9276 15.2357 33.8322 15.3884 33.7176V34.4908C15.3884 34.6339 15.1498 34.7485 14.663 34.8248C14.1762 34.9012 5.9201 34.9394 4.96564 34.9394H4.70793C4.34524 34.9394 4.08753 34.8725 3.92527 34.7389C3.76301 34.6053 3.68666 34.3762 3.6962 34.0612L3.74392 30.3388L2.87536 30.4916V31.1597C1.98771 31.341 1.3005 31.6369 0.804175 32.0282C0.307853 32.4196 0.0596924 32.9063 0.0596924 33.4695C0.0596924 33.7081 0.107416 33.9181 0.202862 34.0994C0.298308 34.2903 0.422389 34.443 0.584648 34.5671C0.746907 34.6912 0.937799 34.7866 1.14778 34.8535C1.36731 34.9203 1.59638 34.9489 1.84454 34.9489C2.2645 34.9489 2.6272 34.863 2.93263 34.6817C3.05671 35.512 3.64848 35.9225 4.69839 35.9225H4.95609C5.34742 35.9225 13.2218 35.9129 13.5176 35.9034C13.8135 35.8938 14.0712 35.8747 14.3003 35.8461C14.5294 35.8175 14.7203 35.7793 14.8921 35.7411C15.0543 35.7029 15.207 35.6457 15.3502 35.5788C15.6365 35.4452 15.837 35.2543 15.9515 35.0062C16.0661 34.758 16.1233 34.3858 16.1233 33.899C16.1233 32.7441 15.9802 31.8755 15.6843 31.2933ZM14.9016 33.1736C14.7203 33.2213 14.5389 33.25 14.348 33.25C14.0426 33.25 13.804 33.1831 13.6417 33.04C13.4795 32.9063 13.3936 32.6964 13.3936 32.4291C13.3936 32.1237 13.489 31.866 13.6704 31.656C13.8517 31.446 14.0808 31.341 14.348 31.341C14.6439 31.341 14.8634 31.4651 15.0257 31.7228C15.1879 31.9805 15.2834 32.3909 15.3407 32.9636C15.2261 33.0495 15.083 33.1163 14.9016 33.1736ZM1.97817 33.9753C1.82545 33.9753 1.67274 33.9658 1.52957 33.9372C1.3864 33.9085 1.26232 33.8704 1.14778 33.8131C1.03325 33.7558 0.947344 33.689 0.890077 33.5936C0.823264 33.5077 0.79463 33.3931 0.79463 33.2595C0.79463 33.0972 0.851898 32.9541 0.966433 32.8109C1.08097 32.6773 1.23368 32.5532 1.42458 32.4482C1.61547 32.3432 1.84454 32.2573 2.0927 32.181C2.34086 32.1141 2.59857 32.0569 2.87536 32.0282L2.89445 33.794C2.63675 33.9181 2.33132 33.9753 1.97817 33.9753Z" fill="#0F2837"/>
<path d="M29.0945 30.0048L28.4168 29.3176L27.7296 30.0048L28.4168 30.7015L29.0945 30.0048Z" fill="#0F2837"/>
<path d="M30.698 30.0048L30.0203 29.3176L29.3331 30.0048L30.0203 30.7015L30.698 30.0048Z" fill="#0F2837"/>
<path d="M41.9225 29.833L41.2353 29.1362L40.5576 29.833L41.2353 30.5202L41.9225 29.833Z" fill="#0F2837"/>
<path d="M42.037 31.9423L42.7243 31.2456L42.037 30.5584L41.3594 31.2456L42.037 31.9423Z" fill="#0F2837"/>
<path d="M41.1207 31.2456L40.4335 30.5584L39.7559 31.2456L40.4335 31.9423L41.1207 31.2456Z" fill="#0F2837"/>
<path d="M51.5053 28.9739L51.534 34.3571C51.534 34.4621 51.4958 34.548 51.4194 34.6244C51.3431 34.7007 51.2476 34.758 51.1236 34.7962C50.9995 34.8439 50.8658 34.8725 50.7131 34.8916C50.5604 34.9107 42.877 34.9203 42.7147 34.9203C41.8462 34.9203 41.4071 34.6912 41.4071 34.2426C41.4071 34.1853 41.4262 34.0231 41.4548 33.7653C41.4835 33.5076 41.5216 33.2309 41.5503 32.9159L40.8058 32.83C40.7867 32.9254 40.7772 33.04 40.7581 33.164C40.739 33.2881 40.7294 33.4122 40.7008 33.5363C40.6817 33.6604 40.6531 33.7844 40.634 33.9085C40.6149 34.0326 40.5958 34.128 40.5767 34.2139C40.5195 34.4717 40.3763 34.653 40.1472 34.7675C39.9181 34.8821 32.0343 34.9298 31.5475 34.9298C31.328 34.9298 31.118 34.9298 30.9175 34.9203C30.7171 34.9107 30.5358 34.9012 30.364 34.8916C30.7457 34.5289 30.9366 34.0899 30.9366 33.5458C30.9366 33.2786 30.8889 33.0209 30.803 32.7823C30.7076 32.5436 30.5835 32.3337 30.4308 32.1619C30.2781 31.99 30.0872 31.8469 29.8772 31.7419C29.6672 31.6369 29.4477 31.5892 29.2091 31.5892C28.9704 31.5892 28.7509 31.6369 28.5409 31.7419C28.3309 31.8469 28.1496 31.9805 27.9873 32.1619C27.8251 32.3337 27.701 32.5436 27.6151 32.7823C27.5197 33.0209 27.4815 33.2786 27.4815 33.5458C27.4815 34.0899 27.6724 34.5385 28.0542 34.8916C27.8728 34.9107 27.6915 34.9203 27.491 34.9203C27.2906 34.9298 19.5499 34.9298 19.3399 34.9298C18.9772 34.9298 18.7195 34.863 18.5668 34.7294C18.4045 34.5957 18.3282 34.3667 18.3282 34.0517L18.3759 28.8308L17.5073 28.9835L17.555 34.3762C17.5741 35.3975 18.1659 35.9129 19.3494 35.9129C19.7599 35.9129 27.701 35.8843 28.1019 35.8174C28.4932 35.7506 28.875 35.6552 29.2186 35.5311C29.5718 35.6552 29.944 35.7506 30.3353 35.8174C30.7362 35.8843 31.1371 35.9129 31.5475 35.9129C32.0056 35.9129 39.9468 35.8461 40.2808 35.722C40.6149 35.5979 40.8535 35.4166 40.9967 35.178C41.283 35.6647 41.8557 35.9129 42.7147 35.9129C42.9915 35.9129 50.7704 35.8843 51.0186 35.827C51.2667 35.7697 51.4863 35.6838 51.6771 35.5502C51.868 35.4261 52.0303 35.2543 52.1448 35.0443C52.2689 34.8344 52.3262 34.5766 52.3262 34.2712L52.3739 28.8212L51.5053 28.9739ZM29.2186 34.653C28.5409 34.4335 28.2069 34.0708 28.2069 33.5649C28.2069 33.4217 28.2355 33.2786 28.2832 33.1545C28.3309 33.0304 28.4073 32.9159 28.4932 32.8204C28.5887 32.725 28.6936 32.6486 28.8177 32.6009C28.9418 32.5532 29.0754 32.5245 29.2186 32.5245C29.3618 32.5245 29.4859 32.5532 29.6099 32.6009C29.734 32.6486 29.839 32.725 29.9344 32.8204C30.0299 32.9159 30.0967 33.0304 30.154 33.1545C30.2017 33.2786 30.2303 33.4122 30.2303 33.5649C30.2303 34.0708 29.8867 34.4335 29.2186 34.653Z" fill="#0F2837"/>
<path d="M53.8151 35.9034L53.7579 28.9739L54.6264 28.8212L54.5692 35.9034H53.8151Z" fill="#0F2837"/>
<path d="M61.6131 34.2617C61.6131 34.7866 61.4413 35.2066 61.1072 35.5216C60.7732 35.8365 60.3055 35.9893 59.7233 35.9893C59.1029 35.9893 58.6256 35.8365 58.3011 35.5311C57.9766 35.2257 57.8143 34.7866 57.8143 34.214C57.8143 33.8513 57.8621 33.5172 57.967 33.2022C58.072 32.8873 58.2057 32.6009 58.3775 32.3623C58.5493 32.1237 58.7497 31.9328 58.9788 31.7896C59.2078 31.6464 59.456 31.5796 59.7137 31.5796C59.981 31.5796 60.2196 31.6464 60.4582 31.7896C60.6873 31.9328 60.8877 32.1237 61.0595 32.3623C61.2313 32.6009 61.3649 32.8873 61.4604 33.2118C61.5654 33.5363 61.6131 33.8894 61.6131 34.2617ZM58.912 30.7015L58.2343 30.0048L58.912 29.308L59.5896 30.0048L58.912 30.7015ZM60.8686 34.3571C60.8686 34.0994 60.84 33.8608 60.7827 33.6508C60.7254 33.4313 60.6491 33.25 60.5441 33.0877C60.4391 32.935 60.3246 32.8109 60.1814 32.7155C60.0382 32.6295 59.8855 32.5818 59.7233 32.5818C59.5705 32.5818 59.4178 32.62 59.2747 32.6964C59.1315 32.7727 59.0074 32.8777 58.9024 33.0113C58.7974 33.145 58.7211 33.2977 58.6543 33.4695C58.597 33.6413 58.5588 33.8322 58.5588 34.0326C58.5588 34.3476 58.6543 34.5862 58.8547 34.7485C59.0551 34.9107 59.3415 34.9966 59.7137 34.9966C59.8664 34.9966 60.0096 34.9775 60.1528 34.9489C60.2959 34.9203 60.4105 34.8725 60.5155 34.8057C60.6205 34.7485 60.6968 34.6721 60.7636 34.5957C60.84 34.5289 60.8686 34.443 60.8686 34.3571ZM60.5155 30.7015L59.8378 30.0048L60.5155 29.308L61.1931 30.0048L60.5155 30.7015Z" fill="#0F2837"/>
<path d="M61.3077 37.2396C61.7086 37.0964 62.0712 36.9246 62.4053 36.7337C62.7394 36.5429 63.0353 36.3424 63.2834 36.1324C63.5316 35.9224 63.7225 35.7125 63.8561 35.5025C63.9993 35.2925 64.0661 35.0921 64.0661 34.9012C64.0661 34.7866 64.0374 34.6339 63.9897 34.4526C63.942 34.2712 63.8656 34.0708 63.7797 33.8513C63.6843 33.6317 63.5793 33.4122 63.4552 33.1736C63.3311 32.935 63.1975 32.7155 63.0543 32.4959L63.8466 32.0569C64.152 32.4673 64.4001 32.9254 64.5719 33.4218C64.7438 33.9181 64.8392 34.3858 64.8392 34.8153C64.8392 35.5025 64.5719 36.1324 64.047 36.7147C63.522 37.2873 62.7776 37.755 61.8135 38.1082L61.3077 37.2396Z" fill="#0F2837"/>
<path d="M66.3568 35.9034L66.2995 28.9739L67.1681 28.8212L67.1108 35.9034H66.3568Z" fill="#0F2837"/>
<path d="M67.7121 37.2396C68.1034 37.0964 68.4757 36.9246 68.8097 36.7337C69.1438 36.5428 69.4397 36.3424 69.6878 36.1324C69.936 35.9224 70.1269 35.7125 70.2605 35.5025C70.4037 35.2925 70.4705 35.0921 70.4705 34.9012C70.4705 34.7866 70.4419 34.6339 70.3941 34.4526C70.3464 34.2712 70.2701 34.0708 70.1842 33.8513C70.0887 33.6317 69.9837 33.4122 69.8596 33.1736C69.7356 32.935 69.6019 32.7154 69.4588 32.4959L70.251 32.0569C70.5564 32.4673 70.8046 32.9254 70.9764 33.4217C71.1482 33.9181 71.2436 34.3858 71.2436 34.8153C71.2436 35.5025 70.9764 36.1324 70.4514 36.7146C69.9264 37.2873 69.182 37.755 68.218 38.1082L67.7121 37.2396ZM69.726 31.1692L69.0483 30.4724L69.726 29.7757L70.4037 30.4724L69.726 31.1692Z" fill="#0F2837"/>
<path d="M72.6849 37.2014C74.2693 36.9819 75.176 36.4092 75.4242 35.4739C75.281 35.5884 75.1092 35.6648 74.9088 35.7316C74.7179 35.7888 74.5079 35.8175 74.2884 35.8175C73.8016 35.8175 73.4198 35.6457 73.1239 35.3116C72.828 34.9775 72.6849 34.5289 72.6849 33.9849C72.6849 33.6795 72.7326 33.3931 72.8185 33.1354C72.9044 32.8777 73.0285 32.6486 73.1812 32.4578C73.3339 32.2669 73.5153 32.1141 73.7348 32.0092C73.9448 31.9042 74.1738 31.8469 74.422 31.8469C74.9947 31.8469 75.4433 32.1046 75.7583 32.62C76.0732 33.1354 76.2355 33.8608 76.2355 34.8057C76.2355 35.2448 76.1591 35.6552 76.0064 36.0274C75.8537 36.3997 75.6437 36.7338 75.3669 37.0201C75.0901 37.3064 74.7561 37.545 74.3743 37.7264C73.9829 37.9173 73.5534 38.0414 73.0762 38.1082L72.6849 37.2014ZM74.4315 34.9298C74.632 34.9298 74.8324 34.9012 75.0329 34.8439C75.2237 34.7866 75.3765 34.7103 75.491 34.6244C75.4624 34.0422 75.3574 33.5936 75.1665 33.2786C74.9756 32.9636 74.7179 32.8014 74.3934 32.8014C74.107 32.8014 73.878 32.9064 73.6966 33.1163C73.5153 33.3263 73.4294 33.6031 73.4294 33.9467C73.4294 34.2521 73.5153 34.4908 73.6966 34.6626C73.8684 34.8439 74.1166 34.9298 74.4315 34.9298Z" fill="#0F2837"/>
<path d="M0.355576 39.8167H1.25277L3.21897 43.1764L5.18516 39.8167H6.05373L6.35916 46.2784H5.44287L5.23289 41.3152L3.40986 44.3695H2.94217L1.14778 41.3534L0.928255 46.2784H0.0596924L0.355576 39.8167Z" fill="#0F2837"/>
<path d="M7.94359 39.788L8.6308 40.4752L7.94359 41.172L7.24683 40.4752L7.94359 39.788ZM7.51408 41.7733H8.38264V46.2784H7.51408V41.7733Z" fill="#0F2837"/>
<path d="M9.62344 46.2784V42.241V42.0597C9.62344 42.0024 9.62344 41.9069 9.61389 41.7733H10.4443L10.4729 42.451C10.5302 42.3746 10.6065 42.2887 10.6829 42.1933C10.7688 42.0978 10.8738 42.0119 10.9883 41.9356C11.1124 41.8592 11.2556 41.7924 11.4178 41.7447C11.5801 41.697 11.771 41.6683 11.9714 41.6683C12.5632 41.6683 12.9927 41.8401 13.279 42.1837C13.5654 42.5273 13.7085 42.995 13.7085 43.5773V46.2784H12.84V43.6441C12.84 43.2241 12.7541 42.9187 12.5727 42.7182C12.3914 42.5178 12.1337 42.4224 11.8092 42.4224C11.561 42.4224 11.351 42.4701 11.1792 42.5751C11.0074 42.6801 10.8738 42.8137 10.7783 42.9759C10.6733 43.1382 10.6065 43.3291 10.5588 43.5391C10.5111 43.7491 10.492 43.9686 10.492 44.1881V46.2784H9.62344Z" fill="#0F2837"/>
<path d="M15.2166 39.788L15.9038 40.4752L15.2166 41.172L14.5198 40.4752L15.2166 39.788ZM14.7775 41.7733H15.6461V46.2784H14.7775V41.7733Z" fill="#0F2837"/>
<path d="M17.1064 45.1426C17.2687 45.3048 17.4595 45.4289 17.6886 45.5339C17.9177 45.6294 18.1754 45.6771 18.4713 45.6771C18.7576 45.6771 19.0058 45.6294 19.1967 45.5339C19.3876 45.4385 19.483 45.2953 19.483 45.0949C19.483 44.9899 19.4639 44.904 19.4162 44.8276C19.3685 44.7512 19.3017 44.6844 19.2062 44.6272C19.1108 44.5699 18.9771 44.5126 18.8053 44.4649C18.6431 44.4172 18.4331 44.3599 18.1945 44.3026C18.0227 44.2645 17.8509 44.2167 17.6791 44.1499C17.5073 44.0831 17.3546 43.9972 17.2209 43.8922C17.0873 43.7872 16.9728 43.6536 16.8869 43.5009C16.801 43.3482 16.7628 43.1668 16.7628 42.9569C16.7628 42.7373 16.8105 42.5464 16.9155 42.3842C17.011 42.2219 17.1446 42.0787 17.3164 41.9642C17.4882 41.8497 17.6695 41.7638 17.8795 41.7065C18.0895 41.6492 18.309 41.6206 18.5286 41.6206C18.9103 41.6206 19.2349 41.6683 19.5116 41.7733C19.7884 41.8783 20.0271 42.0119 20.237 42.1933L19.7598 42.7946C19.6262 42.6705 19.4544 42.5655 19.2539 42.4796C19.0535 42.3937 18.8149 42.3555 18.5381 42.3555C18.2613 42.3555 18.0322 42.4033 17.87 42.4892C17.6982 42.5751 17.6218 42.7278 17.6218 42.9378C17.6218 43.1287 17.7363 43.2718 17.9559 43.3673C18.1754 43.4627 18.4713 43.5486 18.834 43.6345C19.044 43.6822 19.2444 43.7491 19.4257 43.8159C19.6071 43.8827 19.7694 43.9686 19.9125 44.0736C20.0557 44.1786 20.1607 44.3122 20.2466 44.4649C20.3229 44.6176 20.3707 44.8085 20.3707 45.028C20.3707 45.2571 20.3229 45.448 20.218 45.6198C20.113 45.7916 19.9793 45.9348 19.798 46.0493C19.6262 46.1639 19.4257 46.2498 19.1967 46.307C18.9676 46.3643 18.729 46.3929 18.4904 46.3929C17.6409 46.3929 17.0014 46.1639 16.5719 45.7057L17.1064 45.1426Z" fill="#0F2837"/>
<path d="M21.7833 42.4987H20.972V41.7733H21.7833V40.3034H22.6518V41.7733H23.969V42.4987H22.6518V44.7226C22.6518 45.0853 22.7091 45.3335 22.8236 45.4671C22.9382 45.6007 23.1004 45.6675 23.3009 45.6675C23.4727 45.6675 23.6063 45.6389 23.7208 45.5912C23.8258 45.5434 23.9404 45.4575 24.0549 45.3621L24.4558 45.8966C24.2649 46.0779 24.074 46.2116 23.8736 46.2879C23.6731 46.3643 23.444 46.412 23.1673 46.412C22.69 46.412 22.3369 46.2784 22.1173 46.0207C21.8883 45.763 21.7833 45.3621 21.7833 44.8085V42.4987Z" fill="#0F2837"/>
<path d="M25.1907 46.2784V42.2124V42.0596C25.1907 42.0024 25.1907 41.9069 25.1812 41.7828H26.0115L26.0402 42.5082C26.0879 42.4319 26.1643 42.346 26.2406 42.2505C26.3265 42.1551 26.4315 42.0692 26.546 41.9928C26.6701 41.9165 26.8037 41.8497 26.966 41.7924C27.1283 41.7351 27.3096 41.7065 27.51 41.7065C27.6055 41.7065 27.7009 41.716 27.7773 41.7256C27.8537 41.7351 27.93 41.7542 28.0064 41.7828L27.8155 42.5941C27.7009 42.5464 27.5482 42.5273 27.3669 42.5273C27.176 42.5273 27.0042 42.5655 26.8515 42.6323C26.6892 42.7087 26.5556 42.8041 26.441 42.9282C26.3265 43.0523 26.2311 43.205 26.1643 43.3673C26.0974 43.5391 26.0593 43.7109 26.0593 43.9018V46.2784H25.1907Z" fill="#0F2837"/>
<path d="M28.8941 47.3856C28.9609 47.4428 29.0372 47.4906 29.1136 47.5383C29.1995 47.586 29.3045 47.6051 29.4286 47.6051C29.5335 47.6051 29.6195 47.586 29.6958 47.5383C29.7722 47.4906 29.839 47.4237 29.8962 47.3283C29.9535 47.2328 30.0203 47.1183 30.068 46.9942C30.1253 46.8606 30.1826 46.7079 30.2589 46.5361L30.3735 46.2497L28.3596 41.7829H29.3617L30.8125 45.1808L32.0915 41.7829H33.0364L31.2325 46.1734C31.1466 46.3834 31.0607 46.6124 30.9748 46.8606C30.8889 47.1088 30.7744 47.3474 30.6503 47.5669C30.5166 47.7864 30.3639 47.9773 30.173 48.1205C29.9821 48.2732 29.7531 48.34 29.4667 48.34C29.2377 48.34 29.0468 48.3114 28.8941 48.2446C28.7413 48.1873 28.6077 48.1014 28.4836 47.9964L28.8941 47.3856Z" fill="#0F2837"/>
<path d="M37.3315 46.412C36.9879 46.412 36.6634 46.3452 36.3675 46.2211C36.0811 46.097 35.8234 45.9252 35.6135 45.7057C35.4035 45.4862 35.2412 45.2285 35.1171 44.9421C34.9931 44.6558 34.9358 44.3504 34.9358 44.0163C34.9358 43.6822 34.9931 43.3768 35.1171 43.0905C35.2317 42.8041 35.4035 42.5464 35.6135 42.3269C35.8234 42.1074 36.0716 41.9356 36.3675 41.8115C36.6538 41.6874 36.9783 41.6206 37.3315 41.6206C37.6751 41.6206 37.9901 41.6874 38.286 41.8115C38.5723 41.9356 38.83 42.1074 39.04 42.3269C39.25 42.5464 39.4218 42.8041 39.5363 43.0905C39.6604 43.3768 39.7177 43.6822 39.7177 44.0163C39.7177 44.3504 39.6604 44.6558 39.5363 44.9421C39.4122 45.2285 39.25 45.4862 39.04 45.7057C38.83 45.9252 38.5723 46.097 38.286 46.2211C37.9996 46.3547 37.6751 46.412 37.3315 46.412ZM37.3315 45.658C37.5606 45.658 37.7706 45.6103 37.9614 45.5148C38.1523 45.4194 38.3051 45.2953 38.4387 45.1426C38.5723 44.9899 38.6677 44.8181 38.7346 44.6176C38.8014 44.4172 38.8395 44.2167 38.8395 44.0163C38.8395 43.8159 38.8014 43.6154 38.7346 43.415C38.6677 43.2146 38.5628 43.0428 38.4387 42.89C38.3051 42.7373 38.1523 42.6132 37.9614 42.5178C37.7801 42.4224 37.5701 42.3746 37.3315 42.3746C37.1024 42.3746 36.8924 42.4224 36.7015 42.5178C36.5107 42.6132 36.3579 42.7373 36.2243 42.89C36.0907 43.0428 35.9952 43.2146 35.9284 43.415C35.8616 43.6154 35.8234 43.8159 35.8234 44.0259C35.8234 44.2358 35.8616 44.4363 35.9284 44.6272C35.9952 44.8181 36.1002 44.9994 36.2243 45.1521C36.3579 45.3048 36.5107 45.4289 36.7015 45.5244C36.8924 45.6103 37.1024 45.658 37.3315 45.658Z" fill="#0F2837"/>
<path d="M41.0444 42.4987H40.2331V41.7733H41.0444V41.4011C41.0444 41.0956 41.0921 40.8379 41.178 40.6089C41.2639 40.3893 41.3785 40.208 41.5216 40.0648C41.6648 39.9217 41.8366 39.8167 42.0179 39.7499C42.2088 39.683 42.3997 39.6449 42.6097 39.6449C42.8483 39.6449 43.0869 39.683 43.316 39.7594C43.5451 39.8358 43.7551 39.9598 43.946 40.1412L43.5069 40.7043C43.2683 40.5039 43.0106 40.4084 42.7433 40.4084C42.4952 40.4084 42.2852 40.4943 42.142 40.6471C41.9893 40.8093 41.9129 41.0861 41.9129 41.4774V41.7638H43.2015V42.4892H41.9129V46.2688H41.0444V42.4987Z" fill="#0F2837"/>
<path d="M51.6008 45.1426C51.534 45.2571 51.4194 45.3907 51.2667 45.5435C51.114 45.6962 50.9327 45.8298 50.7227 45.9634C50.5127 46.097 50.2645 46.2116 49.9877 46.2975C49.7109 46.3834 49.4055 46.4311 49.0714 46.4311C48.5942 46.4311 48.1552 46.3452 47.7638 46.1829C47.3725 46.0111 47.0289 45.7821 46.7426 45.4766C46.4562 45.1808 46.2367 44.8181 46.0744 44.4076C45.9122 43.9972 45.8358 43.5486 45.8358 43.0618C45.8358 42.5942 45.9122 42.1456 46.0744 41.7351C46.2367 41.3247 46.4562 40.962 46.7426 40.6471C47.0289 40.3321 47.3725 40.0935 47.7638 39.9121C48.1647 39.7308 48.6038 39.6449 49.0905 39.6449C49.4341 39.6449 49.7396 39.683 50.0164 39.7689C50.2836 39.8548 50.5222 39.9598 50.7322 40.0839C50.9327 40.208 51.114 40.3512 51.2572 40.4943C51.4003 40.647 51.5244 40.7807 51.6103 40.9238L50.9517 41.487C50.8754 41.382 50.7799 41.2674 50.6749 41.1434C50.57 41.0193 50.4363 40.9143 50.2932 40.8189C50.1405 40.7234 49.9686 40.6375 49.7778 40.5802C49.5869 40.5134 49.3578 40.4848 49.1096 40.4848C48.7565 40.4848 48.432 40.5516 48.1552 40.6852C47.8784 40.8189 47.6398 41.0002 47.4393 41.2388C47.2389 41.4679 47.0957 41.7447 46.9907 42.0501C46.8857 42.3651 46.838 42.6896 46.838 43.0428C46.838 43.3959 46.8953 43.7204 47.0003 44.0259C47.1053 44.3313 47.258 44.5985 47.4489 44.8276C47.6397 45.0567 47.8784 45.2285 48.1552 45.3621C48.432 45.4862 48.7469 45.553 49.0905 45.553C49.3769 45.553 49.6346 45.5148 49.8446 45.4385C50.0545 45.3621 50.2359 45.2762 50.3791 45.1712C50.5222 45.0662 50.6463 44.9612 50.7418 44.8562C50.8372 44.7512 50.9136 44.6653 50.9804 44.589L51.6008 45.1426Z" fill="#0F2837"/>
<path d="M52.5075 41.7733H53.376V44.4172C53.376 44.8467 53.4619 45.1521 53.6337 45.343C53.8055 45.5339 54.0632 45.6294 54.3878 45.6294C54.6359 45.6294 54.8459 45.5816 55.0177 45.4766C55.18 45.3717 55.3136 45.238 55.4186 45.0758C55.5236 44.9135 55.5904 44.7226 55.6381 44.5126C55.6763 44.3027 55.7049 44.0831 55.7049 43.8636V41.7733H56.5735V45.8202V46.0016C56.5735 46.097 56.5735 46.1925 56.583 46.2784H55.7526L55.724 45.6103C55.6667 45.6866 55.5904 45.7725 55.514 45.8584C55.4281 45.9443 55.3231 46.0302 55.1991 46.1066C55.075 46.1829 54.9318 46.2402 54.7695 46.2975C54.6073 46.3452 54.4259 46.3738 54.216 46.3738C53.6242 46.3738 53.1947 46.202 52.9179 45.868C52.6411 45.5339 52.4979 45.0662 52.4979 44.4745V41.7733H52.5075Z" fill="#0F2837"/>
<path d="M58.6543 39.8167H57.7857V46.2784H58.6543V39.8167Z" fill="#0F2837"/>
<path d="M60.2387 42.4987H59.4274V41.7733H60.2387V40.3034H61.1072V41.7733H62.4244V42.4987H61.1072V44.7226C61.1072 45.0853 61.1645 45.3335 61.279 45.4671C61.3936 45.6007 61.5558 45.6675 61.7563 45.6675C61.9281 45.6675 62.0617 45.6389 62.1762 45.5912C62.2812 45.5434 62.3958 45.4575 62.5103 45.3621L62.9112 45.8966C62.7203 46.0779 62.5294 46.2116 62.3385 46.2879C62.138 46.3643 61.909 46.412 61.6322 46.412C61.155 46.412 60.8018 46.2784 60.5823 46.0207C60.3532 45.763 60.2482 45.3621 60.2482 44.8085V42.4987H60.2387Z" fill="#0F2837"/>
<path d="M63.4456 41.7733H64.3142V44.4172C64.3142 44.8467 64.4001 45.1521 64.5719 45.343C64.7437 45.5339 65.0014 45.6294 65.3259 45.6294C65.5741 45.6294 65.7841 45.5816 65.9559 45.4766C66.1181 45.3717 66.2518 45.238 66.3568 45.0758C66.4618 44.9135 66.5286 44.7226 66.5763 44.5126C66.6145 44.3027 66.6431 44.0831 66.6431 43.8636V41.7733H67.5117V45.8202V46.0016C67.5117 46.097 67.5117 46.1925 67.5212 46.2784H66.6908L66.6622 45.6103C66.6049 45.6866 66.5286 45.7725 66.4522 45.8584C66.3663 45.9443 66.2613 46.0302 66.1372 46.1066C66.0132 46.1829 65.87 46.2402 65.7077 46.2975C65.5455 46.3452 65.3641 46.3738 65.1541 46.3738C64.5624 46.3738 64.1329 46.202 63.8561 45.868C63.5793 45.5339 63.4361 45.0662 63.4361 44.4745V41.7733H63.4456Z" fill="#0F2837"/>
<path d="M68.7238 46.2784V42.2124V42.0596C68.7238 42.0024 68.7238 41.9069 68.7143 41.7828H69.5447L69.5733 42.5082C69.621 42.4319 69.6974 42.346 69.7737 42.2505C69.8596 42.1551 69.9646 42.0692 70.0792 41.9928C70.2033 41.9165 70.3369 41.8497 70.4991 41.7924C70.6614 41.7351 70.8427 41.7065 71.0432 41.7065C71.1386 41.7065 71.2341 41.716 71.3104 41.7256C71.3868 41.7351 71.4631 41.7542 71.5395 41.7828L71.3486 42.5941C71.2341 42.5464 71.0814 42.5273 70.9 42.5273C70.7091 42.5273 70.5373 42.5655 70.3846 42.6323C70.2223 42.7087 70.0887 42.8041 69.9742 42.9282C69.8596 43.0523 69.7642 43.205 69.6974 43.3673C69.6306 43.5391 69.5924 43.7109 69.5924 43.9018V46.2784H68.7238Z" fill="#0F2837"/>
<path d="M76.1209 45.6198C76.0732 45.6771 75.9873 45.7534 75.8919 45.8393C75.7869 45.9252 75.6532 46.0207 75.491 46.097C75.3287 46.1829 75.1283 46.2497 74.9088 46.3166C74.6892 46.3738 74.4315 46.412 74.1452 46.412C73.792 46.412 73.4771 46.3547 73.1812 46.2402C72.8853 46.1257 72.6371 45.9634 72.4367 45.7439C72.2267 45.5339 72.074 45.2762 71.9595 44.9803C71.8449 44.6844 71.7877 44.3504 71.7877 43.9877C71.7877 43.6536 71.8449 43.3482 71.9499 43.0618C72.0549 42.7755 72.2172 42.5273 72.4176 42.3174C72.618 42.1074 72.8567 41.9451 73.1335 41.821C73.4103 41.697 73.7061 41.6397 74.0402 41.6397C74.4315 41.6397 74.756 41.716 75.0424 41.8592C75.3192 42.0119 75.5483 42.2028 75.7296 42.451C75.9109 42.6991 76.035 42.9759 76.1209 43.2909C76.2068 43.6059 76.245 43.9399 76.245 44.2835H72.6849C72.6944 44.484 72.7326 44.6653 72.8185 44.8371C72.9044 45.0089 73.0094 45.1521 73.143 45.2762C73.2766 45.4003 73.4293 45.4957 73.6107 45.5625C73.7825 45.6293 73.9734 45.6675 74.1643 45.6675C74.5461 45.6675 74.861 45.6007 75.0997 45.4766C75.3478 45.343 75.5196 45.2189 75.6342 45.0948L76.1209 45.6198ZM75.3383 43.6345C75.3096 43.2814 75.1856 42.9855 74.966 42.7469C74.7465 42.4987 74.4411 42.3746 74.0402 42.3746C73.8302 42.3746 73.6489 42.4128 73.4866 42.4796C73.3244 42.5464 73.1812 42.6419 73.0666 42.7564C72.9521 42.8709 72.8567 43.0046 72.7994 43.1573C72.7326 43.31 72.6944 43.4627 72.6944 43.625H75.3383V43.6345Z" fill="#0F2837"/>
<path d="M60.4009 3.30842C59.9237 9.7606 60.5059 16.1841 60.3532 22.6936C60.3246 23.8867 60.4773 25.1656 60.3818 26.3683C60.3723 26.5114 60.3341 26.6164 60.1146 26.626C59.8187 26.5973 59.5228 26.5687 59.2269 26.626C59.1315 25.767 59.1697 25.0988 59.0933 24.3544C58.9215 22.7318 59.0169 21.4146 59.0074 19.6488C58.9883 16.6232 58.7306 13.5498 58.9501 10.5337C59.0265 9.45517 59.036 7.69895 58.9788 6.62041C58.9215 5.52277 58.8642 4.71148 58.931 3.31796C59.456 3.25115 59.9428 3.25115 60.4009 3.30842Z" fill="#EB5A3C"/>
<path d="M6.84594 1.48539C7.3709 1.53312 7.60951 1.69537 7.64769 2.28714C7.70496 3.17479 7.58088 3.65203 7.67632 4.52059C7.9913 7.40307 7.31363 10.3333 7.61906 13.2253C7.78132 14.7524 7.6286 16.1269 7.67632 17.654C7.75268 19.9352 7.65724 22.5218 7.59997 25.1943H0.48921C0.24105 24.8411 0.288773 23.0658 0.365131 22.5981C0.431943 22.1973 0.431943 21.7773 0.422398 21.3669C0.403309 19.687 0.5083 18.1885 0.498755 16.5087C0.48921 15.5256 0.479666 14.5329 0.317407 13.5594C0.174238 12.7003 0.393764 11.1923 0.269684 10.3237C0.107425 9.23564 0.0215235 2.76437 0.0787914 1.52357C0.0787914 1.52357 6.00601 1.40904 6.84594 1.48539Z" fill="#EB5A3C"/>
<path d="M19.8744 3.00298C19.4639 2.85027 19.5308 3.33705 19.5308 3.58521C19.5308 3.82382 19.5308 3.96699 19.5212 4.28196C19.5117 4.90236 19.5689 6.61086 19.5689 7.22171C19.5785 8.25254 19.6453 9.15928 19.6262 9.97057C19.588 11.4977 19.588 13.0344 19.6453 14.5711C19.798 18.3794 19.6167 22.2068 19.7312 25.996C19.7407 26.3205 19.9507 26.416 20.2466 26.4923L20.6857 26.5687C20.6666 23.3235 20.9243 19.9161 20.7238 16.6805C20.6379 15.3251 20.6857 13.9793 20.6857 12.624C20.6857 11.3259 20.6761 10.0278 20.6952 8.72977C20.7143 7.93756 20.7048 7.1549 20.6761 6.3627C20.6475 5.38914 20.6952 3.50885 20.4375 3.25114C20.3039 3.08888 20.1416 3.09843 19.8744 3.00298Z" fill="#6E1946"/>
<path d="M12.8591 23.8962C13.2886 23.8867 13.2027 23.5621 13.2027 23.3044C13.2027 23.0658 13.2599 22.9227 13.2599 22.6077C13.2695 21.9777 13.2313 20.2597 13.2218 19.6393C13.2122 18.5989 13.155 17.6922 13.174 16.8714C13.2122 15.3251 13.2313 13.7789 13.174 12.2327C13.0404 8.38617 13.2409 4.53013 13.1454 0.712277C13.1359 0.378215 12.9163 0.36867 12.5441 0.349581L12.0287 0.36867C12.0287 3.64248 12.0669 7.12628 12.105 10.6101C12.1241 11.975 12.105 13.0344 12.105 14.3993C12.105 15.7069 12.1337 16.7568 12.1241 18.0644C12.1241 18.7612 12.0955 19.5248 12.086 20.4888C12.0764 21.4719 12.0287 23.3331 12.2578 23.629C12.4296 23.8389 12.5918 23.8962 12.8591 23.8962Z" fill="#91B9B4"/>
<path d="M22.2033 25.9006C21.812 25.8529 21.7547 25.6715 21.7642 25.2229C21.8024 23.8867 21.7165 21.0233 21.5733 19.2766C21.4493 17.6922 21.4779 16.0696 21.6783 14.5043C21.812 13.4162 21.6211 12.6144 21.6211 11.2686C21.6115 9.50288 21.7165 8.11891 21.7165 6.92583C21.707 6.19089 21.6879 5.45595 21.6497 4.72102C21.6211 4.0338 21.6306 2.5162 21.6306 2.35395C21.7451 2.31577 22.1556 2.32531 22.2606 2.33486C22.6423 2.37303 22.8237 2.42076 23.0909 2.55438C23.2532 3.25114 23.2055 4.73056 23.2055 5.56094C23.2055 6.04772 23.1768 8.05209 23.2055 8.52933C23.2627 9.33108 23.2341 10.1424 23.2341 10.9441C23.2437 11.9654 23.3009 12.9962 23.3009 14.0175C23.3009 15.3156 23.1959 16.6136 23.1578 17.9117C23.1005 20.3074 23.4059 23.3999 23.3773 25.4043C23.3677 25.8051 23.4155 26.0151 22.9955 26.0151C23.005 25.996 22.6042 25.9483 22.2033 25.9006Z" fill="#EB5A3C"/>
<path d="M58.2056 24.8029C58.282 23.8103 58.072 22.2736 58.072 21.4719C58.072 21.0042 58.0147 19.0666 58.0434 18.5989C58.0911 17.8258 58.0529 17.0431 58.0529 16.2605C58.0529 15.2678 58.1102 14.2752 58.1006 13.2826C58.0911 12.0227 57.967 10.7723 57.9193 9.51242C57.8238 6.89719 58.2152 3.41339 58.0529 1.56173C57.3943 1.41856 56.583 1.38038 55.6954 1.39947C55.4759 2.8598 55.5331 4.32013 55.5618 6.09543C55.5808 7.25034 55.4759 8.58659 55.5045 10.3046C55.5236 11.6027 55.8576 13.1585 55.724 14.2179C55.5331 15.7355 55.5045 17.3008 55.6477 18.8375C55.8576 21.0328 55.7813 24.6311 55.8099 24.6789L58.2056 24.8029Z" fill="#B41932"/>
<path d="M65.1255 24.8602C65.2305 22.1495 65.2114 20.5174 65.2592 18.1789C65.2878 16.5277 65.0301 14.4374 65.0587 12.7003C65.116 9.51241 65.1542 8.42433 64.8965 5.45594C64.8392 4.78782 64.9346 3.53747 64.906 2.86934C64.8869 2.42075 64.8678 1.84807 64.8583 1.39947C64.8583 1.39947 67.044 1.86716 68.7429 1.514C71.4441 0.941326 75.911 1.53309 75.911 1.53309C76.1782 1.99124 76.2164 3.04115 76.2069 3.29885C76.1591 5.2555 76.121 4.56829 76.1878 6.5154C76.2546 8.35751 75.911 9.98965 75.911 12.5858C75.911 14.2943 76.1687 15.4205 76.2259 16.5564C76.2832 17.7304 76.0828 18.7134 76.1591 20.5651C76.2069 21.7105 76.1782 24.717 76.1973 24.9938C76.1973 24.9938 68.1512 25.0415 66.4331 24.8316C65.5264 24.717 65.1255 24.8602 65.1255 24.8602Z" fill="#6E1946"/>
<path d="M50.4077 0.406839C50.4554 4.45377 50.484 8.93975 50.6844 12.5858C50.7513 13.8075 50.7131 15.3347 50.7608 16.7186C50.7799 17.339 50.6749 18.5703 50.6272 19.3911C50.589 20.0593 50.6081 20.7274 50.6176 21.386C50.6367 22.0923 50.6463 23.5717 50.589 23.6003C50.1786 23.5335 49.7395 23.5335 49.2814 23.6003C49.1287 23.0563 49.2337 22.5504 49.2432 21.9873C49.3291 17.129 48.9855 13.588 49.0714 9.1211C49.1 7.67031 49.0523 5.68503 48.9378 4.24378C48.8423 2.99344 48.8805 1.58083 49.0332 0.340027C49.5105 0.340027 49.9686 0.359116 50.4077 0.406839Z" fill="#FAC39B"/>
<path d="M63.9134 0.626368C64.0374 2.71664 63.942 4.09107 63.9802 5.88547C64.0184 7.46033 64.1902 8.80613 64.0947 10.6101C64.0088 12.1658 64.1711 13.7312 64.2092 15.2965C64.2379 16.8141 64.2665 18.3412 64.2856 19.8588C64.3142 21.0328 64.3429 22.1018 64.3429 23.2853C64.3429 23.4858 64.3238 23.9057 64.3238 24.1062C64.3238 24.1062 63.9134 24.0298 63.5029 24.068C62.4817 24.1635 61.6895 24.0394 61.3936 23.9821C61.1454 23.9248 61.3554 19.8111 61.3649 19.4293C61.3936 17.8831 61.3936 16.3368 61.3936 14.7906C61.384 13.2253 61.2409 11.5645 61.2122 10.0087C61.1836 8.42434 61.2695 6.94492 61.2313 5.37005C61.1931 3.7761 61.1454 2.42076 61.0977 0.826805C61.0881 0.502287 61.3936 0.330484 61.909 0.473653C62.5771 0.645457 63.293 0.425931 63.9134 0.626368Z" fill="#FF9619"/>
<path d="M10.3393 2.58301C10.8165 2.64982 11.1697 3.09842 11.1792 3.63292C11.1888 4.39649 11.1792 5.07416 11.1601 5.74228C11.141 6.48677 11.1124 7.21216 11.1315 8.02345C11.1697 11.3259 11.3128 14.4756 11.1697 17.8926C11.0456 20.7846 11.3128 23.6099 11.2842 26.2633C10.4061 26.2155 9.35619 26.1296 8.50671 26.0915C8.74533 21.1951 8.59261 16.5564 8.53535 11.4595C8.50671 8.59613 8.9744 6.35314 8.57353 2.53528C9.18438 2.46847 9.77615 2.50665 10.3393 2.58301Z" fill="#6E1946"/>
<path d="M48.1933 13.4639C48.1361 11.7172 48.1456 8.42435 48.2792 6.66813C48.4224 4.72103 47.9452 1.77174 46.8666 1.829C45.9313 1.78128 44.9004 1.88627 43.9555 1.93399C43.2015 1.97217 42.2375 1.97217 41.4835 2.03898C40.1949 2.15352 40.0518 1.98171 38.7537 1.98171C37.1311 1.98171 35.7376 2.11534 34.115 2.11534C32.5497 2.11534 30.803 2.07716 29.2377 1.95308C27.701 1.83855 26.0689 1.61902 24.5417 1.66674C24.3222 1.67629 24.1981 2.65939 24.1504 3.8811C24.1122 5.05509 24.0358 7.58442 24.1313 8.79659C24.8471 7.91848 25.7443 7.58442 26.6224 7.49852C27.3288 7.43171 28.1496 7.39353 28.9132 7.50806C28.9895 7.51761 28.4168 6.97356 27.9396 6.60132C27.6724 6.39134 27.3765 6.17181 27.0424 6.12409C26.632 6.06682 26.2025 6.105 25.7825 6.07637C26.0879 5.80912 26.6224 5.14099 27.9301 5.3128C28.6364 5.40824 29.8199 6.6395 30.2494 6.30544C30.7266 5.9332 30.5357 4.47287 31.1657 4.31061C31.6811 4.17698 32.0152 6.13363 32.2633 6.56314C32.836 5.82821 33.695 5.30325 34.6209 5.19826C35.1076 5.14099 36.5966 5.32234 36.797 6.02865C36.797 6.0191 34.8976 5.68504 33.7237 7.38398C35.394 6.7254 37.0834 6.94493 38.5055 8.03302C38.8969 8.33845 39.1546 8.65342 39.4218 9.01612C39.8036 9.53153 39.7559 9.7606 39.7463 10.0565C39.1259 9.9324 38.5533 8.8634 37.4843 8.53888C36.5871 8.26209 35.623 8.31936 34.7258 8.58661C36.7589 8.92067 39.5745 11.6218 38.601 13.8457C38.286 14.5616 38.2001 14.0843 38.0856 13.483C37.9519 12.7672 37.7515 12.3567 37.4079 11.8891C37.112 11.4786 36.797 11.1255 36.4248 10.7723C36.1003 10.4574 35.0981 10.0183 34.6304 10.0469C35.938 10.4192 36.7875 13.0249 36.8925 13.3017C37.1693 13.9793 37.1597 14.7524 37.1788 15.4683C37.1884 15.8787 37.2265 17.32 36.7016 17.4536C36.7111 17.4536 36.7875 13.9698 34.325 11.975C34.9645 13.1012 35.0217 14.4852 34.9454 15.7451C34.9072 16.4514 34.7927 17.0241 34.4777 17.6636C34.4109 17.8067 34.1532 18.4462 34.0482 18.4653C33.7237 18.5417 33.8955 16.5182 33.8477 16.1555C33.7905 15.7165 32.9887 12.7194 32.1488 13.4544C31.7193 13.8266 31.9388 15.5065 31.9961 16.2605C32.0629 17.1768 32.1679 18.5226 32.187 19.4389C32.2252 21.3478 32.2729 22.6936 32.521 24.6121C34.7163 23.4285 44.3564 18.4939 45.7308 22.5695C45.7404 22.7031 45.6545 22.6077 45.6545 22.6077C44.7095 21.1951 42.142 21.9205 40.8535 22.3213C38.5628 23.0276 36.3675 24.1444 34.2963 25.3279C37.7038 25.3375 42.9629 25.3279 46.8571 25.3279C47.7543 25.3279 48.4701 24.5834 48.4415 23.6862C48.4224 23.0276 48.4033 22.2354 48.4033 21.386C48.4033 20.422 48.451 19.3816 48.4797 18.4176C48.5179 16.5182 48.2602 15.3824 48.1933 13.4639ZM29.0563 15.4683C28.9227 15.9646 28.7509 16.8045 28.7318 17.0241C28.7032 17.2436 28.5314 18.4271 28.5314 18.4271C28.455 18.3794 28.4073 18.2935 28.3691 18.2076C27.8823 17.11 27.9778 15.3728 27.9778 15.3633C28.1496 12.6335 29.1231 11.8986 29.1231 11.9081C28.6841 11.66 27.806 12.6908 27.3383 13.3398C26.7179 14.2084 26.8229 14.8002 26.7465 16.1555C26.4125 16.0887 26.0879 15.5351 26.0689 15.1247C25.9543 12.9962 26.8992 11.0491 27.9205 10.2474C28.0351 10.1424 26.7465 10.4001 26.5175 10.486C25.6775 10.8296 25.0762 11.4309 24.6658 12.2327C23.7972 13.9125 24.3508 15.9169 24.2363 17.759C24.1695 18.8185 24.3222 19.8684 24.3126 20.9278C24.3031 21.7296 24.1027 21.8823 24.9044 21.9491C25.2194 21.9777 25.5344 22.0255 25.8493 22.0923C27.7392 22.5027 29.2472 23.3713 30.5739 24.7457C30.7839 22.2927 30.8125 20.0306 30.8125 17.5681C30.8125 16.5946 30.9748 14.5043 30.3258 13.6739C29.6672 12.8435 29.209 14.9147 29.0563 15.4683ZM24.4367 22.6363C24.389 23.5908 24.4558 24.3544 24.4654 25.4711C25.4007 25.4043 25.9639 25.4902 26.8992 25.5474C27.7964 25.6047 28.7509 25.5093 29.6481 25.6238C28.2737 24.1348 26.5175 22.8177 24.4367 22.6363ZM25.9734 9.4838C26.3075 9.25473 27.6914 8.55797 27.8537 8.56752C26.8611 8.18573 25.668 8.28118 24.7994 8.83477C23.9499 9.36927 24.2363 10.8582 24.1218 11.8127C24.5417 10.9632 25.1717 10.0183 25.9734 9.4838Z" fill="#0F2837"/>
<path d="M54.1205 2.26805C54.2446 2.28714 54.3401 2.39213 54.3496 2.51622C54.4164 5.16963 54.4737 7.55579 54.6455 10.3046C54.7123 11.3927 54.7696 12.9962 54.6073 14.2752C54.3973 15.9551 54.8269 17.32 54.7123 19.0094C54.5596 21.2428 54.8841 23.0658 54.76 25.2993L51.9921 25.3565C51.763 25.3661 51.553 25.1466 51.5912 24.6121C51.6198 24.0776 51.5817 21.7868 51.5817 20.0593C51.5817 18.3317 51.8107 16.7377 51.6198 14.8097C51.5244 13.8648 51.7535 12.8531 51.6962 11.9081C51.6008 10.1901 51.5435 8.68205 51.5053 6.96402C51.4862 5.94274 51.5053 4.38697 51.4767 3.38478C51.4576 2.68802 51.6103 2.17261 51.9921 2.00081C52.4121 1.80991 53.6242 2.20124 54.1205 2.26805Z" fill="#91B9B4"/>
<path d="M14.1476 22.6077C14.119 23.2472 14.1094 23.4762 14.1094 23.7149C14.1094 23.8771 14.2526 23.9058 14.3862 23.9726C14.4721 24.0203 15.2166 24.173 15.4648 24.2303C15.6748 24.278 15.9802 24.3066 16.1902 24.3066C16.906 24.2971 17.6219 24.5452 18.3377 24.4784C18.3568 24.4784 18.3854 24.4689 18.4045 24.4593C18.4618 24.4212 18.6622 24.3257 18.7195 23.9248C18.8054 23.314 18.6336 22.7795 18.729 21.6723C18.8245 20.5651 18.7386 17.5586 18.7481 16.8332C18.7959 11.3546 18.4809 11.2687 18.6241 7.04037C18.6718 5.55141 18.6336 5.05509 18.4713 3.48977C18.4332 3.07935 18.2423 2.02944 18.3377 1.30405C18.3759 1.0368 18.2136 0.817269 17.9559 0.807725C16.7724 0.750457 14.2812 0.931805 14.2812 0.931805C14.1476 1.48539 14.119 2.01035 14.1572 2.74529C14.1762 3.2607 14.0808 4.11017 14.0808 4.62558C14.0808 5.2078 14.0426 5.79003 14.0713 6.37225C14.1381 7.93757 14.1858 9.50289 14.1381 11.0587C14.014 15.0197 14.3671 17.32 14.2144 21.2046L14.1476 22.6077Z" fill="#FF9619"/>
</svg>
