<svg width="73" height="60" viewBox="0 0 73 60" fill="none" xmlns="http://www.w3.org/2000/svg">
<path d="M42.9747 60.6797L74.0922 60.6797V10.6797L24.5 10.6797L24.5 41.7971H42.9747L42.9747 60.6797Z" fill="#2FF291" fill-opacity="0.5"/>
<path fill-rule="evenodd" clip-rule="evenodd" d="M17.0774 5.30908H39.4773C40.6974 5.30904 41.7497 5.30901 42.6163 5.37986C43.5313 5.45466 44.4409 5.61982 45.3165 6.06596C46.6206 6.73045 47.686 7.79104 48.3531 9.10017C48.7991 9.97558 48.964 10.8854 49.0387 11.7995C49.1095 12.6657 49.1095 13.7169 49.1094 14.9347V24.209C49.1094 40.8309 36.4833 48.2321 31.3743 50.5446L31.3489 50.5561C30.7959 50.8064 30.3231 51.0189 29.4529 51.1683C29.0706 51.2339 28.6135 51.2492 28.278 51.2492C27.9425 51.2492 27.4854 51.2339 27.1031 51.1683C26.2228 51.0172 25.7475 50.802 25.1809 50.5456L25.1788 50.5446C20.0697 48.232 7.44422 40.8309 7.44422 24.209L7.44422 14.9423C7.44417 13.722 7.44414 12.6691 7.51497 11.8019C7.58972 10.8867 7.75475 9.97616 8.20109 9.10017C8.86686 7.79354 9.92867 6.73172 11.2353 6.06596C12.1113 5.61962 13.0218 5.45459 13.937 5.37984C14.8043 5.30901 15.8571 5.30904 17.0774 5.30908ZM14.3139 9.99395C13.6846 10.0453 13.4514 10.1326 13.337 10.1908C12.9015 10.4128 12.5479 10.7664 12.326 11.2019C12.2677 11.3162 12.1805 11.5495 12.1291 12.1787C12.0755 12.8349 12.0737 13.6969 12.0737 15.0314V24.209C12.0737 37.9947 22.4465 44.2262 27.0878 46.3271C27.3668 46.4533 27.4651 46.4958 27.5537 46.5269C27.6112 46.547 27.6919 46.5718 27.8755 46.6037C27.8784 46.6039 27.9106 46.6078 27.9785 46.6118C28.0625 46.6167 28.1666 46.6197 28.278 46.6197C28.3894 46.6197 28.4935 46.6167 28.5775 46.6118C28.6453 46.6078 28.6776 46.6039 28.6804 46.6037C28.8623 46.5721 28.9415 46.5476 28.9972 46.5281C29.0846 46.4974 29.1807 46.4557 29.4591 46.3297L29.4845 46.3182C34.1352 44.2089 44.48 37.9756 44.48 24.209V15.0238C44.48 13.6918 44.4782 12.8315 44.4246 12.1766C44.3733 11.5485 44.2862 11.3158 44.2282 11.2019C44.0075 10.7689 43.6528 10.414 43.2147 10.1908C43.1 10.1324 42.8671 10.0453 42.2391 9.99393C41.5838 9.94036 40.7226 9.93856 39.388 9.93856H17.1666C15.832 9.93856 14.97 9.94035 14.3139 9.99395ZM36.8578 19.8755C37.7618 20.7794 37.7618 22.245 36.8578 23.149L27.5989 32.4079C26.6949 33.3119 25.2293 33.3119 24.3253 32.4079L19.6959 27.7785C18.7919 26.8745 18.7919 25.4089 19.6959 24.5049C20.5998 23.601 22.0654 23.601 22.9694 24.5049L25.9621 27.4976L33.5843 19.8755C34.4882 18.9715 35.9538 18.9715 36.8578 19.8755Z" fill="#5C665E"/>
</svg>
