<svg width="73" height="63" viewBox="0 0 73 63" fill="none" xmlns="http://www.w3.org/2000/svg">
<path d="M42.9747 60.6797L74.0922 60.6797V10.6797L24.5 10.6797L24.5 41.7971H42.9747L42.9747 60.6797Z" fill="#2FF291" fill-opacity="0.5"/>
<path fill-rule="evenodd" clip-rule="evenodd" d="M19.0179 14.5682C16.4611 14.5682 14.3884 16.6409 14.3884 19.1977C14.3884 20.5685 14.9813 21.7979 15.9321 22.6489C16.8847 23.5014 16.9658 24.9648 16.1132 25.9174C15.2606 26.87 13.7972 26.951 12.8447 26.0984C10.9541 24.4064 9.75892 21.9401 9.75892 19.1977C9.75892 14.0841 13.9043 9.93872 19.0179 9.93872C21.3878 9.93872 23.5545 10.8321 25.1911 12.2969C26.1436 13.1495 26.2247 14.6128 25.3721 15.5654C24.5195 16.518 23.0562 16.599 22.1036 15.7465C21.283 15.012 20.205 14.5682 19.0179 14.5682ZM31.3625 12.2969C32.9991 10.8321 35.1658 9.93872 37.5357 9.93872C42.6493 9.93872 46.7947 14.0841 46.7947 19.1977C46.7947 21.9401 45.5995 24.4064 43.7089 26.0984C42.7564 26.951 41.293 26.87 40.4404 25.9174C39.5878 24.9648 39.6689 23.5014 40.6215 22.6489C41.5723 21.7979 42.1652 20.5685 42.1652 19.1977C42.1652 16.6409 40.0925 14.5682 37.5357 14.5682C36.3486 14.5682 35.2706 15.012 34.45 15.7465C33.4974 16.599 32.0341 16.518 31.1815 15.5654C30.3289 14.6128 30.41 13.1495 31.3625 12.2969ZM28.2768 21.5124C25.72 21.5124 23.6473 23.5851 23.6473 26.1419C23.6473 28.6986 25.72 30.7713 28.2768 30.7713C30.8336 30.7713 32.9063 28.6986 32.9063 26.1419C32.9063 23.5851 30.8336 21.5124 28.2768 21.5124ZM19.0179 26.1419C19.0179 21.0283 23.1632 16.8829 28.2768 16.8829C33.3904 16.8829 37.5357 21.0283 37.5357 26.1419C37.5357 31.2554 33.3904 35.4008 28.2768 35.4008C23.1632 35.4008 19.0179 31.2554 19.0179 26.1419ZM16.6275 33.0778C16.9516 34.3144 16.212 35.5796 14.9754 35.9038C13.1989 36.3695 11.8204 37.1035 10.9312 37.9031C10.0483 38.6971 9.75892 39.4374 9.75892 40.0311C9.75892 41.3095 8.72258 42.3459 7.44419 42.3459C6.1658 42.3459 5.12946 41.3095 5.12946 40.0311C5.12946 37.7773 6.26835 35.8702 7.83565 34.4608C9.39667 33.057 11.4903 32.0315 13.8014 31.4257C15.038 31.1015 16.3033 31.8412 16.6275 33.0778ZM39.9261 33.0778C40.2503 31.8412 41.5156 31.1015 42.7522 31.4257C45.0633 32.0315 47.1569 33.057 48.7179 34.4608C50.2852 35.8702 51.4241 37.7773 51.4241 40.0311C51.4241 41.3095 50.3878 42.3459 49.1094 42.3459C47.831 42.3459 46.7947 41.3095 46.7947 40.0311C46.7947 39.4374 46.5053 38.6971 45.6224 37.9031C44.7332 37.1035 43.3547 36.3695 41.5782 35.9038C40.3416 35.5796 39.602 34.3144 39.9261 33.0778ZM18.9021 40.0793C21.4134 38.5725 24.7334 37.7155 28.2768 37.7155C31.8202 37.7155 35.1402 38.5725 37.6515 40.0793C40.1168 41.5585 42.1652 43.9244 42.1652 46.9745C42.1652 48.2529 41.1289 49.2892 39.8505 49.2892C38.5721 49.2892 37.5357 48.2529 37.5357 46.9745C37.5357 46.1894 36.9933 45.0832 35.2697 44.049C33.5922 43.0426 31.1254 42.345 28.2768 42.345C25.4282 42.345 22.9614 43.0426 21.2839 44.049C19.5603 45.0832 19.0179 46.1894 19.0179 46.9745C19.0179 48.2529 17.9815 49.2892 16.7031 49.2892C15.4247 49.2892 14.3884 48.2529 14.3884 46.9745C14.3884 43.9244 16.4368 41.5585 18.9021 40.0793Z" fill="#5C665E"/>
</svg>
