<svg width="73" height="63" viewBox="0 0 73 63" fill="none" xmlns="http://www.w3.org/2000/svg">
<path d="M42.9747 60.6797L74.0922 60.6797V10.6797L24.5 10.6797L24.5 41.7971H42.9747L42.9747 60.6797Z" fill="#2FF291" fill-opacity="0.5"/>
<path fill-rule="evenodd" clip-rule="evenodd" d="M28.2768 9.93855C18.0497 9.93855 9.75892 18.2293 9.75892 28.4564C9.75892 38.6836 18.0497 46.9743 28.2768 46.9743C38.5039 46.9743 46.7947 38.6836 46.7947 28.4564C46.7947 18.2293 38.5039 9.93855 28.2768 9.93855ZM5.12946 28.4564C5.12946 15.6725 15.4929 5.30908 28.2768 5.30908C41.0607 5.30908 51.4241 15.6725 51.4241 28.4564C51.4241 41.2403 41.0607 51.6038 28.2768 51.6038C15.4929 51.6038 5.12946 41.2403 5.12946 28.4564Z" fill="#5C665E"/>
<path fill-rule="evenodd" clip-rule="evenodd" d="M35.3541 35.4046C34.7127 36.1173 33.615 36.1751 32.9023 35.5337L28.2649 31.36C27.1674 30.3723 26.5408 28.9652 26.5408 27.4888V16.8828C26.5408 15.924 27.318 15.1467 28.2768 15.1467C29.2356 15.1467 30.0129 15.924 30.0129 16.8828V27.4888C30.0129 27.9809 30.2218 28.45 30.5876 28.7792L35.225 32.9529C35.9377 33.5943 35.9955 34.692 35.3541 35.4046Z" fill="#5C665E"/>
</svg>
