<svg width="379" height="295" viewBox="0 0 379 295" fill="none" xmlns="http://www.w3.org/2000/svg">
<path d="M98.6884 293.63L31.0891 254.326L145.429 188.246L98.6884 293.63Z" fill="#C6CCC7"/>
<path d="M1.11243 251.913L28.6575 267.794C29.23 268.084 29.8629 268.236 30.5049 268.236C31.1468 268.236 31.7798 268.084 32.3523 267.794L70.3454 245.625C70.569 245.551 70.7635 245.408 70.9013 245.217C71.0392 245.026 71.1134 244.797 71.1134 244.561C71.1134 244.326 71.0392 244.096 70.9013 243.905C70.7635 243.714 70.569 243.572 70.3454 243.497L42.8004 227.607C42.2279 227.316 41.595 227.165 40.953 227.165C40.311 227.165 39.6781 227.316 39.1056 227.607L1.11243 249.776C0.89004 249.852 0.697111 249.997 0.560546 250.188C0.423981 250.38 0.350586 250.609 0.350586 250.844C0.350586 251.08 0.423981 251.309 0.560546 251.5C0.697111 251.692 0.89004 251.836 1.11243 251.913Z" fill="#C6CCC7"/>
<path d="M29.5884 265.458L3.63913 250.47L3.62964 194.81L29.5884 209.798V265.458Z" fill="#434C45"/>
<path d="M29.5884 209.798L66.6697 188.389V244.049L29.5884 265.458V209.798Z" fill="#8E9990"/>
<path d="M66.6698 188.389L29.5884 209.798L3.62964 194.81L40.7204 173.4L66.6698 188.389Z" fill="#5C665E"/>
<path d="M45.6121 209.114L50.6557 206.198C51.3111 205.818 51.843 205.989 51.843 206.587C51.7948 206.951 51.6624 207.298 51.4563 207.602C51.2501 207.905 50.976 208.156 50.6557 208.335L45.6121 211.251C44.9567 211.631 44.4248 211.46 44.4248 210.862C44.473 210.498 44.6054 210.151 44.8115 209.847C45.0176 209.544 45.2918 209.293 45.6121 209.114Z" fill="#434C45"/>
<path d="M32.6184 238.027L62.2815 220.901L62.9654 221.291L62.2815 241.513L62.9654 241.912L33.3023 259.037L32.6184 258.638V238.027Z" fill="#434C45"/>
<path d="M33.3022 238.416L62.9654 221.291V241.912L33.3022 259.037V238.416Z" fill="#5C665E"/>
<path d="M44.9283 235.197L49.9718 232.29C50.6272 231.91 51.1591 232.081 51.1591 232.67C51.1117 233.035 50.9796 233.384 50.7735 233.689C50.5674 233.994 50.2929 234.247 49.9718 234.427L44.9283 237.343C44.2729 237.723 43.741 237.543 43.741 236.954C43.7899 236.589 43.9225 236.241 44.1285 235.936C44.3344 235.631 44.6082 235.378 44.9283 235.197Z" fill="#434C45"/>
<path d="M32.6184 212.381L62.2815 195.256L62.9654 195.645L62.2815 215.867L62.9654 216.266L33.3023 233.391L32.6184 232.993V212.381Z" fill="#434C45"/>
<path d="M33.3022 212.771L62.9654 195.646V216.266L33.3022 233.392V212.771Z" fill="#5C665E"/>
<path d="M44.9283 209.551L49.9718 206.645C50.6272 206.265 51.1591 206.436 51.1591 207.025C51.1117 207.39 50.9796 207.739 50.7735 208.044C50.5674 208.349 50.2929 208.602 49.9718 208.782L44.9283 211.698C44.2729 212.078 43.741 211.897 43.741 211.308C43.7899 210.944 43.9225 210.595 44.1285 210.291C44.3344 209.986 44.6082 209.733 44.9283 209.551Z" fill="#434C45"/>
<path d="M29.5884 207.433L3.63913 192.445L3.62964 136.775L29.5884 151.764V207.433Z" fill="#434C45"/>
<path d="M29.5884 151.764L66.6697 130.354V186.024L29.5884 207.433V151.764Z" fill="#8E9990"/>
<path d="M66.6698 130.355L29.5884 151.764L3.62964 136.775L40.7204 115.366L66.6698 130.355Z" fill="#5C665E"/>
<path d="M33.3022 153.901L62.9654 136.775L63.6493 137.174V157.786L33.9861 174.921L33.3022 174.522V153.901Z" fill="#434C45"/>
<path d="M45.6121 151.079L50.6557 148.163C51.3111 147.783 51.843 147.964 51.843 148.553C51.7941 148.917 51.6614 149.266 51.4555 149.571C51.2495 149.876 50.9757 150.129 50.6557 150.31L45.6121 153.217C44.9567 153.596 44.4248 153.425 44.4248 152.837C44.4723 152.471 44.6043 152.123 44.8105 151.817C45.0166 151.512 45.2911 151.26 45.6121 151.079Z" fill="#434C45"/>
<path d="M32.6184 179.993L62.2815 162.867V183.488L62.9654 183.877L33.3023 201.003L32.6184 200.613V179.993Z" fill="#434C45"/>
<path d="M33.3022 180.392L62.9654 163.257V183.878L33.3022 201.003V180.392Z" fill="#5C665E"/>
<path d="M44.9283 177.172L49.9718 174.256C50.6272 173.876 51.1591 174.047 51.1591 174.645C51.111 175.009 50.9786 175.356 50.7724 175.659C50.5663 175.963 50.2922 176.214 49.9718 176.393L44.9283 179.309C44.2729 179.689 43.741 179.518 43.741 178.919C43.7891 178.556 43.9215 178.208 44.1277 177.905C44.3338 177.601 44.6079 177.35 44.9283 177.172Z" fill="#434C45"/>
<path d="M33.3022 153.901L62.9654 136.775V157.396L33.3022 174.522V153.901Z" fill="#434C45"/>
<path d="M77.8016 146.957L61.5596 137.592V155.753L77.8016 165.127V146.957Z" fill="#434C45"/>
<path d="M44.4248 177.456V151.763L50.7887 148.078L51.843 149.626L70.3836 138.912V162.468L44.4248 177.456Z" fill="#4BBF86"/>
<g opacity="0.2">
<path d="M44.4248 177.456V151.763L50.7887 148.078L51.843 149.626L70.3836 138.912V162.468L44.4248 177.456Z" fill="black"/>
</g>
<path d="M44.4248 177.456L46.277 154.974L72.2358 139.985L70.3836 162.468L44.4248 177.456Z" fill="#4BBF86"/>
<path d="M48.129 164.092L33.9766 155.924V174.085L48.129 182.253V164.092Z" fill="#8E9990"/>
<path d="M48.1292 162.468L77.8018 145.343V165.954L48.1292 183.089V162.468Z" fill="#5C665E"/>
<path d="M59.7644 159.248L64.808 156.332C65.4634 155.952 65.9953 156.133 65.9953 156.722C65.9464 157.086 65.8138 157.435 65.6078 157.74C65.4018 158.045 65.1281 158.298 64.808 158.479L59.7644 161.385C59.1091 161.765 58.5771 161.594 58.5771 161.006C58.626 160.641 58.7587 160.292 58.9647 159.988C59.1706 159.683 59.4444 159.43 59.7644 159.248Z" fill="#434C45"/>
<path d="M48.1292 162.468L47.1414 161.898V182.519L48.1292 183.089V162.468Z" fill="#434C45"/>
<path d="M47.1414 161.898L76.814 144.772L77.8018 145.342L48.1292 162.468L47.1414 161.898Z" fill="#8E9990"/>
<path d="M295.93 13.7914L292.073 11.5498L95.2785 125.149V289.688C95.226 290.197 95.309 290.712 95.5192 291.179C95.7293 291.646 96.0592 292.049 96.4753 292.348L100.332 294.589C100.799 294.804 101.316 294.891 101.828 294.841C102.34 294.791 102.83 294.606 103.248 294.304L291.789 185.425C292.985 184.644 293.981 183.592 294.696 182.355C295.41 181.117 295.823 179.729 295.901 178.302L295.93 13.7914Z" fill="#F2F2F2"/>
<path d="M99.1348 291.929C99.1348 294.551 100.968 295.615 103.248 294.304L291.788 185.425C292.985 184.644 293.981 183.592 294.696 182.354C295.41 181.117 295.823 179.728 295.901 178.301V13.791L99.1348 127.4V291.929Z" fill="#F7FAF8"/>
<path d="M294.98 15.4059V178.32C294.902 179.581 294.533 180.807 293.902 181.901C293.27 182.995 292.394 183.928 291.342 184.627L102.801 293.478C102.39 293.738 101.919 293.888 101.433 293.915C100.237 293.915 100.113 292.528 100.113 291.929V127.942L294.98 15.4059ZM295.93 13.7627L99.1348 127.4V291.929C99.1348 293.829 100.085 294.864 101.405 294.864C102.057 294.839 102.692 294.646 103.248 294.304L291.788 185.425C292.985 184.644 293.981 183.592 294.696 182.355C295.41 181.117 295.823 179.728 295.901 178.301V13.7912L295.93 13.7627Z" fill="#C6CCC7"/>
<path d="M99.1348 127.4V145.209L295.901 31.6003V13.791L99.1348 127.4Z" fill="#4BBF86"/>
<path d="M222.594 63.0972V66.8965C222.594 67.6754 223.154 67.9983 223.828 67.6089L284.323 32.6742V26.0254L223.828 60.9981C223.475 61.2299 223.18 61.5398 222.966 61.9038C222.752 62.2677 222.625 62.6761 222.594 63.0972Z" fill="#F7FAF8"/>
<path d="M290.81 22.2923C291.494 21.8934 292.045 22.2163 292.045 23.0047V26.804C292.022 27.2324 291.899 27.6494 291.684 28.0209C291.47 28.3923 291.17 28.7077 290.81 28.9411L284.323 32.6834V26.0346L290.81 22.2923Z" fill="#5C665E"/>
<path d="M290.335 27.5444L289.604 27.3164C289.684 27.0062 289.726 26.6871 289.727 26.3666C289.76 26.0744 289.716 25.7789 289.599 25.509C289.482 25.2392 289.298 25.0044 289.062 24.8279C288.903 24.7334 288.721 24.6836 288.535 24.6836C288.35 24.6836 288.168 24.7334 288.008 24.8279C287.548 25.1812 287.178 25.6378 286.927 26.1609C286.676 26.684 286.552 27.2588 286.564 27.8388C286.53 28.1311 286.573 28.4273 286.69 28.6975C286.807 28.9677 286.993 29.2023 287.229 29.3775C287.366 29.4612 287.525 29.504 287.685 29.501C287.893 29.4966 288.096 29.4376 288.274 29.33C288.828 28.9526 289.239 28.401 289.442 27.7628L290.174 27.9908H290.231C290.287 27.9918 290.342 27.9748 290.388 27.9424C290.435 27.9099 290.469 27.8637 290.487 27.8103C290.491 27.7559 290.479 27.7016 290.452 27.6543C290.425 27.6069 290.384 27.5687 290.335 27.5444ZM288.008 28.9311C287.936 28.9865 287.849 29.0203 287.759 29.0287C287.668 29.0371 287.577 29.0197 287.495 28.9786C287.348 28.8448 287.236 28.6771 287.168 28.4901C287.1 28.3031 287.079 28.1024 287.106 27.9053C287.096 27.4204 287.196 26.9396 287.399 26.4988C287.601 26.0581 287.9 25.6687 288.274 25.3598C288.374 25.2976 288.489 25.2616 288.607 25.2553C288.674 25.2551 288.74 25.2749 288.797 25.3123C288.942 25.4476 289.053 25.6154 289.121 25.802C289.188 25.9886 289.211 26.1886 289.186 26.3856C289.194 26.8711 289.092 27.3522 288.888 27.7929C288.684 28.2336 288.383 28.6227 288.008 28.9311Z" fill="#F7FAF8"/>
<path d="M290.877 0.294223C290.409 0.0649835 289.887 -0.0314321 289.367 0.0154606C288.848 0.0623532 288.352 0.250763 287.932 0.560181L99.3913 109.439C98.193 110.218 97.1958 111.27 96.481 112.508C95.7663 113.746 95.3543 115.135 95.2786 116.563V125.178L99.1349 127.429L295.93 13.7913V5.17635C295.988 4.66876 295.908 4.15496 295.699 3.68875C295.49 3.22253 295.16 2.82105 294.743 2.52633C294.03 2.1084 291.551 0.70265 290.877 0.294223Z" fill="#263238"/>
<path d="M99.1348 118.785C99.209 117.357 99.6204 115.967 100.335 114.729C101.05 113.491 102.048 112.439 103.248 111.661L291.788 2.80142C294.059 1.49065 295.901 2.55446 295.901 5.17599V13.7909L99.1348 127.4V118.785Z" fill="#DFE5E0"/>
<path d="M294.752 2.54522C294.282 2.31089 293.757 2.21083 293.234 2.25608C292.711 2.30134 292.211 2.49014 291.789 2.80168L103.248 111.652C102.033 112.41 101.032 113.466 100.341 114.72L96.4658 112.488C97.1603 111.231 98.1639 110.172 99.3818 109.41L287.932 0.550585C288.353 0.242682 288.849 0.0559644 289.369 0.0107481C289.888 -0.0344681 290.409 0.0635443 290.877 0.294127C291.551 0.702553 294.021 2.1178 294.676 2.51673L294.752 2.54522Z" fill="#5C665E"/>
<path d="M272.754 18.2554C272.198 18.625 271.736 19.1201 271.406 19.7008C271.076 20.2815 270.887 20.9316 270.854 21.5988C270.854 22.824 271.719 23.3275 272.754 22.7101C273.31 22.3405 273.772 21.8453 274.102 21.2646C274.432 20.6839 274.621 20.0338 274.654 19.3667C274.682 18.1224 273.818 17.619 272.754 18.2554Z" fill="#4BBF86"/>
<path d="M279.507 14.3517C278.951 14.7193 278.489 15.2126 278.159 15.7918C277.829 16.371 277.64 17.0198 277.607 17.6856C277.607 18.9204 278.472 19.4143 279.507 18.8064C280.062 18.4357 280.523 17.9404 280.853 17.3599C281.183 16.7794 281.373 16.1298 281.407 15.463C281.435 14.2283 280.571 13.7343 279.507 14.3517Z" fill="#4BBF86"/>
<path d="M286.251 10.4574C285.695 10.827 285.233 11.3222 284.903 11.9029C284.573 12.4836 284.384 13.1337 284.351 13.8008C284.351 15.0356 285.216 15.5295 286.251 14.9121C286.809 14.5442 287.272 14.0495 287.602 13.4684C287.932 12.8873 288.12 12.2364 288.151 11.5687C288.189 10.3435 287.324 9.84005 286.251 10.4574Z" fill="#4BBF86"/>
<path d="M103.248 294.304L137.717 274.405V122.927L99.1348 145.21V291.93C99.1348 294.551 100.968 295.606 103.248 294.304Z" fill="#FAFAFA"/>
<path d="M136.767 124.57V273.854L102.773 293.478C102.361 293.738 101.891 293.888 101.405 293.915C100.208 293.915 100.085 292.528 100.085 291.93V145.751L136.767 124.57ZM137.717 122.927L99.1348 145.21V291.93C99.1348 293.829 100.085 294.865 101.405 294.865C102.057 294.839 102.692 294.646 103.248 294.304L137.717 274.405V122.927Z" fill="#C6CCC7"/>
<path d="M111.938 146.72L130.403 136.034C131.077 135.636 131.628 135.958 131.628 136.747V138.352C131.605 138.779 131.482 139.195 131.269 139.566C131.056 139.937 130.76 140.253 130.403 140.489L111.938 151.156C111.255 151.555 110.704 151.232 110.704 150.443V148.857C110.729 148.429 110.854 148.014 111.068 147.643C111.283 147.272 111.581 146.956 111.938 146.72Z" fill="#C6CCC7"/>
<path d="M106.848 151.089V152.694C106.824 153.123 106.7 153.539 106.486 153.911C106.271 154.282 105.972 154.598 105.613 154.832L104.226 155.629C103.542 156.028 102.991 155.705 102.991 154.917V153.312C103.014 152.884 103.138 152.467 103.353 152.095C103.567 151.724 103.867 151.409 104.226 151.175L105.613 150.377C106.297 149.978 106.848 150.282 106.848 151.089Z" fill="#4BBF86"/>
<path d="M111.938 155.601L130.403 144.934C131.077 144.535 131.628 144.858 131.628 145.637V147.242C131.605 147.671 131.482 148.088 131.269 148.46C131.056 148.833 130.76 149.151 130.403 149.389L111.938 160.055C111.255 160.445 110.704 160.131 110.704 159.343V157.738C110.728 157.31 110.852 156.893 111.066 156.522C111.281 156.151 111.579 155.835 111.938 155.601Z" fill="#C6CCC7"/>
<path d="M106.848 159.96V161.565C106.825 161.994 106.701 162.411 106.487 162.782C106.272 163.154 105.973 163.469 105.613 163.703L104.226 164.51C103.542 164.899 102.991 164.586 102.991 163.798V162.192C103.014 161.764 103.137 161.347 103.352 160.975C103.566 160.604 103.866 160.289 104.226 160.055L105.613 159.248C106.297 158.83 106.848 159.172 106.848 159.96Z" fill="#4BBF86"/>
<path d="M111.938 164.472L130.403 153.806C131.077 153.416 131.628 153.73 131.628 154.518V156.123C131.606 156.551 131.484 156.967 131.271 157.338C131.058 157.709 130.761 158.025 130.403 158.26L111.938 168.927C111.255 169.326 110.704 169.003 110.704 168.224V166.609C110.73 166.182 110.855 165.766 111.069 165.395C111.283 165.024 111.581 164.708 111.938 164.472Z" fill="#C6CCC7"/>
<path d="M106.848 168.841V170.447C106.825 170.875 106.701 171.292 106.487 171.663C106.272 172.035 105.973 172.35 105.613 172.584L104.226 173.391C103.542 173.78 102.991 173.457 102.991 172.679V171.064C103.016 170.636 103.14 170.22 103.355 169.849C103.569 169.478 103.868 169.162 104.226 168.927L105.613 168.129C106.297 167.74 106.848 168.053 106.848 168.841Z" fill="#4BBF86"/>
<path d="M111.938 193.916L130.403 183.24C131.077 182.851 131.628 183.164 131.628 183.953V185.558C131.606 185.985 131.484 186.401 131.271 186.773C131.058 187.144 130.761 187.46 130.403 187.695L111.938 198.371C111.255 198.76 110.704 198.447 110.704 197.659V196.053C110.728 195.625 110.852 195.209 111.066 194.838C111.281 194.466 111.579 194.151 111.938 193.916Z" fill="#C6CCC7"/>
<path d="M106.848 198.277V199.882C106.825 200.31 106.701 200.727 106.487 201.099C106.272 201.47 105.973 201.786 105.613 202.019L104.226 202.827C103.542 203.216 102.991 202.903 102.991 202.114V200.509C103.014 200.081 103.137 199.664 103.352 199.292C103.566 198.921 103.866 198.605 104.226 198.372L105.613 197.564C106.297 197.175 106.848 197.489 106.848 198.277Z" fill="#4BBF86"/>
<path d="M111.938 201.772L130.403 191.124C131.077 190.735 131.628 191.048 131.628 191.836V193.442C131.606 193.869 131.484 194.285 131.271 194.656C131.058 195.028 130.761 195.344 130.403 195.579L111.938 206.226C111.255 206.625 110.704 206.302 110.704 205.514V203.909C110.73 203.481 110.855 203.066 111.069 202.695C111.283 202.324 111.581 202.008 111.938 201.772Z" fill="#C6CCC7"/>
<path d="M106.848 206.141V207.746C106.825 208.174 106.701 208.591 106.487 208.963C106.272 209.334 105.973 209.65 105.613 209.883L104.226 210.681C103.542 211.08 102.991 210.757 102.991 209.968V208.363C103.016 207.935 103.14 207.519 103.355 207.148C103.569 206.777 103.868 206.461 104.226 206.226L105.613 205.428C106.297 205.039 106.848 205.371 106.848 206.141Z" fill="#4BBF86"/>
<path d="M111.938 209.637L130.403 198.97C131.077 198.571 131.628 198.894 131.628 199.682V201.288C131.605 201.715 131.482 202.13 131.269 202.501C131.056 202.872 130.76 203.189 130.403 203.425L111.938 214.091C111.255 214.49 110.704 214.167 110.704 213.379V211.774C110.729 211.346 110.854 210.93 111.068 210.559C111.283 210.188 111.581 209.872 111.938 209.637Z" fill="#C6CCC7"/>
<path d="M106.848 214.006V215.611C106.824 216.039 106.7 216.456 106.486 216.827C106.271 217.198 105.972 217.514 105.613 217.748L104.226 218.546C103.542 218.945 102.991 218.622 102.991 217.833V216.228C103.014 215.8 103.138 215.383 103.353 215.012C103.567 214.641 103.867 214.325 104.226 214.091L105.613 213.293C106.297 212.894 106.848 213.217 106.848 214.006Z" fill="#4BBF86"/>
<path d="M110.704 174.17V176.934L113.107 174.17H110.704Z" fill="#4BBF86"/>
<path d="M114.57 173.59C114.57 174.113 114.931 174.312 115.386 174.046L130.812 165.175C131.05 165.018 131.249 164.808 131.391 164.56C131.532 164.312 131.614 164.035 131.629 163.75C131.629 163.227 131.268 163.019 130.812 163.284L115.386 172.184C115.149 172.338 114.952 172.545 114.81 172.789C114.668 173.034 114.586 173.308 114.57 173.59Z" fill="#C6CCC7"/>
<path d="M110.704 178.615V181.389L113.107 178.615H110.704Z" fill="#4BBF86"/>
<path d="M114.57 178.045C114.57 178.558 114.931 178.767 115.386 178.501L130.812 169.62C131.051 169.466 131.249 169.258 131.391 169.012C131.534 168.765 131.615 168.489 131.629 168.205C131.629 167.683 131.268 167.474 130.812 167.74L115.386 176.639C115.149 176.793 114.952 177 114.81 177.245C114.668 177.489 114.586 177.763 114.57 178.045Z" fill="#C6CCC7"/>
<path d="M110.704 183.069V185.843L113.107 183.069H110.704Z" fill="#4BBF86"/>
<path d="M114.57 182.499C114.57 183.012 114.931 183.221 115.386 182.955L130.812 174.074C131.051 173.92 131.249 173.712 131.391 173.466C131.534 173.219 131.615 172.943 131.629 172.659C131.629 172.137 131.268 171.928 130.812 172.194L115.386 181.094C115.149 181.247 114.952 181.454 114.81 181.699C114.668 181.943 114.586 182.217 114.57 182.499Z" fill="#C6CCC7"/>
<path d="M110.704 187.524V190.298L113.107 187.524H110.704Z" fill="#4BBF86"/>
<path d="M114.57 186.954C114.57 187.467 114.931 187.676 115.386 187.41L130.812 178.529C131.051 178.376 131.249 178.167 131.391 177.921C131.534 177.675 131.615 177.398 131.629 177.114C131.629 176.592 131.268 176.383 130.812 176.649L115.386 185.549C115.149 185.702 114.952 185.909 114.81 186.154C114.668 186.398 114.586 186.672 114.57 186.954Z" fill="#C6CCC7"/>
<path d="M149.286 128.236V151.45C149.286 152.4 149.97 152.818 150.815 152.333L176.337 137.592C176.782 137.304 177.153 136.915 177.419 136.456C177.685 135.997 177.838 135.481 177.866 134.951V115.869C177.866 114.92 177.182 114.502 176.337 114.986L161.529 123.535C160.684 124.019 160 123.63 160 122.661V122.053C160 121.103 159.325 120.685 158.48 121.169L150.815 125.586C150.37 125.877 149.999 126.268 149.733 126.728C149.468 127.189 149.314 127.705 149.286 128.236Z" fill="#4BBF86"/>
<path d="M154.31 155.828V157.32C154.31 158.042 154.823 158.336 155.45 157.975L174.599 146.919C174.931 146.703 175.207 146.411 175.405 146.068C175.603 145.724 175.717 145.339 175.738 144.943V143.452C175.738 142.73 175.226 142.436 174.599 142.797L155.45 153.853C155.118 154.069 154.842 154.361 154.644 154.704C154.446 155.047 154.331 155.433 154.31 155.828Z" fill="#C6CCC7"/>
<path d="M184.8 107.862V131.076C184.8 132.026 185.484 132.434 186.32 131.95L211.841 117.218C212.285 116.928 212.655 116.538 212.921 116.08C213.186 115.621 213.341 115.106 213.371 114.577V95.4856C213.371 94.5358 212.687 94.1179 211.841 94.6023L197.034 103.151C196.188 103.635 195.514 103.236 195.514 102.267V101.66C195.514 100.71 194.83 100.301 193.985 100.786L186.32 105.212C185.876 105.503 185.506 105.894 185.242 106.355C184.978 106.815 184.827 107.332 184.8 107.862Z" fill="#4BBF86"/>
<path d="M189.796 135.454V136.983C189.796 137.715 190.309 138.009 190.936 137.648L210.084 126.535C210.416 126.316 210.692 126.023 210.89 125.678C211.088 125.333 211.202 124.947 211.224 124.55V123.068C211.224 122.337 210.711 122.043 210.084 122.413L190.936 133.469C190.604 133.688 190.328 133.982 190.13 134.326C189.932 134.671 189.818 135.057 189.796 135.454Z" fill="#C6CCC7"/>
<path d="M149.286 174.873V198.087C149.286 199.037 149.97 199.455 150.815 198.97L176.337 184.229C176.776 183.944 177.143 183.56 177.409 183.108C177.674 182.656 177.831 182.149 177.866 181.626V162.535C177.866 161.585 177.182 161.176 176.337 161.661L161.529 170.209C160.684 170.694 160 170.304 160 169.335V168.728C160 167.778 159.325 167.36 158.48 167.844L150.815 172.27C150.375 172.556 150.008 172.939 149.743 173.391C149.477 173.843 149.321 174.35 149.286 174.873Z" fill="#4BBF86"/>
<path d="M154.31 202.465V203.956C154.31 204.678 154.823 204.973 155.45 204.612L174.599 193.556C174.93 193.338 175.205 193.046 175.403 192.703C175.601 192.36 175.716 191.976 175.738 191.58V190.089C175.738 189.367 175.226 189.073 174.599 189.434L155.45 200.49C155.118 200.706 154.842 200.998 154.644 201.341C154.446 201.684 154.331 202.069 154.31 202.465Z" fill="#C6CCC7"/>
<path d="M184.8 154.489V177.703C184.8 178.653 185.484 179.071 186.32 178.586L211.841 163.845C212.286 163.558 212.656 163.17 212.922 162.713C213.187 162.256 213.341 161.742 213.371 161.214V142.122C213.371 141.173 212.687 140.755 211.841 141.239L197.034 149.787C196.188 150.272 195.514 149.873 195.514 148.904V148.296C195.514 147.346 194.83 146.928 193.985 147.422L186.32 151.849C185.876 152.138 185.508 152.528 185.243 152.987C184.979 153.446 184.827 153.96 184.8 154.489Z" fill="#4BBF86"/>
<path d="M189.796 182.092V183.573C189.796 184.305 190.309 184.599 190.936 184.229L210.084 173.182C210.416 172.963 210.692 172.67 210.89 172.325C211.088 171.98 211.202 171.594 211.224 171.197V169.715C211.224 168.984 210.711 168.69 210.084 169.05L190.936 180.106C190.604 180.325 190.328 180.619 190.13 180.964C189.932 181.308 189.818 181.695 189.796 182.092Z" fill="#C6CCC7"/>
<path d="M220.684 86.3582V109.572C220.684 110.522 221.368 110.94 222.204 110.455L247.735 95.7141C248.178 95.4241 248.547 95.034 248.811 94.5752C249.075 94.1165 249.227 93.6021 249.255 93.0735V73.9915C249.255 73.0417 248.571 72.6237 247.735 73.1081L232.918 81.6566C232.082 82.1505 231.398 81.7516 231.398 80.7828V80.1749C231.398 79.225 230.715 78.8071 229.869 79.2915L222.204 83.7272C221.762 84.0157 221.394 84.4042 221.13 84.8613C220.866 85.3184 220.713 85.8312 220.684 86.3582Z" fill="#4BBF86"/>
<path d="M225.281 115.071V116.563C225.281 117.284 225.794 117.579 226.431 117.218L245.589 106.162C245.923 105.947 246.202 105.656 246.402 105.313C246.601 104.969 246.717 104.583 246.738 104.186V102.705C246.738 101.973 246.225 101.679 245.589 102.04L226.45 113.096C226.112 113.308 225.83 113.598 225.626 113.942C225.423 114.286 225.305 114.673 225.281 115.071Z" fill="#C6CCC7"/>
<path d="M255.752 67.105V90.3189C255.752 91.2687 256.436 91.6771 257.281 91.1927L282.803 76.4609C283.246 76.1709 283.614 75.7808 283.878 75.322C284.142 74.8633 284.294 74.3489 284.323 73.8203V54.7288C284.323 53.779 283.648 53.361 282.803 53.8454L267.995 62.3939C267.15 62.8783 266.466 62.4794 266.466 61.5106V60.9027C266.466 59.9528 265.792 59.5444 264.946 60.0288L257.281 64.455C256.834 64.7437 256.463 65.1347 256.197 65.5954C255.931 66.0562 255.778 66.5737 255.752 67.105Z" fill="#4BBF86"/>
<path d="M260.786 94.6975V96.1413C260.786 96.8726 261.29 97.1671 261.926 96.8061L281.074 85.7501C281.405 85.5322 281.68 85.2401 281.878 84.8971C282.076 84.5542 282.191 84.1698 282.214 83.7745V82.2833C282.214 81.5519 281.701 81.2574 281.074 81.6279L261.926 92.6744C261.588 92.8959 261.308 93.1952 261.11 93.5472C260.912 93.8993 260.801 94.2937 260.786 94.6975Z" fill="#C6CCC7"/>
<path d="M225.281 161.68V163.171C225.281 163.893 225.794 164.187 226.431 163.826L245.589 152.78C245.923 152.565 246.202 152.274 246.402 151.931C246.601 151.587 246.717 151.201 246.738 150.804V149.332C246.738 148.61 246.225 148.316 245.589 148.677L226.45 159.733C226.116 159.942 225.836 160.228 225.633 160.566C225.43 160.905 225.309 161.286 225.281 161.68Z" fill="#C6CCC7"/>
<path d="M225.766 129.062L245.589 117.598C246.491 117.076 247.232 117.503 247.232 118.548V141.477C247.201 142.047 247.036 142.603 246.751 143.098C246.466 143.593 246.067 144.014 245.589 144.326L225.766 155.791C224.816 156.313 224.123 155.895 224.123 154.841V131.912C224.154 131.341 224.32 130.786 224.605 130.291C224.89 129.796 225.288 129.375 225.766 129.062Z" fill="#F7FAF8"/>
<path d="M225.025 156.494C224.792 156.496 224.563 156.437 224.36 156.323C224.12 156.162 223.927 155.94 223.801 155.679C223.676 155.419 223.623 155.129 223.648 154.841V131.912C223.681 131.257 223.871 130.619 224.201 130.052C224.532 129.485 224.993 129.006 225.547 128.654L245.408 117.19C245.645 117.025 245.922 116.927 246.21 116.907C246.497 116.887 246.785 116.945 247.042 117.076C247.282 117.235 247.476 117.455 247.602 117.714C247.729 117.973 247.785 118.261 247.764 118.548V141.477C247.731 142.132 247.541 142.77 247.211 143.337C246.88 143.904 246.418 144.383 245.864 144.735L226.003 156.209C225.708 156.387 225.37 156.485 225.025 156.494ZM246.358 117.855C246.182 117.861 246.011 117.917 245.864 118.016L226.003 129.481C225.596 129.749 225.257 130.108 225.013 130.53C224.769 130.952 224.627 131.425 224.598 131.912V154.841C224.598 155.173 224.683 155.411 224.835 155.496C224.951 155.535 225.075 155.544 225.196 155.524C225.316 155.504 225.431 155.456 225.528 155.382L245.389 143.918C245.795 143.646 246.133 143.285 246.377 142.861C246.621 142.438 246.764 141.964 246.795 141.477V118.548C246.81 118.427 246.795 118.304 246.752 118.19C246.709 118.076 246.639 117.974 246.548 117.893C246.489 117.865 246.424 117.851 246.358 117.855Z" fill="#DFE5E0"/>
<path d="M247.963 120.695L243.537 123.25C243.057 123.561 242.657 123.982 242.37 124.477C242.083 124.972 241.916 125.528 241.885 126.099V131.209C241.885 132.264 242.625 132.691 243.537 132.159L247.963 129.604C248.442 129.292 248.84 128.871 249.125 128.376C249.411 127.881 249.576 127.325 249.607 126.755V121.644C249.607 120.6 248.866 120.172 247.963 120.695Z" fill="#4BBF86"/>
<path d="M227.276 131.542L237.23 125.843C237.677 125.586 238.047 125.795 238.047 126.327V126.64C238.03 126.925 237.948 127.202 237.806 127.449C237.664 127.696 237.467 127.907 237.23 128.065L227.276 133.764C226.82 134.03 226.45 133.821 226.459 133.289V132.966C226.474 132.681 226.555 132.404 226.697 132.156C226.839 131.909 227.037 131.698 227.276 131.542Z" fill="#DFE5E0"/>
<path d="M227.276 136.034L237.23 130.335C237.677 130.069 238.047 130.288 238.047 130.81V131.124C238.033 131.409 237.951 131.686 237.809 131.934C237.667 132.181 237.469 132.392 237.23 132.548L227.276 138.247C226.82 138.513 226.45 138.247 226.459 137.772V137.44C226.477 137.158 226.56 136.884 226.701 136.64C226.843 136.396 227.04 136.189 227.276 136.034Z" fill="#DFE5E0"/>
<path d="M227.276 140.441L237.23 134.742C237.677 134.486 238.047 134.695 238.047 135.217V135.54C238.03 135.825 237.948 136.101 237.806 136.348C237.664 136.596 237.467 136.807 237.23 136.965L227.276 142.664C226.82 142.93 226.45 142.721 226.459 142.189V141.866C226.473 141.581 226.554 141.303 226.696 141.055C226.838 140.808 227.037 140.597 227.276 140.441Z" fill="#DFE5E0"/>
<path d="M227.276 144.887L243.803 135.388C244.259 135.132 244.629 135.388 244.629 135.863V136.186C244.613 136.472 244.53 136.75 244.386 136.997C244.243 137.245 244.043 137.455 243.803 137.611L227.276 147.109C226.82 147.366 226.45 147.157 226.459 146.634V146.302C226.475 146.019 226.557 145.743 226.699 145.497C226.841 145.251 227.039 145.042 227.276 144.887Z" fill="#DFE5E0"/>
<path d="M227.276 149.331L243.803 139.833C244.259 139.567 244.629 139.833 244.629 140.308V140.621C244.614 140.907 244.531 141.185 244.387 141.433C244.244 141.681 244.043 141.891 243.803 142.046L227.276 151.544C226.82 151.81 226.45 151.592 226.459 151.069V150.747C226.473 150.463 226.554 150.186 226.696 149.94C226.838 149.694 227.037 149.485 227.276 149.331Z" fill="#DFE5E0"/>
<path d="M260.007 141.647V143.129C260.007 143.86 260.52 144.155 261.147 143.794L280.296 132.738C280.629 132.52 280.905 132.227 281.103 131.882C281.301 131.537 281.415 131.15 281.435 130.753V129.271C281.435 128.54 280.932 128.245 280.296 128.606L261.147 139.662C260.815 139.881 260.539 140.175 260.342 140.519C260.144 140.864 260.029 141.25 260.007 141.647Z" fill="#C6CCC7"/>
<path d="M260.492 109.021L280.343 97.557C281.293 97.0251 281.996 97.4525 281.996 98.5068V121.436C281.962 122.007 281.795 122.562 281.508 123.057C281.221 123.552 280.822 123.973 280.343 124.285L260.492 135.75C259.542 136.272 258.839 135.845 258.839 134.8V111.871C258.87 111.299 259.036 110.743 259.323 110.248C259.61 109.753 260.011 109.332 260.492 109.021Z" fill="#F7FAF8"/>
<path d="M259.751 136.442C259.518 136.444 259.289 136.385 259.086 136.271C258.846 136.112 258.652 135.892 258.525 135.633C258.399 135.374 258.343 135.086 258.364 134.799V111.87C258.396 111.213 258.585 110.573 258.915 110.005C259.246 109.436 259.708 108.955 260.264 108.603L280.115 97.1383C280.346 96.9571 280.627 96.8494 280.92 96.8288C281.213 96.8082 281.505 96.8759 281.76 97.023C282.014 97.1701 282.219 97.3899 282.347 97.6542C282.475 97.9185 282.522 98.2152 282.48 98.5061V121.435C282.448 122.09 282.258 122.729 281.928 123.296C281.597 123.863 281.135 124.342 280.58 124.693L260.729 136.157C260.433 136.336 260.096 136.434 259.751 136.442ZM260.701 109.429C260.291 109.698 259.95 110.059 259.705 110.482C259.459 110.906 259.315 111.381 259.285 111.87V134.799C259.271 134.92 259.286 135.043 259.329 135.157C259.372 135.271 259.442 135.373 259.532 135.454C259.649 135.493 259.773 135.502 259.895 135.48C260.016 135.459 260.129 135.407 260.226 135.331L280.077 123.866C280.486 123.599 280.826 123.24 281.072 122.818C281.317 122.396 281.461 121.922 281.492 121.435V98.5061C281.544 98.3821 281.548 98.2435 281.505 98.1165C281.461 97.9894 281.373 97.8826 281.256 97.8161C281.14 97.7496 281.003 97.728 280.871 97.7554C280.74 97.7827 280.623 97.8571 280.542 97.9647L260.701 109.429Z" fill="#DFE5E0"/>
<path d="M282.68 100.653L278.254 103.208C277.775 103.52 277.377 103.941 277.091 104.436C276.806 104.931 276.641 105.487 276.61 106.057V111.167C276.61 112.212 277.351 112.64 278.254 112.117L282.68 109.562C283.159 109.249 283.558 108.829 283.845 108.334C284.132 107.839 284.299 107.284 284.332 106.713V101.602C284.332 100.548 283.582 100.121 282.68 100.653Z" fill="#4BBF86"/>
<path d="M262.002 111.491L271.947 105.792C272.403 105.526 272.773 105.792 272.773 106.267V106.59C272.759 106.876 272.677 107.155 272.533 107.403C272.389 107.65 272.188 107.86 271.947 108.015L262.002 113.714C261.546 113.979 261.176 113.761 261.176 113.239V112.906C261.193 112.622 261.277 112.346 261.421 112.101C261.564 111.855 261.763 111.646 262.002 111.491Z" fill="#DFE5E0"/>
<path d="M262.002 115.945L271.947 110.246C272.403 109.989 272.773 110.246 272.773 110.721V111.044C272.757 111.329 272.673 111.607 272.53 111.855C272.386 112.102 272.186 112.312 271.947 112.468L262.002 118.167C261.546 118.433 261.176 118.224 261.176 117.693V117.37C261.191 117.084 261.274 116.806 261.418 116.558C261.561 116.31 261.762 116.1 262.002 115.945Z" fill="#DFE5E0"/>
<path d="M262.002 120.39L271.947 114.691C272.403 114.425 272.773 114.691 272.773 115.166V115.48C272.757 115.766 272.674 116.044 272.531 116.291C272.387 116.539 272.187 116.749 271.947 116.904L262.002 122.603C261.546 122.86 261.176 122.651 261.176 122.129V121.787C261.196 121.506 261.282 121.234 261.425 120.992C261.568 120.749 261.766 120.544 262.002 120.39Z" fill="#DFE5E0"/>
<path d="M262.002 124.845L278.529 115.347C278.985 115.081 279.355 115.299 279.355 115.822V116.088C279.339 116.373 279.256 116.651 279.112 116.899C278.969 117.146 278.769 117.357 278.529 117.513L262.002 127.011C261.546 127.277 261.176 127.058 261.176 126.536V126.213C261.198 125.937 261.285 125.669 261.428 125.432C261.571 125.195 261.768 124.994 262.002 124.845Z" fill="#DFE5E0"/>
<path d="M262.002 129.29L278.529 119.792C278.985 119.536 279.355 119.745 279.355 120.267V120.59C279.339 120.876 279.256 121.153 279.112 121.401C278.969 121.648 278.769 121.859 278.529 122.015L262.002 131.513C261.546 131.769 261.176 131.56 261.176 131.038V130.706C261.193 130.422 261.277 130.146 261.421 129.9C261.564 129.654 261.763 129.445 262.002 129.29Z" fill="#DFE5E0"/>
<path d="M225.281 209.009V210.5C225.281 211.222 225.794 211.517 226.431 211.156L245.589 200.1C245.923 199.885 246.202 199.594 246.402 199.25C246.601 198.907 246.717 198.521 246.738 198.124V196.633C246.738 195.911 246.225 195.617 245.589 195.977L226.45 207.033C226.112 207.246 225.83 207.536 225.626 207.88C225.423 208.223 225.305 208.611 225.281 209.009Z" fill="#C6CCC7"/>
<path d="M225.766 176.383L245.589 164.918C246.491 164.396 247.232 164.823 247.232 165.868V188.797C247.2 189.367 247.034 189.922 246.749 190.417C246.464 190.912 246.066 191.333 245.589 191.646L225.728 203.111C224.778 203.633 224.085 203.215 224.085 202.161V179.232C224.119 178.658 224.289 178.1 224.582 177.605C224.874 177.109 225.28 176.69 225.766 176.383Z" fill="#F7FAF8"/>
<path d="M225.025 203.814C224.792 203.816 224.563 203.757 224.36 203.643C224.121 203.481 223.929 203.259 223.804 202.999C223.679 202.738 223.625 202.449 223.648 202.162V179.233C223.681 178.577 223.871 177.939 224.201 177.373C224.532 176.806 224.993 176.326 225.547 175.975L245.389 164.529C245.62 164.352 245.898 164.248 246.189 164.229C246.479 164.21 246.768 164.277 247.02 164.422C247.272 164.568 247.476 164.784 247.605 165.045C247.734 165.306 247.782 165.599 247.745 165.888V188.816C247.712 189.472 247.522 190.11 247.191 190.677C246.861 191.243 246.399 191.723 245.845 192.074L225.984 203.539C225.693 203.71 225.363 203.805 225.025 203.814ZM246.358 165.166C246.182 165.177 246.012 165.232 245.864 165.327L226.003 176.801C225.595 177.069 225.256 177.428 225.012 177.85C224.768 178.272 224.626 178.746 224.598 179.233V202.162C224.546 202.286 224.542 202.424 224.585 202.551C224.628 202.678 224.717 202.785 224.833 202.852C224.95 202.918 225.087 202.94 225.218 202.912C225.35 202.885 225.467 202.81 225.547 202.703L245.408 191.239C245.814 190.967 246.152 190.605 246.396 190.182C246.64 189.759 246.783 189.285 246.814 188.797V165.869C246.828 165.748 246.814 165.625 246.771 165.511C246.728 165.397 246.658 165.295 246.567 165.213C246.503 165.179 246.431 165.162 246.358 165.166Z" fill="#DFE5E0"/>
<path d="M247.963 168.015L243.537 170.57C243.057 170.881 242.657 171.302 242.37 171.797C242.083 172.292 241.916 172.848 241.885 173.419V178.53C241.885 179.584 242.625 180.002 243.537 179.479L247.963 176.924C248.442 176.612 248.84 176.191 249.125 175.696C249.411 175.201 249.576 174.646 249.607 174.075V168.965C249.607 167.92 248.866 167.493 247.963 168.015Z" fill="#4BBF86"/>
<path d="M227.276 178.862L237.23 173.163C237.677 172.907 238.047 173.116 238.047 173.638V173.961C238.03 174.245 237.948 174.522 237.806 174.769C237.664 175.017 237.467 175.228 237.23 175.386L227.276 181.085C226.82 181.351 226.45 181.142 226.459 180.61V180.287C226.473 180.002 226.554 179.724 226.696 179.476C226.838 179.228 227.037 179.018 227.276 178.862Z" fill="#DFE5E0"/>
<path d="M227.276 183.307L237.23 177.608C237.677 177.342 238.047 177.56 238.047 178.083V178.396C238.032 178.681 237.95 178.958 237.808 179.206C237.666 179.453 237.468 179.664 237.23 179.821L227.276 185.52C226.82 185.776 226.45 185.567 226.459 185.045V184.712C226.477 184.431 226.56 184.157 226.701 183.913C226.843 183.669 227.04 183.461 227.276 183.307Z" fill="#DFE5E0"/>
<path d="M227.276 187.761L237.23 182.063C237.677 181.806 238.047 182.015 238.047 182.537V182.86C238.03 183.145 237.948 183.422 237.806 183.669C237.664 183.916 237.467 184.127 237.23 184.285L227.276 189.984C226.82 190.25 226.45 190.032 226.459 189.509V189.224C226.465 188.932 226.543 188.646 226.685 188.391C226.828 188.136 227.031 187.92 227.276 187.761Z" fill="#DFE5E0"/>
<path d="M227.276 192.207L243.803 182.709C244.259 182.453 244.629 182.662 244.629 183.184V183.526C244.613 183.812 244.53 184.089 244.386 184.337C244.243 184.584 244.043 184.795 243.803 184.951L227.276 194.449C226.82 194.705 226.45 194.496 226.459 193.974V193.642C226.472 193.355 226.553 193.075 226.695 192.826C226.837 192.577 227.036 192.365 227.276 192.207Z" fill="#DFE5E0"/>
<path d="M227.276 196.661L243.803 187.163C244.259 186.897 244.629 187.106 244.629 187.638V187.952C244.613 188.237 244.53 188.515 244.386 188.762C244.243 189.01 244.043 189.22 243.803 189.376L227.276 198.875C226.82 199.14 226.45 198.922 226.459 198.4V198.077C226.473 197.793 226.554 197.516 226.696 197.27C226.838 197.024 227.037 196.815 227.276 196.661Z" fill="#DFE5E0"/>
<path d="M260.007 188.958V190.449C260.007 191.181 260.52 191.475 261.147 191.105L280.296 180.058C280.629 179.84 280.905 179.547 281.103 179.202C281.301 178.857 281.415 178.47 281.435 178.073V176.591C281.435 175.86 280.932 175.566 280.296 175.926L261.147 186.982C260.817 187.2 260.541 187.493 260.344 187.835C260.146 188.178 260.031 188.563 260.007 188.958Z" fill="#C6CCC7"/>
<path d="M260.492 156.342L280.343 144.877C281.293 144.345 281.996 144.773 281.996 145.827V168.746C281.965 169.318 281.799 169.874 281.511 170.37C281.224 170.865 280.824 171.285 280.343 171.596L260.492 183.07C259.542 183.592 258.839 183.165 258.839 182.12V159.191C258.87 158.62 259.036 158.063 259.323 157.568C259.61 157.073 260.011 156.653 260.492 156.342Z" fill="#F7FAF8"/>
<path d="M259.751 183.763C259.518 183.765 259.289 183.706 259.086 183.592C258.846 183.432 258.652 183.212 258.525 182.953C258.399 182.695 258.343 182.407 258.364 182.119V159.19C258.395 158.533 258.583 157.893 258.914 157.324C259.245 156.756 259.708 156.275 260.264 155.923L280.115 144.459C280.346 144.277 280.627 144.17 280.92 144.149C281.213 144.129 281.505 144.196 281.76 144.343C282.014 144.49 282.219 144.71 282.347 144.975C282.475 145.239 282.522 145.536 282.48 145.826V168.746C282.449 169.403 282.261 170.043 281.93 170.612C281.599 171.181 281.136 171.661 280.58 172.013L260.729 183.525C260.429 183.687 260.092 183.769 259.751 183.763ZM260.701 156.749C260.291 157.018 259.95 157.379 259.705 157.803C259.459 158.227 259.315 158.702 259.285 159.19V182.119C259.269 182.239 259.283 182.361 259.326 182.474C259.37 182.587 259.44 182.687 259.532 182.765C259.648 182.806 259.772 182.817 259.894 182.797C260.015 182.777 260.129 182.727 260.226 182.651L280.106 171.177C280.515 170.908 280.856 170.548 281.101 170.124C281.347 169.7 281.491 169.225 281.521 168.736V145.826C281.572 145.702 281.577 145.564 281.533 145.437C281.49 145.31 281.401 145.203 281.285 145.136C281.168 145.07 281.031 145.048 280.9 145.076C280.768 145.103 280.651 145.177 280.571 145.285L260.701 156.749Z" fill="#DFE5E0"/>
<path d="M282.68 147.973L278.254 150.528C277.775 150.841 277.377 151.262 277.091 151.757C276.806 152.252 276.641 152.807 276.61 153.378V158.488C276.61 159.533 277.351 159.96 278.254 159.438L282.68 156.883C283.159 156.57 283.558 156.149 283.845 155.655C284.132 155.16 284.299 154.604 284.332 154.033V148.923C284.332 147.869 283.582 147.432 282.68 147.973Z" fill="#4BBF86"/>
<path d="M262.002 158.83L271.947 153.131C272.403 152.865 272.773 153.084 272.773 153.606V153.919C272.757 154.205 272.674 154.483 272.531 154.731C272.387 154.979 272.187 155.189 271.947 155.344L262.002 161.043C261.546 161.3 261.176 161.043 261.176 160.568V160.236C261.195 159.953 261.279 159.679 261.423 159.435C261.566 159.191 261.765 158.984 262.002 158.83Z" fill="#DFE5E0"/>
<path d="M262.002 163.266L271.947 157.567C272.403 157.311 272.773 157.567 272.773 158.042V158.365C272.757 158.651 272.673 158.929 272.53 159.176C272.386 159.424 272.186 159.634 271.947 159.79L262.002 165.489C261.546 165.755 261.176 165.536 261.176 165.014V164.691C261.19 164.405 261.272 164.126 261.416 163.878C261.559 163.63 261.76 163.42 262.002 163.266Z" fill="#DFE5E0"/>
<path d="M262.002 167.711L271.947 162.012C272.403 161.746 272.773 161.955 272.773 162.487V162.8C272.757 163.086 272.673 163.364 272.53 163.611C272.386 163.859 272.186 164.069 271.947 164.225L262.002 169.924C261.546 170.18 261.176 169.971 261.176 169.449V169.116C261.195 168.834 261.279 168.56 261.423 168.316C261.566 168.072 261.765 167.865 262.002 167.711Z" fill="#DFE5E0"/>
<path d="M262.002 172.127L278.529 162.629C278.985 162.363 279.355 162.572 279.355 163.104V163.417C279.339 163.703 279.256 163.981 279.112 164.228C278.969 164.476 278.769 164.686 278.529 164.842L262.002 174.34C261.546 174.606 261.176 174.388 261.176 173.865V173.542C261.191 173.258 261.274 172.981 261.418 172.735C261.561 172.489 261.762 172.281 262.002 172.127Z" fill="#DFE5E0"/>
<path d="M262.002 176.611L278.529 167.113C278.985 166.847 279.355 167.065 279.355 167.588V167.901C279.341 168.187 279.259 168.466 279.115 168.714C278.971 168.962 278.77 169.171 278.529 169.326L262.002 178.824C261.546 179.08 261.176 178.871 261.176 178.349V178.017C261.195 177.734 261.279 177.46 261.423 177.216C261.566 176.972 261.765 176.765 262.002 176.611Z" fill="#DFE5E0"/>
<path d="M154.31 250.014V251.496C154.31 252.227 154.823 252.521 155.46 252.16L174.599 241.104C174.933 240.889 175.211 240.598 175.41 240.255C175.61 239.911 175.726 239.525 175.748 239.129V237.666C175.748 236.935 175.235 236.64 174.599 237.011L155.46 248.057C155.129 248.272 154.853 248.56 154.654 248.9C154.454 249.239 154.337 249.621 154.31 250.014Z" fill="#C6CCC7"/>
<path d="M154.795 217.387L174.656 205.923C175.606 205.401 176.299 205.818 176.299 206.873V229.802C176.266 230.372 176.1 230.926 175.815 231.421C175.53 231.916 175.133 232.337 174.656 232.651L154.795 244.116C153.845 244.638 153.152 244.211 153.152 243.166V220.237C153.181 219.666 153.345 219.11 153.631 218.615C153.916 218.119 154.315 217.699 154.795 217.387Z" fill="#F7FAF8"/>
<path d="M154.054 244.809C153.821 244.811 153.592 244.752 153.389 244.638C153.15 244.478 152.958 244.257 152.833 243.999C152.707 243.74 152.654 243.452 152.677 243.166V220.237C152.71 219.581 152.899 218.943 153.23 218.377C153.561 217.81 154.022 217.33 154.576 216.979L174.437 205.514C174.667 205.332 174.946 205.224 175.238 205.202C175.53 205.181 175.822 205.247 176.076 205.394C176.33 205.54 176.534 205.759 176.662 206.023C176.789 206.287 176.835 206.583 176.793 206.873V229.801C176.76 230.457 176.57 231.095 176.239 231.662C175.909 232.228 175.447 232.708 174.893 233.059L155.032 244.524C154.736 244.702 154.399 244.801 154.054 244.809ZM155.032 217.796C154.625 218.066 154.286 218.427 154.042 218.85C153.798 219.274 153.655 219.749 153.626 220.237V243.166C153.575 243.29 153.57 243.428 153.614 243.555C153.657 243.682 153.746 243.789 153.862 243.856C153.979 243.922 154.116 243.944 154.247 243.916C154.379 243.889 154.496 243.814 154.576 243.707L174.437 232.233C174.843 231.963 175.181 231.604 175.425 231.182C175.669 230.76 175.812 230.288 175.843 229.801V206.873C175.894 206.749 175.899 206.61 175.855 206.483C175.812 206.356 175.724 206.249 175.607 206.183C175.49 206.116 175.353 206.095 175.222 206.122C175.09 206.149 174.974 206.224 174.893 206.331L155.032 217.796Z" fill="#DFE5E0"/>
<path d="M176.992 209.019L172.566 211.574C172.085 211.885 171.685 212.305 171.398 212.8C171.11 213.295 170.944 213.851 170.913 214.423V219.533C170.913 220.578 171.654 221.005 172.566 220.483L176.992 217.928C177.47 217.614 177.867 217.193 178.152 216.698C178.438 216.204 178.603 215.649 178.635 215.079V209.968C178.635 208.914 177.895 208.496 176.992 209.019Z" fill="#4BBF86"/>
<path d="M156.305 219.866L166.259 214.167C166.706 213.901 167.076 214.12 167.076 214.642V214.956C167.061 215.241 166.98 215.518 166.838 215.766C166.696 216.013 166.498 216.224 166.259 216.38L156.305 222.079C155.849 222.345 155.488 222.079 155.488 221.604V221.281C155.502 220.998 155.583 220.721 155.725 220.475C155.867 220.229 156.066 220.02 156.305 219.866Z" fill="#DFE5E0"/>
<path d="M156.305 224.311L166.259 218.612C166.706 218.356 167.076 218.565 167.076 219.097V219.41C167.059 219.694 166.977 219.971 166.835 220.218C166.693 220.466 166.496 220.677 166.259 220.835L156.305 226.534C155.849 226.79 155.488 226.534 155.488 226.059V225.726C155.504 225.443 155.586 225.167 155.728 224.922C155.87 224.676 156.068 224.467 156.305 224.311Z" fill="#DFE5E0"/>
<path d="M156.305 228.766L166.259 223.067C166.706 222.801 167.076 223.019 167.076 223.542V223.855C167.061 224.14 166.98 224.418 166.838 224.665C166.696 224.913 166.498 225.123 166.259 225.28L156.305 231.017C155.849 231.283 155.488 231.017 155.488 230.542V230.209C155.497 229.921 155.576 229.638 155.719 229.387C155.861 229.135 156.062 228.922 156.305 228.766Z" fill="#DFE5E0"/>
<path d="M156.305 233.211L172.832 223.713C173.288 223.447 173.658 223.713 173.658 224.188V224.501C173.644 224.787 173.562 225.066 173.418 225.314C173.274 225.562 173.073 225.772 172.832 225.926L156.305 235.424C155.849 235.69 155.488 235.481 155.488 234.949V234.626C155.504 234.343 155.586 234.067 155.728 233.822C155.87 233.576 156.068 233.367 156.305 233.211Z" fill="#DFE5E0"/>
<path d="M156.305 237.666L172.832 228.168C173.288 227.911 173.658 228.168 173.658 228.643V228.966C173.642 229.251 173.559 229.529 173.415 229.777C173.272 230.024 173.072 230.234 172.832 230.39L156.305 239.889C155.849 240.145 155.488 239.936 155.488 239.414V239.081C155.504 238.798 155.586 238.522 155.728 238.276C155.87 238.031 156.068 237.822 156.305 237.666Z" fill="#DFE5E0"/>
<path d="M189.036 229.963V231.454C189.036 232.176 189.549 232.48 190.176 232.11L209.324 221.054C209.658 220.839 209.936 220.548 210.134 220.204C210.332 219.86 210.446 219.474 210.464 219.078V217.596C210.464 216.865 209.961 216.57 209.324 216.931L190.176 227.987C189.845 228.205 189.569 228.497 189.371 228.84C189.173 229.183 189.059 229.568 189.036 229.963Z" fill="#C6CCC7"/>
<path d="M189.549 197.336L209.4 185.871C210.35 185.349 211.053 185.776 211.053 186.821V209.75C211.022 210.322 210.856 210.878 210.569 211.373C210.281 211.868 209.881 212.289 209.4 212.6L189.549 224.064C188.599 224.596 187.896 224.168 187.896 223.114V200.185C187.93 199.614 188.097 199.059 188.384 198.564C188.671 198.069 189.07 197.648 189.549 197.336Z" fill="#F7FAF8"/>
<path d="M188.78 224.767C188.547 224.769 188.318 224.71 188.115 224.596C187.875 224.435 187.681 224.213 187.555 223.952C187.428 223.692 187.372 223.403 187.393 223.114V200.186C187.427 199.53 187.617 198.893 187.947 198.326C188.278 197.759 188.739 197.28 189.293 196.928L209.134 185.425C209.365 185.245 209.644 185.138 209.936 185.117C210.228 185.096 210.52 185.163 210.774 185.309C211.028 185.455 211.232 185.673 211.362 185.935C211.491 186.198 211.539 186.493 211.5 186.783V209.712C211.469 210.368 211.28 211.007 210.949 211.574C210.619 212.142 210.156 212.62 209.6 212.97L189.748 224.444C189.459 224.634 189.125 224.746 188.78 224.767ZM210.113 186.128C209.933 186.133 209.759 186.189 209.609 186.29L189.758 197.773C189.349 198.041 189.009 198.4 188.763 198.822C188.518 199.244 188.374 199.717 188.343 200.205V223.133C188.326 223.255 188.34 223.378 188.383 223.493C188.426 223.607 188.497 223.709 188.59 223.789C188.706 223.827 188.83 223.837 188.95 223.817C189.071 223.797 189.185 223.748 189.283 223.675L209.134 212.21C209.543 211.941 209.884 211.58 210.129 211.156C210.375 210.733 210.519 210.258 210.55 209.769V186.821C210.564 186.7 210.549 186.578 210.506 186.464C210.463 186.35 210.394 186.248 210.303 186.166C210.243 186.139 210.178 186.126 210.113 186.128Z" fill="#DFE5E0"/>
<path d="M211.709 188.968L207.282 191.523C206.805 191.837 206.409 192.258 206.123 192.753C205.838 193.248 205.672 193.802 205.639 194.373V199.483C205.639 200.537 206.38 200.964 207.282 200.432L211.709 197.877C212.189 197.567 212.59 197.146 212.877 196.651C213.164 196.156 213.33 195.6 213.361 195.028V189.918C213.361 188.873 212.62 188.446 211.709 188.968Z" fill="#4BBF86"/>
<path d="M191.031 199.815L200.975 194.116C201.431 193.86 201.802 194.069 201.802 194.6V194.923C201.785 195.209 201.702 195.487 201.559 195.734C201.415 195.982 201.215 196.192 200.975 196.348L191.031 202.047C190.575 202.304 190.204 202.095 190.204 201.563V201.24C190.221 200.954 190.304 200.676 190.448 200.429C190.591 200.181 190.791 199.971 191.031 199.815Z" fill="#DFE5E0"/>
<path d="M191.031 204.27L200.975 198.571C201.431 198.305 201.802 198.523 201.802 199.046V199.359C201.788 199.645 201.705 199.924 201.562 200.172C201.418 200.42 201.217 200.629 200.975 200.784L191.031 206.483C190.575 206.749 190.204 206.53 190.204 206.008V205.675C190.221 205.392 190.305 205.118 190.449 204.873C190.592 204.629 190.792 204.422 191.031 204.27Z" fill="#DFE5E0"/>
<path d="M191.031 208.715L200.975 203.016C201.431 202.759 201.802 202.968 201.802 203.491V203.814C201.785 204.099 201.702 204.377 201.559 204.624C201.415 204.872 201.215 205.082 200.975 205.238L191.031 210.937C190.575 211.203 190.204 210.994 190.204 210.462V210.12C190.224 209.838 190.308 209.564 190.452 209.32C190.595 209.076 190.793 208.869 191.031 208.715Z" fill="#DFE5E0"/>
<path d="M191.031 213.16L207.558 203.662C208.014 203.406 208.384 203.615 208.384 204.137V204.422C208.368 204.708 208.284 204.985 208.141 205.233C207.997 205.48 207.798 205.691 207.558 205.847L191.031 215.345C190.575 215.601 190.204 215.392 190.204 214.87V214.538C190.228 214.26 190.315 213.992 190.458 213.753C190.601 213.514 190.797 213.312 191.031 213.16Z" fill="#DFE5E0"/>
<path d="M191.031 217.615L207.558 208.116C208.014 207.851 208.384 208.069 208.384 208.591V208.905C208.368 209.191 208.286 209.469 208.142 209.716C207.998 209.964 207.798 210.174 207.558 210.33L191.031 219.828C190.575 220.094 190.204 219.828 190.204 219.353V219.03C190.22 218.745 190.303 218.469 190.447 218.223C190.59 217.976 190.791 217.768 191.031 217.615Z" fill="#DFE5E0"/>
<path d="M99.1349 127.401L95.2786 125.149V142.978L99.1349 145.21V127.401Z" fill="#4BBF86"/>
<path opacity="0.1" d="M99.1349 127.401L95.2786 125.149V142.978L99.1349 145.21V127.401Z" fill="black"/>
<path d="M327.018 201.069C326.578 200.87 326.094 200.789 325.614 200.836C325.134 200.883 324.675 201.055 324.282 201.335C323.161 202.063 322.227 203.044 321.554 204.198C320.881 205.353 320.488 206.649 320.407 207.984C320.356 208.463 320.433 208.948 320.63 209.388C320.827 209.829 321.136 210.209 321.528 210.491L369.608 240.886C370.558 241.55 371.992 241.512 373.559 240.61C375.134 239.59 376.446 238.213 377.389 236.591C378.331 234.969 378.877 233.147 378.983 231.273C378.983 229.469 378.318 228.224 377.254 227.702L327.018 201.069Z" fill="#4BBF86"/>
<path opacity="0.15" d="M320.407 208.021C320.407 210.481 322.126 211.488 324.263 210.263C325.384 209.535 326.318 208.554 326.991 207.399C327.664 206.244 328.057 204.948 328.138 203.614C328.138 201.154 326.419 200.147 324.282 201.372C323.161 202.101 322.227 203.081 321.554 204.236C320.881 205.391 320.488 206.687 320.407 208.021Z" fill="black"/>
<path d="M309.769 194.676C309.086 195.118 308.518 195.715 308.111 196.418C307.703 197.121 307.467 197.911 307.423 198.722C307.392 199.011 307.439 199.303 307.557 199.568C307.676 199.833 307.862 200.062 308.097 200.233L322.61 208.658C322.874 208.78 323.165 208.83 323.454 208.801C323.743 208.773 324.019 208.668 324.253 208.496C324.943 208.054 325.516 207.454 325.926 206.745C326.336 206.036 326.57 205.239 326.609 204.421C326.643 204.131 326.598 203.837 326.48 203.569C326.361 203.302 326.173 203.071 325.935 202.902L311.421 194.477C311.153 194.36 310.858 194.317 310.568 194.352C310.277 194.387 310.001 194.499 309.769 194.676Z" fill="#263238"/>
<path opacity="0.1" d="M326.077 208.687L375.544 239.081C374.958 239.689 374.294 240.216 373.569 240.648C372.001 241.551 370.596 241.598 369.608 240.924L321.537 210.529C321.974 210.731 322.457 210.813 322.936 210.766C323.415 210.72 323.873 210.546 324.263 210.263C324.954 209.846 325.567 209.312 326.077 208.687Z" fill="black"/>
<path d="M334.379 165.412C334.379 165.004 334.379 164.614 334.322 164.215C334.265 163.817 334.274 163.427 334.227 163.038C334.179 162.648 334.179 162.525 334.151 162.268C334.084 161.584 333.98 160.92 333.875 160.283C333.818 159.998 333.771 159.694 333.714 159.409C333.657 159.124 333.6 158.868 333.543 158.592C333.372 157.861 333.201 157.139 332.992 156.455C332.878 156.132 332.783 155.8 332.669 155.506C332.65 155.456 332.634 155.405 332.621 155.354C332.498 155.031 332.394 154.727 332.27 154.404C332.142 154.055 331.996 153.712 331.833 153.378C331.729 153.128 331.612 152.884 331.482 152.647C331.414 152.467 331.328 152.296 331.225 152.134C331.13 151.925 331.016 151.716 330.902 151.516L330.817 151.374C330.722 151.193 330.608 151.022 330.503 150.842C330.399 150.661 330.351 150.614 330.285 150.5C329.773 149.698 329.201 148.936 328.575 148.22C328.461 148.106 328.357 147.983 328.252 147.869C328.148 147.755 328.072 147.679 327.986 147.584L327.635 147.242C327.311 146.903 326.965 146.585 326.6 146.292C326.434 146.146 326.259 146.009 326.077 145.884C325.897 145.741 325.716 145.608 325.526 145.485C325.244 145.274 324.949 145.081 324.643 144.905L324.405 144.753H324.358L313.91 138.684L313.834 138.637C311.13 137.129 308.077 136.356 304.981 136.395C300.365 136.395 295.16 137.915 289.642 141.097C270.645 152.039 255.315 178.653 255.315 200.556C255.315 211.469 259.114 219.144 265.307 222.744H265.364L275.812 228.804H275.869L276.04 228.899C276.316 229.051 276.582 229.193 276.857 229.326C277.133 229.459 277.541 229.64 277.892 229.782C278.244 229.925 278.519 230.029 278.842 230.124C279.009 230.188 279.18 230.239 279.355 230.276C279.53 230.347 279.711 230.401 279.897 230.437L280.457 230.58C280.591 230.618 280.727 230.646 280.865 230.665L281.606 230.798H281.777L282.67 230.912C287.79 231.454 293.736 230.01 300.099 226.344C319.096 215.392 334.426 188.769 334.426 166.884C334.407 166.429 334.398 165.935 334.379 165.412ZM311.383 149.93C312.126 152.653 312.491 155.466 312.466 158.289C312.466 177.599 298.333 202.066 281.616 211.716C279.175 213.169 276.54 214.266 273.789 214.974C273.045 212.248 272.681 209.432 272.706 206.606C272.706 187.296 286.83 162.829 303.557 153.178C305.997 151.727 308.632 150.633 311.383 149.93Z" fill="#4BBF86"/>
<path opacity="0.1" d="M275.318 228.567L265.25 222.735C259.076 219.126 255.258 211.441 255.258 200.547C255.258 190.783 258.317 180.088 263.379 170.257L273.827 176.326C268.755 186.147 265.697 196.852 265.697 206.616C265.735 217.292 269.335 224.862 275.318 228.567Z" fill="black"/>
<path opacity="0.4" d="M334.379 165.412C334.379 165.004 334.379 164.614 334.322 164.215C334.265 163.817 334.274 163.427 334.227 163.038C334.179 162.648 334.179 162.525 334.151 162.268C334.084 161.584 333.98 160.92 333.875 160.283C333.818 159.998 333.771 159.694 333.714 159.409C333.657 159.124 333.6 158.868 333.543 158.592C333.372 157.861 333.201 157.139 332.992 156.455C332.878 156.132 332.783 155.8 332.669 155.506C332.65 155.456 332.634 155.405 332.621 155.354C332.498 155.031 332.394 154.727 332.27 154.404C332.142 154.055 331.996 153.712 331.833 153.378C331.729 153.128 331.612 152.884 331.482 152.647C331.414 152.467 331.328 152.296 331.225 152.134C331.13 151.925 331.016 151.716 330.902 151.516L330.817 151.374C330.722 151.193 330.608 151.022 330.503 150.842C330.399 150.661 330.351 150.614 330.285 150.5C329.773 149.698 329.201 148.936 328.575 148.22C328.461 148.106 328.357 147.983 328.252 147.869C328.148 147.755 328.072 147.679 327.986 147.584L327.635 147.242C327.311 146.903 326.965 146.585 326.6 146.292C326.434 146.146 326.259 146.009 326.077 145.884C325.897 145.741 325.716 145.608 325.526 145.485C325.244 145.274 324.949 145.081 324.643 144.905C318.412 141.106 309.446 141.201 300.08 147.119C281.264 158.972 265.839 185.254 265.744 206.578C265.697 217.672 269.676 225.413 276.031 228.937C276.306 229.089 276.572 229.231 276.848 229.364C277.123 229.497 277.531 229.678 277.883 229.82C278.234 229.963 278.51 230.067 278.833 230.162C279 230.226 279.171 230.277 279.346 230.314C279.52 230.385 279.702 230.439 279.887 230.475L280.447 230.618C280.582 230.656 280.718 230.684 280.856 230.703L281.597 230.836H281.768L282.661 230.95C287.78 231.492 293.726 230.048 300.09 226.382C319.086 215.43 334.417 188.807 334.417 166.922C334.407 166.429 334.398 165.935 334.379 165.412ZM296.595 220.407C292.339 222.867 288.246 224.159 284.741 224.159C278.168 224.159 275.147 219.676 273.789 214.974C273.045 212.248 272.681 209.432 272.706 206.606C272.706 187.296 286.83 162.829 303.557 153.178C305.997 151.727 308.632 150.633 311.383 149.93C312.702 149.607 314.053 149.438 315.411 149.427C326.277 149.427 327.435 161.698 327.435 166.979C327.435 186.289 313.321 210.757 296.595 220.407Z" fill="white"/>
<path opacity="0.1" d="M327.436 166.98C327.436 186.28 313.321 210.757 296.595 220.407C292.339 222.867 288.246 224.159 284.75 224.159C283.223 224.221 281.701 223.934 280.3 223.32C278.9 222.706 277.658 221.781 276.667 220.616C276.496 220.417 276.335 220.208 276.173 219.999C276.012 219.79 275.86 219.572 275.727 219.344C275.62 219.188 275.522 219.026 275.433 218.859C275.366 218.755 275.3 218.65 275.243 218.546C275.186 218.441 275.11 218.28 275.034 218.147C274.958 218.014 274.91 217.9 274.853 217.776C274.796 217.653 274.73 217.529 274.673 217.396L274.388 216.713C274.274 216.428 274.169 216.143 274.074 215.848C273.979 215.554 273.875 215.269 273.799 214.974C276.549 214.267 279.185 213.169 281.625 211.716C298.342 202.066 312.476 177.599 312.476 158.289C312.501 155.466 312.136 152.653 311.393 149.93C312.711 149.607 314.063 149.438 315.42 149.427C315.95 149.429 316.48 149.46 317.007 149.522L317.5 149.598C326.419 151.079 327.436 162.059 327.436 166.98Z" fill="black"/>
<path opacity="0.7" d="M321.433 163.579C321.433 182.889 307.318 207.356 290.592 217.007C286.337 219.467 282.243 220.806 278.738 220.806C278.041 220.809 277.345 220.752 276.658 220.635C276.487 220.436 276.325 220.227 276.164 220.018C276.002 219.809 275.85 219.59 275.717 219.362C275.61 219.206 275.512 219.045 275.423 218.878C275.357 218.773 275.29 218.669 275.233 218.564C275.176 218.46 275.1 218.298 275.024 218.165C274.948 218.032 274.901 217.918 274.844 217.795C274.787 217.671 274.72 217.548 274.663 217.415L274.378 216.731C274.264 216.446 274.16 216.161 274.065 215.867C273.97 215.572 273.865 215.287 273.789 214.993C276.54 214.285 279.175 213.188 281.616 211.735C298.333 202.085 312.466 177.617 312.466 158.307C312.491 155.485 312.127 152.672 311.384 149.949C312.702 149.626 314.053 149.457 315.411 149.445C315.941 149.447 316.47 149.479 316.997 149.54L317.491 149.616C320.929 153.644 321.433 160.131 321.433 163.579Z" fill="white"/>
</svg>
