<svg width="192" height="25" viewBox="0 0 192 25" fill="none" xmlns="http://www.w3.org/2000/svg">
<path d="M2.068 19.9336V4.53359H8.404C9.768 4.53359 10.934 4.75359 11.902 5.19359C12.8847 5.63359 13.64 6.26426 14.168 7.08559C14.696 7.90693 14.96 8.88226 14.96 10.0116C14.96 11.1409 14.696 12.1163 14.168 12.9376C13.64 13.7589 12.8847 14.3896 11.902 14.8296C10.934 15.2696 9.768 15.4896 8.404 15.4896H3.652L4.928 14.1476V19.9336H2.068ZM4.928 14.4556L3.652 13.0696H8.272C9.53333 13.0696 10.4793 12.8056 11.11 12.2776C11.7553 11.7349 12.078 10.9796 12.078 10.0116C12.078 9.02893 11.7553 8.27359 11.11 7.74559C10.4793 7.21759 9.53333 6.95359 8.272 6.95359H3.652L4.928 5.54559V14.4556ZM22.7891 20.0876C21.5864 20.0876 20.5157 19.8309 19.5771 19.3176C18.6384 18.7896 17.8977 18.0709 17.3551 17.1616C16.8124 16.2523 16.5411 15.2183 16.5411 14.0596C16.5411 12.8863 16.8124 11.8523 17.3551 10.9576C17.8977 10.0483 18.6384 9.33693 19.5771 8.82359C20.5157 8.31026 21.5864 8.05359 22.7891 8.05359C24.0064 8.05359 25.0844 8.31026 26.0231 8.82359C26.9764 9.33693 27.7171 10.0409 28.2451 10.9356C28.7877 11.8303 29.0591 12.8716 29.0591 14.0596C29.0591 15.2183 28.7877 16.2523 28.2451 17.1616C27.7171 18.0709 26.9764 18.7896 26.0231 19.3176C25.0844 19.8309 24.0064 20.0876 22.7891 20.0876ZM22.7891 17.7336C23.4637 17.7336 24.0651 17.5869 24.5931 17.2936C25.1211 17.0003 25.5317 16.5749 25.8251 16.0176C26.1331 15.4603 26.2871 14.8076 26.2871 14.0596C26.2871 13.2969 26.1331 12.6443 25.8251 12.1016C25.5317 11.5443 25.1211 11.1189 24.5931 10.8256C24.0651 10.5323 23.4711 10.3856 22.8111 10.3856C22.1364 10.3856 21.5351 10.5323 21.0071 10.8256C20.4937 11.1189 20.0831 11.5443 19.7751 12.1016C19.4671 12.6443 19.3131 13.2969 19.3131 14.0596C19.3131 14.8076 19.4671 15.4603 19.7751 16.0176C20.0831 16.5749 20.4937 17.0003 21.0071 17.2936C21.5351 17.5869 22.1291 17.7336 22.7891 17.7336ZM33.9625 19.9336L29.6505 8.18559H32.2465L35.9425 18.5476H34.7105L38.5825 8.18559H40.8925L44.6545 18.5476H43.4445L47.2505 8.18559H49.6925L45.3585 19.9336H42.7185L39.2865 10.7596H40.1005L36.6025 19.9336H33.9625ZM56.783 20.0876C55.4777 20.0876 54.3337 19.8309 53.351 19.3176C52.383 18.7896 51.6277 18.0709 51.085 17.1616C50.557 16.2523 50.293 15.2183 50.293 14.0596C50.293 12.8863 50.5497 11.8523 51.063 10.9576C51.591 10.0483 52.3097 9.33693 53.219 8.82359C54.143 8.31026 55.1917 8.05359 56.365 8.05359C57.509 8.05359 58.5284 8.30293 59.423 8.80159C60.3177 9.30026 61.0217 10.0043 61.535 10.9136C62.0484 11.8229 62.305 12.8936 62.305 14.1256C62.305 14.2429 62.2977 14.3749 62.283 14.5216C62.283 14.6683 62.2757 14.8076 62.261 14.9396H52.471V13.1136H60.809L59.731 13.6856C59.7457 13.0109 59.6064 12.4169 59.313 11.9036C59.0197 11.3903 58.6164 10.9869 58.103 10.6936C57.6044 10.4003 57.025 10.2536 56.365 10.2536C55.6904 10.2536 55.0964 10.4003 54.583 10.6936C54.0844 10.9869 53.6884 11.3976 53.395 11.9256C53.1164 12.4389 52.977 13.0476 52.977 13.7516V14.1916C52.977 14.8956 53.1384 15.5189 53.461 16.0616C53.7837 16.6043 54.2384 17.0223 54.825 17.3156C55.4117 17.6089 56.0864 17.7556 56.849 17.7556C57.509 17.7556 58.103 17.6529 58.631 17.4476C59.159 17.2423 59.6284 16.9196 60.039 16.4796L61.513 18.1736C60.985 18.7896 60.3177 19.2663 59.511 19.6036C58.719 19.9263 57.8097 20.0876 56.783 20.0876ZM64.9466 19.9336V8.18559H67.5646V11.4196L67.2566 10.4736C67.6086 9.68159 68.1586 9.08026 68.9066 8.66959C69.6692 8.25893 70.6152 8.05359 71.7446 8.05359V10.6716C71.6272 10.6423 71.5172 10.6276 71.4146 10.6276C71.3119 10.6129 71.2092 10.6056 71.1066 10.6056C70.0652 10.6056 69.2366 10.9136 68.6206 11.5296C68.0046 12.1309 67.6966 13.0329 67.6966 14.2356V19.9336H64.9466ZM79.492 20.0876C78.1867 20.0876 77.0427 19.8309 76.06 19.3176C75.092 18.7896 74.3367 18.0709 73.794 17.1616C73.266 16.2523 73.002 15.2183 73.002 14.0596C73.002 12.8863 73.2587 11.8523 73.772 10.9576C74.3 10.0483 75.0187 9.33693 75.928 8.82359C76.852 8.31026 77.9007 8.05359 79.074 8.05359C80.218 8.05359 81.2373 8.30293 82.132 8.80159C83.0267 9.30026 83.7307 10.0043 84.244 10.9136C84.7573 11.8229 85.014 12.8936 85.014 14.1256C85.014 14.2429 85.0067 14.3749 84.992 14.5216C84.992 14.6683 84.9847 14.8076 84.97 14.9396H75.18V13.1136H83.518L82.44 13.6856C82.4547 13.0109 82.3153 12.4169 82.022 11.9036C81.7287 11.3903 81.3253 10.9869 80.812 10.6936C80.3133 10.4003 79.734 10.2536 79.074 10.2536C78.3993 10.2536 77.8053 10.4003 77.292 10.6936C76.7933 10.9869 76.3973 11.3976 76.104 11.9256C75.8253 12.4389 75.686 13.0476 75.686 13.7516V14.1916C75.686 14.8956 75.8473 15.5189 76.17 16.0616C76.4927 16.6043 76.9473 17.0223 77.534 17.3156C78.1207 17.6089 78.7953 17.7556 79.558 17.7556C80.218 17.7556 80.812 17.6529 81.34 17.4476C81.868 17.2423 82.3373 16.9196 82.748 16.4796L84.222 18.1736C83.694 18.7896 83.0267 19.2663 82.22 19.6036C81.428 19.9263 80.5187 20.0876 79.492 20.0876ZM92.6276 20.0876C91.4982 20.0876 90.4789 19.8383 89.5696 19.3396C88.6749 18.8263 87.9709 18.1223 87.4576 17.2276C86.9442 16.3329 86.6876 15.2769 86.6876 14.0596C86.6876 12.8423 86.9442 11.7863 87.4576 10.8916C87.9709 9.99693 88.6749 9.30026 89.5696 8.80159C90.4789 8.30293 91.4982 8.05359 92.6276 8.05359C93.6102 8.05359 94.4902 8.27359 95.2676 8.71359C96.0449 9.13893 96.6609 9.79159 97.1156 10.6716C97.5702 11.5516 97.7976 12.6809 97.7976 14.0596C97.7976 15.4236 97.5776 16.5529 97.1376 17.4476C96.6976 18.3276 96.0889 18.9876 95.3116 19.4276C94.5342 19.8676 93.6396 20.0876 92.6276 20.0876ZM92.9576 17.7336C93.6176 17.7336 94.2042 17.5869 94.7176 17.2936C95.2456 17.0003 95.6636 16.5749 95.9716 16.0176C96.2942 15.4603 96.4556 14.8076 96.4556 14.0596C96.4556 13.2969 96.2942 12.6443 95.9716 12.1016C95.6636 11.5443 95.2456 11.1189 94.7176 10.8256C94.2042 10.5323 93.6176 10.3856 92.9576 10.3856C92.2976 10.3856 91.7036 10.5323 91.1756 10.8256C90.6622 11.1189 90.2442 11.5443 89.9216 12.1016C89.6136 12.6443 89.4596 13.2969 89.4596 14.0596C89.4596 14.8076 89.6136 15.4603 89.9216 16.0176C90.2442 16.5749 90.6622 17.0003 91.1756 17.2936C91.7036 17.5869 92.2976 17.7336 92.9576 17.7336ZM96.5216 19.9336V17.1616L96.6316 14.0376L96.4116 10.9136V3.60959H99.1396V19.9336H96.5216ZM109.103 19.9336V4.53359H116.319C118.167 4.53359 119.575 4.90026 120.543 5.63359C121.511 6.35226 121.995 7.32026 121.995 8.53759C121.995 9.35893 121.804 10.0629 121.423 10.6496C121.042 11.2216 120.528 11.6689 119.883 11.9916C119.252 12.2996 118.563 12.4536 117.815 12.4536L118.211 11.6616C119.076 11.6616 119.854 11.8229 120.543 12.1456C121.232 12.4536 121.775 12.9083 122.171 13.5096C122.582 14.1109 122.787 14.8589 122.787 15.7536C122.787 17.0736 122.281 18.1003 121.269 18.8336C120.257 19.5669 118.754 19.9336 116.759 19.9336H109.103ZM111.963 17.6896H116.583C117.654 17.6896 118.475 17.5136 119.047 17.1616C119.619 16.8096 119.905 16.2449 119.905 15.4676C119.905 14.7049 119.619 14.1476 119.047 13.7956C118.475 13.4289 117.654 13.2456 116.583 13.2456H111.743V11.0236H116.011C117.008 11.0236 117.771 10.8476 118.299 10.4956C118.842 10.1436 119.113 9.61559 119.113 8.91159C119.113 8.19293 118.842 7.65759 118.299 7.30559C117.771 6.95359 117.008 6.77759 116.011 6.77759H111.963V17.6896ZM126.543 24.3556C125.971 24.3556 125.399 24.2603 124.827 24.0696C124.255 23.8789 123.779 23.6149 123.397 23.2776L124.497 21.2536C124.776 21.5029 125.091 21.7009 125.443 21.8476C125.795 21.9943 126.155 22.0676 126.521 22.0676C127.02 22.0676 127.423 21.9429 127.731 21.6936C128.039 21.4443 128.325 21.0263 128.589 20.4396L129.271 18.8996L129.491 18.5696L133.935 8.18559H136.575L131.075 20.8796C130.709 21.7596 130.298 22.4563 129.843 22.9696C129.403 23.4829 128.905 23.8423 128.347 24.0476C127.805 24.2529 127.203 24.3556 126.543 24.3556ZM128.963 20.3516L123.661 8.18559H126.521L130.833 18.3276L128.963 20.3516ZM149.412 20.1536C148.21 20.1536 147.058 19.9849 145.958 19.6476C144.858 19.2956 143.986 18.8483 143.34 18.3056L144.33 16.0836C144.946 16.5676 145.709 16.9709 146.618 17.2936C147.528 17.6163 148.459 17.7776 149.412 17.7776C150.219 17.7776 150.872 17.6896 151.37 17.5136C151.869 17.3376 152.236 17.1029 152.47 16.8096C152.705 16.5016 152.822 16.1569 152.822 15.7756C152.822 15.3063 152.654 14.9323 152.316 14.6536C151.979 14.3603 151.539 14.1329 150.996 13.9716C150.468 13.7956 149.874 13.6343 149.214 13.4876C148.569 13.3409 147.916 13.1723 147.256 12.9816C146.611 12.7763 146.017 12.5196 145.474 12.2116C144.946 11.8889 144.514 11.4636 144.176 10.9356C143.839 10.4076 143.67 9.73293 143.67 8.91159C143.67 8.07559 143.89 7.31293 144.33 6.62359C144.785 5.91959 145.467 5.36226 146.376 4.95159C147.3 4.52626 148.466 4.31359 149.874 4.31359C150.798 4.31359 151.715 4.43093 152.624 4.66559C153.534 4.90026 154.326 5.23759 155 5.67759L154.098 7.89959C153.409 7.48893 152.698 7.18826 151.964 6.99759C151.231 6.79226 150.527 6.68959 149.852 6.68959C149.06 6.68959 148.415 6.78493 147.916 6.97559C147.432 7.16626 147.073 7.41559 146.838 7.72359C146.618 8.03159 146.508 8.38359 146.508 8.77959C146.508 9.24893 146.67 9.63026 146.992 9.92359C147.33 10.2023 147.762 10.4223 148.29 10.5836C148.833 10.7449 149.434 10.9063 150.094 11.0676C150.754 11.2143 151.407 11.3829 152.052 11.5736C152.712 11.7643 153.306 12.0136 153.834 12.3216C154.377 12.6296 154.81 13.0476 155.132 13.5756C155.47 14.1036 155.638 14.7709 155.638 15.5776C155.638 16.3989 155.411 17.1616 154.956 17.8656C154.516 18.5549 153.834 19.1123 152.91 19.5376C151.986 19.9483 150.82 20.1536 149.412 20.1536ZM165.448 19.9336V17.5576L165.294 17.0516V12.8936C165.294 12.0869 165.052 11.4636 164.568 11.0236C164.084 10.5689 163.351 10.3416 162.368 10.3416C161.708 10.3416 161.056 10.4443 160.41 10.6496C159.78 10.8549 159.244 11.1409 158.804 11.5076L157.726 9.50559C158.357 9.02159 159.105 8.66226 159.97 8.42759C160.85 8.17826 161.76 8.05359 162.698 8.05359C164.4 8.05359 165.712 8.46426 166.636 9.28559C167.575 10.0923 168.044 11.3463 168.044 13.0476V19.9336H165.448ZM161.752 20.0876C160.872 20.0876 160.102 19.9409 159.442 19.6476C158.782 19.3396 158.269 18.9216 157.902 18.3936C157.55 17.8509 157.374 17.2423 157.374 16.5676C157.374 15.9076 157.528 15.3136 157.836 14.7856C158.159 14.2576 158.68 13.8396 159.398 13.5316C160.117 13.2236 161.07 13.0696 162.258 13.0696H165.668V14.8956H162.456C161.518 14.8956 160.887 15.0496 160.564 15.3576C160.242 15.6509 160.08 16.0176 160.08 16.4576C160.08 16.9563 160.278 17.3523 160.674 17.6456C161.07 17.9389 161.62 18.0856 162.324 18.0856C162.999 18.0856 163.6 17.9316 164.128 17.6236C164.671 17.3156 165.06 16.8609 165.294 16.2596L165.756 17.9096C165.492 18.5989 165.016 19.1343 164.326 19.5156C163.652 19.8969 162.794 20.0876 161.752 20.0876ZM178.24 8.05359C179.178 8.05359 180.014 8.23693 180.748 8.60359C181.496 8.97026 182.082 9.53493 182.508 10.2976C182.933 11.0456 183.146 12.0136 183.146 13.2016V19.9336H180.396V13.5536C180.396 12.5123 180.146 11.7349 179.648 11.2216C179.164 10.7083 178.482 10.4516 177.602 10.4516C176.956 10.4516 176.384 10.5836 175.886 10.8476C175.387 11.1116 174.998 11.5076 174.72 12.0356C174.456 12.5489 174.324 13.2016 174.324 13.9936V19.9336H171.574V8.18559H174.192V11.3536L173.73 10.3856C174.14 9.63759 174.734 9.06559 175.512 8.66959C176.304 8.25893 177.213 8.05359 178.24 8.05359ZM186.634 19.9336V8.18559H189.384V19.9336H186.634ZM188.02 6.24959C187.507 6.24959 187.081 6.08826 186.744 5.76559C186.421 5.44293 186.26 5.05426 186.26 4.59959C186.26 4.13026 186.421 3.74159 186.744 3.43359C187.081 3.11093 187.507 2.94959 188.02 2.94959C188.533 2.94959 188.951 3.10359 189.274 3.41159C189.611 3.70493 189.78 4.07893 189.78 4.53359C189.78 5.01759 189.619 5.42826 189.296 5.76559C188.973 6.08826 188.548 6.24959 188.02 6.24959Z" fill="black"/>
</svg>
