<svg width="900" height="414" viewBox="0 0 900 414" fill="none" xmlns="http://www.w3.org/2000/svg">
<path d="M124.135 358.012C124.135 357.767 124.156 357.479 124.199 357.148C124.241 356.818 124.321 356.444 124.439 356.028C124.556 355.602 124.732 355.127 124.967 354.604L126.935 355.292C126.817 355.623 126.716 355.927 126.631 356.204C126.545 356.471 126.481 356.722 126.439 356.956C126.396 357.18 126.375 357.404 126.375 357.628C126.375 357.948 126.444 358.247 126.583 358.524C126.721 358.802 126.929 359.042 127.207 359.244C127.484 359.458 127.825 359.623 128.231 359.74C128.647 359.858 129.127 359.916 129.671 359.916C130.289 359.916 130.833 359.858 131.303 359.74C131.783 359.634 132.183 359.49 132.503 359.308C132.833 359.138 133.084 358.956 133.255 358.764C133.425 358.572 133.511 358.396 133.511 358.236C133.511 358.108 133.42 357.996 133.239 357.9C133.068 357.804 132.839 357.708 132.551 357.612C132.273 357.506 131.975 357.388 131.655 357.26C131.345 357.132 131.047 356.972 130.759 356.78C130.481 356.588 130.252 356.354 130.071 356.076C129.9 355.799 129.815 355.463 129.815 355.068C129.815 354.663 129.921 354.22 130.135 353.74C130.348 353.25 130.652 352.786 131.047 352.348C131.441 351.9 131.911 351.538 132.455 351.26C133.009 350.972 133.617 350.828 134.279 350.828C134.748 350.828 135.175 350.903 135.559 351.052C135.953 351.202 136.284 351.372 136.551 351.564L135.719 353.436C135.495 353.287 135.255 353.175 134.999 353.1C134.743 353.015 134.497 352.972 134.263 352.972C133.964 352.972 133.676 353.031 133.399 353.148C133.132 353.266 132.892 353.42 132.679 353.612C132.476 353.794 132.316 353.991 132.199 354.204C132.081 354.418 132.023 354.62 132.023 354.812C132.023 355.004 132.113 355.175 132.295 355.324C132.487 355.463 132.732 355.596 133.031 355.724C133.329 355.842 133.644 355.964 133.975 356.092C134.305 356.22 134.62 356.364 134.919 356.524C135.217 356.684 135.457 356.876 135.639 357.1C135.831 357.324 135.927 357.596 135.927 357.916C135.927 358.375 135.783 358.85 135.495 359.34C135.217 359.842 134.801 360.306 134.247 360.732C133.692 361.159 133.009 361.5 132.199 361.756C131.399 362.023 130.471 362.156 129.415 362.156C128.647 362.156 127.943 362.066 127.303 361.884C126.663 361.714 126.103 361.452 125.623 361.1C125.153 360.759 124.785 360.327 124.519 359.804C124.263 359.292 124.135 358.695 124.135 358.012ZM130.871 365.868C130.561 365.868 130.295 365.756 130.071 365.532C129.857 365.319 129.751 365.063 129.751 364.764C129.751 364.455 129.857 364.188 130.071 363.964C130.295 363.74 130.561 363.628 130.871 363.628C131.169 363.628 131.425 363.74 131.639 363.964C131.852 364.188 131.959 364.455 131.959 364.764C131.959 365.063 131.852 365.319 131.639 365.532C131.425 365.756 131.169 365.868 130.871 365.868ZM128.103 365.868C127.793 365.868 127.527 365.756 127.303 365.532C127.089 365.319 126.983 365.063 126.983 364.764C126.983 364.455 127.089 364.188 127.303 363.964C127.527 363.74 127.793 363.628 128.103 363.628C128.401 363.628 128.657 363.74 128.871 363.964C129.084 364.188 129.191 364.455 129.191 364.764C129.191 365.063 129.084 365.319 128.871 365.532C128.657 365.756 128.401 365.868 128.103 365.868ZM140.347 356.3C140.827 356.3 141.195 356.258 141.451 356.172C141.707 356.087 141.883 355.975 141.979 355.836C142.075 355.698 142.123 355.548 142.123 355.388C142.123 355.132 142.049 354.834 141.899 354.492C141.761 354.151 141.585 353.794 141.371 353.42C141.158 353.047 140.934 352.69 140.699 352.348C140.475 352.007 140.273 351.708 140.091 351.452L141.995 350.188C142.454 350.807 142.849 351.42 143.179 352.028C143.51 352.626 143.777 353.18 143.979 353.692C144.193 354.204 144.342 354.642 144.427 355.004C144.513 355.346 144.641 355.612 144.811 355.804C144.993 355.986 145.201 356.114 145.435 356.188C145.67 356.263 145.905 356.3 146.139 356.3C146.545 356.3 146.833 356.407 147.003 356.62C147.185 356.823 147.275 357.079 147.275 357.388C147.275 357.719 147.163 357.996 146.939 358.22C146.726 358.434 146.406 358.54 145.979 358.54C145.51 358.54 145.099 358.476 144.747 358.348C144.395 358.22 144.097 358.018 143.851 357.74C143.606 357.463 143.398 357.111 143.227 356.684L144.203 356.892C144.118 357.191 143.921 357.468 143.611 357.724C143.313 357.97 142.913 358.172 142.411 358.332C141.921 358.482 141.339 358.556 140.667 358.556C140.347 358.556 139.99 358.53 139.595 358.476C139.211 358.423 138.827 358.343 138.443 358.236C138.07 358.13 137.729 357.991 137.419 357.82L138.203 355.788C138.598 355.959 138.977 356.087 139.339 356.172C139.713 356.258 140.049 356.3 140.347 356.3ZM156.464 358.54C155.973 358.54 155.515 358.503 155.088 358.428C154.672 358.354 154.288 358.226 153.936 358.044C153.584 357.852 153.269 357.591 152.992 357.26C152.725 356.93 152.501 356.514 152.32 356.012L153.584 355.004C153.776 355.346 154.011 355.612 154.288 355.804C154.565 355.986 154.896 356.114 155.28 356.188C155.664 356.263 156.112 356.3 156.624 356.3C157.029 356.3 157.317 356.407 157.488 356.62C157.659 356.823 157.744 357.079 157.744 357.388C157.744 357.719 157.632 357.996 157.408 358.22C157.195 358.434 156.88 358.54 156.464 358.54ZM146 358.54L146.16 356.3C146.736 356.3 147.307 356.268 147.872 356.204C148.437 356.14 148.987 356.044 149.52 355.916C150.053 355.788 150.56 355.623 151.04 355.42C151.531 355.218 151.989 354.972 152.416 354.684C152.096 354.492 151.749 354.327 151.376 354.188C151.003 354.05 150.603 353.948 150.176 353.884C149.76 353.81 149.317 353.772 148.848 353.772C148.677 353.772 148.496 353.778 148.304 353.788C148.123 353.799 147.936 353.82 147.744 353.852C147.552 353.874 147.36 353.906 147.168 353.948L146.848 351.756C147.157 351.671 147.483 351.612 147.824 351.58C148.176 351.538 148.485 351.516 148.752 351.516C149.328 351.516 149.856 351.58 150.336 351.708C150.827 351.836 151.275 351.996 151.68 352.188C152.096 352.38 152.48 352.572 152.832 352.764C153.195 352.956 153.536 353.116 153.856 353.244C154.187 353.372 154.507 353.436 154.816 353.436H155.408L155.664 355.564C155.205 355.586 154.773 355.676 154.368 355.836C153.973 355.986 153.579 356.178 153.184 356.412C152.8 356.636 152.384 356.871 151.936 357.116C151.499 357.362 151.003 357.591 150.448 357.804C149.893 358.018 149.253 358.194 148.528 358.332C147.803 358.471 146.96 358.54 146 358.54ZM156.469 358.54L156.629 356.3C157.013 356.3 157.343 356.263 157.621 356.188C157.898 356.114 158.133 355.964 158.325 355.74C158.517 355.506 158.677 355.164 158.805 354.716C158.943 354.268 159.066 353.671 159.173 352.924L161.269 353.276C161.247 353.436 161.215 353.623 161.173 353.836C161.141 354.05 161.109 354.268 161.077 354.492C161.055 354.706 161.045 354.908 161.045 355.1C161.045 355.292 161.082 355.463 161.157 355.612C161.231 355.762 161.349 355.89 161.509 355.996C161.679 356.092 161.898 356.167 162.165 356.22C162.442 356.274 162.778 356.3 163.173 356.3C163.578 356.3 163.866 356.407 164.037 356.62C164.207 356.823 164.293 357.079 164.293 357.388C164.293 357.719 164.181 357.996 163.957 358.22C163.743 358.434 163.429 358.54 163.013 358.54C162.533 358.54 162.095 358.503 161.701 358.428C161.317 358.354 160.981 358.231 160.693 358.06C160.415 357.879 160.186 357.644 160.005 357.356C159.834 357.058 159.727 356.695 159.685 356.268H160.453C160.261 356.78 160.015 357.191 159.717 357.5C159.429 357.799 159.103 358.023 158.741 358.172C158.378 358.322 157.999 358.418 157.605 358.46C157.221 358.514 156.842 358.54 156.469 358.54ZM161.605 351.484C161.295 351.484 161.029 351.378 160.805 351.164C160.591 350.94 160.485 350.679 160.485 350.38C160.485 350.071 160.591 349.804 160.805 349.58C161.029 349.356 161.295 349.244 161.605 349.244C161.903 349.244 162.159 349.356 162.373 349.58C162.586 349.804 162.693 350.071 162.693 350.38C162.693 350.679 162.586 350.94 162.373 351.164C162.159 351.378 161.903 351.484 161.605 351.484ZM158.837 351.468C158.527 351.468 158.261 351.362 158.037 351.148C157.823 350.924 157.717 350.663 157.717 350.364C157.717 350.055 157.823 349.788 158.037 349.564C158.261 349.34 158.527 349.228 158.837 349.228C159.135 349.228 159.391 349.34 159.605 349.564C159.818 349.788 159.925 350.055 159.925 350.364C159.925 350.663 159.818 350.924 159.605 351.148C159.391 351.362 159.135 351.468 158.837 351.468ZM163.016 358.54L163.176 356.3C163.666 356.3 164.018 356.252 164.232 356.156C164.445 356.05 164.573 355.858 164.616 355.58C164.658 355.292 164.669 354.876 164.648 354.332L164.36 346.748H166.616L166.936 354.492C166.957 355.111 166.93 355.671 166.856 356.172C166.792 356.663 166.626 357.084 166.36 357.436C166.104 357.788 165.704 358.06 165.16 358.252C164.626 358.444 163.912 358.54 163.016 358.54ZM169.046 358.46L168.71 346.748H170.95L171.286 358.46H169.046ZM185.568 358.54C184.811 358.54 184.155 358.444 183.6 358.252C183.056 358.05 182.635 357.73 182.336 357.292C182.037 356.844 181.867 356.247 181.824 355.5L181.536 349.052H183.792L184.064 354.716C184.085 355.154 184.155 355.49 184.272 355.724C184.4 355.948 184.581 356.103 184.816 356.188C185.051 356.263 185.355 356.3 185.728 356.3C186.133 356.3 186.421 356.407 186.592 356.62C186.763 356.823 186.848 357.079 186.848 357.388C186.848 357.719 186.736 357.996 186.512 358.22C186.299 358.434 185.984 358.54 185.568 358.54ZM182.64 357.052C181.925 357.212 181.237 357.287 180.576 357.276C179.915 357.255 179.323 357.138 178.8 356.924C178.277 356.7 177.861 356.38 177.552 355.964C177.253 355.548 177.104 355.02 177.104 354.38C177.104 353.815 177.227 353.303 177.472 352.844C177.728 352.375 178.08 351.964 178.528 351.612C178.987 351.26 179.52 350.962 180.128 350.716C180.736 350.471 181.397 350.284 182.112 350.156L182.336 352.428C181.877 352.45 181.461 352.514 181.088 352.62C180.725 352.716 180.411 352.844 180.144 353.004C179.888 353.164 179.691 353.346 179.552 353.548C179.413 353.74 179.344 353.948 179.344 354.172C179.344 354.354 179.408 354.503 179.536 354.62C179.664 354.738 179.835 354.834 180.048 354.908C180.261 354.972 180.507 355.01 180.784 355.02C181.061 355.031 181.344 355.015 181.632 354.972C181.931 354.93 182.224 354.86 182.512 354.764L182.64 357.052ZM182.688 347.404C182.379 347.404 182.112 347.298 181.888 347.084C181.675 346.86 181.568 346.599 181.568 346.3C181.568 345.991 181.675 345.724 181.888 345.5C182.112 345.276 182.379 345.164 182.688 345.164C182.987 345.164 183.243 345.276 183.456 345.5C183.669 345.724 183.776 345.991 183.776 346.3C183.776 346.599 183.669 346.86 183.456 347.084C183.243 347.298 182.987 347.404 182.688 347.404ZM179.92 347.388C179.611 347.388 179.344 347.282 179.12 347.068C178.907 346.844 178.8 346.583 178.8 346.284C178.8 345.975 178.907 345.708 179.12 345.484C179.344 345.26 179.611 345.148 179.92 345.148C180.219 345.148 180.475 345.26 180.688 345.484C180.901 345.708 181.008 345.975 181.008 346.284C181.008 346.583 180.901 346.844 180.688 347.068C180.475 347.282 180.219 347.388 179.92 347.388ZM185.562 358.54L185.723 356.3C186.224 356.3 186.576 356.252 186.779 356.156C186.992 356.05 187.12 355.858 187.163 355.58C187.205 355.292 187.216 354.876 187.195 354.332L186.939 346.748H189.211L189.483 354.316C189.504 354.85 189.568 355.26 189.674 355.548C189.781 355.836 189.957 356.034 190.203 356.14C190.459 356.247 190.8 356.3 191.227 356.3C191.632 356.3 191.92 356.407 192.091 356.62C192.261 356.823 192.347 357.079 192.347 357.388C192.347 357.719 192.235 357.996 192.011 358.22C191.787 358.434 191.472 358.54 191.067 358.54C190.597 358.54 190.16 358.487 189.755 358.38C189.349 358.274 189.013 358.071 188.747 357.772C188.48 357.474 188.304 357.042 188.219 356.476L188.923 356.492C188.741 357.047 188.507 357.474 188.219 357.772C187.931 358.06 187.568 358.263 187.131 358.38C186.704 358.487 186.181 358.54 185.562 358.54ZM191.062 358.54L191.223 356.3C191.799 356.3 192.369 356.268 192.935 356.204C193.5 356.14 194.049 356.044 194.583 355.916C195.116 355.788 195.623 355.623 196.103 355.42C196.593 355.218 197.052 354.972 197.479 354.684C197.159 354.492 196.812 354.327 196.439 354.188C196.065 354.05 195.665 353.948 195.239 353.884C194.823 353.81 194.38 353.772 193.911 353.772C193.74 353.772 193.559 353.778 193.367 353.788C193.185 353.799 192.999 353.82 192.807 353.852C192.615 353.874 192.423 353.906 192.231 353.948L191.911 351.756C192.22 351.671 192.545 351.612 192.887 351.58C193.239 351.538 193.548 351.516 193.815 351.516C194.391 351.516 194.919 351.58 195.399 351.708C195.889 351.836 196.337 351.996 196.743 352.188C197.159 352.38 197.543 352.572 197.895 352.764C198.257 352.956 198.599 353.116 198.919 353.244C199.249 353.372 199.569 353.436 199.878 353.436H200.47L200.727 355.564C200.268 355.586 199.836 355.676 199.431 355.836C199.036 355.986 198.641 356.178 198.247 356.412C197.863 356.636 197.447 356.871 196.999 357.116C196.561 357.362 196.065 357.591 195.511 357.804C194.956 358.018 194.316 358.194 193.591 358.332C192.865 358.471 192.023 358.54 191.062 358.54ZM200.74 362.156L199.924 360.172C200.49 359.98 201.007 359.756 201.476 359.5C201.956 359.244 202.372 358.962 202.724 358.652C203.076 358.343 203.348 358.007 203.54 357.644C203.732 357.271 203.828 356.871 203.828 356.444C203.828 355.996 203.727 355.506 203.524 354.972C203.322 354.439 203.076 353.895 202.788 353.34L204.884 352.332C205.076 352.663 205.242 353.02 205.38 353.404C205.53 353.778 205.652 354.114 205.748 354.412C205.844 354.711 205.908 354.914 205.94 355.02C206.09 355.532 206.292 355.874 206.548 356.044C206.815 356.215 207.242 356.3 207.828 356.3C208.234 356.3 208.522 356.407 208.692 356.62C208.874 356.823 208.964 357.079 208.964 357.388C208.964 357.719 208.852 357.996 208.628 358.22C208.404 358.434 208.084 358.54 207.668 358.54C207.231 358.54 206.847 358.476 206.516 358.348C206.186 358.22 205.919 358.034 205.716 357.788C205.524 357.543 205.402 357.255 205.348 356.924L205.94 357.26C205.876 357.826 205.69 358.359 205.38 358.86C205.082 359.372 204.692 359.842 204.212 360.268C203.732 360.695 203.194 361.068 202.596 361.388C201.999 361.708 201.38 361.964 200.74 362.156ZM207.688 358.54L207.848 356.3C208.093 356.3 208.301 356.242 208.472 356.124C208.653 355.996 208.84 355.788 209.032 355.5C209.224 355.202 209.448 354.802 209.704 354.3C210.024 353.66 210.354 353.159 210.696 352.796C211.048 352.434 211.405 352.178 211.768 352.028C212.141 351.868 212.514 351.788 212.888 351.788C213.357 351.788 213.794 351.89 214.2 352.092C214.605 352.295 214.957 352.572 215.256 352.924C215.554 353.266 215.784 353.66 215.944 354.108C216.114 354.546 216.2 354.999 216.2 355.468C216.2 356.034 216.077 356.546 215.832 357.004C215.597 357.452 215.266 357.81 214.84 358.076C214.424 358.332 213.944 358.46 213.4 358.46C212.941 358.46 212.408 358.38 211.799 358.22C211.192 358.06 210.552 357.724 209.88 357.212L210.696 355.276C211.176 355.607 211.624 355.847 212.04 355.996C212.466 356.146 212.818 356.22 213.096 356.22C213.309 356.22 213.485 356.199 213.624 356.156C213.762 356.114 213.864 356.044 213.928 355.948C213.992 355.852 214.024 355.724 214.024 355.564C214.024 355.34 213.97 355.111 213.864 354.876C213.757 354.642 213.613 354.444 213.432 354.284C213.261 354.114 213.058 354.028 212.824 354.028C212.6 354.028 212.408 354.114 212.248 354.284C212.098 354.444 211.949 354.679 211.799 354.988C211.661 355.287 211.49 355.639 211.288 356.044C211.042 356.535 210.802 356.946 210.568 357.276C210.333 357.596 210.082 357.852 209.816 358.044C209.56 358.226 209.256 358.354 208.904 358.428C208.562 358.503 208.157 358.54 207.688 358.54ZM145.122 398.764C144.418 398.764 143.757 398.69 143.138 398.54C142.52 398.391 141.976 398.162 141.506 397.852C141.048 397.543 140.685 397.143 140.418 396.652C140.162 396.162 140.034 395.58 140.034 394.908C140.034 394.215 140.178 393.602 140.466 393.068C140.754 392.546 141.122 392.087 141.57 391.692C142.018 391.287 142.493 390.924 142.994 390.604C143.506 390.274 143.986 389.959 144.434 389.66C144.882 389.362 145.25 389.058 145.538 388.748C145.826 388.428 145.97 388.076 145.97 387.692C145.97 387.554 145.933 387.426 145.858 387.308C145.794 387.18 145.682 387.079 145.522 387.004C145.373 386.919 145.16 386.876 144.882 386.876C144.701 386.876 144.514 386.898 144.322 386.94C144.13 386.972 143.944 387.02 143.762 387.084C143.581 387.138 143.41 387.207 143.25 387.292C143.528 387.516 143.8 387.767 144.066 388.044C144.344 388.311 144.594 388.572 144.818 388.828C145.053 389.074 145.234 389.287 145.362 389.468C145.608 389.596 145.874 389.714 146.162 389.82C146.45 389.916 146.754 390.002 147.074 390.076C147.405 390.151 147.746 390.21 148.098 390.252C148.45 390.284 148.813 390.3 149.186 390.3C149.592 390.3 149.88 390.407 150.05 390.62C150.221 390.823 150.306 391.079 150.306 391.388C150.306 391.719 150.194 391.996 149.97 392.22C149.746 392.434 149.432 392.54 149.026 392.54C148.141 392.54 147.384 392.476 146.754 392.348C146.136 392.22 145.576 392.028 145.074 391.772C144.584 391.506 144.077 391.18 143.554 390.796C143.426 390.572 143.24 390.327 142.994 390.06C142.749 389.783 142.498 389.522 142.242 389.276C141.997 389.031 141.789 388.839 141.618 388.7C141.586 388.668 141.533 388.562 141.458 388.38C141.384 388.188 141.314 387.986 141.25 387.772C141.197 387.559 141.17 387.41 141.17 387.324C141.17 387.111 141.272 386.871 141.474 386.604C141.677 386.327 141.96 386.066 142.322 385.82C142.696 385.564 143.128 385.356 143.618 385.196C144.109 385.026 144.642 384.94 145.218 384.94C146.264 384.94 147.016 385.164 147.474 385.612C147.944 386.05 148.178 386.615 148.178 387.308C148.178 387.948 148.034 388.519 147.746 389.02C147.469 389.522 147.106 389.98 146.658 390.396C146.21 390.812 145.736 391.196 145.234 391.548C144.744 391.9 144.274 392.242 143.826 392.572C143.378 392.914 143.01 393.255 142.722 393.596C142.445 393.948 142.306 394.327 142.306 394.732C142.306 395.074 142.392 395.356 142.562 395.58C142.744 395.815 142.973 396.002 143.25 396.14C143.528 396.279 143.832 396.375 144.162 396.428C144.504 396.492 144.834 396.524 145.154 396.524C145.485 396.524 145.826 396.498 146.178 396.444C146.541 396.391 146.914 396.306 147.298 396.188C147.693 396.082 148.098 395.943 148.514 395.772L149.186 397.692C148.781 397.906 148.349 398.092 147.89 398.252C147.432 398.423 146.968 398.551 146.498 398.636C146.029 398.722 145.57 398.764 145.122 398.764ZM149.031 392.54L149.191 390.3C149.767 390.3 150.338 390.268 150.903 390.204C151.469 390.14 152.018 390.044 152.551 389.916C153.085 389.788 153.591 389.623 154.071 389.42C154.562 389.218 155.021 388.972 155.447 388.684C155.127 388.492 154.781 388.327 154.407 388.188C154.034 388.05 153.634 387.948 153.207 387.884C152.791 387.81 152.349 387.772 151.879 387.772C151.709 387.772 151.527 387.778 151.335 387.788C151.154 387.799 150.967 387.82 150.775 387.852C150.583 387.874 150.391 387.906 150.199 387.948L149.879 385.756C150.189 385.671 150.514 385.612 150.855 385.58C151.207 385.538 151.517 385.516 151.783 385.516C152.359 385.516 152.887 385.58 153.367 385.708C153.858 385.836 154.306 385.996 154.711 386.188C155.127 386.38 155.511 386.572 155.863 386.764C156.226 386.956 156.567 387.116 156.887 387.244C157.218 387.372 157.538 387.436 157.847 387.436H158.439L158.695 389.564C158.237 389.586 157.805 389.676 157.399 389.836C157.005 389.986 156.61 390.178 156.215 390.412C155.831 390.636 155.415 390.871 154.967 391.116C154.53 391.362 154.034 391.591 153.479 391.804C152.925 392.018 152.285 392.194 151.559 392.332C150.834 392.471 149.991 392.54 149.031 392.54ZM153.831 396.22C153.522 396.22 153.255 396.114 153.031 395.9C152.818 395.687 152.711 395.426 152.711 395.116C152.711 394.807 152.818 394.535 153.031 394.3C153.255 394.076 153.522 393.964 153.831 393.964C154.141 393.964 154.402 394.076 154.615 394.3C154.839 394.535 154.951 394.807 154.951 395.116C154.951 395.426 154.839 395.687 154.615 395.9C154.402 396.114 154.141 396.22 153.831 396.22ZM160.374 392.46L160.038 380.748H162.278L162.614 392.46H160.374ZM163.319 396.156L162.502 394.172C163.068 393.98 163.585 393.756 164.055 393.5C164.535 393.244 164.951 392.962 165.303 392.652C165.655 392.343 165.927 392.007 166.119 391.644C166.311 391.271 166.407 390.871 166.407 390.444C166.407 389.996 166.305 389.506 166.103 388.972C165.9 388.439 165.655 387.895 165.367 387.34L167.463 386.332C167.655 386.663 167.82 387.02 167.959 387.404C168.108 387.778 168.231 388.114 168.327 388.412C168.423 388.711 168.487 388.914 168.519 389.02C168.668 389.532 168.871 389.874 169.127 390.044C169.393 390.215 169.82 390.3 170.407 390.3C170.812 390.3 171.1 390.407 171.271 390.62C171.452 390.823 171.543 391.079 171.543 391.388C171.543 391.719 171.431 391.996 171.207 392.22C170.983 392.434 170.663 392.54 170.247 392.54C169.809 392.54 169.425 392.476 169.095 392.348C168.764 392.22 168.497 392.034 168.295 391.788C168.103 391.543 167.98 391.255 167.927 390.924L168.519 391.26C168.455 391.826 168.268 392.359 167.959 392.86C167.66 393.372 167.271 393.842 166.791 394.268C166.311 394.695 165.772 395.068 165.174 395.388C164.577 395.708 163.959 395.964 163.319 396.156ZM170.266 392.54L170.426 390.3C170.81 390.3 171.14 390.263 171.418 390.188C171.695 390.114 171.93 389.964 172.122 389.74C172.314 389.506 172.474 389.164 172.602 388.716C172.74 388.268 172.863 387.671 172.97 386.924L175.066 387.276C175.044 387.436 175.012 387.623 174.97 387.836C174.938 388.05 174.906 388.268 174.874 388.492C174.852 388.706 174.842 388.908 174.842 389.1C174.842 389.292 174.879 389.463 174.954 389.612C175.028 389.762 175.146 389.89 175.306 389.996C175.476 390.092 175.695 390.167 175.962 390.22C176.239 390.274 176.575 390.3 176.97 390.3C177.375 390.3 177.663 390.407 177.834 390.62C178.004 390.823 178.09 391.079 178.09 391.388C178.09 391.719 177.978 391.996 177.754 392.22C177.54 392.434 177.226 392.54 176.81 392.54C176.33 392.54 175.892 392.503 175.498 392.428C175.114 392.354 174.778 392.231 174.49 392.06C174.212 391.879 173.983 391.644 173.802 391.356C173.631 391.058 173.524 390.695 173.482 390.268H174.25C174.058 390.78 173.812 391.191 173.514 391.5C173.226 391.799 172.9 392.023 172.538 392.172C172.175 392.322 171.796 392.418 171.402 392.46C171.018 392.514 170.639 392.54 170.266 392.54ZM175.402 385.484C175.092 385.484 174.826 385.378 174.602 385.164C174.388 384.94 174.282 384.679 174.282 384.38C174.282 384.071 174.388 383.804 174.602 383.58C174.826 383.356 175.092 383.244 175.402 383.244C175.7 383.244 175.956 383.356 176.17 383.58C176.383 383.804 176.49 384.071 176.49 384.38C176.49 384.679 176.383 384.94 176.17 385.164C175.956 385.378 175.7 385.484 175.402 385.484ZM172.634 385.468C172.324 385.468 172.058 385.362 171.834 385.148C171.62 384.924 171.514 384.663 171.514 384.364C171.514 384.055 171.62 383.788 171.834 383.564C172.058 383.34 172.324 383.228 172.634 383.228C172.932 383.228 173.188 383.34 173.402 383.564C173.615 383.788 173.722 384.055 173.722 384.364C173.722 384.663 173.615 384.924 173.402 385.148C173.188 385.362 172.932 385.468 172.634 385.468ZM176.812 392.54L176.973 390.3C177.463 390.3 177.815 390.252 178.029 390.156C178.242 390.05 178.37 389.858 178.413 389.58C178.455 389.292 178.466 388.876 178.445 388.332L178.157 380.748H180.413L180.733 388.492C180.754 389.111 180.727 389.671 180.653 390.172C180.589 390.663 180.423 391.084 180.157 391.436C179.901 391.788 179.501 392.06 178.957 392.252C178.423 392.444 177.709 392.54 176.812 392.54ZM182.843 392.46L182.507 380.748H184.747L185.083 392.46H182.843ZM191.717 392.46L191.413 381.868H193.653L193.957 392.46H191.717ZM190.837 380.844L190.565 379.724C190.938 379.66 191.215 379.607 191.397 379.564C191.589 379.522 191.791 379.474 192.005 379.42L191.845 379.82C191.567 379.724 191.301 379.538 191.045 379.26C190.799 378.972 190.677 378.647 190.677 378.284C190.677 377.9 190.762 377.591 190.933 377.356C191.103 377.122 191.322 376.951 191.589 376.844C191.855 376.738 192.133 376.684 192.421 376.684C192.581 376.684 192.73 376.695 192.869 376.716C193.018 376.738 193.151 376.77 193.269 376.812L193.141 377.964C193.034 377.943 192.927 377.922 192.821 377.9C192.714 377.879 192.597 377.868 192.469 377.868C192.33 377.868 192.202 377.916 192.085 378.012C191.978 378.098 191.925 378.204 191.925 378.332C191.925 378.514 191.989 378.674 192.117 378.812C192.245 378.951 192.394 379.063 192.565 379.148C192.746 379.223 192.895 379.266 193.013 379.276L192.133 379.372C192.421 379.298 192.693 379.223 192.949 379.148C193.205 379.063 193.445 378.978 193.669 378.892L193.989 379.964C193.722 380.06 193.407 380.167 193.045 380.284C192.693 380.391 192.325 380.492 191.941 380.588C191.567 380.684 191.199 380.77 190.837 380.844ZM198.301 390.3C198.781 390.3 199.149 390.258 199.405 390.172C199.661 390.087 199.837 389.975 199.933 389.836C200.029 389.698 200.077 389.548 200.077 389.388C200.077 389.132 200.002 388.834 199.853 388.492C199.714 388.151 199.538 387.794 199.325 387.42C199.111 387.047 198.887 386.69 198.653 386.348C198.429 386.007 198.226 385.708 198.045 385.452L199.949 384.188C200.407 384.807 200.802 385.42 201.133 386.028C201.463 386.626 201.73 387.18 201.933 387.692C202.146 388.204 202.295 388.642 202.381 389.004C202.466 389.346 202.594 389.612 202.765 389.804C202.946 389.986 203.154 390.114 203.389 390.188C203.623 390.263 203.858 390.3 204.093 390.3C204.498 390.3 204.786 390.407 204.957 390.62C205.138 390.823 205.229 391.079 205.229 391.388C205.229 391.719 205.117 391.996 204.893 392.22C204.679 392.434 204.359 392.54 203.933 392.54C203.463 392.54 203.053 392.476 202.701 392.348C202.349 392.22 202.05 392.018 201.805 391.74C201.559 391.463 201.351 391.111 201.181 390.684L202.157 390.892C202.071 391.191 201.874 391.468 201.565 391.724C201.266 391.97 200.866 392.172 200.365 392.332C199.874 392.482 199.293 392.556 198.621 392.556C198.301 392.556 197.943 392.53 197.549 392.476C197.165 392.423 196.781 392.343 196.397 392.236C196.023 392.13 195.682 391.991 195.373 391.82L196.157 389.788C196.551 389.959 196.93 390.087 197.293 390.172C197.666 390.258 198.002 390.3 198.301 390.3ZM203.953 392.54L204.113 390.3C204.582 390.3 204.95 390.268 205.217 390.204C205.494 390.14 205.692 390.023 205.809 389.852C205.926 389.671 205.985 389.415 205.985 389.084C205.985 388.786 205.942 388.428 205.857 388.012C205.782 387.596 205.681 387.164 205.553 386.716C205.425 386.268 205.297 385.858 205.169 385.484L207.377 384.876C207.505 385.239 207.633 385.66 207.761 386.14C207.889 386.62 207.996 387.116 208.081 387.628C208.177 388.13 208.225 388.615 208.225 389.084C208.225 389.671 208.15 390.167 208.001 390.572C207.852 390.967 207.644 391.298 207.377 391.564C207.121 391.82 206.812 392.023 206.449 392.172C206.097 392.311 205.708 392.407 205.281 392.46C204.854 392.514 204.412 392.54 203.953 392.54ZM205.921 396.22C205.612 396.22 205.345 396.114 205.121 395.9C204.908 395.687 204.801 395.426 204.801 395.116C204.801 394.807 204.908 394.535 205.121 394.3C205.345 394.076 205.612 393.964 205.921 393.964C206.23 393.964 206.492 394.076 206.705 394.3C206.929 394.535 207.041 394.807 207.041 395.116C207.041 395.426 206.929 395.687 206.705 395.9C206.492 396.114 206.23 396.22 205.921 396.22ZM209.943 396.14L209.479 393.9C210.237 393.804 210.898 393.687 211.463 393.548C212.029 393.42 212.503 393.239 212.887 393.004C213.271 392.77 213.559 392.45 213.751 392.044C213.943 391.628 214.039 391.095 214.039 390.444C214.039 390.21 214.018 389.975 213.975 389.74C213.933 389.495 213.869 389.271 213.783 389.068C213.698 388.866 213.586 388.7 213.447 388.572C213.319 388.444 213.165 388.38 212.983 388.38C212.791 388.38 212.621 388.45 212.471 388.588C212.322 388.716 212.205 388.882 212.119 389.084C212.034 389.276 211.991 389.474 211.991 389.676C211.991 389.826 212.029 389.954 212.103 390.06C212.178 390.156 212.29 390.231 212.439 390.284C212.589 390.327 212.775 390.348 212.999 390.348C213.255 390.348 213.517 390.322 213.783 390.268C214.061 390.204 214.311 390.119 214.535 390.012L214.599 391.756C214.343 391.959 214.05 392.14 213.719 392.3C213.389 392.45 212.989 392.524 212.519 392.524C212.135 392.524 211.778 392.482 211.447 392.396C211.117 392.3 210.823 392.156 210.567 391.964C210.322 391.772 210.13 391.527 209.991 391.228C209.853 390.919 209.783 390.551 209.783 390.124C209.783 389.602 209.869 389.095 210.039 388.604C210.21 388.114 210.445 387.676 210.743 387.292C211.053 386.898 211.405 386.588 211.799 386.364C212.205 386.13 212.631 386.012 213.079 386.012C213.613 386.012 214.077 386.146 214.471 386.412C214.877 386.679 215.213 387.031 215.479 387.468C215.746 387.895 215.949 388.359 216.087 388.86C216.226 389.362 216.295 389.842 216.295 390.3C216.295 391.506 216.039 392.53 215.527 393.372C215.015 394.215 214.285 394.866 213.335 395.324C212.386 395.794 211.255 396.066 209.943 396.14Z" fill="#4D4D4D"/>
<path d="M806.975 361.468C806.26 361.468 805.588 361.388 804.959 361.228C804.34 361.079 803.791 360.839 803.311 360.508C802.841 360.188 802.473 359.767 802.207 359.244C801.94 358.732 801.807 358.114 801.807 357.388C801.807 357.143 801.823 356.866 801.855 356.556C801.897 356.247 801.983 355.879 802.111 355.452C802.239 355.015 802.436 354.508 802.703 353.932L804.655 354.684C804.495 355.068 804.372 355.394 804.287 355.66C804.201 355.916 804.137 356.151 804.095 356.364C804.063 356.567 804.047 356.78 804.047 357.004C804.047 357.356 804.121 357.671 804.271 357.948C804.431 358.226 804.649 358.46 804.927 358.652C805.215 358.844 805.561 358.988 805.967 359.084C806.383 359.18 806.847 359.228 807.359 359.228C808.02 359.228 808.596 359.186 809.087 359.1C809.577 359.026 809.988 358.914 810.319 358.764C810.66 358.626 810.932 358.455 811.135 358.252C811.337 358.05 811.481 357.831 811.567 357.596C811.673 357.319 811.743 357.031 811.775 356.732C811.817 356.423 811.839 356.071 811.839 355.676C811.839 355.207 811.796 354.807 811.711 354.476C811.636 354.135 811.519 353.874 811.359 353.692C811.199 353.511 811.001 353.42 810.767 353.42C810.575 353.42 810.399 353.484 810.239 353.612C810.089 353.74 809.972 353.9 809.887 354.092C809.801 354.274 809.759 354.46 809.759 354.652C809.759 354.812 809.796 354.946 809.871 355.052C809.956 355.159 810.079 355.244 810.239 355.308C810.399 355.362 810.596 355.388 810.831 355.388C811.065 355.388 811.327 355.362 811.615 355.308C811.903 355.244 812.159 355.148 812.383 355.02L812.543 356.956C812.287 357.159 811.94 357.314 811.503 357.42C811.076 357.516 810.676 357.564 810.303 357.564C809.748 357.564 809.263 357.49 808.847 357.34C808.441 357.18 808.127 356.919 807.903 356.556C807.679 356.194 807.567 355.703 807.567 355.084C807.567 354.636 807.647 354.188 807.807 353.74C807.967 353.282 808.191 352.86 808.479 352.476C808.767 352.092 809.113 351.788 809.519 351.564C809.924 351.33 810.372 351.212 810.863 351.212C811.556 351.212 812.137 351.415 812.607 351.82C813.087 352.215 813.449 352.743 813.695 353.404C813.951 354.055 814.079 354.764 814.079 355.532C814.079 356.247 814.004 356.876 813.855 357.42C813.716 357.954 813.535 358.428 813.311 358.844C813.044 359.314 812.708 359.714 812.303 360.044C811.908 360.386 811.444 360.658 810.911 360.86C810.388 361.074 809.796 361.228 809.135 361.324C808.473 361.42 807.753 361.468 806.975 361.468ZM812.287 349.756C811.977 349.756 811.711 349.65 811.487 349.436C811.273 349.212 811.167 348.951 811.167 348.652C811.167 348.343 811.273 348.076 811.487 347.852C811.711 347.628 811.977 347.516 812.287 347.516C812.585 347.516 812.841 347.628 813.055 347.852C813.268 348.076 813.375 348.343 813.375 348.652C813.375 348.951 813.268 349.212 813.055 349.436C812.841 349.65 812.585 349.756 812.287 349.756ZM809.519 349.74C809.209 349.74 808.943 349.634 808.719 349.42C808.505 349.196 808.399 348.935 808.399 348.636C808.399 348.327 808.505 348.06 808.719 347.836C808.943 347.612 809.209 347.5 809.519 347.5C809.817 347.5 810.073 347.612 810.287 347.836C810.5 348.06 810.607 348.327 810.607 348.636C810.607 348.935 810.5 349.196 810.287 349.42C810.073 349.634 809.817 349.74 809.519 349.74ZM825.583 358.54C824.836 358.54 824.218 358.487 823.727 358.38C823.247 358.263 822.868 358.087 822.591 357.852C822.314 357.607 822.116 357.303 821.999 356.94C821.882 356.578 821.812 356.146 821.791 355.644L821.455 346.748H823.695L824.031 354.572C824.052 355.063 824.106 355.431 824.191 355.676C824.276 355.922 824.436 356.087 824.671 356.172C824.916 356.258 825.274 356.3 825.743 356.3C826.148 356.3 826.436 356.407 826.607 356.62C826.788 356.823 826.879 357.079 826.879 357.388C826.879 357.719 826.767 357.996 826.543 358.22C826.319 358.434 825.999 358.54 825.583 358.54ZM816.975 358.54C816.687 358.54 816.394 358.514 816.095 358.46C815.807 358.418 815.604 358.386 815.487 358.364L815.791 356.044C816.527 356.14 817.242 356.162 817.935 356.108C818.639 356.044 819.268 355.874 819.823 355.596C820.388 355.308 820.836 354.892 821.167 354.348C821.498 353.794 821.663 353.079 821.663 352.204L822.527 354.716C822.399 355.442 822.18 356.044 821.871 356.524C821.572 356.994 821.215 357.367 820.799 357.644C820.394 357.911 819.962 358.108 819.503 358.236C819.044 358.364 818.596 358.444 818.159 358.476C817.722 358.519 817.327 358.54 816.975 358.54ZM820.447 356.348C820.287 356.039 820.058 355.676 819.759 355.26C819.46 354.834 819.092 354.364 818.655 353.852C818.228 353.33 817.738 352.78 817.183 352.204C816.628 351.618 816.015 351.015 815.343 350.396L816.735 348.876C817.727 349.815 818.532 350.604 819.151 351.244C819.77 351.884 820.26 352.423 820.623 352.86C820.996 353.287 821.279 353.655 821.471 353.964C821.674 354.274 821.844 354.572 821.983 354.86L820.447 356.348ZM837.77 358.54C837.226 358.54 836.703 358.492 836.202 358.396C835.7 358.29 835.247 358.151 834.842 357.98C834.447 357.81 834.122 357.618 833.866 357.404L835.306 355.852C835.69 356.012 836.084 356.13 836.49 356.204C836.895 356.268 837.375 356.3 837.93 356.3C838.335 356.3 838.623 356.407 838.794 356.62C838.975 356.823 839.066 357.079 839.066 357.388C839.066 357.719 838.954 357.996 838.73 358.22C838.506 358.434 838.186 358.54 837.77 358.54ZM825.594 358.54L825.754 356.3H829.338C830.34 356.3 831.172 356.263 831.834 356.188C832.506 356.114 833.039 356.007 833.434 355.868C833.828 355.719 834.106 355.548 834.266 355.356C834.436 355.164 834.522 354.956 834.522 354.732C834.522 354.53 834.474 354.338 834.378 354.156C834.282 353.964 834.138 353.81 833.946 353.692C833.754 353.575 833.503 353.516 833.194 353.516C832.799 353.516 832.404 353.612 832.01 353.804C831.615 353.986 831.231 354.236 830.858 354.556C830.484 354.866 830.127 355.212 829.786 355.596C829.455 355.98 829.151 356.37 828.874 356.764L826.458 356.428C826.906 355.735 827.391 355.079 827.914 354.46C828.447 353.831 829.007 353.282 829.594 352.812C830.191 352.332 830.804 351.959 831.434 351.692C832.074 351.415 832.724 351.276 833.386 351.276C834.09 351.276 834.692 351.42 835.194 351.708C835.695 351.996 836.079 352.391 836.346 352.892C836.623 353.394 836.762 353.975 836.762 354.636C836.762 355.33 836.564 355.954 836.17 356.508C835.786 357.063 835.13 357.522 834.202 357.884C833.807 358.034 833.38 358.156 832.922 358.252C832.463 358.348 831.924 358.418 831.306 358.46C830.687 358.514 829.946 358.54 829.082 358.54H825.594ZM827.258 356.908L826.922 346.748H829.162L829.45 354.428L827.258 356.908ZM837.781 358.54L837.941 356.3C838.411 356.3 838.779 356.268 839.045 356.204C839.323 356.14 839.52 356.023 839.637 355.852C839.755 355.671 839.813 355.415 839.813 355.084C839.813 354.786 839.771 354.428 839.685 354.012C839.611 353.596 839.509 353.164 839.381 352.716C839.253 352.268 839.125 351.858 838.997 351.484L841.205 350.876C841.333 351.239 841.461 351.66 841.589 352.14C841.717 352.62 841.824 353.116 841.909 353.628C842.005 354.13 842.053 354.615 842.053 355.084C842.053 355.671 841.979 356.167 841.829 356.572C841.68 356.967 841.472 357.298 841.205 357.564C840.949 357.82 840.64 358.023 840.277 358.172C839.925 358.311 839.536 358.407 839.109 358.46C838.683 358.514 838.24 358.54 837.781 358.54ZM840.085 349.548C839.755 349.548 839.472 349.436 839.237 349.212C839.013 348.988 838.901 348.711 838.901 348.38C838.901 348.05 839.013 347.767 839.237 347.532C839.472 347.298 839.755 347.18 840.085 347.18C840.405 347.18 840.677 347.298 840.901 347.532C841.136 347.767 841.253 348.05 841.253 348.38C841.253 348.711 841.136 348.988 840.901 349.212C840.677 349.436 840.405 349.548 840.085 349.548ZM849.163 349.884C849.163 349.532 849.142 349.18 849.099 348.828C849.067 348.476 849.025 348.146 848.971 347.836C848.918 347.516 848.87 347.239 848.827 347.004L851.067 346.684C851.11 346.898 851.153 347.18 851.195 347.532C851.238 347.884 851.275 348.258 851.307 348.652C851.339 349.036 851.355 349.404 851.355 349.756C851.355 350.311 851.307 350.834 851.211 351.324C851.115 351.815 850.971 352.279 850.779 352.716C850.587 353.143 850.347 353.554 850.059 353.948L849.771 354.332C849.494 354.674 849.169 355.01 848.795 355.34C848.433 355.671 848.033 355.991 847.595 356.3H848.635C848.998 356.3 849.275 356.279 849.467 356.236C849.659 356.194 849.787 356.135 849.851 356.06C849.926 355.975 849.963 355.879 849.963 355.772C849.963 355.58 849.798 355.298 849.467 354.924C849.137 354.54 848.678 354.103 848.091 353.612C847.505 353.111 846.817 352.583 846.027 352.028C845.249 351.463 844.406 350.898 843.499 350.332L844.667 348.62C845.926 349.399 846.987 350.114 847.851 350.764C848.726 351.415 849.441 352.007 849.995 352.54C850.561 353.074 850.998 353.559 851.307 353.996C851.617 354.434 851.83 354.828 851.947 355.18C852.065 355.522 852.123 355.831 852.123 356.108C852.123 356.418 852.075 356.716 851.979 357.004C851.883 357.282 851.729 357.532 851.515 357.756C851.302 357.97 851.025 358.14 850.683 358.268C850.342 358.396 849.921 358.46 849.419 358.46H844.715V356.316C845.814 355.527 846.683 354.78 847.323 354.076C847.974 353.372 848.443 352.679 848.731 351.996C849.019 351.314 849.163 350.61 849.163 349.884ZM854.249 358.46L853.913 346.748H856.153L856.489 358.46H854.249ZM870.771 358.54C870.014 358.54 869.358 358.444 868.803 358.252C868.259 358.05 867.838 357.73 867.539 357.292C867.24 356.844 867.07 356.247 867.027 355.5L866.739 349.052H868.995L869.267 354.716C869.288 355.154 869.358 355.49 869.475 355.724C869.603 355.948 869.784 356.103 870.019 356.188C870.254 356.263 870.558 356.3 870.931 356.3C871.336 356.3 871.624 356.407 871.795 356.62C871.966 356.823 872.051 357.079 872.051 357.388C872.051 357.719 871.939 357.996 871.715 358.22C871.502 358.434 871.187 358.54 870.771 358.54ZM867.843 357.052C867.128 357.212 866.44 357.287 865.779 357.276C865.118 357.255 864.526 357.138 864.003 356.924C863.48 356.7 863.064 356.38 862.755 355.964C862.456 355.548 862.307 355.02 862.307 354.38C862.307 353.815 862.43 353.303 862.675 352.844C862.931 352.375 863.283 351.964 863.731 351.612C864.19 351.26 864.723 350.962 865.331 350.716C865.939 350.471 866.6 350.284 867.315 350.156L867.539 352.428C867.08 352.45 866.664 352.514 866.291 352.62C865.928 352.716 865.614 352.844 865.347 353.004C865.091 353.164 864.894 353.346 864.755 353.548C864.616 353.74 864.547 353.948 864.547 354.172C864.547 354.354 864.611 354.503 864.739 354.62C864.867 354.738 865.038 354.834 865.251 354.908C865.464 354.972 865.71 355.01 865.987 355.02C866.264 355.031 866.547 355.015 866.835 354.972C867.134 354.93 867.427 354.86 867.715 354.764L867.843 357.052ZM867.891 347.404C867.582 347.404 867.315 347.298 867.091 347.084C866.878 346.86 866.771 346.599 866.771 346.3C866.771 345.991 866.878 345.724 867.091 345.5C867.315 345.276 867.582 345.164 867.891 345.164C868.19 345.164 868.446 345.276 868.659 345.5C868.872 345.724 868.979 345.991 868.979 346.3C868.979 346.599 868.872 346.86 868.659 347.084C868.446 347.298 868.19 347.404 867.891 347.404ZM865.123 347.388C864.814 347.388 864.547 347.282 864.323 347.068C864.11 346.844 864.003 346.583 864.003 346.284C864.003 345.975 864.11 345.708 864.323 345.484C864.547 345.26 864.814 345.148 865.123 345.148C865.422 345.148 865.678 345.26 865.891 345.484C866.104 345.708 866.211 345.975 866.211 346.284C866.211 346.583 866.104 346.844 865.891 347.068C865.678 347.282 865.422 347.388 865.123 347.388ZM882.942 358.54C882.398 358.54 881.875 358.492 881.374 358.396C880.872 358.29 880.419 358.151 880.014 357.98C879.619 357.81 879.294 357.618 879.038 357.404L880.478 355.852C880.862 356.012 881.256 356.13 881.662 356.204C882.067 356.268 882.547 356.3 883.102 356.3C883.507 356.3 883.795 356.407 883.966 356.62C884.147 356.823 884.238 357.079 884.238 357.388C884.238 357.719 884.126 357.996 883.902 358.22C883.678 358.434 883.358 358.54 882.942 358.54ZM870.766 358.54L870.926 356.3H874.51C875.512 356.3 876.344 356.263 877.006 356.188C877.678 356.114 878.211 356.007 878.606 355.868C879 355.719 879.278 355.548 879.438 355.356C879.608 355.164 879.694 354.956 879.694 354.732C879.694 354.53 879.646 354.338 879.55 354.156C879.454 353.964 879.31 353.81 879.118 353.692C878.926 353.575 878.675 353.516 878.366 353.516C877.971 353.516 877.576 353.612 877.182 353.804C876.787 353.986 876.403 354.236 876.03 354.556C875.656 354.866 875.299 355.212 874.958 355.596C874.627 355.98 874.323 356.37 874.046 356.764L871.63 356.428C872.078 355.735 872.563 355.079 873.086 354.46C873.619 353.831 874.179 353.282 874.766 352.812C875.363 352.332 875.976 351.959 876.606 351.692C877.246 351.415 877.896 351.276 878.558 351.276C879.262 351.276 879.864 351.42 880.366 351.708C880.867 351.996 881.251 352.391 881.518 352.892C881.795 353.394 881.934 353.975 881.934 354.636C881.934 355.33 881.736 355.954 881.342 356.508C880.958 357.063 880.302 357.522 879.374 357.884C878.979 358.034 878.552 358.156 878.094 358.252C877.635 358.348 877.096 358.418 876.478 358.46C875.859 358.514 875.118 358.54 874.254 358.54H870.766ZM872.43 356.908L872.094 346.748H874.334L874.622 354.428L872.43 356.908ZM882.953 358.54L883.113 356.316C883.529 356.327 883.913 356.322 884.265 356.3C884.617 356.279 884.932 356.247 885.209 356.204C885.497 356.162 885.748 356.114 885.961 356.06C886.185 356.007 886.372 355.959 886.521 355.916C886.884 355.799 887.193 355.66 887.449 355.5C887.705 355.33 887.902 355.138 888.041 354.924C888.18 354.711 888.249 354.482 888.249 354.236C888.249 354.044 888.206 353.852 888.121 353.66C888.046 353.458 887.934 353.292 887.785 353.164C887.636 353.036 887.46 352.972 887.257 352.972C887.065 352.972 886.889 353.031 886.729 353.148C886.569 353.266 886.441 353.426 886.345 353.628C886.249 353.82 886.201 354.044 886.201 354.3C886.201 354.524 886.254 354.738 886.361 354.94C886.468 355.132 886.617 355.319 886.809 355.5C887.001 355.682 887.23 355.852 887.497 356.012L885.369 356.828C885.134 356.604 884.91 356.364 884.697 356.108C884.494 355.852 884.324 355.564 884.185 355.244C884.057 354.914 883.993 354.546 883.993 354.14C883.993 353.65 884.089 353.202 884.281 352.796C884.473 352.391 884.729 352.044 885.049 351.756C885.369 351.458 885.726 351.228 886.121 351.068C886.516 350.908 886.91 350.828 887.305 350.828C887.945 350.828 888.5 350.978 888.969 351.276C889.438 351.575 889.801 351.964 890.057 352.444C890.324 352.924 890.457 353.447 890.457 354.012C890.457 354.535 890.361 355.004 890.169 355.42C889.977 355.826 889.716 356.188 889.385 356.508C889.065 356.818 888.708 357.09 888.313 357.324C887.929 357.559 887.54 357.756 887.145 357.916C886.953 358.002 886.713 358.082 886.425 358.156C886.137 358.231 885.812 358.3 885.449 358.364C885.086 358.418 884.697 358.46 884.281 358.492C883.865 358.524 883.422 358.54 882.953 358.54ZM891.401 358.54C890.782 358.54 890.174 358.508 889.577 358.444C888.98 358.38 888.425 358.284 887.913 358.156C887.412 358.028 886.974 357.874 886.601 357.692L887.705 355.964C888.025 356.05 888.398 356.119 888.825 356.172C889.262 356.215 889.716 356.247 890.185 356.268C890.665 356.29 891.124 356.3 891.561 356.3C891.966 356.3 892.254 356.407 892.425 356.62C892.606 356.823 892.697 357.079 892.697 357.388C892.697 357.719 892.585 357.996 892.361 358.22C892.137 358.434 891.817 358.54 891.401 358.54ZM888.713 349.372C888.404 349.372 888.137 349.266 887.913 349.052C887.7 348.828 887.593 348.567 887.593 348.268C887.593 347.959 887.7 347.692 887.913 347.468C888.137 347.244 888.404 347.132 888.713 347.132C889.012 347.132 889.268 347.244 889.481 347.468C889.694 347.692 889.801 347.959 889.801 348.268C889.801 348.567 889.694 348.828 889.481 349.052C889.268 349.266 889.012 349.372 888.713 349.372ZM885.945 349.356C885.636 349.356 885.369 349.25 885.145 349.036C884.932 348.812 884.825 348.551 884.825 348.252C884.825 347.943 884.932 347.676 885.145 347.452C885.369 347.228 885.636 347.116 885.945 347.116C886.244 347.116 886.5 347.228 886.713 347.452C886.926 347.676 887.033 347.943 887.033 348.252C887.033 348.551 886.926 348.812 886.713 349.036C886.5 349.25 886.244 349.356 885.945 349.356ZM891.422 358.54L891.582 356.3C892.051 356.3 892.419 356.268 892.686 356.204C892.963 356.14 893.161 356.023 893.278 355.852C893.395 355.671 893.454 355.415 893.454 355.084C893.454 354.786 893.411 354.428 893.326 354.012C893.251 353.596 893.15 353.164 893.022 352.716C892.894 352.268 892.766 351.858 892.638 351.484L894.846 350.876C894.974 351.239 895.102 351.66 895.23 352.14C895.358 352.62 895.465 353.116 895.55 353.628C895.646 354.13 895.694 354.615 895.694 355.084C895.694 355.671 895.619 356.167 895.47 356.572C895.321 356.967 895.113 357.298 894.846 357.564C894.59 357.82 894.281 358.023 893.918 358.172C893.566 358.311 893.177 358.407 892.75 358.46C892.323 358.514 891.881 358.54 891.422 358.54ZM893.726 349.548C893.395 349.548 893.113 349.436 892.878 349.212C892.654 348.988 892.542 348.711 892.542 348.38C892.542 348.05 892.654 347.767 892.878 347.532C893.113 347.298 893.395 347.18 893.726 347.18C894.046 347.18 894.318 347.298 894.542 347.532C894.777 347.767 894.894 348.05 894.894 348.38C894.894 348.711 894.777 348.988 894.542 349.212C894.318 349.436 894.046 349.548 893.726 349.548Z" fill="#4D4D4D"/>
<path d="M515.412 361.995L514.948 359.755C515.705 359.659 516.367 359.542 516.932 359.403C517.497 359.275 517.972 359.094 518.356 358.859C518.74 358.624 519.028 358.304 519.22 357.899C519.412 357.483 519.508 356.95 519.508 356.299C519.508 355.67 519.412 355.168 519.22 354.795C519.028 354.422 518.772 354.235 518.452 354.235C518.228 354.235 518.041 354.315 517.892 354.475C517.743 354.624 517.631 354.806 517.556 355.019C517.492 355.222 517.46 355.403 517.46 355.563C517.46 355.659 517.487 355.76 517.54 355.867C517.593 355.974 517.711 356.064 517.892 356.139C518.073 356.214 518.356 356.256 518.74 356.267C519.135 356.278 519.668 356.24 520.34 356.155H523.028C523.433 356.155 523.721 356.262 523.892 356.475C524.073 356.678 524.164 356.934 524.164 357.243C524.164 357.574 524.052 357.851 523.828 358.075C523.604 358.288 523.284 358.395 522.868 358.395H518.468C517.796 358.395 517.22 358.315 516.74 358.155C516.26 357.995 515.892 357.739 515.636 357.387C515.38 357.024 515.252 356.544 515.252 355.947C515.252 355.467 515.332 354.987 515.492 354.507C515.663 354.027 515.897 353.59 516.196 353.195C516.495 352.79 516.841 352.47 517.236 352.235C517.641 351.99 518.079 351.867 518.548 351.867C519.188 351.867 519.748 352.064 520.228 352.459C520.708 352.854 521.081 353.376 521.348 354.027C521.625 354.678 521.764 355.387 521.764 356.155C521.764 357.36 521.508 358.384 520.996 359.227C520.484 360.07 519.753 360.72 518.804 361.179C517.855 361.648 516.724 361.92 515.412 361.995ZM522.891 358.395L523.051 356.155C523.317 356.155 523.52 356.102 523.659 355.995C523.797 355.888 523.936 355.702 524.075 355.435C524.213 355.168 524.405 354.806 524.651 354.347C524.917 353.835 525.195 353.408 525.483 353.067C525.771 352.715 526.059 352.438 526.347 352.235C526.645 352.022 526.939 351.872 527.227 351.787C527.525 351.691 527.819 351.643 528.107 351.643C528.501 351.643 528.869 351.728 529.211 351.899C529.563 352.059 529.899 352.342 530.219 352.747C530.539 353.142 530.843 353.686 531.131 354.379C531.333 354.859 531.536 355.227 531.739 355.483C531.941 355.739 532.149 355.915 532.363 356.011C532.587 356.107 532.811 356.155 533.035 356.155C533.44 356.155 533.728 356.262 533.899 356.475C534.069 356.678 534.155 356.934 534.155 357.243C534.155 357.574 534.043 357.851 533.819 358.075C533.595 358.288 533.28 358.395 532.875 358.395C532.352 358.395 531.877 358.31 531.451 358.139C531.024 357.968 530.688 357.712 530.443 357.371L530.907 357.019C530.811 357.243 530.667 357.478 530.475 357.723C530.293 357.968 530.053 358.176 529.755 358.347C529.467 358.518 529.12 358.603 528.715 358.603C528.448 358.603 528.133 358.55 527.771 358.443C527.419 358.347 527.051 358.182 526.667 357.947C526.293 357.702 525.947 357.371 525.627 356.955C525.424 357.328 525.2 357.622 524.955 357.835C524.709 358.038 524.421 358.182 524.091 358.267C523.76 358.352 523.36 358.395 522.891 358.395ZM526.555 355.067C526.661 355.227 526.789 355.387 526.939 355.547C527.088 355.707 527.253 355.851 527.435 355.979C527.616 356.096 527.808 356.192 528.011 356.267C528.224 356.342 528.432 356.379 528.635 356.379C528.848 356.379 529.024 356.299 529.163 356.139C529.301 355.968 529.307 355.718 529.179 355.387C529.125 355.248 529.051 355.094 528.955 354.923C528.869 354.742 528.768 354.571 528.651 354.411C528.544 354.251 528.421 354.118 528.283 354.011C528.155 353.904 528.021 353.851 527.883 353.851C527.744 353.851 527.6 353.894 527.451 353.979C527.301 354.064 527.152 354.198 527.003 354.379C526.853 354.55 526.704 354.779 526.555 355.067ZM532.875 358.395L533.035 356.155C533.44 356.155 533.76 356.118 533.995 356.043C534.24 355.968 534.432 355.819 534.571 355.595C534.72 355.36 534.843 355.019 534.939 354.571C535.046 354.123 535.152 353.526 535.259 352.779L537.355 353.131C537.334 353.291 537.302 353.478 537.259 353.691C537.227 353.904 537.195 354.123 537.163 354.347C537.142 354.56 537.131 354.763 537.131 354.955C537.131 355.211 537.184 355.43 537.291 355.611C537.408 355.782 537.611 355.915 537.899 356.011C538.198 356.107 538.624 356.155 539.179 356.155C539.584 356.155 539.872 356.262 540.043 356.475C540.214 356.678 540.299 356.934 540.299 357.243C540.299 357.574 540.187 357.851 539.963 358.075C539.75 358.288 539.435 358.395 539.019 358.395C538.283 358.395 537.686 358.326 537.227 358.187C536.768 358.048 536.427 357.814 536.203 357.483C535.979 357.152 535.835 356.699 535.771 356.123H536.539C536.347 356.635 536.123 357.046 535.867 357.355C535.611 357.654 535.323 357.878 535.003 358.027C534.683 358.176 534.342 358.272 533.979 358.315C533.627 358.368 533.259 358.395 532.875 358.395ZM536.139 351.147C535.808 351.147 535.526 351.035 535.291 350.811C535.067 350.587 534.955 350.31 534.955 349.979C534.955 349.648 535.067 349.366 535.291 349.131C535.526 348.896 535.808 348.779 536.139 348.779C536.459 348.779 536.731 348.896 536.955 349.131C537.19 349.366 537.307 349.648 537.307 349.979C537.307 350.31 537.19 350.587 536.955 350.811C536.731 351.035 536.459 351.147 536.139 351.147ZM539.016 358.395L539.176 356.155C539.666 356.155 540.018 356.107 540.232 356.011C540.445 355.904 540.573 355.712 540.616 355.435C540.658 355.147 540.669 354.731 540.648 354.187L540.36 346.603H542.616L542.936 354.347C542.957 354.966 542.93 355.526 542.856 356.027C542.792 356.518 542.626 356.939 542.36 357.291C542.104 357.643 541.704 357.915 541.16 358.107C540.626 358.299 539.912 358.395 539.016 358.395ZM545.046 358.315L544.71 346.603H546.95L547.286 358.315H545.046ZM561.568 358.395C560.811 358.395 560.155 358.299 559.6 358.107C559.056 357.904 558.635 357.584 558.336 357.147C558.037 356.699 557.867 356.102 557.824 355.355L557.536 348.907H559.792L560.064 354.571C560.085 355.008 560.155 355.344 560.272 355.579C560.4 355.803 560.581 355.958 560.816 356.043C561.051 356.118 561.355 356.155 561.728 356.155C562.133 356.155 562.421 356.262 562.592 356.475C562.763 356.678 562.848 356.934 562.848 357.243C562.848 357.574 562.736 357.851 562.512 358.075C562.299 358.288 561.984 358.395 561.568 358.395ZM558.64 356.907C557.925 357.067 557.237 357.142 556.576 357.131C555.915 357.11 555.323 356.992 554.8 356.779C554.277 356.555 553.861 356.235 553.552 355.819C553.253 355.403 553.104 354.875 553.104 354.235C553.104 353.67 553.227 353.158 553.472 352.699C553.728 352.23 554.08 351.819 554.528 351.467C554.987 351.115 555.52 350.816 556.128 350.571C556.736 350.326 557.397 350.139 558.112 350.011L558.336 352.283C557.877 352.304 557.461 352.368 557.088 352.475C556.725 352.571 556.411 352.699 556.144 352.859C555.888 353.019 555.691 353.2 555.552 353.403C555.413 353.595 555.344 353.803 555.344 354.027C555.344 354.208 555.408 354.358 555.536 354.475C555.664 354.592 555.835 354.688 556.048 354.763C556.261 354.827 556.507 354.864 556.784 354.875C557.061 354.886 557.344 354.87 557.632 354.827C557.931 354.784 558.224 354.715 558.512 354.619L558.64 356.907ZM558.688 347.259C558.379 347.259 558.112 347.152 557.888 346.939C557.675 346.715 557.568 346.454 557.568 346.155C557.568 345.846 557.675 345.579 557.888 345.355C558.112 345.131 558.379 345.019 558.688 345.019C558.987 345.019 559.243 345.131 559.456 345.355C559.669 345.579 559.776 345.846 559.776 346.155C559.776 346.454 559.669 346.715 559.456 346.939C559.243 347.152 558.987 347.259 558.688 347.259ZM555.92 347.243C555.611 347.243 555.344 347.136 555.12 346.923C554.907 346.699 554.8 346.438 554.8 346.139C554.8 345.83 554.907 345.563 555.12 345.339C555.344 345.115 555.611 345.003 555.92 345.003C556.219 345.003 556.475 345.115 556.688 345.339C556.901 345.563 557.008 345.83 557.008 346.139C557.008 346.438 556.901 346.699 556.688 346.923C556.475 347.136 556.219 347.243 555.92 347.243ZM561.562 358.395L561.723 356.155C562.224 356.155 562.576 356.107 562.779 356.011C562.992 355.904 563.12 355.712 563.163 355.435C563.205 355.147 563.216 354.731 563.195 354.187L562.939 346.603H565.211L565.483 354.171C565.504 354.704 565.568 355.115 565.674 355.403C565.781 355.691 565.957 355.888 566.203 355.995C566.459 356.102 566.8 356.155 567.227 356.155C567.632 356.155 567.92 356.262 568.091 356.475C568.261 356.678 568.347 356.934 568.347 357.243C568.347 357.574 568.235 357.851 568.011 358.075C567.787 358.288 567.472 358.395 567.067 358.395C566.597 358.395 566.16 358.342 565.755 358.235C565.349 358.128 565.013 357.926 564.747 357.627C564.48 357.328 564.304 356.896 564.219 356.331L564.923 356.347C564.741 356.902 564.507 357.328 564.219 357.627C563.931 357.915 563.568 358.118 563.131 358.235C562.704 358.342 562.181 358.395 561.562 358.395ZM567.062 358.395L567.223 356.155C567.799 356.155 568.369 356.123 568.935 356.059C569.5 355.995 570.049 355.899 570.583 355.771C571.116 355.643 571.623 355.478 572.103 355.275C572.593 355.072 573.052 354.827 573.479 354.539C573.159 354.347 572.812 354.182 572.439 354.043C572.065 353.904 571.665 353.803 571.239 353.739C570.823 353.664 570.38 353.627 569.911 353.627C569.74 353.627 569.559 353.632 569.367 353.643C569.185 353.654 568.999 353.675 568.807 353.707C568.615 353.728 568.423 353.76 568.231 353.803L567.911 351.611C568.22 351.526 568.545 351.467 568.887 351.435C569.239 351.392 569.548 351.371 569.815 351.371C570.391 351.371 570.919 351.435 571.399 351.563C571.889 351.691 572.337 351.851 572.743 352.043C573.159 352.235 573.543 352.427 573.895 352.619C574.257 352.811 574.599 352.971 574.919 353.099C575.249 353.227 575.569 353.291 575.878 353.291H576.47L576.727 355.419C576.268 355.44 575.836 355.531 575.431 355.691C575.036 355.84 574.641 356.032 574.247 356.267C573.863 356.491 573.447 356.726 572.999 356.971C572.561 357.216 572.065 357.446 571.511 357.659C570.956 357.872 570.316 358.048 569.591 358.187C568.865 358.326 568.023 358.395 567.062 358.395ZM576.74 362.011L575.924 360.027C576.49 359.835 577.007 359.611 577.476 359.355C577.956 359.099 578.372 358.816 578.724 358.507C579.076 358.198 579.348 357.862 579.54 357.499C579.732 357.126 579.828 356.726 579.828 356.299C579.828 355.851 579.727 355.36 579.524 354.827C579.322 354.294 579.076 353.75 578.788 353.195L580.884 352.187C581.076 352.518 581.242 352.875 581.38 353.259C581.53 353.632 581.652 353.968 581.748 354.267C581.844 354.566 581.908 354.768 581.94 354.875C582.09 355.387 582.292 355.728 582.548 355.899C582.815 356.07 583.242 356.155 583.828 356.155C584.234 356.155 584.522 356.262 584.692 356.475C584.874 356.678 584.964 356.934 584.964 357.243C584.964 357.574 584.852 357.851 584.628 358.075C584.404 358.288 584.084 358.395 583.668 358.395C583.231 358.395 582.847 358.331 582.516 358.203C582.186 358.075 581.919 357.888 581.716 357.643C581.524 357.398 581.402 357.11 581.348 356.779L581.94 357.115C581.876 357.68 581.69 358.214 581.38 358.715C581.082 359.227 580.692 359.696 580.212 360.123C579.732 360.55 579.194 360.923 578.596 361.243C577.999 361.563 577.38 361.819 576.74 362.011ZM583.688 358.395L583.848 356.155C584.093 356.155 584.301 356.096 584.472 355.979C584.653 355.851 584.84 355.643 585.032 355.355C585.224 355.056 585.448 354.656 585.704 354.155C586.024 353.515 586.354 353.014 586.696 352.651C587.048 352.288 587.405 352.032 587.768 351.883C588.141 351.723 588.514 351.643 588.888 351.643C589.357 351.643 589.794 351.744 590.2 351.947C590.605 352.15 590.957 352.427 591.256 352.779C591.554 353.12 591.784 353.515 591.944 353.963C592.114 354.4 592.2 354.854 592.2 355.323C592.2 355.888 592.077 356.4 591.832 356.859C591.597 357.307 591.266 357.664 590.84 357.931C590.424 358.187 589.944 358.315 589.4 358.315C588.941 358.315 588.408 358.235 587.799 358.075C587.192 357.915 586.552 357.579 585.88 357.067L586.696 355.131C587.176 355.462 587.624 355.702 588.04 355.851C588.466 356 588.818 356.075 589.096 356.075C589.309 356.075 589.485 356.054 589.624 356.011C589.762 355.968 589.864 355.899 589.928 355.803C589.992 355.707 590.024 355.579 590.024 355.419C590.024 355.195 589.97 354.966 589.864 354.731C589.757 354.496 589.613 354.299 589.432 354.139C589.261 353.968 589.058 353.883 588.824 353.883C588.6 353.883 588.408 353.968 588.248 354.139C588.098 354.299 587.949 354.534 587.799 354.843C587.661 355.142 587.49 355.494 587.288 355.899C587.042 356.39 586.802 356.8 586.568 357.131C586.333 357.451 586.082 357.707 585.816 357.899C585.56 358.08 585.256 358.208 584.904 358.283C584.562 358.358 584.157 358.395 583.688 358.395Z" fill="#4D4D4D"/>
<path d="M278.048 360.997C277.718 360.997 277.435 360.885 277.2 360.661C276.976 360.437 276.864 360.159 276.864 359.829C276.864 359.498 276.976 359.215 277.2 358.981C277.435 358.746 277.718 358.629 278.048 358.629C278.368 358.629 278.64 358.746 278.864 358.981C279.099 359.215 279.216 359.498 279.216 359.829C279.216 360.159 279.099 360.437 278.864 360.661C278.64 360.885 278.368 360.997 278.048 360.997ZM283.808 358.613C283.2 358.613 282.635 358.57 282.112 358.485C281.59 358.389 281.126 358.213 280.72 357.957C280.326 357.69 280 357.301 279.744 356.789C279.499 356.277 279.339 355.594 279.264 354.741L280.832 354.085C280.907 354.597 281.024 355.007 281.184 355.317C281.355 355.626 281.568 355.855 281.824 356.005C282.091 356.154 282.4 356.255 282.752 356.309C283.115 356.351 283.52 356.373 283.968 356.373C284.374 356.373 284.662 356.479 284.832 356.693C285.003 356.895 285.088 357.151 285.088 357.461C285.088 357.791 284.976 358.069 284.752 358.293C284.539 358.506 284.224 358.613 283.808 358.613ZM278.016 364.837C277.206 364.837 276.448 364.735 275.744 364.533C275.04 364.33 274.427 364.026 273.904 363.621C273.382 363.215 272.971 362.714 272.672 362.117C272.384 361.519 272.24 360.831 272.24 360.053C272.24 359.327 272.352 358.655 272.576 358.037C272.811 357.418 273.131 356.858 273.536 356.357C273.952 355.855 274.443 355.407 275.008 355.013C275.574 354.618 276.192 354.282 276.864 354.005C277.547 353.727 278.262 353.509 279.008 353.349L279.04 353.637C278.784 353.562 278.502 353.477 278.192 353.381C277.883 353.285 277.547 353.194 277.184 353.109C276.832 353.023 276.454 352.954 276.048 352.901C275.654 352.837 275.238 352.805 274.8 352.805C274.416 352.805 274.054 352.831 273.712 352.885C273.382 352.927 273.088 352.981 272.832 353.045L272.496 350.869C272.806 350.773 273.136 350.693 273.488 350.629C273.851 350.565 274.224 350.533 274.608 350.533C275.184 350.533 275.718 350.586 276.208 350.693C276.699 350.789 277.158 350.911 277.584 351.061C278.022 351.21 278.438 351.365 278.832 351.525C279.238 351.674 279.632 351.802 280.016 351.909C280.4 352.005 280.795 352.053 281.2 352.053H281.84L282.048 354.453C281.643 354.453 281.174 354.506 280.64 354.613C280.118 354.719 279.574 354.874 279.008 355.077C278.443 355.279 277.888 355.53 277.344 355.829C276.811 356.127 276.326 356.474 275.888 356.869C275.462 357.263 275.12 357.701 274.864 358.181C274.608 358.661 274.48 359.183 274.48 359.749C274.48 360.261 274.576 360.698 274.768 361.061C274.96 361.423 275.227 361.717 275.568 361.941C275.91 362.165 276.304 362.33 276.752 362.437C277.211 362.543 277.702 362.597 278.224 362.597C278.811 362.597 279.403 362.533 280 362.405C280.608 362.277 281.216 362.095 281.824 361.861L282.48 363.813C281.702 364.175 280.928 364.437 280.16 364.597C279.392 364.757 278.678 364.837 278.016 364.837ZM299.861 358.613C299.317 358.613 298.794 358.565 298.293 358.469C297.791 358.362 297.338 358.223 296.933 358.053C296.538 357.882 296.213 357.69 295.957 357.477L297.397 355.925C297.781 356.085 298.175 356.202 298.581 356.277C298.986 356.341 299.466 356.373 300.021 356.373C300.426 356.373 300.714 356.479 300.885 356.693C301.066 356.895 301.157 357.151 301.157 357.461C301.157 357.791 301.045 358.069 300.821 358.293C300.597 358.506 300.277 358.613 299.861 358.613ZM292.101 358.821C291.109 358.821 290.282 358.778 289.621 358.693C288.97 358.607 288.442 358.485 288.036 358.325C287.631 358.165 287.311 357.973 287.077 357.749C286.842 357.525 286.65 357.279 286.501 357.013L286.949 356.885C286.682 357.397 286.378 357.775 286.037 358.021C285.695 358.266 285.338 358.426 284.965 358.501C284.591 358.575 284.207 358.613 283.812 358.613L283.973 356.373C284.303 356.373 284.565 356.319 284.757 356.213C284.949 356.106 285.103 355.93 285.221 355.685C285.349 355.439 285.466 355.114 285.573 354.709C285.679 354.303 285.807 353.807 285.957 353.221L287.989 353.717C287.914 354.005 287.85 354.255 287.797 354.469C287.754 354.682 287.717 354.869 287.685 355.029C287.663 355.178 287.653 355.301 287.653 355.397C287.653 355.599 287.701 355.781 287.797 355.941C287.893 356.09 288.079 356.213 288.357 356.309C288.634 356.394 289.039 356.463 289.573 356.517C290.117 356.559 290.826 356.581 291.701 356.581C292.629 356.581 293.402 356.549 294.021 356.485C294.639 356.41 295.13 356.309 295.493 356.181C295.866 356.042 296.133 355.877 296.293 355.685C296.453 355.482 296.533 355.253 296.533 354.997C296.533 354.794 296.485 354.607 296.389 354.437C296.303 354.255 296.159 354.106 295.957 353.989C295.754 353.871 295.493 353.813 295.173 353.813C294.789 353.813 294.399 353.909 294.005 354.101C293.621 354.282 293.242 354.527 292.869 354.837C292.495 355.135 292.138 355.471 291.797 355.845C291.466 356.218 291.167 356.591 290.901 356.965L288.501 356.693C288.917 356.021 289.386 355.375 289.909 354.757C290.431 354.138 290.991 353.594 291.589 353.125C292.186 352.645 292.805 352.266 293.445 351.989C294.085 351.711 294.735 351.573 295.397 351.573C296.111 351.573 296.719 351.711 297.221 351.989C297.722 352.266 298.106 352.65 298.373 353.141C298.639 353.631 298.773 354.197 298.773 354.837C298.773 355.615 298.549 356.303 298.101 356.901C297.663 357.498 296.954 357.967 295.973 358.309C295.002 358.65 293.711 358.821 292.101 358.821ZM294.933 350.085C294.602 350.085 294.319 349.973 294.085 349.749C293.861 349.525 293.749 349.247 293.749 348.917C293.749 348.586 293.861 348.303 294.085 348.069C294.319 347.834 294.602 347.717 294.933 347.717C295.253 347.717 295.525 347.834 295.749 348.069C295.983 348.303 296.101 348.586 296.101 348.917C296.101 349.247 295.983 349.525 295.749 349.749C295.525 349.973 295.253 350.085 294.933 350.085ZM299.875 358.613L300.035 356.373C300.44 356.373 300.76 356.335 300.995 356.261C301.24 356.186 301.432 356.037 301.571 355.813C301.72 355.578 301.843 355.237 301.939 354.789C302.046 354.341 302.152 353.743 302.259 352.997L304.355 353.349C304.334 353.509 304.302 353.695 304.259 353.909C304.227 354.122 304.195 354.341 304.163 354.565C304.142 354.778 304.131 354.981 304.131 355.173C304.131 355.429 304.184 355.647 304.291 355.829C304.408 355.999 304.611 356.133 304.899 356.229C305.198 356.325 305.624 356.373 306.179 356.373C306.584 356.373 306.872 356.479 307.043 356.693C307.214 356.895 307.299 357.151 307.299 357.461C307.299 357.791 307.187 358.069 306.963 358.293C306.75 358.506 306.435 358.613 306.019 358.613C305.283 358.613 304.686 358.543 304.227 358.405C303.768 358.266 303.427 358.031 303.203 357.701C302.979 357.37 302.835 356.917 302.771 356.341H303.539C303.347 356.853 303.123 357.263 302.867 357.573C302.611 357.871 302.323 358.095 302.003 358.245C301.683 358.394 301.342 358.49 300.979 358.533C300.627 358.586 300.259 358.613 299.875 358.613ZM303.139 351.365C302.808 351.365 302.526 351.253 302.291 351.029C302.067 350.805 301.955 350.527 301.955 350.197C301.955 349.866 302.067 349.583 302.291 349.349C302.526 349.114 302.808 348.997 303.139 348.997C303.459 348.997 303.731 349.114 303.955 349.349C304.19 349.583 304.307 349.866 304.307 350.197C304.307 350.527 304.19 350.805 303.955 351.029C303.731 351.253 303.459 351.365 303.139 351.365ZM306.016 358.613L306.176 356.373C306.666 356.373 307.018 356.325 307.232 356.229C307.445 356.122 307.573 355.93 307.616 355.653C307.658 355.365 307.669 354.949 307.648 354.405L307.36 346.821H309.616L309.936 354.565C309.957 355.183 309.93 355.743 309.856 356.245C309.792 356.735 309.626 357.157 309.36 357.509C309.104 357.861 308.704 358.133 308.16 358.325C307.626 358.517 306.912 358.613 306.016 358.613ZM312.046 358.533L311.71 346.821H313.95L314.286 358.533H312.046ZM328.568 358.613C327.811 358.613 327.155 358.517 326.6 358.325C326.056 358.122 325.635 357.802 325.336 357.365C325.037 356.917 324.867 356.319 324.824 355.573L324.536 349.125H326.792L327.064 354.789C327.085 355.226 327.155 355.562 327.272 355.797C327.4 356.021 327.581 356.175 327.816 356.261C328.051 356.335 328.355 356.373 328.728 356.373C329.133 356.373 329.421 356.479 329.592 356.693C329.763 356.895 329.848 357.151 329.848 357.461C329.848 357.791 329.736 358.069 329.512 358.293C329.299 358.506 328.984 358.613 328.568 358.613ZM325.64 357.125C324.925 357.285 324.237 357.359 323.576 357.349C322.915 357.327 322.323 357.21 321.8 356.997C321.277 356.773 320.861 356.453 320.552 356.037C320.253 355.621 320.104 355.093 320.104 354.453C320.104 353.887 320.227 353.375 320.472 352.917C320.728 352.447 321.08 352.037 321.528 351.685C321.987 351.333 322.52 351.034 323.128 350.789C323.736 350.543 324.397 350.357 325.112 350.229L325.336 352.501C324.877 352.522 324.461 352.586 324.088 352.693C323.725 352.789 323.411 352.917 323.144 353.077C322.888 353.237 322.691 353.418 322.552 353.621C322.413 353.813 322.344 354.021 322.344 354.245C322.344 354.426 322.408 354.575 322.536 354.693C322.664 354.81 322.835 354.906 323.048 354.981C323.261 355.045 323.507 355.082 323.784 355.093C324.061 355.103 324.344 355.087 324.632 355.045C324.931 355.002 325.224 354.933 325.512 354.837L325.64 357.125ZM325.688 347.477C325.379 347.477 325.112 347.37 324.888 347.157C324.675 346.933 324.568 346.671 324.568 346.373C324.568 346.063 324.675 345.797 324.888 345.573C325.112 345.349 325.379 345.237 325.688 345.237C325.987 345.237 326.243 345.349 326.456 345.573C326.669 345.797 326.776 346.063 326.776 346.373C326.776 346.671 326.669 346.933 326.456 347.157C326.243 347.37 325.987 347.477 325.688 347.477ZM322.92 347.461C322.611 347.461 322.344 347.354 322.12 347.141C321.907 346.917 321.8 346.655 321.8 346.357C321.8 346.047 321.907 345.781 322.12 345.557C322.344 345.333 322.611 345.221 322.92 345.221C323.219 345.221 323.475 345.333 323.688 345.557C323.901 345.781 324.008 346.047 324.008 346.357C324.008 346.655 323.901 346.917 323.688 347.141C323.475 347.354 323.219 347.461 322.92 347.461ZM328.562 358.613L328.723 356.373C329.224 356.373 329.576 356.325 329.779 356.229C329.992 356.122 330.12 355.93 330.163 355.653C330.205 355.365 330.216 354.949 330.195 354.405L329.939 346.821H332.211L332.483 354.389C332.504 354.922 332.568 355.333 332.674 355.621C332.781 355.909 332.957 356.106 333.203 356.213C333.459 356.319 333.8 356.373 334.227 356.373C334.632 356.373 334.92 356.479 335.091 356.693C335.261 356.895 335.347 357.151 335.347 357.461C335.347 357.791 335.235 358.069 335.011 358.293C334.787 358.506 334.472 358.613 334.067 358.613C333.597 358.613 333.16 358.559 332.755 358.453C332.349 358.346 332.013 358.143 331.747 357.845C331.48 357.546 331.304 357.114 331.219 356.549L331.923 356.565C331.741 357.119 331.507 357.546 331.219 357.845C330.931 358.133 330.568 358.335 330.131 358.453C329.704 358.559 329.181 358.613 328.562 358.613ZM334.062 358.613L334.223 356.373C334.799 356.373 335.369 356.341 335.935 356.277C336.5 356.213 337.049 356.117 337.583 355.989C338.116 355.861 338.623 355.695 339.103 355.493C339.593 355.29 340.052 355.045 340.479 354.757C340.159 354.565 339.812 354.399 339.439 354.261C339.065 354.122 338.665 354.021 338.239 353.957C337.823 353.882 337.38 353.845 336.911 353.845C336.74 353.845 336.559 353.85 336.367 353.861C336.185 353.871 335.999 353.893 335.807 353.925C335.615 353.946 335.423 353.978 335.231 354.021L334.911 351.829C335.22 351.743 335.545 351.685 335.887 351.653C336.239 351.61 336.548 351.589 336.815 351.589C337.391 351.589 337.919 351.653 338.399 351.781C338.889 351.909 339.337 352.069 339.743 352.261C340.159 352.453 340.543 352.645 340.895 352.837C341.257 353.029 341.599 353.189 341.919 353.317C342.249 353.445 342.569 353.509 342.878 353.509H343.47L343.727 355.637C343.268 355.658 342.836 355.749 342.431 355.909C342.036 356.058 341.641 356.25 341.247 356.485C340.863 356.709 340.447 356.943 339.999 357.189C339.561 357.434 339.065 357.663 338.511 357.877C337.956 358.09 337.316 358.266 336.591 358.405C335.865 358.543 335.023 358.613 334.062 358.613ZM343.74 362.229L342.924 360.245C343.49 360.053 344.007 359.829 344.476 359.573C344.956 359.317 345.372 359.034 345.724 358.725C346.076 358.415 346.348 358.079 346.54 357.717C346.732 357.343 346.828 356.943 346.828 356.517C346.828 356.069 346.727 355.578 346.524 355.045C346.322 354.511 346.076 353.967 345.788 353.413L347.884 352.405C348.076 352.735 348.242 353.093 348.38 353.477C348.53 353.85 348.652 354.186 348.748 354.485C348.844 354.783 348.908 354.986 348.94 355.093C349.09 355.605 349.292 355.946 349.548 356.117C349.815 356.287 350.242 356.373 350.828 356.373C351.234 356.373 351.522 356.479 351.692 356.693C351.874 356.895 351.964 357.151 351.964 357.461C351.964 357.791 351.852 358.069 351.628 358.293C351.404 358.506 351.084 358.613 350.668 358.613C350.231 358.613 349.847 358.549 349.516 358.421C349.186 358.293 348.919 358.106 348.716 357.861C348.524 357.615 348.402 357.327 348.348 356.997L348.94 357.333C348.876 357.898 348.69 358.431 348.38 358.933C348.082 359.445 347.692 359.914 347.212 360.341C346.732 360.767 346.194 361.141 345.596 361.461C344.999 361.781 344.38 362.037 343.74 362.229ZM350.688 358.613L350.848 356.373C351.093 356.373 351.301 356.314 351.472 356.197C351.653 356.069 351.84 355.861 352.032 355.573C352.224 355.274 352.448 354.874 352.704 354.373C353.024 353.733 353.354 353.231 353.696 352.869C354.048 352.506 354.405 352.25 354.768 352.101C355.141 351.941 355.514 351.861 355.888 351.861C356.357 351.861 356.794 351.962 357.2 352.165C357.605 352.367 357.957 352.645 358.256 352.997C358.554 353.338 358.784 353.733 358.944 354.181C359.114 354.618 359.2 355.071 359.2 355.541C359.2 356.106 359.077 356.618 358.832 357.077C358.597 357.525 358.266 357.882 357.84 358.149C357.424 358.405 356.944 358.533 356.4 358.533C355.941 358.533 355.408 358.453 354.799 358.293C354.192 358.133 353.552 357.797 352.88 357.285L353.696 355.349C354.176 355.679 354.624 355.919 355.04 356.069C355.466 356.218 355.818 356.293 356.096 356.293C356.309 356.293 356.485 356.271 356.624 356.229C356.762 356.186 356.864 356.117 356.928 356.021C356.992 355.925 357.024 355.797 357.024 355.637C357.024 355.413 356.97 355.183 356.864 354.949C356.757 354.714 356.613 354.517 356.432 354.357C356.261 354.186 356.058 354.101 355.824 354.101C355.6 354.101 355.408 354.186 355.248 354.357C355.098 354.517 354.949 354.751 354.799 355.061C354.661 355.359 354.49 355.711 354.288 356.117C354.042 356.607 353.802 357.018 353.568 357.349C353.333 357.669 353.082 357.925 352.816 358.117C352.56 358.298 352.256 358.426 351.904 358.501C351.562 358.575 351.157 358.613 350.688 358.613ZM296.8 392.869L297.216 390.629C298.251 390.629 299.152 390.602 299.92 390.549C300.688 390.485 301.323 390.394 301.824 390.277C302.336 390.149 302.715 389.983 302.96 389.781C303.216 389.578 303.344 389.333 303.344 389.045C303.344 388.661 303.28 388.202 303.152 387.669C303.024 387.125 302.859 386.575 302.656 386.021L304.752 385.413C304.891 385.775 305.024 386.175 305.152 386.613C305.28 387.039 305.381 387.471 305.456 387.909C305.541 388.335 305.584 388.735 305.584 389.109C305.584 389.77 305.44 390.341 305.152 390.821C304.864 391.29 304.384 391.679 303.712 391.989C303.051 392.287 302.155 392.506 301.024 392.645C299.893 392.794 298.485 392.869 296.8 392.869ZM296.784 392.869C295.632 392.869 294.656 392.778 293.856 392.597C293.067 392.426 292.421 392.181 291.92 391.861C291.429 391.53 291.072 391.146 290.848 390.709C290.624 390.271 290.512 389.791 290.512 389.269C290.512 388.927 290.539 388.586 290.592 388.245C290.656 387.893 290.731 387.551 290.816 387.221C290.912 386.89 290.997 386.591 291.072 386.325L293.072 386.789C293.029 386.981 292.981 387.189 292.928 387.413C292.875 387.637 292.832 387.855 292.8 388.069C292.768 388.271 292.752 388.458 292.752 388.629C292.752 389.023 292.891 389.375 293.168 389.685C293.456 389.983 293.925 390.218 294.576 390.389C295.227 390.549 296.101 390.629 297.2 390.629L297.52 392.357L296.784 392.869ZM299.424 385.557C299.115 385.557 298.848 385.45 298.624 385.237C298.411 385.013 298.304 384.751 298.304 384.453C298.304 384.143 298.411 383.877 298.624 383.653C298.848 383.429 299.115 383.317 299.424 383.317C299.723 383.317 299.979 383.429 300.192 383.653C300.405 383.877 300.512 384.143 300.512 384.453C300.512 384.751 300.405 385.013 300.192 385.237C299.979 385.45 299.723 385.557 299.424 385.557ZM296.656 385.541C296.347 385.541 296.08 385.434 295.856 385.221C295.643 384.997 295.536 384.735 295.536 384.437C295.536 384.127 295.643 383.861 295.856 383.637C296.08 383.413 296.347 383.301 296.656 383.301C296.955 383.301 297.211 383.413 297.424 383.637C297.637 383.861 297.744 384.127 297.744 384.437C297.744 384.735 297.637 384.997 297.424 385.221C297.211 385.434 296.955 385.541 296.656 385.541ZM307.671 392.533L307.335 380.821H309.575L309.911 392.533H307.671ZM310.615 396.213L309.799 394.165C310.717 393.845 311.458 393.493 312.023 393.109C312.599 392.725 313.021 392.314 313.287 391.877C313.565 391.439 313.703 390.986 313.703 390.517C313.703 390.218 313.661 389.909 313.575 389.589C313.49 389.258 313.367 388.911 313.207 388.549C313.058 388.186 312.877 387.807 312.663 387.413L314.759 386.405C315.133 387.119 315.421 387.802 315.623 388.453C315.837 389.103 315.943 389.711 315.943 390.277C315.943 390.799 315.874 391.301 315.735 391.781C315.607 392.261 315.405 392.709 315.127 393.125C314.861 393.551 314.514 393.951 314.087 394.325C313.661 394.698 313.159 395.039 312.583 395.349C312.007 395.669 311.351 395.957 310.615 396.213ZM314.151 384.773C313.821 384.773 313.538 384.661 313.303 384.437C313.079 384.213 312.967 383.935 312.967 383.605C312.967 383.274 313.079 382.991 313.303 382.757C313.538 382.522 313.821 382.405 314.151 382.405C314.471 382.405 314.743 382.522 314.967 382.757C315.202 382.991 315.319 383.274 315.319 383.605C315.319 383.935 315.202 384.213 314.967 384.437C314.743 384.661 314.471 384.773 314.151 384.773ZM321.978 392.613C320.986 392.613 320.218 392.511 319.674 392.309C319.141 392.106 318.768 391.791 318.554 391.365C318.341 390.927 318.218 390.378 318.186 389.717L317.85 380.821H320.09L320.426 388.645C320.448 389.135 320.501 389.503 320.586 389.749C320.672 389.994 320.832 390.159 321.066 390.245C321.312 390.33 321.669 390.373 322.138 390.373C322.544 390.373 322.832 390.479 323.002 390.693C323.184 390.895 323.274 391.151 323.274 391.461C323.274 391.791 323.162 392.069 322.938 392.293C322.714 392.506 322.394 392.613 321.978 392.613ZM332.464 392.613C331.973 392.613 331.515 392.575 331.088 392.501C330.672 392.426 330.288 392.298 329.936 392.117C329.584 391.925 329.269 391.663 328.992 391.333C328.725 391.002 328.501 390.586 328.32 390.085L329.584 389.077C329.776 389.418 330.011 389.685 330.288 389.877C330.565 390.058 330.896 390.186 331.28 390.261C331.664 390.335 332.112 390.373 332.624 390.373C333.029 390.373 333.317 390.479 333.488 390.693C333.659 390.895 333.744 391.151 333.744 391.461C333.744 391.791 333.632 392.069 333.408 392.293C333.195 392.506 332.88 392.613 332.464 392.613ZM322 392.613L322.16 390.373C322.736 390.373 323.307 390.341 323.872 390.277C324.437 390.213 324.987 390.117 325.52 389.989C326.053 389.861 326.56 389.695 327.04 389.493C327.531 389.29 327.989 389.045 328.416 388.757C328.096 388.565 327.749 388.399 327.376 388.261C327.003 388.122 326.603 388.021 326.176 387.957C325.76 387.882 325.317 387.845 324.848 387.845C324.677 387.845 324.496 387.85 324.304 387.861C324.123 387.871 323.936 387.893 323.744 387.925C323.552 387.946 323.36 387.978 323.168 388.021L322.848 385.829C323.157 385.743 323.483 385.685 323.824 385.653C324.176 385.61 324.485 385.589 324.752 385.589C325.328 385.589 325.856 385.653 326.336 385.781C326.827 385.909 327.275 386.069 327.68 386.261C328.096 386.453 328.48 386.645 328.832 386.837C329.195 387.029 329.536 387.189 329.856 387.317C330.187 387.445 330.507 387.509 330.816 387.509H331.408L331.664 389.637C331.205 389.658 330.773 389.749 330.368 389.909C329.973 390.058 329.579 390.25 329.184 390.485C328.8 390.709 328.384 390.943 327.936 391.189C327.499 391.434 327.003 391.663 326.448 391.877C325.893 392.09 325.253 392.266 324.528 392.405C323.803 392.543 322.96 392.613 322 392.613ZM326.528 396.213C326.219 396.213 325.952 396.106 325.728 395.893C325.515 395.679 325.408 395.418 325.408 395.109C325.408 394.799 325.515 394.527 325.728 394.293C325.952 394.069 326.219 393.957 326.528 393.957C326.837 393.957 327.099 394.069 327.312 394.293C327.536 394.527 327.648 394.799 327.648 395.109C327.648 395.418 327.536 395.679 327.312 395.893C327.099 396.106 326.837 396.213 326.528 396.213ZM332.469 392.613L332.629 390.373C333.098 390.373 333.466 390.341 333.733 390.277C334.01 390.213 334.207 390.095 334.325 389.925C334.442 389.743 334.501 389.487 334.501 389.157C334.501 388.858 334.458 388.501 334.373 388.085C334.298 387.669 334.197 387.237 334.069 386.789C333.941 386.341 333.813 385.93 333.685 385.557L335.893 384.949C336.021 385.311 336.149 385.733 336.277 386.213C336.405 386.693 336.511 387.189 336.597 387.701C336.693 388.202 336.741 388.687 336.741 389.157C336.741 389.743 336.666 390.239 336.517 390.645C336.367 391.039 336.159 391.37 335.893 391.637C335.637 391.893 335.327 392.095 334.965 392.245C334.613 392.383 334.223 392.479 333.797 392.533C333.37 392.586 332.927 392.613 332.469 392.613ZM334.773 383.621C334.442 383.621 334.159 383.509 333.925 383.285C333.701 383.061 333.589 382.783 333.589 382.453C333.589 382.122 333.701 381.839 333.925 381.605C334.159 381.37 334.442 381.253 334.773 381.253C335.093 381.253 335.365 381.37 335.589 381.605C335.823 381.839 335.941 382.122 335.941 382.453C335.941 382.783 335.823 383.061 335.589 383.285C335.365 383.509 335.093 383.621 334.773 383.621ZM343.851 383.957C343.851 383.605 343.83 383.253 343.787 382.901C343.755 382.549 343.712 382.218 343.659 381.909C343.606 381.589 343.558 381.311 343.515 381.077L345.755 380.757C345.798 380.97 345.84 381.253 345.883 381.605C345.926 381.957 345.963 382.33 345.995 382.725C346.027 383.109 346.043 383.477 346.043 383.829C346.043 384.383 345.995 384.906 345.899 385.397C345.803 385.887 345.659 386.351 345.467 386.789C345.275 387.215 345.035 387.626 344.747 388.021L344.459 388.405C344.182 388.746 343.856 389.082 343.483 389.413C343.12 389.743 342.72 390.063 342.283 390.373H343.323C343.686 390.373 343.963 390.351 344.155 390.309C344.347 390.266 344.475 390.207 344.539 390.133C344.614 390.047 344.651 389.951 344.651 389.845C344.651 389.653 344.486 389.37 344.155 388.997C343.824 388.613 343.366 388.175 342.779 387.685C342.192 387.183 341.504 386.655 340.715 386.101C339.936 385.535 339.094 384.97 338.187 384.405L339.355 382.693C340.614 383.471 341.675 384.186 342.539 384.837C343.414 385.487 344.128 386.079 344.683 386.613C345.248 387.146 345.686 387.631 345.995 388.069C346.304 388.506 346.518 388.901 346.635 389.253C346.752 389.594 346.811 389.903 346.811 390.181C346.811 390.49 346.763 390.789 346.667 391.077C346.571 391.354 346.416 391.605 346.203 391.829C345.99 392.042 345.712 392.213 345.371 392.341C345.03 392.469 344.608 392.533 344.107 392.533H339.403V390.389C340.502 389.599 341.371 388.853 342.011 388.149C342.662 387.445 343.131 386.751 343.419 386.069C343.707 385.386 343.851 384.682 343.851 383.957ZM348.936 392.533L348.6 380.821H350.84L351.176 392.533H348.936ZM352.943 396.213L352.479 393.973C353.237 393.877 353.898 393.759 354.463 393.621C355.029 393.493 355.503 393.311 355.887 393.077C356.271 392.842 356.559 392.522 356.751 392.117C356.943 391.701 357.039 391.167 357.039 390.517C357.039 390.282 357.018 390.047 356.975 389.813C356.933 389.567 356.869 389.343 356.783 389.141C356.698 388.938 356.586 388.773 356.447 388.645C356.319 388.517 356.165 388.453 355.983 388.453C355.791 388.453 355.621 388.522 355.471 388.661C355.322 388.789 355.205 388.954 355.119 389.157C355.034 389.349 354.991 389.546 354.991 389.749C354.991 389.898 355.029 390.026 355.103 390.133C355.178 390.229 355.29 390.303 355.439 390.357C355.589 390.399 355.775 390.421 355.999 390.421C356.255 390.421 356.517 390.394 356.783 390.341C357.061 390.277 357.311 390.191 357.535 390.085L357.599 391.829C357.343 392.031 357.05 392.213 356.719 392.373C356.389 392.522 355.989 392.597 355.519 392.597C355.135 392.597 354.778 392.554 354.447 392.469C354.117 392.373 353.823 392.229 353.567 392.037C353.322 391.845 353.13 391.599 352.991 391.301C352.853 390.991 352.783 390.623 352.783 390.197C352.783 389.674 352.869 389.167 353.039 388.677C353.21 388.186 353.445 387.749 353.743 387.365C354.053 386.97 354.405 386.661 354.799 386.437C355.205 386.202 355.631 386.085 356.079 386.085C356.613 386.085 357.077 386.218 357.471 386.485C357.877 386.751 358.213 387.103 358.479 387.541C358.746 387.967 358.949 388.431 359.087 388.933C359.226 389.434 359.295 389.914 359.295 390.373C359.295 391.578 359.039 392.602 358.527 393.445C358.015 394.287 357.285 394.938 356.335 395.397C355.386 395.866 354.255 396.138 352.943 396.213Z" fill="#4D4D4D"/>
<path d="M31.5 247.315L169 102.815L232.5 49.8148L345.5 25.8148L442.5 59.3148L697.5 239.315L792.5 271.315H886L900 279.815V328.315H0V279.815L31.5 247.315Z" fill="url(#paint0_linear_1917_5352)"/>
<path d="M884 279.815C598.5 279.815 538 27.3148 328.5 27.3148C204 27.3148 84.2871 168.373 12 279.815" stroke="url(#paint1_linear_1917_5352)" stroke-width="24" stroke-linecap="round"/>
<path fill-rule="evenodd" clip-rule="evenodd" d="M884.5 289.315C883.672 289.315 883 289.872 883 290.56L883 327.07C883 327.758 883.672 328.315 884.5 328.315C885.328 328.315 886 327.758 886 327.07L886 290.56C886 289.872 885.328 289.315 884.5 289.315Z" fill="#7F7F7F"/>
<path d="M885 266.315C877.544 266.315 871.5 272.359 871.5 279.815C871.5 287.271 877.544 293.315 885 293.315C892.456 293.315 898.5 287.271 898.5 279.815C898.5 272.359 892.456 266.315 885 266.315Z" fill="white" stroke="#4BBF86" stroke-width="3"/>
<path fill-rule="evenodd" clip-rule="evenodd" d="M582.5 166.315C581.672 166.315 581 166.999 581 167.843L581 326.787C581 327.631 581.672 328.315 582.5 328.315C583.328 328.315 584 327.631 584 326.787L584 167.843C584 166.999 583.328 166.315 582.5 166.315Z" fill="#7F7F7F"/>
<path d="M583 144.551C575.544 144.551 569.5 150.595 569.5 158.051C569.5 165.507 575.544 171.551 583 171.551C590.456 171.551 596.5 165.507 596.5 158.051C596.5 150.595 590.456 144.551 583 144.551Z" fill="white" stroke="#4BBF86" stroke-width="3"/>
<path fill-rule="evenodd" clip-rule="evenodd" d="M351.5 36.3148C350.672 36.3148 350 36.9578 350 37.7509L350 326.879C350 327.672 350.672 328.315 351.5 328.315C352.328 328.315 353 327.672 353 326.879L353 37.7509C353 36.9578 352.328 36.3148 351.5 36.3148Z" fill="#4BBF86"/>
<path d="M351 14.8148C343.544 14.8148 337.5 20.859 337.5 28.3148C337.5 35.7707 343.544 41.8148 351 41.8148C358.456 41.8148 364.5 35.7707 364.5 28.3148C364.5 20.859 358.456 14.8148 351 14.8148Z" fill="white" stroke="#4BBF86" stroke-width="3"/>
<path fill-rule="evenodd" clip-rule="evenodd" d="M207.5 77.3148C206.672 77.3148 206 77.9682 206 78.7741L206 326.856C206 327.661 206.672 328.315 207.5 328.315C208.328 328.315 209 327.661 209 326.856L209 78.7741C209 77.9682 208.328 77.3148 207.5 77.3148Z" fill="#A6A6A6"/>
<path d="M207 54.8148C199.544 54.8148 193.5 60.859 193.5 68.3148C193.5 75.7707 199.544 81.8148 207 81.8148C214.456 81.8148 220.5 75.7707 220.5 68.3148C220.5 60.859 214.456 54.8148 207 54.8148Z" fill="white" stroke="#4BBF86" stroke-width="3"/>
<defs>
<linearGradient id="paint0_linear_1917_5352" x1="450" y1="25.8148" x2="450" y2="328.315" gradientUnits="userSpaceOnUse">
<stop stop-color="#DEF3E9"/>
<stop offset="1" stop-color="#5BA77F" stop-opacity="0.01"/>
</linearGradient>
<linearGradient id="paint1_linear_1917_5352" x1="655.5" y1="205.315" x2="52" y2="210.815" gradientUnits="userSpaceOnUse">
<stop offset="0.5" stop-color="#7F7F7F"/>
<stop offset="0.5" stop-color="#4BBF86"/>
<stop offset="0.740285" stop-color="#4BBF86"/>
<stop offset="0.740385" stop-color="#A6A6A6"/>
</linearGradient>
</defs>
</svg>
