<svg width="356" height="77" viewBox="0 0 356 77" fill="none" xmlns="http://www.w3.org/2000/svg">
<path d="M337.133 38.2677C337.133 49.4173 328.109 58.4881 316.913 58.4881C305.716 58.4881 296.692 49.4173 296.692 38.2677V0.0473022H278.645V38.2677C278.645 49.4173 269.574 58.4881 258.424 58.4881C247.275 58.4881 238.204 49.4173 238.204 38.2677V0.0473022H220.157V38.2677C220.157 41.1968 220.535 44.0314 221.149 46.8188L211.747 51.496C202.629 56.0786 192.425 58.4881 182.267 58.4881C167.905 58.4881 156.236 46.8188 156.236 32.5039V25.0866H138.189V32.5039C138.189 38.7401 139.511 44.6929 141.874 50.0787H138.283C125.763 50.0787 113.197 51.496 101.008 54.3306L99.3068 54.7086C88.3935 57.2125 77.2439 58.4881 66.0471 58.4881H70.6297C74.3148 52.6298 76.488 45.685 76.488 38.2677C76.488 17.1969 59.3384 0.0473022 38.2676 0.0473022H29.622C13.2756 0.0473022 0 13.3229 0 29.6693V38.6929H18.0472V29.6693C18.0472 23.2914 23.244 18.0945 29.622 18.0945H38.2676C49.4172 18.0945 58.488 27.1653 58.488 38.3149C58.488 49.4645 49.4172 58.5354 38.2676 58.5354H0.0472541V76.5825H38.2676C48.9448 76.5825 58.6298 72.1889 65.5746 65.1023V76.5825H66.0943C78.614 76.5825 91.1336 75.1652 103.37 72.3306L105.071 71.9526C115.937 69.4487 127.134 68.1731 138.33 68.1731H147.354V59.2912C155.433 69.7794 168.094 76.5353 182.267 76.5353C195.212 76.5353 208.204 73.4644 219.826 67.6534L229.228 62.9763C236.267 71.2912 246.708 76.5825 258.424 76.5825C270.141 76.5825 280.629 71.2912 287.668 62.929C294.661 71.2439 305.149 76.5353 316.865 76.5353C337.983 76.5353 355.133 59.3857 355.133 38.3149V37.6535H337.086V38.3149L337.133 38.2677Z" fill="#1E1E1E"/>
<path d="M156.378 0.0473022H138.33V18.0945H156.378V0.0473022Z" fill="#1E1E1E"/>
<path d="M337.18 28.9606H355.18V0H326.456V18.0472H337.18V28.9606Z" fill="#2FF291"/>
</svg>
